<?xml version="1.0" encoding="utf-8"?>
<!-- Generator: Adobe Illustrator 18.1.1, SVG Export Plug-In . SVG Version: 6.00 Build 0)  -->
<!DOCTYPE svg PUBLIC "-//W3C//DTD SVG 1.1//EN" "http://www.w3.org/Graphics/SVG/1.1/DTD/svg11.dtd">
<svg version="1.1" id="Layer_1" xmlns="http://www.w3.org/2000/svg" xmlns:xlink="http://www.w3.org/1999/xlink" x="0px" y="0px"
	 viewBox="20.3 17 9.8 14.3" enable-background="new 20.3 17 9.8 14.3" xml:space="preserve">
<path fill="#231F20" d="M28.4,23.5c-0.6-1.9-1.6-5-4.1-4.8c-0.6,0.1-0.6,1,0,0.9c0.2,0,0.4,0,0.6,0.1c-1.5,0.3-2.4,1.8-2.8,3.3
	c-0.4,1.8-0.5,4,0.9,5.4c1.2,1.1,3.7,1.8,5,0.7C29.5,27.8,28.9,25.1,28.4,23.5z M27.9,27.3c-0.2,1.2-1.1,1.5-2.2,1.4
	c-0.9-0.1-1.8-0.5-2.4-1.2c-0.5-0.7-0.6-1.7-0.6-2.6c0.1-1.7,0.8-4.5,3-4.2c0.1,0,0.2,0,0.2,0c0.2,0.3,0.4,0.6,0.5,0.9
	c0.5,0.9,0.8,1.9,1.1,2.9C27.9,25.3,28.1,26.3,27.9,27.3z"/>
</svg>
