<?xml version="1.0" encoding="utf-8"?>
<!-- Generator: Adobe Illustrator 18.1.1, SVG Export Plug-In . SVG Version: 6.00 Build 0)  -->
<!DOCTYPE svg PUBLIC "-//W3C//DTD SVG 1.1//EN" "http://www.w3.org/Graphics/SVG/1.1/DTD/svg11.dtd">
<svg version="1.1" id="Layer_1" xmlns="http://www.w3.org/2000/svg" xmlns:xlink="http://www.w3.org/1999/xlink" x="0px" y="0px"
	 viewBox="0 0 144 144" enable-background="new 0 0 144 144" xml:space="preserve">
<g>
	<g>
		<defs>
			<rect id="SVGID_25_" x="36.3" y="12.5" width="71.5" height="119"/>
		</defs>
		<clipPath id="SVGID_2_">
			<use xlink:href="#SVGID_25_"  overflow="visible"/>
		</clipPath>
		<path clip-path="url(#SVGID_2_)" fill="#231F20" d="M46.2,69c-0.2,0-0.3,0.1-0.5,0.1L50.5,94c0.2,0,0.3-0.1,0.5-0.1L46.2,69z"/>
		<path clip-path="url(#SVGID_2_)" fill="#231F20" d="M54.1,110.3L51.2,95c-0.2,0-0.3,0.1-0.5,0.1l2.9,15.3
			C53.7,110.4,53.9,110.4,54.1,110.3"/>
		<path clip-path="url(#SVGID_2_)" fill="#231F20" d="M41.3,43.2L36.7,19c-0.2,0.1-0.3,0.1-0.5,0.2l4.6,24.2
			C41,43.3,41.2,43.2,41.3,43.2"/>
		<path clip-path="url(#SVGID_2_)" fill="#231F20" d="M51.4,93.8l-4.7-25c-0.2,0-0.3,0.1-0.5,0.1l4.7,24.9
			C51.1,93.9,51.3,93.8,51.4,93.8"/>
		<path clip-path="url(#SVGID_2_)" fill="#231F20" d="M46,67.8l-4.5-23.5c-0.2,0.1-0.3,0.1-0.5,0.2L45.5,68
			C45.7,67.9,45.8,67.9,46,67.8"/>
		<path clip-path="url(#SVGID_2_)" fill="#231F20" d="M51.6,94.9c-0.2,0-0.3,0.1-0.5,0.1l2.9,15.3c0.2,0,0.3-0.1,0.5-0.1L51.6,94.9z
			"/>
		<path clip-path="url(#SVGID_2_)" fill="#231F20" d="M58.1,131.4l-1.6-8.3c-0.2,0-0.3,0.1-0.5,0.1l1.6,8.3
			C57.7,131.5,57.9,131.5,58.1,131.4"/>
		<path clip-path="url(#SVGID_2_)" fill="#231F20" d="M42,44.2c-0.2,0.1-0.3,0.1-0.5,0.2L46,67.8c0.2,0,0.3-0.1,0.5-0.1L42,44.2z"/>
		<path clip-path="url(#SVGID_2_)" fill="#231F20" d="M57,123c-0.2,0-0.3,0.1-0.5,0.1l1.6,8.3c0.2,0,0.3,0,0.5-0.1L57,123z"/>
		<path clip-path="url(#SVGID_2_)" fill="#231F20" d="M56.7,121.9l-2-10.6c-0.2,0-0.3,0.1-0.5,0.1l2,10.6
			C56.4,122,56.6,121.9,56.7,121.9"/>
		<path clip-path="url(#SVGID_2_)" fill="#231F20" d="M54.3,111.4c-0.2,0-0.3,0.1-0.5,0.1l2,10.5c0.2,0,0.3-0.1,0.5-0.1L54.3,111.4z
			"/>
		<path clip-path="url(#SVGID_2_)" fill="#231F20" d="M41.3,43.2c0.2-0.1,0.3-0.1,0.5-0.2l-4.6-24.2c-0.2,0.1-0.3,0.1-0.5,0.2
			L41.3,43.2z"/>
		<path clip-path="url(#SVGID_2_)" fill="#231F20" d="M56,110l-2.7-15.4c-0.2,0-0.3,0.1-0.5,0.1l2.7,15.4C55.7,110,55.9,110,56,110"
			/>
		<path clip-path="url(#SVGID_2_)" fill="#231F20" d="M57.8,122.9c-0.2,0-0.3,0.1-0.5,0.1l1.4,8.3c0.2,0,0.3,0,0.5-0.1L57.8,122.9z"
			/>
		<path clip-path="url(#SVGID_2_)" fill="#231F20" d="M55.6,110.1l-2.7-15.4c-0.2,0-0.3,0.1-0.5,0.1l2.7,15.4
			C55.2,110.1,55.4,110.1,55.6,110.1"/>
		<path clip-path="url(#SVGID_2_)" fill="#231F20" d="M43.8,42.4l-4.2-24.5c-0.2,0.1-0.3,0.1-0.5,0.2l4.2,24.5
			C43.5,42.5,43.7,42.4,43.8,42.4"/>
		<path clip-path="url(#SVGID_2_)" fill="#231F20" d="M43.8,42.4c0.2,0,0.3-0.1,0.5-0.1l-4.2-24.5c-0.2,0.1-0.3,0.1-0.5,0.2
			L43.8,42.4z"/>
		<path clip-path="url(#SVGID_2_)" fill="#231F20" d="M57.8,122.9l1.4,8.4c0.2,0,0.3,0,0.5-0.1l-1.4-8.4
			C58.1,122.9,57.9,122.9,57.8,122.9"/>
		<path clip-path="url(#SVGID_2_)" fill="#231F20" d="M56.2,111.1c-0.2,0-0.3,0.1-0.5,0.1l1.8,10.6c0.2,0,0.3,0,0.5-0.1L56.2,111.1z
			"/>
		<path clip-path="url(#SVGID_2_)" fill="#231F20" d="M55.8,111.2c-0.2,0-0.3,0.1-0.5,0.1l1.8,10.6c0.2,0,0.3-0.1,0.5-0.1
			L55.8,111.2z"/>
		<path clip-path="url(#SVGID_2_)" fill="#231F20" d="M48.6,67.2l-4.1-23.8c-0.2,0-0.3,0.1-0.5,0.1l4.1,23.7
			C48.3,67.2,48.5,67.2,48.6,67.2"/>
		<path clip-path="url(#SVGID_2_)" fill="#231F20" d="M53.2,93.4l-4.4-25.2c-0.2,0-0.3,0.1-0.5,0.1l4.4,25.1
			C52.9,93.5,53,93.5,53.2,93.4"/>
		<path clip-path="url(#SVGID_2_)" fill="#231F20" d="M48.2,67.3L44,43.5c-0.2,0-0.3,0.1-0.5,0.1l4.1,23.7
			C47.8,67.4,48,67.3,48.2,67.3"/>
		<path clip-path="url(#SVGID_2_)" fill="#231F20" d="M48.3,68.4c-0.2,0-0.3,0.1-0.5,0.1l4.3,25.1c0.2,0,0.3-0.1,0.5-0.1L48.3,68.4z
			"/>
		<path clip-path="url(#SVGID_2_)" fill="#231F20" d="M57.7,110.9c-0.2,0-0.3,0.1-0.5,0.1l1.7,10.7c0.2,0,0.3,0,0.5-0.1L57.7,110.9z
			"/>
		<path clip-path="url(#SVGID_2_)" fill="#231F20" d="M55,93.1l-4-25.3c-0.2,0-0.3,0.1-0.5,0.1l4,25.3C54.6,93.2,54.8,93.1,55,93.1"
			/>
		<path clip-path="url(#SVGID_2_)" fill="#231F20" d="M59.1,122.7c-0.2,0-0.3,0-0.5,0.1l1.3,8.4c0.2,0,0.3,0,0.5-0.1L59.1,122.7z"/>
		<path clip-path="url(#SVGID_2_)" fill="#231F20" d="M59.1,122.7l1.3,8.4c0.2,0,0.3,0,0.5-0.1l-1.3-8.4
			C59.4,122.7,59.3,122.7,59.1,122.7"/>
		<path clip-path="url(#SVGID_2_)" fill="#231F20" d="M58.9,121.6l-1.7-10.7c-0.2,0-0.3,0-0.5,0.1l1.7,10.7
			C58.6,121.6,58.8,121.6,58.9,121.6"/>
		<path clip-path="url(#SVGID_2_)" fill="#231F20" d="M57.6,109.7l-2.4-15.5c-0.2,0-0.3,0.1-0.5,0.1l2.4,15.5
			C57.2,109.8,57.4,109.8,57.6,109.7"/>
		<path clip-path="url(#SVGID_2_)" fill="#231F20" d="M50.8,66.6l-3.8-24c-0.2,0-0.3,0.1-0.5,0.1l3.8,24
			C50.5,66.7,50.7,66.7,50.8,66.6"/>
		<path clip-path="url(#SVGID_2_)" fill="#231F20" d="M57.1,109.8l-2.4-15.5c-0.2,0-0.3,0.1-0.5,0.1l2.4,15.5
			C56.8,109.9,56.9,109.8,57.1,109.8"/>
		<path clip-path="url(#SVGID_2_)" fill="#231F20" d="M50.3,66.7l-3.8-24c-0.2,0-0.3,0.1-0.5,0.1l3.7,23.9
			C50,66.8,50.2,66.8,50.3,66.7"/>
		<path clip-path="url(#SVGID_2_)" fill="#231F20" d="M46.4,41.7c0.2,0,0.3-0.1,0.5-0.1L43,16.8c-0.2,0-0.3,0.1-0.5,0.1L46.4,41.7z"
			/>
		<path clip-path="url(#SVGID_2_)" fill="#231F20" d="M54.5,93.2l-4-25.3c-0.2,0-0.3,0.1-0.5,0.1l4,25.3
			C54.2,93.3,54.3,93.2,54.5,93.2"/>
		<path clip-path="url(#SVGID_2_)" fill="#231F20" d="M46.4,41.7L42.5,17c-0.2,0-0.3,0.1-0.5,0.2l3.9,24.7
			C46.1,41.7,46.2,41.7,46.4,41.7"/>
		<path clip-path="url(#SVGID_2_)" fill="#231F20" d="M56.3,92.9l-3.6-25.5c-0.2,0-0.3,0.1-0.5,0.1L55.8,93
			C55.9,92.9,56.1,92.9,56.3,92.9"/>
		<path clip-path="url(#SVGID_2_)" fill="#231F20" d="M60.8,121.4l-1.5-10.7c-0.2,0-0.3,0-0.5,0.1l1.5,10.7
			C60.4,121.4,60.6,121.4,60.8,121.4"/>
		<path clip-path="url(#SVGID_2_)" fill="#231F20" d="M60.3,121.4l-1.5-10.7c-0.2,0-0.3,0-0.5,0.1l1.5,10.7
			C59.9,121.5,60.1,121.4,60.3,121.4"/>
		<path clip-path="url(#SVGID_2_)" fill="#231F20" d="M53,66.2L49.6,42c-0.2,0-0.3,0.1-0.5,0.1l3.4,24.1
			C52.7,66.2,52.9,66.2,53,66.2"/>
		<path clip-path="url(#SVGID_2_)" fill="#231F20" d="M52.5,66.3l-3.4-24.1c-0.2,0-0.3,0.1-0.5,0.1l3.4,24.1
			C52.2,66.3,52.4,66.3,52.5,66.3"/>
		<path clip-path="url(#SVGID_2_)" fill="#231F20" d="M58.6,109.6L56.4,94c-0.2,0-0.3,0.1-0.5,0.1l2.2,15.5
			C58.3,109.6,58.4,109.6,58.6,109.6"/>
		<path clip-path="url(#SVGID_2_)" fill="#231F20" d="M59.1,109.5l-2.2-15.6c-0.2,0-0.3,0.1-0.5,0.1l2.2,15.6
			C58.8,109.5,58.9,109.5,59.1,109.5"/>
		<path clip-path="url(#SVGID_2_)" fill="#231F20" d="M49,41c0.2,0,0.3-0.1,0.5-0.1L46,16c-0.2,0-0.3,0.1-0.5,0.1L49,41z"/>
		<path clip-path="url(#SVGID_2_)" fill="#231F20" d="M60.4,122.5c-0.2,0-0.3,0-0.5,0.1l1.2,8.4c0.2,0,0.3,0,0.5-0.1L60.4,122.5z"/>
		<path clip-path="url(#SVGID_2_)" fill="#231F20" d="M56.8,92.8l-3.6-25.5c-0.2,0-0.3,0.1-0.5,0.1l3.6,25.5
			C56.4,92.9,56.6,92.8,56.8,92.8"/>
		<path clip-path="url(#SVGID_2_)" fill="#231F20" d="M49,41l-3.5-24.9c-0.2,0-0.3,0.1-0.5,0.1l3.5,24.9C48.7,41.1,48.8,41,49,41"/>
		<path clip-path="url(#SVGID_2_)" fill="#231F20" d="M60.4,122.5l1.2,8.4c0.2,0,0.3,0,0.5-0.1l-1.2-8.4
			C60.7,122.5,60.6,122.5,60.4,122.5"/>
		<path clip-path="url(#SVGID_2_)" fill="#231F20" d="M54.8,65.8l-3-24.3c-0.2,0-0.3,0.1-0.5,0.1l3,24.3
			C54.4,65.9,54.6,65.9,54.8,65.8"/>
		<path clip-path="url(#SVGID_2_)" fill="#231F20" d="M62.1,121.2l-1.3-10.8c-0.2,0-0.3,0-0.5,0.1l1.3,10.8
			C61.8,121.2,61.9,121.2,62.1,121.2"/>
		<path clip-path="url(#SVGID_2_)" fill="#231F20" d="M58.1,92.6L54.9,67c-0.2,0-0.3,0.1-0.5,0.1l3.2,25.6
			C57.8,92.6,57.9,92.6,58.1,92.6"/>
		<path clip-path="url(#SVGID_2_)" fill="#231F20" d="M61.8,122.4l1,8.5c0.2,0,0.3,0,0.5,0l-1-8.5C62.1,122.4,61.9,122.4,61.8,122.4
			"/>
		<path clip-path="url(#SVGID_2_)" fill="#231F20" d="M58.6,92.5l-3.2-25.6c-0.2,0-0.3,0.1-0.5,0.1l3.2,25.6
			C58.2,92.6,58.4,92.6,58.6,92.5"/>
		<path clip-path="url(#SVGID_2_)" fill="#231F20" d="M60.6,109.3l-1.9-15.6c-0.2,0-0.3,0-0.5,0.1l1.9,15.6
			C60.3,109.3,60.5,109.3,60.6,109.3"/>
		<path clip-path="url(#SVGID_2_)" fill="#231F20" d="M60.1,109.4l-1.9-15.6c-0.2,0-0.3,0-0.5,0.1l1.9,15.6
			C59.8,109.4,60,109.4,60.1,109.4"/>
		<path clip-path="url(#SVGID_2_)" fill="#231F20" d="M61.6,121.3l-1.3-10.8c-0.2,0-0.3,0-0.5,0.1l1.3,10.8
			C61.3,121.3,61.5,121.3,61.6,121.3"/>
		<path clip-path="url(#SVGID_2_)" fill="#231F20" d="M61.8,122.4c-0.2,0-0.3,0-0.5,0.1l1,8.4c0.2,0,0.3,0,0.5-0.1L61.8,122.4z"/>
		<path clip-path="url(#SVGID_2_)" fill="#231F20" d="M51.6,40.4l-3.1-25.1c-0.2,0-0.3,0.1-0.5,0.1l3.1,25.1
			C51.3,40.5,51.5,40.4,51.6,40.4"/>
		<path clip-path="url(#SVGID_2_)" fill="#231F20" d="M51.6,40.4c0.2,0,0.3-0.1,0.5-0.1L49,15.2c-0.2,0-0.3,0.1-0.5,0.1L51.6,40.4z"
			/>
		<path clip-path="url(#SVGID_2_)" fill="#231F20" d="M55.2,65.8l-3-24.3c-0.2,0-0.3,0.1-0.5,0.1l3,24.3
			C54.9,65.8,55.1,65.8,55.2,65.8"/>
		<path clip-path="url(#SVGID_2_)" fill="#231F20" d="M63.5,121.1l-1.2-10.8c-0.2,0-0.3,0-0.5,0.1l1.2,10.8
			C63.1,121.1,63.3,121.1,63.5,121.1"/>
		<path clip-path="url(#SVGID_2_)" fill="#231F20" d="M63.1,122.3c-0.2,0-0.3,0-0.5,0l0.9,8.5c0.2,0,0.3,0,0.5,0L63.1,122.3z"/>
		<path clip-path="url(#SVGID_2_)" fill="#231F20" d="M63.1,122.3l0.9,8.5c0.2,0,0.3,0,0.5,0l-0.9-8.5
			C63.4,122.2,63.3,122.2,63.1,122.3"/>
		<path clip-path="url(#SVGID_2_)" fill="#231F20" d="M54.3,39.9l-2.7-25.2c-0.2,0-0.3,0.1-0.5,0.1l2.7,25.2
			C53.9,39.9,54.1,39.9,54.3,39.9"/>
		<path clip-path="url(#SVGID_2_)" fill="#231F20" d="M59.9,92.4l-2.8-25.8c-0.2,0-0.3,0.1-0.5,0.1l2.8,25.7
			C59.6,92.4,59.7,92.4,59.9,92.4"/>
		<path clip-path="url(#SVGID_2_)" fill="#231F20" d="M60.4,92.3l-2.8-25.8c-0.2,0-0.3,0.1-0.5,0.1l2.8,25.8
			C60.1,92.3,60.2,92.3,60.4,92.3"/>
		<path clip-path="url(#SVGID_2_)" fill="#231F20" d="M57,65.5L54.4,41c-0.2,0-0.3,0.1-0.5,0.1l2.6,24.4
			C56.7,65.5,56.9,65.5,57,65.5"/>
		<path clip-path="url(#SVGID_2_)" fill="#231F20" d="M61.7,109.2L60,93.5c-0.2,0-0.3,0-0.5,0.1l1.7,15.7
			C61.4,109.2,61.5,109.2,61.7,109.2"/>
		<path clip-path="url(#SVGID_2_)" fill="#231F20" d="M63,121.1l-1.2-10.8c-0.2,0-0.3,0-0.5,0.1l1.2,10.8
			C62.7,121.1,62.8,121.1,63,121.1"/>
		<path clip-path="url(#SVGID_2_)" fill="#231F20" d="M57.5,65.4l-2.6-24.5c-0.2,0-0.3,0.1-0.5,0.1L57,65.5
			C57.2,65.4,57.3,65.4,57.5,65.4"/>
		<path clip-path="url(#SVGID_2_)" fill="#231F20" d="M62.2,109.1l-1.7-15.7c-0.2,0-0.3,0-0.5,0.1l1.7,15.7
			C61.9,109.2,62,109.1,62.2,109.1"/>
		<path clip-path="url(#SVGID_2_)" fill="#231F20" d="M54.3,39.9c0.2,0,0.3-0.1,0.5-0.1L52,14.5c-0.2,0-0.3,0.1-0.5,0.1L54.3,39.9z"
			/>
		<path clip-path="url(#SVGID_2_)" fill="#231F20" d="M59.8,65.1l-2.2-24.6c-0.2,0-0.3,0.1-0.5,0.1l2.2,24.6
			C59.4,65.1,59.6,65.1,59.8,65.1"/>
		<path clip-path="url(#SVGID_2_)" fill="#231F20" d="M59.3,65.1L57,40.5c-0.2,0-0.3,0.1-0.5,0.1l2.2,24.6
			C59,65.2,59.1,65.1,59.3,65.1"/>
		<path clip-path="url(#SVGID_2_)" fill="#231F20" d="M64.3,121l-1-10.8c-0.2,0-0.3,0-0.5,0l1,10.8C64,121,64.2,121,64.3,121"/>
		<path clip-path="url(#SVGID_2_)" fill="#231F20" d="M56.9,39.4L54.6,14c-0.2,0-0.3,0.1-0.5,0.1l2.3,25.4
			C56.6,39.4,56.8,39.4,56.9,39.4"/>
		<path clip-path="url(#SVGID_2_)" fill="#231F20" d="M63.7,109l-1.4-15.8c-0.2,0-0.3,0-0.5,0.1l1.4,15.8
			C63.4,109,63.6,109,63.7,109"/>
		<path clip-path="url(#SVGID_2_)" fill="#231F20" d="M61.7,92.1l-2.3-25.9c-0.2,0-0.3,0-0.5,0.1l2.3,25.9
			C61.4,92.2,61.6,92.1,61.7,92.1"/>
		<path clip-path="url(#SVGID_2_)" fill="#231F20" d="M56.9,39.4c0.2,0,0.3-0.1,0.5-0.1l-2.3-25.4C55,14,54.8,14,54.6,14L56.9,39.4z
			"/>
		<path clip-path="url(#SVGID_2_)" fill="#231F20" d="M62.2,92.1l-2.3-25.9c-0.2,0-0.3,0-0.5,0.1l2.3,25.9
			C61.9,92.1,62,92.1,62.2,92.1"/>
		<path clip-path="url(#SVGID_2_)" fill="#231F20" d="M63.3,109l-1.4-15.8c-0.2,0-0.3,0-0.5,0.1l1.4,15.7
			C62.9,109.1,63.1,109,63.3,109"/>
		<path clip-path="url(#SVGID_2_)" fill="#231F20" d="M64.4,122.1l0.8,8.5c0.2,0,0.3,0,0.5,0l-0.8-8.5
			C64.8,122.1,64.6,122.1,64.4,122.1"/>
		<path clip-path="url(#SVGID_2_)" fill="#231F20" d="M64.8,121l-1-10.8c-0.2,0-0.3,0-0.5,0l1,10.8C64.5,121,64.7,121,64.8,121"/>
		<path clip-path="url(#SVGID_2_)" fill="#231F20" d="M64.4,122.1c-0.2,0-0.3,0-0.5,0l0.8,8.5c0.2,0,0.3,0,0.5,0L64.4,122.1z"/>
		<path clip-path="url(#SVGID_2_)" fill="#231F20" d="M63.6,91.9l-1.9-26c-0.2,0-0.3,0-0.5,0.1l1.9,26C63.2,92,63.4,92,63.6,91.9"/>
		<path clip-path="url(#SVGID_2_)" fill="#231F20" d="M65.8,122l0.6,8.5c0.2,0,0.3,0,0.5,0l-0.6-8.5C66.1,122,66,122,65.8,122"/>
		<path clip-path="url(#SVGID_2_)" fill="#231F20" d="M64.1,91.9l-1.9-26c-0.2,0-0.3,0-0.5,0.1l1.9,26
			C63.7,91.9,63.9,91.9,64.1,91.9"/>
		<path clip-path="url(#SVGID_2_)" fill="#231F20" d="M59.6,39c0.2,0,0.3,0,0.5-0.1l-1.9-25.5c-0.2,0-0.3,0-0.5,0.1L59.6,39z"/>
		<path clip-path="url(#SVGID_2_)" fill="#231F20" d="M62,64.8l-1.8-24.7c-0.2,0-0.3,0-0.5,0.1l1.8,24.7
			C61.7,64.8,61.9,64.8,62,64.8"/>
		<path clip-path="url(#SVGID_2_)" fill="#231F20" d="M64.8,108.9l-1.2-15.8c-0.2,0-0.3,0-0.5,0l1.2,15.8
			C64.5,108.9,64.7,108.9,64.8,108.9"/>
		<path clip-path="url(#SVGID_2_)" fill="#231F20" d="M65.8,122c-0.2,0-0.3,0-0.5,0l0.6,8.5c0.2,0,0.3,0,0.5,0L65.8,122z"/>
		<path clip-path="url(#SVGID_2_)" fill="#231F20" d="M61.6,64.8l-1.8-24.7c-0.2,0-0.3,0-0.5,0.1l1.8,24.7
			C61.2,64.9,61.4,64.9,61.6,64.8"/>
		<path clip-path="url(#SVGID_2_)" fill="#231F20" d="M59.6,39l-1.9-25.5c-0.2,0-0.3,0-0.5,0.1l1.9,25.5C59.3,39,59.5,39,59.6,39"/>
		<path clip-path="url(#SVGID_2_)" fill="#231F20" d="M66.2,120.9L65.4,110c-0.2,0-0.3,0-0.5,0l0.8,10.9
			C65.9,120.9,66,120.9,66.2,120.9"/>
		<path clip-path="url(#SVGID_2_)" fill="#231F20" d="M65.3,108.9L64.1,93c-0.2,0-0.3,0-0.5,0l1.2,15.8
			C65,108.9,65.1,108.9,65.3,108.9"/>
		<path clip-path="url(#SVGID_2_)" fill="#231F20" d="M65.7,120.9L64.9,110c-0.2,0-0.3,0-0.5,0l0.8,10.9
			C65.4,120.9,65.6,120.9,65.7,120.9"/>
		<path clip-path="url(#SVGID_2_)" fill="#231F20" d="M66.4,108.8l-0.9-15.8c-0.2,0-0.3,0-0.5,0l0.9,15.8
			C66.1,108.8,66.2,108.8,66.4,108.8"/>
		<path clip-path="url(#SVGID_2_)" fill="#231F20" d="M65.4,91.8l-1.5-26c-0.2,0-0.3,0-0.5,0l1.5,26C65.1,91.8,65.3,91.8,65.4,91.8"
			/>
		<path clip-path="url(#SVGID_2_)" fill="#231F20" d="M65.9,91.8l-1.5-26c-0.2,0-0.3,0-0.5,0l1.5,26C65.6,91.8,65.7,91.8,65.9,91.8"
			/>
		<path clip-path="url(#SVGID_2_)" fill="#231F20" d="M64.3,64.6l-1.4-24.8c-0.2,0-0.3,0-0.5,0.1l1.4,24.8
			C64,64.6,64.2,64.6,64.3,64.6"/>
		<path clip-path="url(#SVGID_2_)" fill="#231F20" d="M67.6,120.8l-0.6-10.9c-0.2,0-0.3,0-0.5,0l0.6,10.9
			C67.3,120.8,67.4,120.8,67.6,120.8"/>
		<path clip-path="url(#SVGID_2_)" fill="#231F20" d="M66.9,108.7L66,92.9c-0.2,0-0.3,0-0.5,0l0.9,15.8
			C66.6,108.8,66.7,108.8,66.9,108.7"/>
		<path clip-path="url(#SVGID_2_)" fill="#231F20" d="M63.8,64.6l-1.4-24.8c-0.2,0-0.3,0-0.5,0.1l1.4,24.8
			C63.5,64.6,63.7,64.6,63.8,64.6"/>
		<path clip-path="url(#SVGID_2_)" fill="#231F20" d="M62.4,38.7c0.2,0,0.3,0,0.5-0.1l-1.5-25.6c-0.2,0-0.3,0-0.5,0.1L62.4,38.7z"/>
		<path clip-path="url(#SVGID_2_)" fill="#231F20" d="M67.2,121.9c-0.2,0-0.3,0-0.5,0l0.5,8.5c0.2,0,0.3,0,0.5,0L67.2,121.9z"/>
		<path clip-path="url(#SVGID_2_)" fill="#231F20" d="M67.2,121.9l0.5,8.5c0.2,0,0.3,0,0.5,0l-0.5-8.5
			C67.5,121.9,67.3,121.9,67.2,121.9"/>
		<path clip-path="url(#SVGID_2_)" fill="#231F20" d="M62.4,38.7l-1.5-25.6c-0.2,0-0.3,0-0.5,0.1l1.5,25.6
			C62,38.7,62.2,38.7,62.4,38.7"/>
		<path clip-path="url(#SVGID_2_)" fill="#231F20" d="M67.1,120.8l-0.6-10.9c-0.2,0-0.3,0-0.5,0l0.6,10.9
			C66.8,120.8,66.9,120.8,67.1,120.8"/>
		<path clip-path="url(#SVGID_2_)" fill="#231F20" d="M69,120.7l-0.4-10.9c-0.2,0-0.3,0-0.5,0l0.4,10.9
			C68.6,120.7,68.8,120.7,69,120.7"/>
		<path clip-path="url(#SVGID_2_)" fill="#231F20" d="M66.2,64.4l-1-24.9c-0.2,0-0.3,0-0.5,0l1,24.9C65.8,64.5,66,64.5,66.2,64.4"/>
		<path clip-path="url(#SVGID_2_)" fill="#231F20" d="M65.1,38.4L64,12.8c-0.2,0-0.3,0-0.5,0l1.1,25.6
			C64.8,38.5,64.9,38.5,65.1,38.4"/>
		<path clip-path="url(#SVGID_2_)" fill="#231F20" d="M65.1,38.4c0.2,0,0.3,0,0.5,0l-1.1-25.6c-0.2,0-0.3,0-0.5,0L65.1,38.4z"/>
		<path clip-path="url(#SVGID_2_)" fill="#231F20" d="M67.3,91.7l-1.1-26.1c-0.2,0-0.3,0-0.5,0l1.1,26.1
			C66.9,91.7,67.1,91.7,67.3,91.7"/>
		<path clip-path="url(#SVGID_2_)" fill="#231F20" d="M68.5,120.7L68,109.8c-0.2,0-0.3,0-0.5,0l0.4,10.9
			C68.1,120.7,68.3,120.7,68.5,120.7"/>
		<path clip-path="url(#SVGID_2_)" fill="#231F20" d="M68.5,121.9l0.4,8.5c0.2,0,0.3,0,0.5,0l-0.4-8.5
			C68.8,121.9,68.7,121.9,68.5,121.9"/>
		<path clip-path="url(#SVGID_2_)" fill="#231F20" d="M68.5,121.9c-0.2,0-0.3,0-0.5,0l0.4,8.5c0.2,0,0.3,0,0.5,0L68.5,121.9z"/>
		<path clip-path="url(#SVGID_2_)" fill="#231F20" d="M66.6,64.4l-1-24.9c-0.2,0-0.3,0-0.5,0l1,24.9C66.3,64.4,66.5,64.4,66.6,64.4"
			/>
		<path clip-path="url(#SVGID_2_)" fill="#231F20" d="M67.8,91.7l-1.1-26.1c-0.2,0-0.3,0-0.5,0l1.1,26.1
			C67.4,91.7,67.6,91.7,67.8,91.7"/>
		<path clip-path="url(#SVGID_2_)" fill="#231F20" d="M68,108.7l-0.7-15.9c-0.2,0-0.3,0-0.5,0l0.7,15.9
			C67.6,108.7,67.8,108.7,68,108.7"/>
		<path clip-path="url(#SVGID_2_)" fill="#231F20" d="M68.5,108.7l-0.7-15.9c-0.2,0-0.3,0-0.5,0l0.7,15.9
			C68.1,108.7,68.3,108.7,68.5,108.7"/>
		<path clip-path="url(#SVGID_2_)" fill="#231F20" d="M67.8,38.3l-0.6-25.7c-0.2,0-0.3,0-0.5,0l0.6,25.7
			C67.5,38.3,67.7,38.3,67.8,38.3"/>
		<path clip-path="url(#SVGID_2_)" fill="#231F20" d="M69.9,121.8c-0.2,0-0.3,0-0.5,0l0.2,8.6c0.2,0,0.3,0,0.5,0L69.9,121.8z"/>
		<path clip-path="url(#SVGID_2_)" fill="#231F20" d="M70.3,120.7l-0.3-10.9c-0.2,0-0.3,0-0.5,0l0.3,10.9
			C70,120.7,70.2,120.7,70.3,120.7"/>
		<path clip-path="url(#SVGID_2_)" fill="#231F20" d="M69,64.3l-0.6-24.9c-0.2,0-0.3,0-0.5,0l0.6,24.9C68.6,64.3,68.8,64.3,69,64.3"
			/>
		<path clip-path="url(#SVGID_2_)" fill="#231F20" d="M69.8,120.7l-0.3-10.9c-0.2,0-0.3,0-0.5,0l0.3,10.9
			C69.5,120.7,69.7,120.7,69.8,120.7"/>
		<path clip-path="url(#SVGID_2_)" fill="#231F20" d="M70,108.6l-0.4-15.9c-0.2,0-0.3,0-0.5,0l0.4,15.9
			C69.7,108.6,69.9,108.6,70,108.6"/>
		<path clip-path="url(#SVGID_2_)" fill="#231F20" d="M68.5,64.3l-0.6-24.9c-0.2,0-0.3,0-0.5,0L68,64.3
			C68.1,64.3,68.3,64.3,68.5,64.3"/>
		<path clip-path="url(#SVGID_2_)" fill="#231F20" d="M69.6,108.6l-0.4-15.9c-0.2,0-0.3,0-0.5,0l0.4,15.9
			C69.2,108.6,69.4,108.6,69.6,108.6"/>
		<path clip-path="url(#SVGID_2_)" fill="#231F20" d="M69.9,121.8l0.2,8.6c0.2,0,0.3,0,0.5,0l-0.2-8.6
			C70.2,121.8,70,121.8,69.9,121.8"/>
		<path clip-path="url(#SVGID_2_)" fill="#231F20" d="M69.6,91.6L69,65.4c-0.2,0-0.3,0-0.5,0l0.6,26.1
			C69.3,91.6,69.5,91.6,69.6,91.6"/>
		<path clip-path="url(#SVGID_2_)" fill="#231F20" d="M69.1,91.6l-0.6-26.1c-0.2,0-0.3,0-0.5,0l0.6,26.1
			C68.8,91.6,69,91.6,69.1,91.6"/>
		<path clip-path="url(#SVGID_2_)" fill="#231F20" d="M67.8,38.3c0.2,0,0.3,0,0.5,0l-0.6-25.7c-0.2,0-0.3,0-0.5,0L67.8,38.3z"/>
		<path clip-path="url(#SVGID_2_)" fill="#231F20" d="M70.6,38.2l-0.2-25.7c-0.2,0-0.3,0-0.5,0l0.2,25.7
			C70.2,38.2,70.4,38.2,70.6,38.2"/>
		<path clip-path="url(#SVGID_2_)" fill="#231F20" d="M71.2,120.7l-0.1-10.9c-0.2,0-0.3,0-0.5,0l0.1,10.9
			C70.9,120.7,71.1,120.7,71.2,120.7"/>
		<path clip-path="url(#SVGID_2_)" fill="#231F20" d="M70.6,38.2c0.2,0,0.3,0,0.5,0l-0.2-25.7c-0.2,0-0.3,0-0.5,0L70.6,38.2z"/>
		<path clip-path="url(#SVGID_2_)" fill="#231F20" d="M71.6,108.6l-0.1-15.9c-0.2,0-0.3,0-0.5,0l0.1,15.9
			C71.3,108.6,71.5,108.6,71.6,108.6"/>
		<path clip-path="url(#SVGID_2_)" fill="#231F20" d="M71.1,108.6L71,92.7c-0.2,0-0.3,0-0.5,0l0.1,15.9
			C70.8,108.6,71,108.6,71.1,108.6"/>
		<path clip-path="url(#SVGID_2_)" fill="#231F20" d="M71.2,121.8l0.1,8.6c0.2,0,0.3,0,0.5,0l-0.1-8.6
			C71.6,121.8,71.4,121.8,71.2,121.8"/>
		<path clip-path="url(#SVGID_2_)" fill="#231F20" d="M70.8,64.2l-0.2-24.9c-0.2,0-0.3,0-0.5,0l0.2,24.9
			C70.5,64.3,70.6,64.2,70.8,64.2"/>
		<path clip-path="url(#SVGID_2_)" fill="#231F20" d="M71.5,91.5l-0.2-26.2c-0.2,0-0.3,0-0.5,0L71,91.5
			C71.2,91.5,71.3,91.5,71.5,91.5"/>
		<path clip-path="url(#SVGID_2_)" fill="#231F20" d="M71.3,64.2l-0.2-24.9c-0.2,0-0.3,0-0.5,0l0.2,24.9
			C70.9,64.2,71.1,64.2,71.3,64.2"/>
		<path clip-path="url(#SVGID_2_)" fill="#231F20" d="M71.2,121.8c-0.2,0-0.3,0-0.5,0l0.1,8.6c0.2,0,0.3,0,0.5,0L71.2,121.8z"/>
		<path clip-path="url(#SVGID_2_)" fill="#231F20" d="M71.7,120.6l-0.1-10.9c-0.2,0-0.3,0-0.5,0l0.1,10.9
			C71.4,120.7,71.6,120.7,71.7,120.6"/>
		<path clip-path="url(#SVGID_2_)" fill="#231F20" d="M71,91.5l-0.2-26.2c-0.2,0-0.3,0-0.5,0l0.2,26.2C70.7,91.6,70.8,91.5,71,91.5"
			/>
		<path clip-path="url(#SVGID_2_)" fill="#231F20" d="M73.6,64.2l0.2-24.9c-0.2,0-0.3,0-0.5,0l-0.2,24.9
			C73.3,64.2,73.4,64.2,73.6,64.2"/>
		<path clip-path="url(#SVGID_2_)" fill="#231F20" d="M72.8,64.2c0.1,0,0.2,0,0.3,0l0.2-24.9c-0.2,0-0.3,0-0.5,0l-0.2,24.9
			C72.7,64.2,72.7,64.2,72.8,64.2"/>
		<path clip-path="url(#SVGID_2_)" fill="#231F20" d="M73.3,38.2l0.2-25.7c-0.2,0-0.3,0-0.5,0l-0.2,25.7
			C73,38.2,73.2,38.2,73.3,38.2"/>
		<path clip-path="url(#SVGID_2_)" fill="#231F20" d="M72.8,108.6c0.1,0,0.3,0,0.4,0l0.1-15.9c-0.2,0-0.3,0-0.5,0L72.8,108.6
			C72.7,108.6,72.8,108.6,72.8,108.6"/>
		<path clip-path="url(#SVGID_2_)" fill="#231F20" d="M72.7,108.6l0.1-15.9c0,0,0,0-0.1,0c-0.1,0-0.3,0-0.4,0l-0.1,15.9
			C72.4,108.6,72.6,108.6,72.7,108.6"/>
		<path clip-path="url(#SVGID_2_)" fill="#231F20" d="M72.8,120.6c0.1,0,0.2,0,0.3,0l0.1-10.9c-0.1,0-0.3,0-0.4,0c0,0-0.1,0-0.1,0
			l-0.1,10.9C72.7,120.6,72.7,120.6,72.8,120.6"/>
		<path clip-path="url(#SVGID_2_)" fill="#231F20" d="M72.6,120.6l0.1-10.9c-0.2,0-0.3,0-0.5,0l-0.1,10.9
			C72.3,120.6,72.5,120.6,72.6,120.6"/>
		<path clip-path="url(#SVGID_2_)" fill="#231F20" d="M72.8,121.8c-0.1,0-0.1,0-0.2,0l-0.1,8.6c0.1,0,0.2,0,0.3,0c0.1,0,0.1,0,0.2,0
			l0.1-8.6C73,121.8,72.9,121.8,72.8,121.8"/>
		<path clip-path="url(#SVGID_2_)" fill="#231F20" d="M72.6,121.8c-0.2,0-0.3,0-0.5,0l-0.1,8.6c0.2,0,0.3,0,0.5,0L72.6,121.8z"/>
		<path clip-path="url(#SVGID_2_)" fill="#231F20" d="M73.4,91.5l0.2-26.2c-0.2,0-0.3,0-0.5,0l-0.2,26.2
			C73,91.5,73.2,91.5,73.4,91.5"/>
		<path clip-path="url(#SVGID_2_)" fill="#231F20" d="M73.3,38.2c0.2,0,0.3,0,0.5,0L74,12.5c-0.2,0-0.3,0-0.5,0L73.3,38.2z"/>
		<path clip-path="url(#SVGID_2_)" fill="#231F20" d="M72.8,91.5C72.8,91.5,72.8,91.5,72.8,91.5l0.3-26.2c-0.1,0-0.2,0-0.3,0
			c-0.1,0-0.1,0-0.2,0l-0.2,26.2C72.5,91.5,72.7,91.5,72.8,91.5"/>
		<path clip-path="url(#SVGID_2_)" fill="#231F20" d="M74,121.8l-0.2,8.6c0.2,0,0.3,0,0.5,0l0.2-8.6C74.3,121.8,74.1,121.8,74,121.8
			"/>
		<path clip-path="url(#SVGID_2_)" fill="#231F20" d="M74.8,108.6l0.4-15.9c-0.2,0-0.3,0-0.5,0l-0.4,15.9
			C74.5,108.6,74.6,108.6,74.8,108.6"/>
		<path clip-path="url(#SVGID_2_)" fill="#231F20" d="M74,121.8c-0.2,0-0.3,0-0.5,0l-0.2,8.6c0.2,0,0.3,0,0.5,0L74,121.8z"/>
		<path clip-path="url(#SVGID_2_)" fill="#231F20" d="M74,120.6l0.3-10.9c-0.2,0-0.3,0-0.5,0l-0.3,10.9
			C73.7,120.6,73.8,120.6,74,120.6"/>
		<path clip-path="url(#SVGID_2_)" fill="#231F20" d="M74.3,108.6l0.4-15.9c-0.2,0-0.3,0-0.5,0l-0.4,15.9
			C74,108.6,74.1,108.6,74.3,108.6"/>
		<path clip-path="url(#SVGID_2_)" fill="#231F20" d="M76.1,38.2c0.2,0,0.3,0,0.5,0l0.6-25.6c-0.2,0-0.3,0-0.5,0L76.1,38.2z"/>
		<path clip-path="url(#SVGID_2_)" fill="#231F20" d="M75.2,91.6l0.7-26.1c-0.2,0-0.3,0-0.5,0l-0.7,26.2
			C74.9,91.6,75.1,91.6,75.2,91.6"/>
		<path clip-path="url(#SVGID_2_)" fill="#231F20" d="M74.7,91.5l0.7-26.2c-0.2,0-0.3,0-0.5,0l-0.7,26.2
			C74.4,91.5,74.6,91.5,74.7,91.5"/>
		<path clip-path="url(#SVGID_2_)" fill="#231F20" d="M74.5,120.7l0.3-10.9c-0.2,0-0.3,0-0.5,0L74,120.6
			C74.2,120.7,74.3,120.7,74.5,120.7"/>
		<path clip-path="url(#SVGID_2_)" fill="#231F20" d="M76.1,38.2l0.6-25.6c-0.2,0-0.3,0-0.5,0l-0.6,25.6
			C75.7,38.2,75.9,38.2,76.1,38.2"/>
		<path clip-path="url(#SVGID_2_)" fill="#231F20" d="M75.4,64.3L76,39.3c-0.2,0-0.3,0-0.5,0l-0.6,24.9
			C75.1,64.3,75.2,64.3,75.4,64.3"/>
		<path clip-path="url(#SVGID_2_)" fill="#231F20" d="M75.9,64.3l0.6-24.9c-0.2,0-0.3,0-0.5,0l-0.6,24.9
			C75.6,64.3,75.7,64.3,75.9,64.3"/>
		<path clip-path="url(#SVGID_2_)" fill="#231F20" d="M75.3,121.8c-0.2,0-0.3,0-0.5,0l-0.4,8.6c0.2,0,0.3,0,0.5,0L75.3,121.8z"/>
		<path clip-path="url(#SVGID_2_)" fill="#231F20" d="M77.7,64.3l1-24.9c-0.2,0-0.3,0-0.5,0l-1,24.9C77.4,64.3,77.6,64.3,77.7,64.3"
			/>
		<path clip-path="url(#SVGID_2_)" fill="#231F20" d="M77.1,91.6l1.1-26.1c-0.2,0-0.3,0-0.5,0l-1.1,26.1
			C76.8,91.6,76.9,91.6,77.1,91.6"/>
		<path clip-path="url(#SVGID_2_)" fill="#231F20" d="M76.4,108.6L77,92.8c-0.2,0-0.3,0-0.5,0l-0.7,15.9
			C76.1,108.6,76.2,108.6,76.4,108.6"/>
		<path clip-path="url(#SVGID_2_)" fill="#231F20" d="M78.8,38.3c0.2,0,0.3,0,0.5,0l1.1-25.5c-0.2,0-0.3,0-0.5,0L78.8,38.3z"/>
		<path clip-path="url(#SVGID_2_)" fill="#231F20" d="M75.3,121.8l-0.4,8.6c0.2,0,0.3,0,0.5,0l0.4-8.5
			C75.7,121.8,75.5,121.8,75.3,121.8"/>
		<path clip-path="url(#SVGID_2_)" fill="#231F20" d="M75.9,108.6l0.7-15.9c-0.2,0-0.3,0-0.5,0l-0.7,15.9
			C75.6,108.6,75.7,108.6,75.9,108.6"/>
		<path clip-path="url(#SVGID_2_)" fill="#231F20" d="M78.2,64.4l1-24.9c-0.2,0-0.3,0-0.5,0l-1,24.9C77.9,64.4,78.1,64.4,78.2,64.4"
			/>
		<path clip-path="url(#SVGID_2_)" fill="#231F20" d="M78.8,38.3l1.1-25.5c-0.2,0-0.3,0-0.5,0l-1.1,25.5
			C78.5,38.3,78.6,38.3,78.8,38.3"/>
		<path clip-path="url(#SVGID_2_)" fill="#231F20" d="M76.6,91.6l1.1-26.1c-0.2,0-0.3,0-0.5,0l-1.1,26.1
			C76.3,91.6,76.4,91.6,76.6,91.6"/>
		<path clip-path="url(#SVGID_2_)" fill="#231F20" d="M75.9,120.7l0.5-10.9c-0.2,0-0.3,0-0.5,0l-0.5,10.9
			C75.6,120.7,75.7,120.7,75.9,120.7"/>
		<path clip-path="url(#SVGID_2_)" fill="#231F20" d="M75.4,120.7l0.5-10.9c-0.2,0-0.3,0-0.5,0l-0.5,10.9
			C75.1,120.7,75.2,120.7,75.4,120.7"/>
		<path clip-path="url(#SVGID_2_)" fill="#231F20" d="M76.7,121.9c-0.2,0-0.3,0-0.5,0l-0.5,8.5c0.2,0,0.3,0,0.5,0L76.7,121.9z"/>
		<path clip-path="url(#SVGID_2_)" fill="#231F20" d="M77.3,120.7l0.6-10.9c-0.2,0-0.3,0-0.5,0l-0.6,10.9
			C76.9,120.7,77.1,120.7,77.3,120.7"/>
		<path clip-path="url(#SVGID_2_)" fill="#231F20" d="M76.7,121.9l-0.5,8.5c0.2,0,0.3,0,0.5,0l0.5-8.5
			C77,121.9,76.9,121.9,76.7,121.9"/>
		<path clip-path="url(#SVGID_2_)" fill="#231F20" d="M80.5,64.5L82,39.7c-0.2,0-0.3,0-0.5,0L80,64.5C80.2,64.5,80.4,64.5,80.5,64.5
			"/>
		<path clip-path="url(#SVGID_2_)" fill="#231F20" d="M76.8,120.7l0.6-10.9c-0.2,0-0.3,0-0.5,0l-0.6,10.9
			C76.4,120.7,76.6,120.7,76.8,120.7"/>
		<path clip-path="url(#SVGID_2_)" fill="#231F20" d="M81.5,38.5L83,13.1c-0.2,0-0.3,0-0.5-0.1l-1.5,25.5
			C81.2,38.5,81.4,38.5,81.5,38.5"/>
		<path clip-path="url(#SVGID_2_)" fill="#231F20" d="M78.9,91.7l1.5-26.1c-0.2,0-0.3,0-0.5,0l-1.5,26.1
			C78.6,91.7,78.8,91.7,78.9,91.7"/>
		<path clip-path="url(#SVGID_2_)" fill="#231F20" d="M78.5,91.7L80,65.6c-0.2,0-0.3,0-0.5,0L78,91.7C78.1,91.7,78.3,91.7,78.5,91.7
			"/>
		<path clip-path="url(#SVGID_2_)" fill="#231F20" d="M77.5,108.7l0.9-15.9c-0.2,0-0.3,0-0.5,0L77,108.7
			C77.1,108.7,77.3,108.7,77.5,108.7"/>
		<path clip-path="url(#SVGID_2_)" fill="#231F20" d="M81.5,38.5c0.2,0,0.3,0,0.5,0l1.5-25.4c-0.2,0-0.3,0-0.5-0.1L81.5,38.5z"/>
		<path clip-path="url(#SVGID_2_)" fill="#231F20" d="M80,64.5l1.4-24.8c-0.2,0-0.3,0-0.5,0l-1.4,24.8C79.7,64.5,79.9,64.5,80,64.5"
			/>
		<path clip-path="url(#SVGID_2_)" fill="#231F20" d="M78,108.7l0.9-15.9c-0.2,0-0.3,0-0.5,0l-0.9,15.9
			C77.6,108.7,77.8,108.7,78,108.7"/>
		<path clip-path="url(#SVGID_2_)" fill="#231F20" d="M78.6,120.8l0.8-10.9c-0.2,0-0.3,0-0.5,0l-0.8,10.9
			C78.3,120.8,78.5,120.8,78.6,120.8"/>
		<path clip-path="url(#SVGID_2_)" fill="#231F20" d="M78.1,120.8l0.8-10.9c-0.2,0-0.3,0-0.5,0l-0.8,10.9
			C77.8,120.8,78,120.8,78.1,120.8"/>
		<path clip-path="url(#SVGID_2_)" fill="#231F20" d="M82.3,64.7l1.8-24.7c-0.2,0-0.3,0-0.5-0.1l-1.8,24.7
			C82,64.6,82.2,64.7,82.3,64.7"/>
		<path clip-path="url(#SVGID_2_)" fill="#231F20" d="M80.8,91.8l1.9-26c-0.2,0-0.3,0-0.5,0l-1.9,26C80.5,91.8,80.6,91.8,80.8,91.8"
			/>
		<path clip-path="url(#SVGID_2_)" fill="#231F20" d="M79.5,108.8L80.7,93c-0.2,0-0.3,0-0.5,0L79,108.8
			C79.2,108.8,79.4,108.8,79.5,108.8"/>
		<path clip-path="url(#SVGID_2_)" fill="#231F20" d="M84.3,38.8c0.2,0,0.3,0,0.5,0.1l1.9-25.3c-0.2,0-0.3,0-0.5-0.1L84.3,38.8z"/>
		<path clip-path="url(#SVGID_2_)" fill="#231F20" d="M80.3,91.8l1.9-26c-0.2,0-0.3,0-0.5,0l-1.9,26C80,91.8,80.1,91.8,80.3,91.8"/>
		<path clip-path="url(#SVGID_2_)" fill="#231F20" d="M82.8,64.7L84.7,40c-0.2,0-0.3,0-0.5-0.1l-1.8,24.7
			C82.5,64.7,82.7,64.7,82.8,64.7"/>
		<path clip-path="url(#SVGID_2_)" fill="#231F20" d="M84.3,38.8l1.9-25.3c-0.2,0-0.3,0-0.5-0.1l-1.9,25.3
			C83.9,38.8,84.1,38.8,84.3,38.8"/>
		<path clip-path="url(#SVGID_2_)" fill="#231F20" d="M79,108.8l1.2-15.8c-0.2,0-0.3,0-0.5,0l-1.2,15.8
			C78.7,108.7,78.9,108.8,79,108.8"/>
		<path clip-path="url(#SVGID_2_)" fill="#231F20" d="M78.1,121.9l-0.6,8.5c0.2,0,0.3,0,0.5,0l0.6-8.5
			C78.4,121.9,78.2,121.9,78.1,121.9"/>
		<path clip-path="url(#SVGID_2_)" fill="#231F20" d="M78.1,121.9c-0.2,0-0.3,0-0.5,0l-0.6,8.5c0.2,0,0.3,0,0.5,0L78.1,121.9z"/>
		<path clip-path="url(#SVGID_2_)" fill="#231F20" d="M79.4,122c-0.2,0-0.3,0-0.5,0l-0.8,8.5c0.2,0,0.3,0,0.5,0L79.4,122z"/>
		<path clip-path="url(#SVGID_2_)" fill="#231F20" d="M82.2,92L84.5,66c-0.2,0-0.3,0-0.5-0.1l-2.4,25.9C81.8,91.9,82,91.9,82.2,92"
			/>
		<path clip-path="url(#SVGID_2_)" fill="#231F20" d="M87,39.1c0.2,0,0.3,0,0.5,0.1L89.8,14c-0.2,0-0.3-0.1-0.5-0.1L87,39.1z"/>
		<path clip-path="url(#SVGID_2_)" fill="#231F20" d="M82.6,92L85,66.1c-0.2,0-0.3,0-0.5-0.1L82.2,92C82.3,92,82.5,92,82.6,92"/>
		<path clip-path="url(#SVGID_2_)" fill="#231F20" d="M79.4,122l-0.8,8.5c0.2,0,0.3,0,0.5,0l0.8-8.5C79.7,122,79.6,122,79.4,122"/>
		<path clip-path="url(#SVGID_2_)" fill="#231F20" d="M79.5,120.9l1-10.9c-0.2,0-0.3,0-0.5,0l-1,10.9
			C79.2,120.8,79.4,120.9,79.5,120.9"/>
		<path clip-path="url(#SVGID_2_)" fill="#231F20" d="M85.1,65l2.2-24.6c-0.2,0-0.3,0-0.5-0.1l-2.2,24.6C84.8,64.9,85,65,85.1,65"/>
		<path clip-path="url(#SVGID_2_)" fill="#231F20" d="M84.6,64.9l2.2-24.6c-0.2,0-0.3,0-0.5-0.1l-2.2,24.6
			C84.3,64.9,84.5,64.9,84.6,64.9"/>
		<path clip-path="url(#SVGID_2_)" fill="#231F20" d="M80.6,108.9l1.4-15.8c-0.2,0-0.3,0-0.5,0l-1.4,15.8
			C80.3,108.9,80.5,108.9,80.6,108.9"/>
		<path clip-path="url(#SVGID_2_)" fill="#231F20" d="M87,39.1L89.3,14c-0.2,0-0.3-0.1-0.5-0.1l-2.3,25.2
			C86.7,39.1,86.8,39.1,87,39.1"/>
		<path clip-path="url(#SVGID_2_)" fill="#231F20" d="M80,120.9l1-10.8c-0.2,0-0.3,0-0.5,0l-1,10.9C79.7,120.9,79.8,120.9,80,120.9"
			/>
		<path clip-path="url(#SVGID_2_)" fill="#231F20" d="M81.1,108.9l1.4-15.8c-0.2,0-0.3,0-0.5,0l-1.4,15.8
			C80.8,108.9,80.9,108.9,81.1,108.9"/>
		<path clip-path="url(#SVGID_2_)" fill="#231F20" d="M81.4,121l1.2-10.8c-0.2,0-0.3,0-0.5,0L80.9,121C81.1,121,81.2,121,81.4,121"
			/>
		<path clip-path="url(#SVGID_2_)" fill="#231F20" d="M87.4,65.3L90,40.8c-0.2,0-0.3-0.1-0.5-0.1l-2.6,24.5
			C87.1,65.2,87.2,65.3,87.4,65.3"/>
		<path clip-path="url(#SVGID_2_)" fill="#231F20" d="M89.7,39.6l2.7-25c-0.2,0-0.3-0.1-0.5-0.1l-2.7,25
			C89.3,39.5,89.5,39.5,89.7,39.6"/>
		<path clip-path="url(#SVGID_2_)" fill="#231F20" d="M86.9,65.2l2.6-24.5c-0.2,0-0.3-0.1-0.5-0.1l-2.6,24.5
			C86.6,65.2,86.7,65.2,86.9,65.2"/>
		<path clip-path="url(#SVGID_2_)" fill="#231F20" d="M82.7,109.1l1.7-15.7c-0.2,0-0.3,0-0.5-0.1L82.2,109
			C82.3,109,82.5,109,82.7,109.1"/>
		<path clip-path="url(#SVGID_2_)" fill="#231F20" d="M80.9,121l1.2-10.8c-0.2,0-0.3,0-0.5,0l-1.2,10.8
			C80.6,120.9,80.7,121,80.9,121"/>
		<path clip-path="url(#SVGID_2_)" fill="#231F20" d="M82.2,109l1.7-15.7c-0.2,0-0.3,0-0.5-0.1L81.7,109C81.9,109,82,109,82.2,109"
			/>
		<path clip-path="url(#SVGID_2_)" fill="#231F20" d="M89.7,39.6c0.2,0,0.3,0.1,0.5,0.1l2.7-25c-0.2,0-0.3-0.1-0.5-0.1L89.7,39.6z"
			/>
		<path clip-path="url(#SVGID_2_)" fill="#231F20" d="M84.5,92.2l2.8-25.8c-0.2,0-0.3,0-0.5-0.1L84,92.1
			C84.2,92.2,84.3,92.2,84.5,92.2"/>
		<path clip-path="url(#SVGID_2_)" fill="#231F20" d="M84,92.1l2.8-25.8c-0.2,0-0.3,0-0.5-0.1l-2.8,25.8
			C83.7,92.1,83.8,92.1,84,92.1"/>
		<path clip-path="url(#SVGID_2_)" fill="#231F20" d="M80.8,122.1l-0.9,8.5c0.2,0,0.3,0,0.5,0l0.9-8.5
			C81.1,122.1,80.9,122.1,80.8,122.1"/>
		<path clip-path="url(#SVGID_2_)" fill="#231F20" d="M80.8,122.1c-0.2,0-0.3,0-0.5,0l-0.9,8.5c0.2,0,0.3,0,0.5,0L80.8,122.1z"/>
		<path clip-path="url(#SVGID_2_)" fill="#231F20" d="M89.6,65.6l3-24.3c-0.2,0-0.3-0.1-0.5-0.1l-3,24.4
			C89.3,65.6,89.5,65.6,89.6,65.6"/>
		<path clip-path="url(#SVGID_2_)" fill="#231F20" d="M92.3,40.1c0.2,0,0.3,0.1,0.5,0.1l3.1-24.8c-0.2,0-0.3-0.1-0.5-0.1L92.3,40.1z
			"/>
		<path clip-path="url(#SVGID_2_)" fill="#231F20" d="M89.2,65.5l3-24.4c-0.2,0-0.3-0.1-0.5-0.1l-3,24.4
			C88.8,65.5,89,65.5,89.2,65.5"/>
		<path clip-path="url(#SVGID_2_)" fill="#231F20" d="M86.3,92.4l3.2-25.7c-0.2,0-0.3-0.1-0.5-0.1l-3.2,25.7
			C86,92.4,86.2,92.4,86.3,92.4"/>
		<path clip-path="url(#SVGID_2_)" fill="#231F20" d="M85.8,92.4L89,66.7c-0.2,0-0.3-0.1-0.5-0.1l-3.2,25.7
			C85.5,92.3,85.7,92.3,85.8,92.4"/>
		<path clip-path="url(#SVGID_2_)" fill="#231F20" d="M82.7,121.1l1.3-10.8c-0.2,0-0.3,0-0.5-0.1l-1.3,10.8
			C82.4,121.1,82.6,121.1,82.7,121.1"/>
		<path clip-path="url(#SVGID_2_)" fill="#231F20" d="M82.3,121.1l1.3-10.8c-0.2,0-0.3,0-0.5-0.1L81.8,121
			C81.9,121.1,82.1,121.1,82.3,121.1"/>
		<path clip-path="url(#SVGID_2_)" fill="#231F20" d="M92.3,40.1l3.1-24.8c-0.2,0-0.3-0.1-0.5-0.1L91.9,40C92,40,92.2,40,92.3,40.1"
			/>
		<path clip-path="url(#SVGID_2_)" fill="#231F20" d="M82.1,122.2c-0.2,0-0.3,0-0.5,0l-1.1,8.5c0.2,0,0.3,0,0.5,0L82.1,122.2z"/>
		<path clip-path="url(#SVGID_2_)" fill="#231F20" d="M83.7,109.2l1.9-15.7c-0.2,0-0.3,0-0.5-0.1l-1.9,15.7
			C83.4,109.1,83.6,109.1,83.7,109.2"/>
		<path clip-path="url(#SVGID_2_)" fill="#231F20" d="M84.2,109.2l1.9-15.7c-0.2,0-0.3,0-0.5-0.1l-1.9,15.7
			C83.9,109.2,84.1,109.2,84.2,109.2"/>
		<path clip-path="url(#SVGID_2_)" fill="#231F20" d="M82.1,122.2l-1.1,8.5c0.2,0,0.3,0,0.5,0l1.1-8.5
			C82.4,122.2,82.3,122.2,82.1,122.2"/>
		<path clip-path="url(#SVGID_2_)" fill="#231F20" d="M85.8,109.4L88,93.8c-0.2,0-0.3,0-0.5-0.1l-2.2,15.6
			C85.5,109.4,85.6,109.4,85.8,109.4"/>
		<path clip-path="url(#SVGID_2_)" fill="#231F20" d="M87.7,92.6l3.6-25.5c-0.2,0-0.3-0.1-0.5-0.1l-3.6,25.6
			C87.3,92.6,87.5,92.6,87.7,92.6"/>
		<path clip-path="url(#SVGID_2_)" fill="#231F20" d="M88.1,92.7l3.6-25.5c-0.2,0-0.3-0.1-0.5-0.1l-3.6,25.5
			C87.8,92.6,88,92.7,88.1,92.7"/>
		<path clip-path="url(#SVGID_2_)" fill="#231F20" d="M84.1,121.3l1.5-10.7c-0.2,0-0.3,0-0.5-0.1l-1.5,10.7
			C83.8,121.2,83.9,121.3,84.1,121.3"/>
		<path clip-path="url(#SVGID_2_)" fill="#231F20" d="M83.6,121.2l1.5-10.7c-0.2,0-0.3,0-0.5-0.1l-1.5,10.7
			C83.3,121.2,83.5,121.2,83.6,121.2"/>
		<path clip-path="url(#SVGID_2_)" fill="#231F20" d="M85.3,109.3l2.2-15.6c-0.2,0-0.3,0-0.5-0.1l-2.2,15.6
			C85,109.3,85.1,109.3,85.3,109.3"/>
		<path clip-path="url(#SVGID_2_)" fill="#231F20" d="M83.5,122.3c-0.2,0-0.3,0-0.5-0.1l-1.2,8.4c0.2,0,0.3,0,0.5,0L83.5,122.3z"/>
		<path clip-path="url(#SVGID_2_)" fill="#231F20" d="M91.4,65.9l3.4-24.2c-0.2,0-0.3-0.1-0.5-0.1l-3.4,24.2
			C91.1,65.9,91.3,65.9,91.4,65.9"/>
		<path clip-path="url(#SVGID_2_)" fill="#231F20" d="M95,40.6c0.2,0,0.3,0.1,0.5,0.1l3.5-24.6c-0.2,0-0.3-0.1-0.5-0.1L95,40.6z"/>
		<path clip-path="url(#SVGID_2_)" fill="#231F20" d="M95,40.6L98.4,16c-0.2,0-0.3-0.1-0.5-0.1l-3.5,24.6
			C94.7,40.5,94.8,40.6,95,40.6"/>
		<path clip-path="url(#SVGID_2_)" fill="#231F20" d="M83.5,122.3l-1.2,8.4c0.2,0,0.3,0,0.5,0l1.2-8.4
			C83.8,122.4,83.6,122.4,83.5,122.3"/>
		<path clip-path="url(#SVGID_2_)" fill="#231F20" d="M91.9,66l3.4-24.2c-0.2,0-0.3-0.1-0.5-0.1l-3.4,24.2C91.6,66,91.7,66,91.9,66"
			/>
		<path clip-path="url(#SVGID_2_)" fill="#231F20" d="M93.6,66.4l3.8-24c-0.2,0-0.3-0.1-0.5-0.1l-3.8,24
			C93.3,66.3,93.5,66.4,93.6,66.4"/>
		<path clip-path="url(#SVGID_2_)" fill="#231F20" d="M86.8,109.5L89.3,94c-0.2,0-0.3-0.1-0.5-0.1l-2.4,15.5
			C86.5,109.5,86.7,109.5,86.8,109.5"/>
		<path clip-path="url(#SVGID_2_)" fill="#231F20" d="M85,121.4l1.7-10.7c-0.2,0-0.3,0-0.5-0.1l-1.7,10.7
			C84.6,121.3,84.8,121.4,85,121.4"/>
		<path clip-path="url(#SVGID_2_)" fill="#231F20" d="M84.8,122.5c-0.2,0-0.3,0-0.5-0.1l-1.3,8.4c0.2,0,0.3,0,0.5,0.1L84.8,122.5z"
			/>
		<path clip-path="url(#SVGID_2_)" fill="#231F20" d="M97.6,41.2c0.2,0,0.3,0.1,0.5,0.1l3.8-24.3c-0.2,0-0.3-0.1-0.5-0.1L97.6,41.2z
			"/>
		<path clip-path="url(#SVGID_2_)" fill="#231F20" d="M89.5,92.9l4-25.4c-0.2,0-0.3-0.1-0.5-0.1l-4,25.4
			C89.1,92.8,89.3,92.9,89.5,92.9"/>
		<path clip-path="url(#SVGID_2_)" fill="#231F20" d="M94.1,66.5l3.8-24c-0.2,0-0.3-0.1-0.5-0.1l-3.8,24
			C93.8,66.4,94,66.5,94.1,66.5"/>
		<path clip-path="url(#SVGID_2_)" fill="#231F20" d="M84.8,122.5l-1.3,8.4c0.2,0,0.3,0,0.5,0.1l1.3-8.4
			C85.1,122.5,85,122.5,84.8,122.5"/>
		<path clip-path="url(#SVGID_2_)" fill="#231F20" d="M97.6,41.2l3.8-24.4c-0.2,0-0.3-0.1-0.5-0.1l-3.8,24.4
			C97.3,41.2,97.4,41.2,97.6,41.2"/>
		<path clip-path="url(#SVGID_2_)" fill="#231F20" d="M89.9,93l4-25.4c-0.2,0-0.3-0.1-0.5-0.1l-4,25.4C89.6,92.9,89.8,93,89.9,93"/>
		<path clip-path="url(#SVGID_2_)" fill="#231F20" d="M87.3,109.6l2.4-15.5c-0.2,0-0.3-0.1-0.5-0.1l-2.4,15.5
			C87,109.6,87.2,109.6,87.3,109.6"/>
		<path clip-path="url(#SVGID_2_)" fill="#231F20" d="M85,121.4c0.2,0,0.3,0,0.5,0.1l1.7-10.7c-0.2,0-0.3,0-0.5-0.1L85,121.4z"/>
		<path clip-path="url(#SVGID_2_)" fill="#231F20" d="M86.3,121.5l1.9-10.6c-0.2,0-0.3-0.1-0.5-0.1l-1.9,10.7
			C86,121.5,86.2,121.5,86.3,121.5"/>
		<path clip-path="url(#SVGID_2_)" fill="#231F20" d="M86.1,122.7l-1.5,8.4c0.2,0,0.3,0,0.5,0.1l1.5-8.4
			C86.4,122.7,86.3,122.7,86.1,122.7"/>
		<path clip-path="url(#SVGID_2_)" fill="#231F20" d="M100.2,41.9c0.2,0,0.3,0.1,0.5,0.1l4.2-24.1c-0.2-0.1-0.3-0.1-0.5-0.2
			L100.2,41.9z"/>
		<path clip-path="url(#SVGID_2_)" fill="#231F20" d="M87.9,109.7c0.2,0,0.3,0.1,0.5,0.1l2.7-15.4c-0.2,0-0.3-0.1-0.5-0.1
			L87.9,109.7z"/>
		<path clip-path="url(#SVGID_2_)" fill="#231F20" d="M86.3,121.5c0.2,0,0.3,0,0.5,0.1l1.9-10.6c-0.2,0-0.3-0.1-0.5-0.1L86.3,121.5z
			"/>
		<path clip-path="url(#SVGID_2_)" fill="#231F20" d="M96.3,67l4.1-23.8c-0.2,0-0.3-0.1-0.5-0.1l-4.1,23.8C96,66.9,96.2,67,96.3,67"
			/>
		<path clip-path="url(#SVGID_2_)" fill="#231F20" d="M95.8,66.9l4.1-23.8c-0.2,0-0.3-0.1-0.5-0.1l-4.1,23.8
			C95.5,66.8,95.7,66.8,95.8,66.9"/>
		<path clip-path="url(#SVGID_2_)" fill="#231F20" d="M88.8,109.9l2.7-15.4c-0.2,0-0.3-0.1-0.5-0.1l-2.7,15.4
			C88.5,109.8,88.7,109.8,88.8,109.9"/>
		<path clip-path="url(#SVGID_2_)" fill="#231F20" d="M91.7,93.3l4.4-25.2c-0.2,0-0.3-0.1-0.5-0.1l-4.4,25.2
			C91.4,93.2,91.6,93.3,91.7,93.3"/>
		<path clip-path="url(#SVGID_2_)" fill="#231F20" d="M86.1,122.7c-0.2,0-0.3,0-0.5-0.1l-1.5,8.4c0.2,0,0.3,0,0.5,0.1L86.1,122.7z"
			/>
		<path clip-path="url(#SVGID_2_)" fill="#231F20" d="M91.2,93.2L95.6,68c-0.2,0-0.3-0.1-0.5-0.1l-4.4,25.2
			C90.9,93.2,91.1,93.2,91.2,93.2"/>
		<path clip-path="url(#SVGID_2_)" fill="#231F20" d="M100.2,41.9l4.2-24.1c-0.2-0.1-0.3-0.1-0.5-0.2l-4.2,24.1
			C99.9,41.8,100,41.9,100.2,41.9"/>
		<path clip-path="url(#SVGID_2_)" fill="#231F20" d="M102.7,42.7l4.5-23.8c-0.2-0.1-0.3-0.1-0.5-0.2l-4.5,23.9
			C102.4,42.6,102.6,42.6,102.7,42.7"/>
		<path clip-path="url(#SVGID_2_)" fill="#231F20" d="M85.4,131.1c0.2,0,0.3,0,0.5,0.1l1.6-8.3c-0.2,0-0.3,0-0.5-0.1L85.4,131.1z"/>
		<path clip-path="url(#SVGID_2_)" fill="#231F20" d="M93,93.6l4.8-25c-0.2,0-0.3-0.1-0.5-0.1l-4.8,25.1
			C92.7,93.5,92.9,93.5,93,93.6"/>
		<path clip-path="url(#SVGID_2_)" fill="#231F20" d="M93.5,93.7l4.8-25c-0.2,0-0.3-0.1-0.5-0.1l-4.8,25
			C93.2,93.6,93.3,93.6,93.5,93.7"/>
		<path clip-path="url(#SVGID_2_)" fill="#231F20" d="M102.7,42.7c0.2,0,0.3,0.1,0.5,0.1l4.5-23.8c-0.2-0.1-0.3-0.1-0.5-0.2
			L102.7,42.7z"/>
		<path clip-path="url(#SVGID_2_)" fill="#231F20" d="M89.9,110c0.2,0,0.3,0.1,0.5,0.1l2.9-15.3c-0.2,0-0.3-0.1-0.5-0.1L89.9,110z"
			/>
		<path clip-path="url(#SVGID_2_)" fill="#231F20" d="M98,67.4c0.2,0,0.3,0.1,0.5,0.1L103,44c-0.2-0.1-0.3-0.1-0.5-0.1L98,67.4z"/>
		<path clip-path="url(#SVGID_2_)" fill="#231F20" d="M87.7,121.7l2-10.6c-0.2,0-0.3-0.1-0.5-0.1l-2,10.6
			C87.3,121.7,87.5,121.7,87.7,121.7"/>
		<path clip-path="url(#SVGID_2_)" fill="#231F20" d="M89.4,109.9c0.2,0,0.3,0.1,0.5,0.1l2.9-15.3c-0.2,0-0.3-0.1-0.5-0.1
			L89.4,109.9z"/>
		<path clip-path="url(#SVGID_2_)" fill="#231F20" d="M98,67.4l4.5-23.6c-0.2,0-0.3-0.1-0.5-0.1l-4.5,23.6
			C97.7,67.3,97.9,67.4,98,67.4"/>
		<path clip-path="url(#SVGID_2_)" fill="#231F20" d="M85.8,131.2c0.2,0,0.3,0,0.5,0.1l1.6-8.3c-0.2,0-0.3,0-0.5-0.1L85.8,131.2z"/>
		<path clip-path="url(#SVGID_2_)" fill="#231F20" d="M88.1,121.8l2-10.6c-0.2,0-0.3-0.1-0.5-0.1l-2,10.6
			C87.8,121.8,88,121.8,88.1,121.8"/>
	</g>
</g>
</svg>
