<?xml version="1.0" encoding="utf-8"?>
<!-- Generator: Adobe Illustrator 18.1.1, SVG Export Plug-In . SVG Version: 6.00 Build 0)  -->
<!DOCTYPE svg PUBLIC "-//W3C//DTD SVG 1.1//EN" "http://www.w3.org/Graphics/SVG/1.1/DTD/svg11.dtd">
<svg version="1.1" id="Layer_1" xmlns="http://www.w3.org/2000/svg" xmlns:xlink="http://www.w3.org/1999/xlink" x="0px" y="0px"
	 viewBox="0 0 144 144" enable-background="new 0 0 144 144" xml:space="preserve">
<g>
	<path fill="#231F20" d="M18,15.5h108v113.1H18V15.5z M16,130.5H128v-117H16V130.5z"/>
	<path fill="#231F20" d="M121.9,19.7H22.1v104.5h99.8V19.7z M123.8,126.2H20.1V17.8h103.7V126.2z"/>
	<path fill="#231F20" d="M117.8,24H26.1v96h91.7V24z M119.7,121.9H24.2V22.1h95.4V121.9z"/>
	<path fill="#231F20" d="M113.6,28.3H30.2v87.4h83.5V28.3z M115.5,117.6H28.3V26.4h87.2V117.6z"/>
	<path fill="#231F20" d="M109.5,32.5H34.2v78.9h75.3V32.5z M111.4,113.3h-79V30.7h79V113.3z"/>
	<path fill="#231F20" d="M105.4,36.8H38.2v70.4h67.2V36.8z M107.2,109H36.5V35h70.7V109z"/>
	<path fill="#231F20" d="M101.3,41.1h-59v61.8h59V41.1z M103.1,104.7H40.6V39.3h62.5V104.7z"/>
	<path fill="#231F20" d="M97.2,45.4H46.3v53.3h50.9V45.4z M98.9,100.3H44.6V43.7h54.3V100.3z"/>
	<path fill="#231F20" d="M93.1,49.6H50.4v44.7h42.7V49.6z M94.8,96h-46V48h46V96z"/>
	<path fill="#231F20" d="M89,53.9H54.4v36.2H89V53.9z M90.6,91.7H52.8V52.3h37.8V91.7z"/>
	<path fill="#231F20" d="M84.9,58.2H58.5v27.7h26.4V58.2z M86.5,87.4H56.9V56.6h29.6V87.4z"/>
	<path fill="#231F20" d="M80.7,62.4H62.5v19.1h18.2V62.4z M82.3,83.1H61V60.9h21.3V83.1z"/>
	<path fill="#231F20" d="M76.6,66.7h-10v10.6h10V66.7z M78.2,78.8H65.1V65.2h13.1V78.8z"/>
	<rect x="69.1" y="69.5" fill="#231F20" width="4.9" height="4.9"/>
</g>
<g>
	<g>
		<defs>
			<path id="SVGID_3_" d="M-92,181.2v54.3h55.3c0-27-19.3-49.5-44.9-54.3H-92z"/>
		</defs>
		<clipPath id="SVGID_2_">
			<use xlink:href="#SVGID_3_"  overflow="visible"/>
		</clipPath>
	</g>
</g>
</svg>
