<?xml version="1.0" encoding="utf-8"?>
<!-- Generator: Adobe Illustrator 18.1.1, SVG Export Plug-In . SVG Version: 6.00 Build 0)  -->
<!DOCTYPE svg PUBLIC "-//W3C//DTD SVG 1.1//EN" "http://www.w3.org/Graphics/SVG/1.1/DTD/svg11.dtd">
<svg version="1.1" id="Layer_1" xmlns="http://www.w3.org/2000/svg" xmlns:xlink="http://www.w3.org/1999/xlink" x="0px" y="0px"
	 viewBox="0 0 144 144" enable-background="new 0 0 144 144" xml:space="preserve">
<g>
	<g>
		<path fill="#FFFFFF" d="M122.3,95.4c0.6-1.3,1.1-2.6,1.6-3.9c-0.2,0.7-0.5,1.3-0.8,2C122.8,94.1,122.6,94.8,122.3,95.4"/>
		<path fill="#FFFFFF" d="M123.8,53.9c-0.5-1.3-1-2.5-1.5-3.8c0.3,0.6,0.6,1.3,0.8,1.9C123.3,52.6,123.6,53.3,123.8,53.9"/>
		<path fill="#FFFFFF" d="M92.7,123.8c-0.7,0.3-1.3,0.5-2,0.8C91.4,124.4,92.1,124.1,92.7,123.8"/>
		<path fill="#FFFFFF" d="M94.6,123c-0.6,0.3-1.2,0.5-1.9,0.8C93.4,123.6,94,123.3,94.6,123"/>
		<path fill="#FFFFFF" d="M71.3,127.9c0.4,0,0.9,0,1.3,0c-0.2,0-0.4,0-0.7,0C71.8,127.9,71.6,127.9,71.3,127.9"/>
		<path fill="#FFFFFF" d="M49.4,123c-0.2-0.1-0.4-0.2-0.6-0.3C49,122.9,49.2,122.9,49.4,123"/>
		<path fill="#FFFFFF" d="M50.6,123.6c-0.2-0.1-0.3-0.1-0.5-0.2C50.2,123.4,50.4,123.5,50.6,123.6"/>
		<path fill="#FFFFFF" d="M50,123.3c-0.2-0.1-0.4-0.2-0.5-0.2C49.6,123.1,49.8,123.2,50,123.3"/>
		<path fill="#FFFFFF" d="M51.2,123.8c-0.1-0.1-0.3-0.1-0.4-0.2C50.9,123.7,51,123.7,51.2,123.8"/>
		<path fill="#FFFFFF" d="M52.8,124.4c-0.1,0-0.2-0.1-0.3-0.1C52.6,124.4,52.7,124.4,52.8,124.4"/>
		<path fill="#FFFFFF" d="M51.7,124c-0.1,0-0.2-0.1-0.3-0.1C51.5,123.9,51.6,124,51.7,124"/>
		<path fill="#FFFFFF" d="M52.2,124.2c-0.1,0-0.2-0.1-0.3-0.1C52,124.2,52.1,124.2,52.2,124.2"/>
		<path fill="#FFFFFF" d="M22,96c-0.1-0.2-0.2-0.4-0.3-0.6C21.8,95.6,21.9,95.8,22,96"/>
		<path fill="#FFFFFF" d="M20.4,92.3c0-0.1-0.1-0.2-0.1-0.3C20.4,92.1,20.4,92.2,20.4,92.3"/>
		<path fill="#FFFFFF" d="M20.6,92.8c0-0.1-0.1-0.2-0.1-0.3C20.6,92.6,20.6,92.7,20.6,92.8"/>
		<path fill="#FFFFFF" d="M20.9,93.4c0-0.1-0.1-0.2-0.1-0.3C20.8,93.2,20.8,93.3,20.9,93.4"/>
		<path fill="#FFFFFF" d="M21.1,94c-0.1-0.1-0.1-0.3-0.2-0.4C21,93.7,21.1,93.9,21.1,94"/>
		<path fill="#FFFFFF" d="M21.4,94.7c-0.1-0.2-0.1-0.3-0.2-0.5C21.3,94.3,21.3,94.5,21.4,94.7"/>
		<path fill="#FFFFFF" d="M21.7,95.3c-0.1-0.2-0.2-0.4-0.2-0.5C21.5,95,21.6,95.1,21.7,95.3"/>
		<path fill="#FFFFFF" d="M68.7,69.4c-1.8,1.8-1.8,4.8,0,6.7c1.8,1.8,4.8,1.8,6.7,0c1.8-1.8,1.8-4.8,0-6.7h0L72,72.8L68.7,69.4z"/>
		<path fill="#FFFFFF" d="M16.9,72.1c0,0.4,0,0.9,0,1.3c0-0.2,0-0.4,0-0.7C16.9,72.5,16.9,72.3,16.9,72.1"/>
		<path fill="#FFFFFF" d="M20.1,54c0.2-0.7,0.5-1.4,0.8-2C20.6,52.7,20.4,53.4,20.1,54"/>
		<path fill="#FFFFFF" d="M20.9,52c0.3-0.6,0.5-1.3,0.8-1.9C21.4,50.7,21.2,51.4,20.9,52"/>
		<path fill="#231F20" d="M32,110.7c-4.1-4.3-7.3-9.1-9.7-14.1C24.8,101.8,28,106.5,32,110.7"/>
		<path fill="#231F20" d="M20.1,91.5c-2.1-5.8-3.2-11.9-3.3-18C16.9,79.6,18,85.7,20.1,91.5"/>
		<path fill="#231F20" d="M48.2,122.5c-5.1-2.4-9.8-5.7-14.1-9.7C38.2,116.7,43,120,48.2,122.5"/>
		<path fill="#231F20" d="M16.9,72.1C16.9,66,18,59.9,20.1,54C18,59.8,16.9,65.9,16.9,72.1"/>
		<path fill="#231F20" d="M90.7,124.6c-5.8,2.1-11.9,3.2-18.1,3.3C78.9,127.8,84.9,126.7,90.7,124.6"/>
		<path fill="#231F20" d="M71.3,127.9c-6.1-0.1-12.2-1.2-18-3.3C59.1,126.7,65.1,127.8,71.3,127.9"/>
		<path fill="#231F20" d="M110.4,112.3c-4.4,4.3-9.4,7.7-14.6,10.2C101.2,119.9,106.1,116.5,110.4,112.3"/>
		<path fill="#231F20" d="M121.7,96.6c-2.5,5.3-5.9,10.2-10.2,14.6C115.7,106.9,119.1,102,121.7,96.6"/>
		<path fill="#231F20" d="M123.9,91.5c2.2-6,3.3-12.3,3.3-18.7c0-6.4-1.1-12.7-3.3-18.8C128.2,66.1,128.2,79.4,123.9,91.5"/>
		<path fill="#231F20" d="M72,17.6c-0.2,0-0.5,0-0.7,0C71.5,17.6,71.8,17.6,72,17.6"/>
		<path fill="#231F20" d="M110.5,112.2c0.2-0.2,0.3-0.3,0.5-0.5c0.2-0.2,0.3-0.3,0.5-0.5c-0.2,0.2-0.3,0.3-0.5,0.5
			C110.8,111.9,110.6,112.1,110.5,112.2"/>
		<path fill="#231F20" d="M111,33.8c4.5,4.5,8.1,9.7,10.7,15.1C119,43.3,115.4,38.2,111,33.8z"/>
		<path fill="#231F20" d="M22.3,48.9c2.5-5.3,5.9-10.2,10.2-14.6C28.3,38.6,24.9,43.5,22.3,48.9"/>
		<path fill="#231F20" d="M92.7,123.8C92.7,123.8,92.8,123.8,92.7,123.8C92.8,123.8,92.7,123.8,92.7,123.8
			C92.7,123.8,92.7,123.8,92.7,123.8"/>
		<path fill="#231F20" d="M49.4,123.1C49.4,123.1,49.4,123,49.4,123.1C49.4,123,49.4,123.1,49.4,123.1"/>
		<path fill="#231F20" d="M50.1,123.4c0,0-0.1,0-0.1,0C50,123.3,50,123.3,50.1,123.4"/>
		<path fill="#231F20" d="M50.7,123.6c-0.1,0-0.1,0-0.2-0.1C50.6,123.6,50.7,123.6,50.7,123.6"/>
		<path fill="#231F20" d="M51.9,124.1c-0.1,0-0.2-0.1-0.3-0.1C51.8,124,51.9,124.1,51.9,124.1"/>
		<path fill="#231F20" d="M52.5,124.3c-0.1,0-0.2-0.1-0.2-0.1C52.3,124.3,52.4,124.3,52.5,124.3"/>
		<path fill="#231F20" d="M51.3,123.8c0,0,0.1,0,0.1,0.1C51.3,123.9,51.2,123.8,51.3,123.8C51.2,123.8,51.2,123.8,51.3,123.8"/>
		<path fill="#231F20" d="M53.3,124.6c-0.2-0.1-0.4-0.1-0.5-0.2C52.9,124.5,53.1,124.6,53.3,124.6"/>
		<path fill="#231F20" d="M21.5,94.8c0,0,0-0.1,0-0.1C21.4,94.7,21.4,94.7,21.5,94.8"/>
		<path fill="#231F20" d="M21.7,95.4C21.7,95.4,21.7,95.4,21.7,95.4C21.7,95.4,21.7,95.4,21.7,95.4"/>
		<path fill="#231F20" d="M20.3,92c-0.1-0.2-0.1-0.4-0.2-0.5C20.2,91.6,20.3,91.8,20.3,92"/>
		<path fill="#231F20" d="M20.5,92.5c0-0.1-0.1-0.2-0.1-0.2C20.5,92.4,20.5,92.4,20.5,92.5"/>
		<path fill="#231F20" d="M20.7,93.1c0-0.1-0.1-0.2-0.1-0.3C20.7,92.9,20.7,93,20.7,93.1"/>
		<path fill="#231F20" d="M20.9,93.5C20.9,93.5,20.9,93.6,20.9,93.5c0,0,0-0.1-0.1-0.1C20.9,93.4,20.9,93.4,20.9,93.5"/>
		<path fill="#231F20" d="M21.2,94.2c0-0.1,0-0.1-0.1-0.2C21.1,94.1,21.2,94.1,21.2,94.2"/>
		<polyline fill="#231F20" points="20.9,52 20.9,52 20.9,52 20.9,52 		"/>
		<path fill="#231F20" d="M72,34.5c-5,0-9.8,0.9-14.4,2.8c-4.7,1.9-9,4.8-12.7,8.4l3.9,3.9c3.1-3.1,6.8-5.5,10.8-7.2
			C63.6,40.8,67.7,40,72,40s8.4,0.8,12.3,2.4c4.1,1.6,7.7,4.1,10.8,7.2l3.9-3.9c-3.7-3.7-7.9-6.5-12.7-8.4
			C81.8,35.4,77,34.5,72,34.5"/>
		<path fill="#231F20" d="M60.8,61.5l3.9,3.9c4-4.1,10.6-4.1,14.7,0l3.9-3.9c-3-3-7-4.7-11.2-4.7C67.8,56.8,63.8,58.5,60.8,61.5"/>
		<path fill="#231F20" d="M68.7,69.4l3.3,3.3l3.3-3.3C73.5,67.6,70.5,67.6,68.7,69.4"/>
		<path fill="#231F20" d="M72,45.7c-3.5,0-7,0.7-10.2,2c-3.4,1.4-6.4,3.4-9,6l3.9,3.9c2.1-2.1,4.5-3.7,7.1-4.7
			c2.6-1,5.3-1.6,8.1-1.6s5.5,0.5,8.1,1.6c2.7,1.1,5.1,2.7,7.1,4.7l3.9-3.9c-2.6-2.6-5.6-4.6-9-6C79,46.3,75.5,45.7,72,45.7"/>
		<path fill="#FFFFFF" d="M53.3,20.9c-1.3,0.5-2.6,1-3.9,1.6c0.6-0.3,1.3-0.6,1.9-0.8C51.9,21.4,52.6,21.1,53.3,20.9"/>
		<path fill="#FFFFFF" d="M94.6,22.5c-1.2-0.6-2.5-1.1-3.8-1.5c0.6,0.2,1.2,0.5,1.9,0.7C93.4,21.9,94,22.2,94.6,22.5"/>
		<path fill="#231F20" d="M72.7,17.6c-0.2,0-0.5,0-0.7,0C72.2,17.6,72.5,17.6,72.7,17.6"/>
		<path fill="#231F20" d="M111,33.8L111,33.8c-4.5-4.5-9.5-8.1-15.1-10.7C101.3,25.7,106.4,29.2,111,33.8"/>
		<path fill="#231F20" d="M90.8,20.9c-6-2.2-12.3-3.3-18.8-3.3c-6.4,0-12.7,1.1-18.7,3.3C65.4,16.5,78.7,16.5,90.8,20.9"/>
		<path fill="#231F20" d="M33.6,33.2C38,29,42.9,25.6,48.2,23C42.8,25.6,37.9,29,33.6,33.2"/>
		<path fill="#FFFFFF" d="M37,37.8c4.7-4.7,10.2-8.4,16.4-10.9c5.9-2.4,12.2-3.6,18.6-3.6c6.4,0,12.7,1.2,18.6,3.6
			c6.1,2.5,11.6,6.1,16.4,10.9l4-4c-4.5-4.5-9.7-8.1-15.1-10.7c-0.1,0-0.1,0-0.2-0.1c-0.1-0.1-0.3-0.1-0.4-0.2
			c-0.2-0.1-0.4-0.2-0.6-0.3c0,0,0,0,0,0c-0.6-0.3-1.3-0.6-1.9-0.8c-0.6-0.3-1.2-0.5-1.9-0.7c0,0,0,0,0,0c0,0-0.1,0-0.1,0
			c-12.1-4.4-25.4-4.4-37.5,0c-0.7,0.2-1.3,0.5-2,0.8c-0.6,0.3-1.3,0.5-1.9,0.8c0,0,0,0,0,0c-0.2,0.1-0.4,0.2-0.6,0.3
			c-0.1,0.1-0.3,0.1-0.4,0.2c-0.1,0-0.1,0-0.2,0.1C42.9,25.6,38,29,33.6,33.2c0,0,0,0,0,0c-0.2,0.2-0.3,0.3-0.5,0.5L37,37.8z"/>
		<path fill="#FFFFFF" d="M57.6,37.3c4.6-1.9,9.4-2.8,14.4-2.8c5,0,9.8,0.9,14.4,2.8c4.7,1.9,9,4.8,12.7,8.4l4-4
			c-4.2-4.2-9.1-7.4-14.5-9.7c-5.3-2.1-10.8-3.2-16.5-3.2c-5.7,0-11.3,1.1-16.5,3.2c-5.5,2.2-10.3,5.5-14.5,9.7l4,4
			C48.6,42,52.8,39.2,57.6,37.3"/>
		<path fill="#FFFFFF" d="M61.8,47.6c3.2-1.3,6.7-2,10.2-2c3.5,0,7,0.7,10.2,2c3.4,1.4,6.4,3.4,9,6l4-4c-3.1-3.1-6.8-5.5-10.8-7.2
			C80.4,40.8,76.3,40,72,40c-4.3,0-8.4,0.8-12.3,2.4c-4.1,1.6-7.7,4.1-10.8,7.2l4,4C55.4,51,58.4,49,61.8,47.6"/>
		<path fill="#FFFFFF" d="M72,56.8c4.2,0,8.2,1.7,11.2,4.7l4-4c-2.1-2.1-4.5-3.7-7.1-4.7c-2.6-1-5.3-1.6-8.1-1.6s-5.5,0.5-8.1,1.6
			c-2.7,1.1-5.1,2.7-7.1,4.7l4,4C63.8,58.5,67.8,56.8,72,56.8"/>
		<path fill="#FFFFFF" d="M75.3,69.4l4-4c-4-4-10.6-4-14.7,0l4,4C70.5,67.6,73.5,67.6,75.3,69.4"/>
		<path fill="#231F20" d="M72,23.3c-6.4,0-12.7,1.2-18.6,3.6c-6.1,2.5-11.6,6.1-16.4,10.9l3.9,3.9c4.2-4.2,9.1-7.4,14.5-9.7
			c5.3-2.1,10.8-3.2,16.5-3.2s11.3,1.1,16.5,3.2c5.5,2.2,10.3,5.5,14.5,9.7l3.9-3.9c-4.7-4.7-10.2-8.4-16.4-10.9
			C84.7,24.5,78.4,23.3,72,23.3"/>
		<path fill="#FFFFFF" d="M102.4,60.4c1.6,3.9,2.4,8.1,2.4,12.3s-0.8,8.4-2.4,12.3c-1.6,4.1-4.1,7.7-7.2,10.8l3.9,3.9
			c3.7-3.7,6.5-7.9,8.4-12.7c1.9-4.6,2.8-9.4,2.8-14.4c0-5-0.9-9.8-2.8-14.4c-1.9-4.7-4.8-9-8.4-12.7l-3.9,3.9
			C98.3,52.7,100.7,56.4,102.4,60.4"/>
		<path fill="#FFFFFF" d="M33.7,72.8c0,5,0.9,9.8,2.8,14.4c1.9,4.7,4.8,9,8.4,12.7l3.9-3.9c-3.1-3.1-5.5-6.8-7.2-10.8
			c-1.6-3.9-2.4-8.1-2.4-12.3c0-4.3,0.8-8.4,2.4-12.3c1.6-4.1,4.1-7.7,7.2-10.8l-3.9-3.9c-3.7,3.7-6.5,7.9-8.4,12.7
			C34.7,62.9,33.7,67.8,33.7,72.8"/>
		<path fill="#FFFFFF" d="M60.8,84l3.9-3.9c-4-4-4-10.6,0-14.7l-3.9-3.9c-3,3-4.7,7-4.7,11.2C56.1,77,57.7,81,60.8,84"/>
		<path fill="#FFFFFF" d="M79.3,80.1l3.9,3.9c3-3,4.7-7,4.7-11.2s-1.7-8.2-4.7-11.2l-3.9,3.9C83.4,69.5,83.4,76,79.3,80.1"/>
		<path fill="#FFFFFF" d="M92,64.6c1,2.6,1.6,5.3,1.6,8.1c0,2.8-0.5,5.5-1.6,8.1c-1.1,2.7-2.7,5.1-4.7,7.1l3.9,3.9
			c2.6-2.6,4.6-5.6,6-9c1.3-3.2,2-6.7,2-10.2c0-3.5-0.7-7-2-10.2c-1.4-3.4-3.4-6.4-6-9v0l-3.9,3.9C89.3,59.6,90.9,62,92,64.6"/>
		<path fill="#FFFFFF" d="M44.9,72.8c0,3.5,0.7,7,2,10.2c1.4,3.4,3.4,6.4,6,9l3.9-3.9c-2.1-2.1-3.7-4.5-4.7-7.1
			c-1-2.6-1.6-5.3-1.6-8.1c0-2.8,0.5-5.5,1.6-8.1c1.1-2.7,2.7-5.1,4.7-7.1l-3.9-3.9c-2.6,2.6-4.6,5.6-6,9
			C45.6,65.8,44.9,69.2,44.9,72.8"/>
		<path fill="#231F20" d="M107,37.8L107,37.8c4.7,4.7,8.4,10.2,10.9,16.4c2.4,5.9,3.6,12.2,3.6,18.6c0,6.4-1.2,12.7-3.6,18.6
			c-2.5,6.1-6.1,11.6-10.9,16.4l4,4c0.2-0.2,0.3-0.3,0.5-0.5c0,0,0,0,0,0c4.3-4.4,7.7-9.4,10.2-14.6c0-0.1,0-0.1,0.1-0.2
			c0.1-0.1,0.1-0.3,0.2-0.4c0.1-0.2,0.2-0.4,0.3-0.6c0,0,0,0,0,0c0.3-0.6,0.6-1.3,0.8-1.9c0.3-0.7,0.5-1.3,0.8-2
			c4.4-12.1,4.4-25.4,0-37.5c0,0,0-0.1,0-0.1c0,0,0,0,0,0c-0.2-0.6-0.5-1.2-0.7-1.9c-0.3-0.6-0.5-1.3-0.8-1.9c0,0,0,0,0,0
			c-0.1-0.2-0.2-0.4-0.3-0.6c-0.1-0.1-0.1-0.3-0.2-0.4c0-0.1,0-0.1-0.1-0.2c-2.6-5.5-6.2-10.6-10.7-15.1L107,37.8z"/>
		<path fill="#231F20" d="M26.2,91.4c-2.4-5.9-3.6-12.2-3.6-18.6c0-6.4,1.2-12.7,3.6-18.6C28.6,48,32.3,42.5,37,37.8l-4-4
			c-0.2,0.2-0.3,0.3-0.5,0.5c0,0,0,0,0,0c-4.3,4.4-7.7,9.4-10.2,14.6c0,0.1-0.1,0.1-0.1,0.2c-0.1,0.1-0.1,0.3-0.2,0.4
			c-0.1,0.2-0.2,0.4-0.3,0.6c0,0,0,0,0,0c-0.3,0.6-0.6,1.3-0.8,1.9c0,0,0,0,0,0c-0.3,0.7-0.5,1.3-0.8,2C18,59.9,16.9,66,16.9,72.1
			c0,0.2,0,0.4,0,0.7c0,0.2,0,0.4,0,0.7c0.1,6.1,1.2,12.2,3.3,18c0.1,0.2,0.1,0.4,0.2,0.5c0,0.1,0.1,0.2,0.1,0.3
			c0,0.1,0.1,0.2,0.1,0.2c0,0.1,0.1,0.2,0.1,0.3c0,0.1,0.1,0.2,0.1,0.3c0,0.1,0.1,0.2,0.1,0.3c0,0.1,0.1,0.2,0.1,0.2
			c0.1,0.1,0.1,0.3,0.2,0.4c0,0.1,0,0.1,0.1,0.2c0.1,0.2,0.1,0.3,0.2,0.5c0,0,0,0.1,0,0.1c0.1,0.2,0.2,0.4,0.2,0.5c0,0,0,0,0,0.1
			c0.1,0.2,0.2,0.4,0.3,0.6c0.1,0.1,0.1,0.3,0.2,0.4c0,0.1,0.1,0.1,0.1,0.2c2.4,5.1,5.7,9.8,9.7,14.1c0,0,0,0,0,0
			c0.1,0.2,0.3,0.3,0.4,0.5c0,0,0,0,0.1,0.1c0.2,0.2,0.3,0.3,0.5,0.5h0l4-4C32.3,103,28.6,97.5,26.2,91.4"/>
		<path fill="#231F20" d="M107.5,58.3c1.9,4.6,2.8,9.4,2.8,14.4c0,5-0.9,9.8-2.8,14.4c-1.9,4.7-4.8,9-8.4,12.7l4,4
			c4.2-4.2,7.4-9.1,9.7-14.5c2.1-5.3,3.2-10.8,3.2-16.5c0-5.7-1.1-11.3-3.2-16.5c-2.2-5.5-5.5-10.3-9.7-14.5l-4,4
			C102.7,49.3,105.6,53.6,107.5,58.3"/>
		<path fill="#231F20" d="M28.1,72.8c0,5.7,1.1,11.3,3.2,16.5c2.2,5.5,5.5,10.3,9.7,14.5l4-4c-3.7-3.7-6.5-7.9-8.4-12.7
			c-1.9-4.6-2.8-9.4-2.8-14.4c0-5,0.9-9.8,2.8-14.4c1.9-4.7,4.8-9,8.4-12.7l-4-4c-4.2,4.2-7.4,9.1-9.7,14.5
			C29.1,61.5,28.1,67,28.1,72.8"/>
		<path fill="#231F20" d="M97.1,62.6c1.3,3.2,2,6.7,2,10.2s-0.7,7-2,10.2c-1.4,3.4-3.4,6.4-6,9l4,4c3.1-3.1,5.5-6.8,7.2-10.8
			c1.6-3.9,2.4-8.1,2.4-12.3s-0.8-8.4-2.4-12.3c-1.6-4.1-4.1-7.7-7.2-10.8h0l-4,4C93.7,56.2,95.7,59.2,97.1,62.6"/>
		<path fill="#231F20" d="M39.2,72.8c0,4.3,0.8,8.4,2.4,12.3c1.6,4.1,4.1,7.7,7.2,10.8l4-4c-2.6-2.6-4.6-5.6-6-9
			c-1.3-3.2-2-6.7-2-10.2c0-3.5,0.7-7,2-10.2c1.4-3.4,3.4-6.4,6-9l-4-4c-3.1,3.1-5.5,6.8-7.2,10.8C40.1,64.4,39.2,68.5,39.2,72.8"/>
		<path fill="#231F20" d="M87.9,72.8c0,4.2-1.7,8.2-4.7,11.2l4,4c2.1-2.1,3.7-4.5,4.7-7.1c1-2.6,1.6-5.3,1.6-8.1
			c0-2.8-0.5-5.5-1.6-8.1c-1.1-2.7-2.7-5.1-4.7-7.1l-4,4C86.3,64.5,87.9,68.5,87.9,72.8"/>
		<path fill="#231F20" d="M50.4,72.8c0,2.8,0.5,5.5,1.6,8.1c1.1,2.7,2.7,5.1,4.7,7.1l4-4c-3-3-4.7-7-4.7-11.2
			c0-4.2,1.7-8.2,4.7-11.2l-4-4c-2.1,2.1-3.7,4.5-4.7,7.1C51,67.2,50.4,70,50.4,72.8"/>
		<path fill="#231F20" d="M64.7,80.1l4-4c-1.8-1.8-1.8-4.8,0-6.7l-4-4C60.6,69.5,60.6,76,64.7,80.1"/>
		<path fill="#231F20" d="M79.3,65.4L79.3,65.4l-4,4c1.8,1.8,1.8,4.8,0,6.7l4,4C83.4,76,83.4,69.5,79.3,65.4"/>
		<path fill="#FFFFFF" d="M112.7,56.2c2.1,5.3,3.2,10.8,3.2,16.5c0,5.7-1.1,11.3-3.2,16.5c-2.2,5.5-5.5,10.3-9.7,14.5l3.9,3.9
			c4.7-4.7,8.4-10.2,10.9-16.4c2.4-5.9,3.6-12.2,3.6-18.6c0-6.4-1.2-12.7-3.6-18.6c-2.5-6.1-6.1-11.6-10.9-16.4l-3.9,3.9h0
			C107.3,45.9,110.5,50.8,112.7,56.2"/>
		<path fill="#FFFFFF" d="M22.5,72.8c0,6.4,1.2,12.7,3.6,18.6c2.5,6.1,6.1,11.6,10.9,16.4l3.9-3.9c-4.2-4.2-7.4-9.1-9.7-14.5
			c-2.1-5.3-3.2-10.8-3.2-16.5c0-5.7,1.1-11.3,3.2-16.5c2.2-5.5,5.5-10.3,9.7-14.5L37,37.8c-4.7,4.7-8.4,10.2-10.9,16.4
			C23.8,60.1,22.5,66.3,22.5,72.8"/>
		<path fill="#231F20" d="M75.3,76.1L75.3,76.1L72,72.8l-3.3,3.3h0C70.5,77.9,73.5,77.9,75.3,76.1"/>
		<path fill="#231F20" d="M57.6,108.2c4.6,1.9,9.4,2.8,14.4,2.8c5,0,9.8-0.9,14.4-2.8c4.7-1.9,9-4.8,12.7-8.4l-3.9-3.9
			c-3.1,3.1-6.8,5.5-10.8,7.2c-3.9,1.6-8.1,2.4-12.3,2.4s-8.4-0.8-12.3-2.4c-4.1-1.6-7.7-4.1-10.8-7.2l-3.9,3.9
			C48.6,103.5,52.8,106.3,57.6,108.2"/>
		<path fill="#231F20" d="M72,88.7c4.2,0,8.2-1.7,11.2-4.7l-3.9-3.9c-4,4-10.6,4-14.7,0L60.8,84C63.8,87,67.8,88.7,72,88.7"/>
		<path fill="#231F20" d="M61.8,97.9c3.2,1.3,6.7,2,10.2,2c3.5,0,7-0.7,10.2-2c3.4-1.4,6.4-3.4,9-6L87.3,88
			c-2.1,2.1-4.5,3.7-7.1,4.7c-2.6,1-5.3,1.6-8.1,1.6c-2.8,0-5.5-0.5-8.1-1.6c-2.7-1.1-5.1-2.7-7.1-4.7l-3.9,3.9
			C55.4,94.5,58.4,96.5,61.8,97.9"/>
		<path fill="#FFFFFF" d="M107,107.7c-4.7,4.7-10.2,8.4-16.4,10.9c-5.9,2.4-12.2,3.6-18.6,3.6c-6.4,0-12.7-1.2-18.6-3.6
			c-6.1-2.5-11.6-6.1-16.4-10.9l-4,4c0.2,0.2,0.3,0.3,0.5,0.5c0,0,0,0,0.1,0.1c0.2,0.1,0.3,0.3,0.5,0.4c0,0,0,0,0,0
			c4.3,4.1,9.1,7.3,14.1,9.7c0.1,0,0.1,0.1,0.2,0.1c0.1,0.1,0.3,0.1,0.4,0.2c0.2,0.1,0.4,0.2,0.6,0.3c0,0,0,0,0.1,0
			c0.2,0.1,0.4,0.2,0.5,0.2c0,0,0.1,0,0.1,0c0.2,0.1,0.3,0.1,0.5,0.2c0.1,0,0.1,0,0.2,0.1c0.1,0.1,0.3,0.1,0.4,0.2
			c0.1,0,0.2,0.1,0.2,0.1c0.1,0,0.2,0.1,0.3,0.1c0.1,0,0.2,0.1,0.3,0.1c0.1,0,0.2,0.1,0.3,0.1c0.1,0,0.2,0.1,0.2,0.1
			c0.1,0,0.2,0.1,0.3,0.1c0.2,0.1,0.4,0.1,0.5,0.2c5.8,2.1,11.9,3.2,18,3.3c0.2,0,0.4,0,0.7,0s0.4,0,0.7,0
			c6.1-0.1,12.2-1.2,18.1-3.3c0.7-0.2,1.4-0.5,2-0.8c0,0,0,0,0,0c0.6-0.3,1.3-0.5,1.9-0.8c0,0,0,0,0,0c0.2-0.1,0.4-0.2,0.6-0.3
			c0.1-0.1,0.3-0.1,0.4-0.2c0.1,0,0.1-0.1,0.2-0.1c5.3-2.5,10.2-5.9,14.6-10.2c0,0,0,0,0,0c0.2-0.2,0.3-0.3,0.5-0.5L107,107.7z"/>
		<path fill="#FFFFFF" d="M55.5,113.5c5.3,2.1,10.8,3.2,16.5,3.2s11.3-1.1,16.5-3.2c5.5-2.2,10.3-5.5,14.5-9.7l-4-4
			c-3.7,3.7-7.9,6.5-12.7,8.4C81.8,110.1,77,111,72,111s-9.8-0.9-14.4-2.8c-4.7-1.9-9-4.8-12.7-8.4l-4,4v0
			C45.1,108,50,111.3,55.5,113.5"/>
		<path fill="#FFFFFF" d="M59.7,103.1c3.9,1.6,8.1,2.4,12.3,2.4c4.3,0,8.4-0.8,12.3-2.4c4.1-1.6,7.7-4.1,10.8-7.2v0l-4-4
			c-2.6,2.6-5.6,4.6-9,6c-3.2,1.3-6.7,2-10.2,2c-3.5,0-7-0.7-10.2-2c-3.4-1.4-6.4-3.4-9-6l-4,4C52,99,55.6,101.5,59.7,103.1"/>
		<path fill="#FFFFFF" d="M63.9,92.7c2.6,1,5.3,1.6,8.1,1.6c2.8,0,5.5-0.5,8.1-1.6c2.7-1.1,5.1-2.7,7.1-4.7l-4-4
			c-3,3-7,4.7-11.2,4.7c-4.2,0-8.2-1.7-11.2-4.7l-4,4C58.8,90.1,61.2,91.7,63.9,92.7"/>
		<path fill="#FFFFFF" d="M64.7,80.1c4,4,10.6,4,14.7,0l-4-4c-1.8,1.8-4.8,1.8-6.7,0L64.7,80.1z"/>
		<path fill="#231F20" d="M103.1,103.8c-4.2,4.2-9.1,7.4-14.5,9.7c-5.3,2.1-10.8,3.2-16.5,3.2c-5.7,0-11.3-1.1-16.5-3.2
			c-5.5-2.2-10.3-5.5-14.5-9.7l-3.9,3.9c4.7,4.7,10.2,8.4,16.4,10.9c5.9,2.4,12.2,3.6,18.6,3.6c6.4,0,12.7-1.2,18.6-3.6
			c6.1-2.5,11.6-6.1,16.4-10.9L103.1,103.8z"/>
		<path fill="#231F20" d="M72,18.5c-7.3,0-14.4,1.4-21.1,4.3c-6.5,2.7-12.3,6.7-17.3,11.6S24.7,45.2,22,51.6
			c-2.8,6.7-4.3,13.8-4.3,21.1s1.4,14.4,4.3,21.1c2.7,6.5,6.7,12.3,11.6,17.3c5,5,10.8,8.9,17.3,11.6c6.7,2.8,13.8,4.3,21.1,4.3
			s14.4-1.4,21.1-4.3c6.5-2.7,12.3-6.6,17.3-11.6c5-5,8.9-10.8,11.6-17.3c2.8-6.7,4.3-13.8,4.3-21.1s-1.4-14.4-4.3-21.1
			c-2.7-6.5-6.7-12.3-11.6-17.3s-10.8-8.9-17.3-11.6C86.4,19.9,79.3,18.5,72,18.5 M72,128.7c-7.6,0-14.9-1.5-21.8-4.4
			c-6.7-2.8-12.6-6.9-17.8-12c-5.1-5.1-9.2-11.1-12-17.8C17.5,87.6,16,80.3,16,72.8c0-7.6,1.5-14.9,4.4-21.8
			c2.8-6.7,6.9-12.6,12-17.8s11.1-9.2,17.8-12c6.9-2.9,14.2-4.4,21.8-4.4s14.9,1.5,21.8,4.4c6.7,2.8,12.6,6.9,17.8,12
			c5.1,5.1,9.2,11.1,12,17.8c2.9,6.9,4.4,14.2,4.4,21.8c0,7.6-1.5,14.9-4.4,21.8c-2.8,6.7-6.9,12.6-12,17.8
			c-5.1,5.1-11.1,9.2-17.8,12C86.9,127.2,79.6,128.7,72,128.7"/>
	</g>
</g>
</svg>
