<?xml version="1.0" encoding="utf-8"?>
<!-- Generator: Adobe Illustrator 18.1.1, SVG Export Plug-In . SVG Version: 6.00 Build 0)  -->
<!DOCTYPE svg PUBLIC "-//W3C//DTD SVG 1.1//EN" "http://www.w3.org/Graphics/SVG/1.1/DTD/svg11.dtd">
<svg version="1.1" id="Layer_1" xmlns="http://www.w3.org/2000/svg" xmlns:xlink="http://www.w3.org/1999/xlink" x="0px" y="0px"
	 viewBox="0 0 144 144" enable-background="new 0 0 144 144" xml:space="preserve">
<g>
	<path fill="#231F20" d="M57.8,94.1c0.4-4.5,1.4-8.9,4.2-12.5C64.9,78,68.5,75,72,72c-3.8,2.9-7.6,5.8-10.6,9.4
		c-2.8,3.4-4,7.7-4.6,12c-0.8,6.2-0.1,12.5,1.3,18.6c1.2,5.2,2.7,10.2,4.6,15.2c0.9,0.1,1.7,0.3,2.6,0.4c-2.2-5.1-4.1-10.2-5.5-15.6
		C58.3,106.2,57.3,100.1,57.8,94.1"/>
	<path fill="#231F20" d="M94.1,86.2c-4.5-0.4-8.9-1.4-12.5-4.2C78,79.1,75,75.5,72,72c2.8,3.7,5.6,7.4,9.2,10.4
		c3.5,2.9,7.8,4.2,12.2,4.8c6,0.8,12.1,0.1,18-1.2c5.4-1.1,10.7-2.8,15.8-4.7c0.1-0.9,0.3-1.7,0.4-2.6c-5.1,2.2-10.2,4.1-15.6,5.5
		C106.2,85.7,100.1,86.7,94.1,86.2"/>
	<path fill="#231F20" d="M86.2,49.9c-0.4,4.3-1.4,8.7-4,12.2C79.3,65.9,75.6,69,72,72c3.7-2.8,7.4-5.6,10.4-9.2
		c2.9-3.5,4.2-7.8,4.8-12.2c0.8-6,0.1-12.1-1.2-18c-1.1-5.4-2.8-10.7-4.7-15.8c-0.9-0.1-1.7-0.3-2.6-0.4c2.1,4.9,3.9,9.8,5.3,14.9
		C85.6,37.3,86.7,43.6,86.2,49.9"/>
	<path fill="#231F20" d="M49.9,57.8c4.3,0.4,8.7,1.4,12.2,4C65.9,64.7,69,68.4,72,72c-2.9-3.8-5.8-7.6-9.4-10.6
		c-3.4-2.8-7.7-4-12-4.6C44.4,56,38.1,56.8,32,58.1c-5.2,1.1-10.2,2.7-15.2,4.6c-0.1,0.9-0.3,1.7-0.4,2.6c4.9-2.1,9.8-3.9,14.9-5.3
		C37.3,58.4,43.6,57.3,49.9,57.8"/>
	<path fill="#231F20" d="M90.7,90.2c-4.4-1.3-8.3-3.2-11.3-6.7C76.4,80,74.2,76,72,72c2,4.1,4.1,8.3,7,12c2.8,3.5,6.6,5.6,10.8,7.1
		c10.7,3.8,22.7,3.4,34.3,1.5c0.4-0.9,0.7-1.8,1-2.8C113.6,92.3,101.6,93.4,90.7,90.2"/>
	<path fill="#231F20" d="M90.2,53.3c-1.3,4.4-3.2,8.3-6.7,11.3C80,67.6,76,69.8,72,72c4.1-2,8.3-4.1,12-7c3.5-2.8,5.6-6.6,7.1-10.8
		c3.8-10.7,3.4-22.7,1.5-34.3c-0.9-0.4-1.8-0.7-2.8-1C92.3,30.4,93.4,42.3,90.2,53.3"/>
	<path fill="#231F20" d="M53.3,53.8c4.2,1.2,8.1,3.1,11.1,6.4c3.1,3.5,5.4,7.7,7.6,11.8c-2.1-4.3-4.2-8.6-7.2-12.3
		c-2.7-3.4-6.5-5.4-10.6-6.8c-10.7-3.8-22.7-3.4-34.3-1.5c-0.4,0.9-0.7,1.8-1,2.8C30.4,51.7,42.3,50.6,53.3,53.8"/>
	<path fill="#231F20" d="M53.8,90.7c1.2-4.2,3.1-8.1,6.4-11.1c3.5-3.1,7.7-5.4,11.8-7.6c-4.3,2.1-8.6,4.2-12.3,7.2
		c-3.4,2.7-5.4,6.5-6.8,10.6c-3.8,10.7-3.4,22.7-1.5,34.3c0.9,0.4,1.8,0.7,2.8,1C51.7,113.6,50.6,101.6,53.8,90.7"/>
	<path fill="#231F20" d="M92.6,88.2c-4.4-0.8-8.6-2.3-11.9-5.4c-3.4-3.2-6-7-8.6-10.8c2.4,3.9,4.8,7.8,8,11.1
		c3.2,3.3,7.3,5,11.7,6.1c5.9,1.4,12.1,1.3,18.2,0.7c5.4-0.6,10.8-1.7,16.1-3c0.2-0.9,0.5-1.8,0.7-2.7c-5.3,1.7-10.7,3-16.1,3.9
		C104.6,88.9,98.5,89.3,92.6,88.2"/>
	<path fill="#231F20" d="M88.2,51.4c-0.8,4.4-2.3,8.6-5.4,11.9c-3.2,3.4-7,6-10.8,8.6c3.9-2.4,7.8-4.8,11.1-8
		c3.3-3.2,5-7.3,6.1-11.7c1.4-5.9,1.3-12.1,0.7-18.2c-0.6-5.4-1.7-10.8-3-16.1c-0.9-0.2-1.8-0.5-2.7-0.7c1.7,5.3,3,10.7,3.9,16.1
		C88.9,39.4,89.3,45.5,88.2,51.4"/>
	<path fill="#231F20" d="M51.4,55.8c4.3,0.8,8.4,2.2,11.7,5.1c3.5,3.2,6.2,7.2,8.9,11.1c-2.5-4-4.9-8-8.2-11.4
		c-3.1-3.2-7.2-4.8-11.5-5.8c-6.2-1.5-12.6-1.3-18.8-0.6c-5.2,0.6-10.4,1.7-15.4,3c-0.2,0.9-0.5,1.8-0.7,2.7
		c5.1-1.6,10.2-2.9,15.5-3.8C39,55.1,45.3,54.7,51.4,55.8"/>
	<path fill="#231F20" d="M55.8,92.6c0.8-4.3,2.2-8.4,5.1-11.7c3.2-3.5,7.2-6.2,11.1-8.9c-4,2.5-8,4.9-11.4,8.2
		c-3.2,3.1-4.8,7.2-5.8,11.5c-1.5,6.2-1.3,12.6-0.6,18.8c0.6,5.2,1.7,10.4,3,15.4c0.9,0.2,1.8,0.5,2.7,0.7
		c-1.6-5.1-2.9-10.2-3.8-15.5C55.1,105,54.7,98.7,55.8,92.6"/>
	<path fill="#231F20" d="M65.3,84.1c1.6-4.3,4.2-8.3,6.7-12.1c-2.7,3.7-5.4,7.4-7.2,11.6c-1.9,4.2-2.1,8.7-1.5,13.2
		c1.5,11.2,7.5,21.6,14.5,30.8c0.8-0.1,1.5-0.2,2.3-0.3c-7.4-9-13.8-19-15.7-30.2C63.6,92.7,63.7,88.4,65.3,84.1"/>
	<path fill="#231F20" d="M84.1,78.7c-4.3-1.6-8.3-4.2-12.1-6.7c3.7,2.7,7.4,5.4,11.6,7.2c4.2,1.9,8.7,2.1,13.2,1.5
		c11.2-1.5,21.6-7.5,30.8-14.5c-0.1-0.8-0.2-1.5-0.3-2.3c-9,7.4-19,13.8-30.2,15.7C92.7,80.4,88.4,80.3,84.1,78.7"/>
	<path fill="#231F20" d="M78.8,59.5C77.2,64,74.6,68,72,72c2.7-3.8,5.5-7.6,7.4-12c1.8-4.1,1.9-8.5,1.3-12.9
		c-1.5-11.2-7.5-21.6-14.5-30.8c-0.8,0.1-1.5,0.2-2.3,0.3c7.4,9,13.8,19,15.7,30.2C80.3,51.1,80.3,55.4,78.8,59.5"/>
	<path fill="#231F20" d="M59.5,65.2C64,66.8,68,69.4,72,72c-3.8-2.7-7.6-5.5-12-7.4c-4.1-1.8-8.5-1.9-12.9-1.3
		c-11.2,1.5-21.6,7.5-30.8,14.5c0.1,0.8,0.2,1.5,0.3,2.3c9-7.4,19-13.8,30.2-15.7C51.1,63.7,55.4,63.7,59.5,65.2"/>
	<path fill="#231F20" d="M82.4,80.9c-3.9-2.4-7.2-5.7-10.4-8.9c3.1,3.4,6.3,6.8,10.1,9.4c3.7,2.6,8.2,3.5,12.7,3.6
		c6,0.2,12-1,17.7-2.8c5.2-1.7,10.3-3.8,15.3-6.2c0.1-0.8,0.1-1.6,0.1-2.3C117.8,79.4,106.7,84,95.4,84C90.8,84,86.3,83.3,82.4,80.9
		"/>
	<path fill="#231F20" d="M81,61.3c-2.5,4-5.8,7.4-9,10.7c3.5-3.2,7-6.5,9.6-10.4c2.5-3.6,3.3-8,3.4-12.4c0.2-6.2-1.1-12.5-3-18.4
		c-1.6-5-3.7-9.9-6-14.6c-0.8-0.1-1.5-0.1-2.3-0.1C79.4,26.2,84,37.3,84,48.6C84,53,83.4,57.5,81,61.3"/>
	<path fill="#231F20" d="M61.3,63c4,2.5,7.4,5.8,10.7,9c-3.2-3.5-6.5-7-10.4-9.6c-3.6-2.5-8-3.3-12.4-3.4C43,58.7,36.7,60,30.8,62
		c-5,1.6-9.9,3.7-14.6,6c-0.1,0.8-0.1,1.5-0.1,2.3C26.2,64.6,37.3,60,48.6,60C53,60,57.5,60.6,61.3,63"/>
	<path fill="#231F20" d="M63.1,82.4c2.4-3.9,5.7-7.2,8.9-10.4c-3.4,3.1-6.8,6.3-9.4,10.1c-2.6,3.7-3.5,8.2-3.6,12.7
		c-0.2,6,1,12,2.8,17.7c1.7,5.2,3.8,10.3,6.2,15.3c0.8,0.1,1.6,0.1,2.3,0.1C64.6,117.8,60,106.7,60,95.4
		C60,90.8,60.7,86.3,63.1,82.4"/>
	<path fill="#231F20" d="M83.4,79.9c-4.2-2.1-7.8-5-11.4-7.9c3.4,3,6.9,6.1,10.9,8.3c4,2.3,8.5,2.8,13.1,2.6
		c11.3-0.6,22.1-5.6,32-11.8c0-0.8,0-1.6-0.1-2.4c-9.6,6.6-20.2,12.2-31.4,13.2C91.9,82.2,87.5,81.9,83.4,79.9"/>
	<path fill="#231F20" d="M80,60.3c-2.1,4.3-5.1,8-8,11.7c3.1-3.5,6.2-7.1,8.5-11.2c2.2-3.9,2.6-8.3,2.4-12.8
		c-0.6-11.3-5.6-22.1-11.8-32c-0.8,0-1.6,0-2.4,0.1c6.6,9.6,12.1,20.2,13.2,31.4C82.2,51.9,81.9,56.3,80,60.3"/>
	<path fill="#231F20" d="M60.3,64c4.3,2.1,8,5.1,11.7,8c-3.5-3.1-7-6.2-11.2-8.5c-3.9-2.2-8.3-2.6-12.8-2.4
		c-11.3,0.6-22.1,5.6-32,11.8c0,0.8,0,1.6,0.1,2.4c9.6-6.6,20.2-12.1,31.4-13.2C51.9,61.8,56.3,62.1,60.3,64"/>
	<path fill="#231F20" d="M64.1,83.4c2.1-4.2,5-7.8,7.9-11.4c-3,3.4-6.1,6.9-8.3,10.9c-2.3,4-2.8,8.5-2.6,13.1
		c0.6,11.3,5.6,22.1,11.8,32c0.8,0,1.6,0,2.4-0.1c-6.6-9.6-12.1-20.2-13.2-31.4C61.8,91.9,62.1,87.5,64.1,83.4"/>
	<path fill="#231F20" d="M81.4,96.2C74.5,89.5,73,81.2,72,72c0.6,9.2,1.7,17.6,8.1,24.7c3.8,4.2,8.5,7,13.6,9.5
		c5.4,2.6,11,4.7,16.6,6.6c0.7-0.7,1.4-1.3,2-2c-5.8-1.6-11.5-3.4-17.1-5.7C90,102.9,85.5,100.2,81.4,96.2"/>
	<path fill="#231F20" d="M96.2,62.6C89.5,69.5,81.2,71,72,72c9.2-0.6,17.6-1.7,24.7-8.1c4.2-3.8,7-8.5,9.5-13.6
		c2.6-5.4,4.7-11,6.6-16.6c-0.7-0.7-1.3-1.4-2-2c-1.6,5.8-3.4,11.5-5.7,17.1C102.9,54,100.2,58.5,96.2,62.6"/>
	<path fill="#231F20" d="M62.6,47.8c6.8,6.7,8.4,15,9.4,24.2c-0.6-9.2-1.7-17.6-8.1-24.7c-3.8-4.2-8.5-7-13.6-9.5
		c-5.4-2.6-11-4.7-16.6-6.6c-0.7,0.7-1.4,1.3-2,2c5.8,1.6,11.5,3.4,17.1,5.7C54,41.1,58.6,43.8,62.6,47.8"/>
	<path fill="#231F20" d="M47.8,81.4c6.7-6.8,15-8.4,24.2-9.4c-9.2,0.6-17.6,1.7-24.7,8.1c-4.2,3.8-7,8.5-9.5,13.6
		c-2.6,5.4-4.7,11-6.6,16.6c0.7,0.7,1.3,1.4,2,2c1.6-5.8,3.4-11.5,5.7-17.1C41.1,90,43.8,85.4,47.8,81.4"/>
	<path fill="#231F20" d="M97.7,67.8C90,73.1,80.9,72.8,72,72c8.8,1.2,17.9,2,25.8-3c4.9-3.1,8.8-7.7,12.2-12.2
		c3.4-4.6,6.5-9.4,9.5-14.3c-0.5-0.7-0.9-1.5-1.4-2.2c-2.8,5.1-5.7,10.2-9,15C105.9,59.9,102.3,64.6,97.7,67.8"/>
	<path fill="#231F20" d="M67.8,46.3c5.3,7.7,5,16.8,4.2,25.7c1.2-8.8,2-17.9-3-25.8C66,41.3,61.3,37.4,56.8,34
		c-4.6-3.4-9.4-6.5-14.3-9.5c-0.7,0.5-1.5,0.9-2.2,1.4c4.9,2.7,9.8,5.5,14.4,8.6C59.5,37.8,64.4,41.5,67.8,46.3"/>
	<path fill="#231F20" d="M46.3,76.2c7.7-5.3,16.8-5,25.7-4.2c-8.8-1.2-17.9-2-25.8,3C41.3,78,37.4,82.7,34,87.2
		c-3.4,4.6-6.5,9.4-9.5,14.3c0.5,0.7,0.9,1.5,1.4,2.2c2.7-4.9,5.5-9.8,8.6-14.4C37.8,84.5,41.5,79.6,46.3,76.2"/>
	<path fill="#231F20" d="M76.2,97.7C70.9,90,71.2,80.9,72,72c-1.2,8.8-2,17.9,3,25.8c3.1,4.9,7.7,8.8,12.2,12.2
		c4.6,3.4,9.4,6.5,14.3,9.5c0.7-0.5,1.5-0.9,2.2-1.4c-5.1-2.8-10.2-5.7-15-9C84.1,105.9,79.4,102.3,76.2,97.7"/>
	<path fill="#231F20" d="M97.1,65.2c-7.4,6-15.9,6.7-25.1,6.8c9.1,0.3,17.8,0.1,25.4-5.5c4.5-3.4,7.9-8.3,10.8-13.1
		c3.1-5,5.7-10.2,8.2-15.4c-0.6-0.7-1.1-1.4-1.7-2.1c-2.2,5.4-4.6,10.7-7.4,15.9C104.6,56.7,101.5,61.7,97.1,65.2"/>
	<path fill="#231F20" d="M65.2,46.9c6,7.4,6.7,15.9,6.8,25.1c0.3-9.1,0.1-17.8-5.5-25.4c-3.5-4.7-8.7-8.2-13.7-11.2
		C48,32.5,43,29.9,38,27.6c-0.7,0.6-1.4,1.1-2.1,1.7c5.2,2.1,10.3,4.4,15.2,7C56.3,39.1,61.5,42.3,65.2,46.9"/>
	<path fill="#231F20" d="M46.9,78.8c7.4-6,15.9-6.7,25.1-6.8c-9.1-0.3-17.8-0.1-25.4,5.5c-4.7,3.5-8.2,8.7-11.2,13.7
		c-2.9,4.8-5.4,9.8-7.8,14.8c0.6,0.7,1.1,1.4,1.7,2.1c2.1-5.2,4.4-10.3,7-15.2C39.1,87.7,42.3,82.5,46.9,78.8"/>
	<path fill="#231F20" d="M78.8,97.1c-6-7.4-6.7-15.9-6.8-25.1c-0.3,9.1-0.1,17.8,5.5,25.4c3.4,4.5,8.3,7.9,13.1,10.8
		c5,3.1,10.2,5.7,15.4,8.2c0.7-0.6,1.4-1.1,2.1-1.7c-5.4-2.2-10.7-4.6-15.9-7.4C87.3,104.6,82.3,101.5,78.8,97.1"/>
	<path fill="#231F20" d="M88.7,92c-4.2-1.8-7.8-4.1-10.4-7.8c-2.6-3.7-4.5-8-6.2-12.2c1.6,4.3,3.2,8.7,5.8,12.6
		c2.4,3.8,5.8,6.2,9.8,8.2c10.2,5.1,22.2,6,33.8,5.5c0.5-0.9,0.9-1.8,1.4-2.8C111.2,96.7,99.2,96.5,88.7,92"/>
	<path fill="#231F20" d="M92,55.3c-1.8,4.2-4.1,7.8-7.8,10.4c-3.7,2.6-8,4.5-12.2,6.2c4.3-1.6,8.7-3.2,12.6-5.8
		c3.8-2.4,6.2-5.8,8.2-9.8c5.1-10.2,6-22.2,5.5-33.8c-0.9-0.5-1.8-0.9-2.8-1.4C96.7,32.8,96.5,44.8,92,55.3"/>
	<path fill="#231F20" d="M55.3,52c4,1.7,7.6,3.9,10.2,7.5c2.8,3.8,4.6,8.2,6.5,12.5c-1.6-4.4-3.3-8.9-6-12.9c-2.4-3.6-5.8-6-9.6-7.9
		c-10.2-5.1-22.2-6-33.8-5.5c-0.5,0.9-0.9,1.8-1.4,2.8C32.8,47.3,44.8,47.5,55.3,52"/>
	<path fill="#231F20" d="M52,88.7c1.7-4,3.9-7.6,7.5-10.2c3.8-2.8,8.2-4.6,12.5-6.5c-4.4,1.6-8.9,3.3-12.9,6c-3.6,2.4-6,5.8-7.9,9.6
		c-5.1,10.2-6,22.2-5.5,33.8c0.9,0.5,1.8,0.9,2.8,1.4C47.3,111.2,47.5,99.2,52,88.7"/>
	<path fill="#231F20" d="M85.3,68.2C81.1,70.1,76.5,71,72,72c4.6-0.7,9.3-1.5,13.7-3.3c4.1-1.6,7.2-4.1,10-7.4
		c7.5-8.8,10.8-20.2,13-31.6c-0.8-0.7-1.5-1.3-2.3-1.9c-1.5,11.5-4.2,23-11.3,32.3C92.4,63.6,89.4,66.3,85.3,68.2"/>
	<path fill="#231F20" d="M68.2,58.7C70.1,62.9,71,67.5,72,72c-0.7-4.6-1.5-9.3-3.3-13.7c-1.6-4.1-4.1-7.2-7.4-10
		c-8.8-7.5-20.2-10.8-31.6-13c-0.6,0.8-1.3,1.5-1.9,2.3c11.5,1.5,23,4.2,32.3,11.3C63.6,51.6,66.3,54.6,68.2,58.7"/>
	<path fill="#231F20" d="M58.7,75.8c4.2-1.9,8.8-2.9,13.3-3.8c-4.6,0.7-9.3,1.5-13.7,3.3c-4.1,1.6-7.2,4.1-10,7.4
		c-7.5,8.8-10.8,20.2-13,31.6c0.8,0.7,1.5,1.3,2.3,1.9c1.5-11.5,4.2-23,11.3-32.3C51.6,80.4,54.6,77.7,58.7,75.8"/>
	<path fill="#231F20" d="M75.8,85.3c-1.9-4.2-2.9-8.8-3.8-13.3c0.7,4.6,1.5,9.3,3.3,13.7c1.6,4.1,4.1,7.2,7.4,10
		c8.8,7.5,20.2,10.8,31.6,13c0.7-0.8,1.3-1.5,1.9-2.3c-11.5-1.5-23-4.2-32.3-11.3C80.4,92.4,77.7,89.4,75.8,85.3"/>
	<path fill="#231F20" d="M84.7,67c-4,2.3-8.4,3.6-12.7,5c4.5-1.2,9-2.4,13.1-4.5c4-2,6.8-5,9.3-8.7c6.4-9.7,8.6-21.3,9.4-32.9
		c-0.8-0.6-1.7-1.1-2.6-1.7c-0.2,11.6-1.8,23.4-7.5,33.4C91.4,61.6,88.7,64.7,84.7,67"/>
	<path fill="#231F20" d="M66.8,59c2.4,4.1,3.8,8.6,5.2,13c-1.2-4.6-2.4-9.2-4.7-13.4c-2-3.8-4.9-6.5-8.5-8.9
		c-9.7-6.4-21.3-8.6-32.9-9.4c-0.6,0.8-1.1,1.7-1.7,2.6c11.6,0.2,23.4,1.8,33.4,7.5C61.4,52.5,64.6,55.1,66.8,59"/>
	<path fill="#231F20" d="M59,77.2c4.1-2.4,8.6-3.8,13-5.2c-4.6,1.2-9.2,2.4-13.4,4.7c-3.8,2-6.5,4.9-8.9,8.5
		c-6.4,9.7-8.6,21.3-9.4,32.9c0.8,0.6,1.7,1.1,2.6,1.7c0.2-11.6,1.8-23.4,7.5-33.4C52.5,82.6,55.1,79.4,59,77.2"/>
	<path fill="#231F20" d="M77,84.7c-2.3-4-3.6-8.4-5-12.7c1.2,4.5,2.4,9,4.5,13.1c2,4,5,6.8,8.7,9.3c9.7,6.4,21.3,8.6,32.9,9.4
		c0.6-0.8,1.1-1.7,1.7-2.6c-11.6-0.2-23.4-1.8-33.4-7.5C82.4,91.4,79.3,88.7,77,84.7"/>
	<path fill="#231F20" d="M98,70.3c-8.3,4.5-17.1,3.3-26,1.7c8.9,2.1,17.5,3.5,26-0.5c5.1-2.4,9.2-6.5,13-10.7
		c4-4.4,7.6-9.1,11.1-13.8c-0.4-0.8-0.8-1.5-1.2-2.2c-3.3,4.9-6.7,9.7-10.4,14.2C106.9,63.2,102.9,67.7,98,70.3"/>
	<path fill="#231F20" d="M70.3,46c4.5,8.3,3.3,17.1,1.7,26c2.1-8.9,3.5-17.5-0.5-26c-2.5-5.3-6.9-9.6-11.2-13.5
		c-4.2-3.8-8.7-7.2-13.3-10.6c-0.8,0.4-1.5,0.8-2.2,1.2c4.7,3.1,9.3,6.4,13.7,10C62.9,36.7,67.5,40.9,70.3,46"/>
	<path fill="#231F20" d="M46,73.7c8.3-4.5,17.1-3.3,26-1.7c-8.9-2.1-17.5-3.5-26,0.5c-5.3,2.5-9.6,6.9-13.5,11.2
		c-3.8,4.2-7.2,8.7-10.6,13.3c0.4,0.8,0.8,1.5,1.2,2.2c3.1-4.7,6.4-9.3,10-13.7C36.7,81.1,40.9,76.5,46,73.7"/>
	<path fill="#231F20" d="M73.7,98c-4.5-8.3-3.3-17.1-1.7-26c-2.1,8.9-3.5,17.5,0.5,26c2.4,5.1,6.5,9.2,10.7,13
		c4.4,4,9.1,7.6,13.8,11.1c0.8-0.4,1.5-0.8,2.2-1.2c-4.9-3.3-9.7-6.7-14.2-10.4C80.8,106.9,76.3,102.9,73.7,98"/>
	<path fill="#231F20" d="M98.1,72.7C89.3,76.4,80.8,74.6,72,72c8.7,3,17.1,5.2,26.1,1.9c5.3-2,9.5-5.1,13.6-8.9
		c4.5-4.1,8.6-8.7,12.5-13.3c-0.3-0.8-0.6-1.5-1-2.3c-3.7,4.7-7.5,9.2-11.7,13.5C107.5,66.9,103.3,70.5,98.1,72.7"/>
	<path fill="#231F20" d="M72.7,45.9c3.7,8.8,1.8,17.3-0.7,26.1c3-8.7,5.2-17.1,1.9-26.1c-2-5.3-5.1-9.5-8.9-13.6
		c-4.1-4.5-8.7-8.6-13.3-12.5c-0.8,0.3-1.5,0.6-2.3,1c4.5,3.5,8.9,7.2,13,11.2C66.6,36.1,70.4,40.4,72.7,45.9"/>
	<path fill="#231F20" d="M45.9,71.3c8.8-3.7,17.3-1.8,26.1,0.7c-8.7-3-17.1-5.2-26.1-1.9c-5.3,2-9.5,5.1-13.6,8.9
		c-4.5,4.1-8.6,8.7-12.5,13.3c0.3,0.8,0.6,1.5,1,2.3c3.5-4.5,7.2-8.9,11.2-13C36.1,77.4,40.4,73.6,45.9,71.3"/>
	<path fill="#231F20" d="M71.3,98.1C67.6,89.3,69.4,80.8,72,72c-3,8.7-5.2,17.1-1.9,26.1c2,5.3,5.1,9.5,8.9,13.6
		c4.1,4.5,8.7,8.6,13.3,12.5c0.8-0.3,1.5-0.6,2.3-1c-4.7-3.7-9.2-7.5-13.5-11.7C77.1,107.5,73.5,103.3,71.3,98.1"/>
	<path fill="#231F20" d="M112.3,66.8c-4.2,3.6-9,6.5-14.3,8.2c-9.2,3-17.4,0.4-26-3.1c4.2,1.9,8.4,3.9,13,4.8
		c4.4,0.9,8.6,0.6,12.9-0.6c11.1-3.2,20-11.1,28-19.6c-0.2-0.8-0.5-1.7-0.8-2.5C121,58.6,116.8,62.9,112.3,66.8"/>
	<path fill="#231F20" d="M66.8,31.7c3.6,4.2,6.5,9,8.2,14.3c3,9.2,0.4,17.4-3.1,26c1.9-4.2,3.9-8.4,4.8-13c0.9-4.4,0.6-8.6-0.6-12.9
		c-3.2-11.1-11.1-20-19.6-28c-0.8,0.2-1.7,0.5-2.5,0.8C58.6,23,62.9,27.2,66.8,31.7"/>
	<path fill="#231F20" d="M31.7,77.2c4.2-3.6,9-6.5,14.3-8.2c9.2-3,17.4-0.4,26,3.1c-4.2-1.9-8.4-3.9-13-4.8
		c-4.4-0.9-8.6-0.6-12.9,0.6c-11.1,3.2-20,11.1-28,19.6c0.2,0.8,0.5,1.7,0.8,2.5C23,85.4,27.2,81.1,31.7,77.2"/>
	<path fill="#231F20" d="M77.2,112.3c-3.6-4.2-6.5-9-8.2-14.3c-3-9.2-0.4-17.4,3.1-26c-1.9,4.2-3.9,8.4-4.8,13
		c-0.9,4.4-0.6,8.6,0.6,12.9c3.2,11.1,11.1,20,19.6,28c0.8-0.2,1.7-0.5,2.5-0.8C85.4,121,81.1,116.8,77.2,112.3"/>
	<path fill="#231F20" d="M84.7,77.5c-4.5-1.2-8.6-3.4-12.7-5.5c3.9,2.3,7.9,4.6,12.3,6c4.4,1.4,8.7,1.4,13.2,0.4
		c11.2-2.3,20.9-9.2,29.5-16.9c-0.2-0.8-0.3-1.6-0.5-2.4c-8.3,8.1-17.6,15.5-28.8,18.2C93.3,78.5,89.1,78.7,84.7,77.5"/>
	<path fill="#231F20" d="M77.6,58.9c-1.2,4.6-3.4,8.9-5.6,13.1c2.4-4,4.7-8.1,6.2-12.6c1.3-4.3,1.2-8.5,0.3-12.9
		C76.1,35.4,69.3,25.6,61.5,17c-0.8,0.2-1.6,0.3-2.4,0.5c8.1,8.3,15.5,17.6,18.2,28.8C78.4,50.5,78.7,54.7,77.6,58.9"/>
	<path fill="#231F20" d="M58.9,66.4c4.6,1.2,8.9,3.4,13.1,5.6c-4-2.4-8.1-4.7-12.6-6.2c-4.3-1.3-8.5-1.2-12.9-0.3
		C35.4,67.9,25.6,74.7,17,82.5c0.2,0.8,0.3,1.6,0.5,2.4c8.3-8.1,17.6-15.5,28.8-18.2C50.5,65.6,54.7,65.3,58.9,66.4"/>
	<path fill="#231F20" d="M66.5,84.7c1.2-4.5,3.4-8.6,5.5-12.7c-2.3,3.9-4.6,7.9-6,12.3c-1.4,4.4-1.4,8.7-0.4,13.2
		c2.3,11.2,9.2,20.9,16.9,29.5c0.8-0.2,1.6-0.3,2.4-0.5c-8.1-8.3-15.5-17.6-18.2-28.8C65.5,93.3,65.3,89.1,66.5,84.7"/>
</g>
</svg>
