<?xml version="1.0" encoding="utf-8"?>
<!-- Generator: Adobe Illustrator 18.1.1, SVG Export Plug-In . SVG Version: 6.00 Build 0)  -->
<!DOCTYPE svg PUBLIC "-//W3C//DTD SVG 1.1//EN" "http://www.w3.org/Graphics/SVG/1.1/DTD/svg11.dtd">
<svg version="1.1" id="Layer_1" xmlns="http://www.w3.org/2000/svg" xmlns:xlink="http://www.w3.org/1999/xlink" x="0px" y="0px"
	 viewBox="0 0 144 144" enable-background="new 0 0 144 144" xml:space="preserve">
<g>
	<defs>
		<rect id="SVGID_19_" x="39.3" y="23.8" width="65.4" height="96.4"/>
	</defs>
	<clipPath id="SVGID_2_">
		<use xlink:href="#SVGID_19_"  overflow="visible"/>
	</clipPath>
	<path clip-path="url(#SVGID_2_)" fill="#231F20" d="M72,36c-2.8,0-8.4,1.2-13.6,9.5c-2.1,3.3-3.8,7.3-5,11.7
		c-1.2,4.7-1.9,9.7-1.9,14.8s0.6,10.1,1.9,14.8c1.2,4.4,2.8,8.3,5,11.7c5.2,8.2,10.8,9.5,13.6,9.5c2.8,0,8.4-1.2,13.6-9.5
		c2.1-3.3,3.8-7.3,5-11.7c1.2-4.7,1.9-9.7,1.9-14.8s-0.6-10.1-1.9-14.8c-1.2-4.4-2.8-8.3-5-11.7C80.4,37.3,74.8,36,72,36 M72,120.2
		c-4.8,0-9.5-1.5-13.8-4.3c-3.9-2.6-7.3-6.2-10.2-10.8c-5.6-8.9-8.7-20.6-8.7-33s3.1-24.1,8.7-33c2.9-4.6,6.3-8.2,10.2-10.8
		c4.3-2.9,8.9-4.3,13.8-4.3c4.8,0,9.5,1.5,13.8,4.3c3.9,2.6,7.3,6.2,10.2,10.8c5.6,8.9,8.7,20.6,8.7,33s-3.1,24.1-8.7,33
		c-2.9,4.6-6.3,8.2-10.2,10.8C81.5,118.7,76.8,120.2,72,120.2"/>
</g>
</svg>
