<?xml version="1.0" encoding="utf-8"?>
<!-- Generator: Adobe Illustrator 18.1.1, SVG Export Plug-In . SVG Version: 6.00 Build 0)  -->
<!DOCTYPE svg PUBLIC "-//W3C//DTD SVG 1.1//EN" "http://www.w3.org/Graphics/SVG/1.1/DTD/svg11.dtd">
<svg version="1.1" id="Layer_1" xmlns="http://www.w3.org/2000/svg" xmlns:xlink="http://www.w3.org/1999/xlink" x="0px" y="0px"
	 viewBox="0 0 144 144" enable-background="new 0 0 144 144" xml:space="preserve">
<path fill="#231F20" d="M93.2,103.7c4.8,0,8.4-2.7,9.9-7.3c2.3-6.8-2.5-13.6-9.8-13.7l-53.1-0.1v21.1 M40.1,40.1v21.3
	c1.4,0,2.7,0,3.9,0c16.4,0,32.8-0.1,49.2,0.1c15.4,0.2,27.3,10,30.8,24.9c4.4,18.3-9.4,37.6-28.1,38.3c-20.2,0.7-40.4,0.3-60.6,0.3
	c-5.4,0-10.8,0-16.4,0V19h105.6v21.1H40.1z"/>
</svg>
