<?xml version="1.0" encoding="utf-8"?>
<!-- Generator: Adobe Illustrator 18.1.1, SVG Export Plug-In . SVG Version: 6.00 Build 0)  -->
<!DOCTYPE svg PUBLIC "-//W3C//DTD SVG 1.1//EN" "http://www.w3.org/Graphics/SVG/1.1/DTD/svg11.dtd">
<svg version="1.1" id="Layer_1" xmlns="http://www.w3.org/2000/svg" xmlns:xlink="http://www.w3.org/1999/xlink" x="0px" y="0px"
	 viewBox="0 0 144 144" enable-background="new 0 0 144 144" xml:space="preserve">
<g>
	<defs>
		<rect id="SVGID_29_" x="8.9" y="33.1" width="126.1" height="77.8"/>
	</defs>
	<clipPath id="SVGID_2_">
		<use xlink:href="#SVGID_29_"  overflow="visible"/>
	</clipPath>
	<path clip-path="url(#SVGID_2_)" fill="#231F20" d="M9,94.6L9,94.6c14.1-13.3,28.4-26.8,42.2-39.9c5.5-5.2,11.2-10.5,16.7-15.8
		l0.1,0.1c-5.6,5.3-11.3,10.6-16.7,15.8C37.5,67.9,23.1,81.4,9,94.6"/>
	<path clip-path="url(#SVGID_2_)" fill="#231F20" d="M10.3,94.9L10.3,94.9C16,89.7,21.6,84.1,27,78.7c4.1-4,8.2-8.2,12.5-12.2
		c5.2-4.9,10.6-9.8,15.8-14.5c5.4-4.9,11-10,16.4-15.1l0.1,0.1c-5.4,5.1-11,10.2-16.4,15.1c-5.2,4.7-10.6,9.6-15.8,14.5
		c-4.2,4-8.4,8.1-12.5,12.2C21.6,84.2,16,89.7,10.3,94.9"/>
	<path clip-path="url(#SVGID_2_)" fill="#231F20" d="M11.6,95.5L11.6,95.5c2.8-2.6,5.5-5.5,8.1-8.3c2.3-2.5,4.7-5,7.2-7.3
		c2.5-2.3,4.7-4.8,6.9-7.2c2.1-2.3,4.3-4.7,6.7-6.9c5.6-5.2,11.5-10.3,17.1-15.2c5.6-4.8,11.4-9.8,16.9-14.9l0.1,0.1
		c-5.5,5.1-11.3,10.1-16.9,15c-5.7,4.9-11.5,10-17.1,15.2c-2.3,2.2-4.5,4.6-6.7,6.9c-2.2,2.4-4.5,4.9-6.9,7.2
		c-2.5,2.3-4.9,4.9-7.2,7.3C17.2,90.1,14.5,93,11.6,95.5"/>
	<path clip-path="url(#SVGID_2_)" fill="#231F20" d="M13,96.4L13,96.4c2.8-2.6,5.3-5.6,7.7-8.5c2.2-2.6,4.4-5.3,7-7.7
		c2.5-2.4,4.7-5.1,6.9-7.7c2.2-2.7,4.5-5.5,7.1-7.9c2.2-2.1,4.6-4,7-5.8c2.3-1.8,4.6-3.6,6.8-5.6c3.5-3.2,7.3-6.3,10.9-9.3
		c3.5-2.9,7.2-5.9,10.6-9l0.1,0.1c-3.4,3.1-7.1,6.1-10.6,9c-3.6,3-7.4,6.1-10.9,9.3c-2.2,2-4.5,3.9-6.8,5.6
		c-2.3,1.8-4.7,3.7-6.9,5.8c-2.6,2.4-4.9,5.2-7,7.9c-2.1,2.6-4.4,5.4-6.9,7.7c-2.5,2.4-4.8,5.1-7,7.7C18.4,90.9,15.9,93.9,13,96.4"
		/>
	<path clip-path="url(#SVGID_2_)" fill="#231F20" d="M14.5,97.6L14.5,97.6c2.6-2.6,4.7-5.5,6.8-8.6c0.3-0.4,0.6-0.8,0.8-1.2
		c1.8-2.6,3.9-4.7,6.1-7c0.4-0.4,0.8-0.8,1.2-1.2c2.3-2.4,4.2-5.1,6.1-7.7c2.2-3,4.4-6.2,7.2-8.8c2.3-2.2,4.9-4,7.4-5.8
		c2.1-1.5,4.3-3.1,6.3-4.8c3.3-2.9,6.8-5.7,10.2-8.3c4-3.1,8.1-6.3,11.9-9.8l0.1,0.1c-3.8,3.4-7.9,6.7-11.9,9.8
		c-3.4,2.7-6.9,5.4-10.2,8.3c-2,1.7-4.2,3.3-6.3,4.8c-2.5,1.8-5.1,3.6-7.4,5.8c-2.8,2.6-5,5.8-7.2,8.8c-1.9,2.6-3.8,5.3-6.1,7.7
		c-0.4,0.4-0.8,0.8-1.2,1.2c-2.2,2.2-4.2,4.4-6,7c-0.3,0.4-0.6,0.8-0.8,1.2C19.2,92.2,17.2,95.1,14.5,97.6"/>
	<path clip-path="url(#SVGID_2_)" fill="#231F20" d="M16,99L16,99c2.6-2.7,4.5-5.8,6.4-9c0.3-0.5,0.6-0.9,0.9-1.4
		c1.7-2.9,3.8-5.1,5.9-7.5c0.4-0.4,0.7-0.8,1.1-1.2c2.2-2.5,4.1-5.5,5.9-8.3c2.2-3.5,4.4-7,7.5-9.9c2.3-2.2,5.1-3.9,7.7-5.6
		c2.1-1.3,4.3-2.7,6.3-4.3c0.9-0.7,1.7-1.5,2.6-2.2c2.2-1.8,4.4-3.7,6.8-5.4c0.5-0.4,1-0.7,1.5-1.1c3.8-2.6,7.6-5.4,11.2-8.5
		l0.1,0.1c-3.5,3.1-7.4,5.9-11.2,8.5c-0.5,0.4-1,0.7-1.5,1.1c-2.4,1.7-4.6,3.6-6.8,5.4c-0.8,0.7-1.7,1.5-2.6,2.2
		c-2,1.6-4.2,3-6.3,4.3c-2.6,1.6-5.4,3.4-7.7,5.6c-3,2.9-5.3,6.5-7.4,9.9c-1.8,2.8-3.6,5.7-5.9,8.3c-0.4,0.4-0.7,0.8-1.1,1.2
		c-2.1,2.4-4.2,4.6-5.9,7.5c-0.3,0.5-0.6,0.9-0.9,1.4C20.5,93.2,18.7,96.3,16,99"/>
	<path clip-path="url(#SVGID_2_)" fill="#231F20" d="M17.5,100.4L17.5,100.4c2.6-2.9,4.3-6.2,6.1-9.6c0.4-0.7,0.7-1.4,1.1-2.1
		c1.6-3,3.6-5.4,5.8-7.9l0.5-0.5c2.4-2.8,4.2-6.1,6-9.3c2.2-3.9,4.4-8,7.7-11.1c2.3-2.2,5.2-3.8,8-5.3c2.2-1.2,4.5-2.4,6.6-4.1
		c0.8-0.6,1.6-1.3,2.4-1.9c2.2-1.8,4.4-3.6,6.8-5.1c0.4-0.2,0.7-0.5,1.1-0.7c3.9-2.5,7.6-4.9,11.1-7.9l0.1,0.1
		c-3.5,3-7.2,5.4-11.1,7.9c-0.3,0.2-0.7,0.4-1.1,0.7c-2.4,1.6-4.5,3.3-6.8,5.1c-0.8,0.6-1.6,1.3-2.4,1.9c-2,1.6-4.3,2.9-6.6,4.1
		c-2.8,1.5-5.6,3-8,5.3C41.4,63,39.1,67.1,37,71c-1.8,3.2-3.6,6.5-6,9.3l-0.5,0.5c-2.1,2.5-4.2,4.9-5.7,7.9
		c-0.4,0.7-0.7,1.4-1.1,2.1C21.9,94.3,20.2,97.6,17.5,100.4"/>
	<path clip-path="url(#SVGID_2_)" fill="#231F20" d="M19,101.9L19,101.9c2.6-3,4.2-6.7,5.7-10.2c0.3-0.8,0.7-1.6,1-2.4
		c1.5-3.4,3.5-5.9,5.8-8.8l0.2-0.2c2.4-3,4.1-6.6,5.8-10c2.2-4.4,4.4-8.9,7.9-12.3c2.3-2.3,5.3-3.6,8.2-4.9c2.3-1,4.6-2.1,6.7-3.6
		c0.8-0.6,1.7-1.3,2.5-1.9c2.1-1.6,4.1-3.2,6.4-4.5c0.3-0.2,0.6-0.4,0.9-0.5c3.8-2.2,7.4-4.3,10.7-7.1l0.1,0.1
		c-3.3,2.8-6.9,4.9-10.8,7.1c-0.3,0.2-0.6,0.4-0.9,0.5C67,44.5,65,46,62.9,47.6c-0.8,0.6-1.6,1.3-2.5,1.9c-2,1.5-4.4,2.6-6.7,3.6
		c-2.9,1.3-5.8,2.7-8.2,4.9c-3.5,3.4-5.7,7.9-7.9,12.3c-1.7,3.5-3.5,7-5.9,10l-0.2,0.2c-2.3,2.9-4.3,5.4-5.8,8.8
		c-0.4,0.8-0.7,1.6-1,2.4c-0.8,1.8-1.6,3.6-2.5,5.3C21.3,99,20.2,100.6,19,101.9"/>
	<path clip-path="url(#SVGID_2_)" fill="#231F20" d="M20.5,103.4L20.5,103.4c2.5-3.2,3.9-6.9,5.3-10.6c0.3-0.7,0.5-1.4,0.8-2.1
		c1.5-3.9,3.5-6.6,5.8-9.8c0.2-0.2,0.3-0.5,0.5-0.7c2.2-3.1,3.9-6.6,5.5-10.1c0.5-1,0.9-1.9,1.4-2.9c0.3-0.6,0.6-1.2,0.9-1.8
		c1.5-3.2,3.2-6.8,5.8-9.2c2.3-2.2,5.4-3.4,8.3-4.5c2.3-0.8,4.6-1.7,6.6-3.1c1-0.7,1.9-1.4,2.8-2.1c1.8-1.3,3.7-2.7,5.8-3.8
		c0.6-0.3,1.1-0.6,1.6-0.8c3.4-1.7,6.6-3.4,9.6-5.8l0.1,0.1c-3,2.5-6.2,4.1-9.7,5.9c-0.5,0.3-1.1,0.6-1.6,0.8
		c-2.1,1.1-3.9,2.4-5.8,3.8c-0.9,0.7-1.9,1.4-2.8,2.1c-2,1.4-4.3,2.2-6.6,3.1c-2.9,1.1-5.9,2.2-8.3,4.4c-2.5,2.4-4.2,6-5.7,9.2
		c-0.3,0.6-0.6,1.2-0.9,1.8c-0.5,1-0.9,1.9-1.4,2.9c-1.6,3.4-3.3,7-5.6,10.1c-0.2,0.2-0.3,0.5-0.5,0.7c-2.3,3.2-4.3,5.9-5.8,9.8
		c-0.3,0.7-0.5,1.4-0.8,2.1C24.6,96.5,23.2,100.3,20.5,103.4"/>
	<path clip-path="url(#SVGID_2_)" fill="#231F20" d="M22,104.8L22,104.8c2.5-3.3,3.8-7.3,5-11.1c0.2-0.8,0.5-1.6,0.8-2.4l0-0.1
		c0.7-2,1.3-4.1,2.3-6c0.6-1.1,1.4-2.1,2.2-3.1c0.5-0.6,1-1.3,1.5-2c2.3-3.3,3.9-7.1,5.6-10.8c0.5-1,0.9-2.1,1.4-3.2
		c0.3-0.7,0.6-1.4,1-2.1c1.5-3.4,3.2-7.2,5.7-9.7c2.3-2.2,5.5-3.2,8.5-4.1c2.3-0.7,4.7-1.4,6.7-2.7c0.9-0.6,1.8-1.2,2.6-1.8
		c1.8-1.3,3.5-2.5,5.6-3.4c0.5-0.2,1-0.4,1.6-0.7c3.2-1.4,6.3-2.7,9.1-4.9l0.1,0.1c-2.8,2.3-5.9,3.6-9.1,5c-0.5,0.2-1,0.4-1.6,0.7
		c-2.1,0.9-3.8,2.1-5.6,3.4c-0.8,0.6-1.7,1.2-2.6,1.8c-2,1.3-4.4,2-6.7,2.7c-3,0.9-6.1,1.8-8.4,4.1c-2.5,2.4-4.2,6.2-5.7,9.6
		c-0.3,0.7-0.6,1.5-1,2.1c-0.5,1-1,2.1-1.4,3.2c-1.6,3.7-3.3,7.5-5.6,10.8c-0.5,0.7-1,1.3-1.5,2c-0.8,1-1.6,1.9-2.2,3.1
		c-1,1.9-1.7,3.9-2.3,5.9l0,0.1c-0.3,0.8-0.5,1.6-0.8,2.4C25.9,97.6,24.7,101.5,22,104.8"/>
	<path clip-path="url(#SVGID_2_)" fill="#231F20" d="M23.5,106L23.5,106c2.5-3.4,3.6-7.5,4.7-11.5c0.2-0.8,0.5-1.7,0.7-2.6l0-0.2
		c0.6-2.1,1.2-4.2,2.2-6.2c0.6-1.2,1.4-2.2,2.2-3.2c0.5-0.6,1-1.3,1.5-2c2.3-3.5,4-7.6,5.6-11.5c0.5-1.1,1-2.3,1.4-3.4
		c0.3-0.7,0.6-1.5,1-2.4c1.5-3.6,3.1-7.6,5.7-10.1c2.4-2.2,5.5-3,8.6-3.7c2.3-0.6,4.8-1.2,6.8-2.4c0.9-0.5,1.7-1.1,2.4-1.6
		c1.7-1.2,3.3-2.3,5.4-3c0.5-0.2,1-0.4,1.5-0.5c3-1,5.8-2,8.5-4.1l0.1,0.1c-2.7,2.1-5.5,3.1-8.5,4.1c-0.5,0.2-1,0.3-1.5,0.5
		c-2.1,0.7-3.7,1.8-5.4,3c-0.8,0.5-1.6,1.1-2.4,1.6c-2.1,1.3-4.5,1.8-6.9,2.4c-3,0.7-6.2,1.5-8.5,3.7c-2.6,2.5-4.2,6.5-5.7,10.1
		c-0.3,0.8-0.7,1.6-1,2.4c-0.5,1.1-1,2.3-1.4,3.4c-1.6,3.9-3.3,7.9-5.6,11.5c-0.5,0.7-1,1.4-1.5,2c-0.8,1-1.6,2-2.2,3.2
		c-0.9,2-1.6,4.1-2.2,6.2l0,0.2c-0.2,0.9-0.5,1.7-0.7,2.6C27.2,98.5,26.1,102.7,23.5,106"/>
	<path clip-path="url(#SVGID_2_)" fill="#231F20" d="M24.9,107L24.9,107c2.5-3.5,3.5-7.8,4.5-11.9c0.2-0.9,0.4-1.8,0.7-2.7l0.1-0.2
		c0.5-2.1,1.1-4.3,2-6.4c0.6-1.2,1.4-2.3,2.1-3.3c0.5-0.6,1-1.3,1.5-2c2.3-3.7,4-7.9,5.6-12c0.5-1.2,1-2.4,1.5-3.6
		c0.3-0.8,0.7-1.6,1-2.5c1.4-3.7,3.1-8,5.7-10.5c2.4-2.3,5.6-2.9,8.7-3.5c2.4-0.5,4.9-0.9,6.9-2.1c0.8-0.5,1.5-1,2.3-1.5
		c1.6-1.1,3.2-2.1,5.3-2.7c0.5-0.1,1-0.3,1.5-0.4c2.9-0.7,5.4-1.4,7.9-3.3l0.1,0.1c-2.6,2-5.1,2.6-8,3.4c-0.5,0.1-1,0.2-1.5,0.4
		c-2.1,0.6-3.6,1.6-5.3,2.7c-0.7,0.5-1.5,1-2.3,1.5c-2.1,1.2-4.6,1.7-7,2.2c-3.1,0.6-6.3,1.2-8.6,3.4c-2.7,2.5-4.3,6.7-5.7,10.5
		c-0.3,0.9-0.7,1.7-1,2.5c-0.5,1.2-1,2.4-1.5,3.6c-1.6,4.1-3.3,8.3-5.6,12c-0.5,0.7-1,1.4-1.5,2c-0.8,1-1.6,2.1-2.1,3.3
		c-0.9,2-1.5,4.2-2,6.3l-0.1,0.2c-0.2,0.9-0.4,1.8-0.7,2.7C28.5,99.3,27.6,103.6,24.9,107"/>
	<path clip-path="url(#SVGID_2_)" fill="#231F20" d="M26.3,107.8L26.3,107.8c2.6-3.5,3.4-7.8,4.3-12c0.1-0.7,0.3-1.5,0.5-2.2
		c1-4.5,2.1-8,5-11.8c2.7-3.6,4.3-8,5.9-12.3c0.4-1.2,0.9-2.3,1.3-3.5c0.4-1,0.8-2,1.2-3.1c1.5-4.2,3.2-8.9,6.2-11.8
		c2.4-2.3,5.6-2.8,8.8-3.3c2.5-0.4,5.1-0.8,7.3-2.1c0.6-0.4,1.1-0.7,1.7-1.1c1.8-1.2,3.3-2.2,5.7-2.6l0.5-0.1
		c3.1-0.5,5.5-0.9,8.2-2.9l0.1,0.1c-2.6,2-5.1,2.5-8.2,3l-0.5,0.1c-2.4,0.4-3.9,1.4-5.7,2.6c-0.5,0.4-1.1,0.7-1.7,1.1
		c-2.2,1.3-4.8,1.7-7.3,2.1c-3.1,0.5-6.3,1-8.7,3.3c-3,2.9-4.7,7.6-6.2,11.8C44.1,64,43.7,65,43.3,66c-0.4,1.1-0.9,2.3-1.3,3.5
		c-1.6,4.3-3.2,8.8-5.9,12.4c-2.8,3.8-4,7.3-5,11.8c-0.2,0.7-0.3,1.5-0.5,2.2C29.8,100,29,104.3,26.3,107.8"/>
	<path clip-path="url(#SVGID_2_)" fill="#231F20" d="M27.6,108.1L27.6,108.1c2.6-3.5,3.4-7.9,4.2-12.1c0.1-0.8,0.3-1.5,0.4-2.3
		c0.9-4.6,2.1-8.2,4.9-11.9c2.7-3.6,4.3-8.1,5.9-12.5c0.4-1.3,0.9-2.5,1.3-3.6c0.4-1,0.7-2,1.1-3.2c1.5-4.3,3.2-9.1,6.2-12.1
		c2.4-2.3,5.6-2.8,8.8-3.2c2.5-0.3,5.2-0.7,7.3-2c0.6-0.4,1.1-0.7,1.6-1.1c1.7-1.2,3.2-2.2,5.6-2.4c0.2,0,0.4,0,0.5-0.1
		c3-0.3,5.3-0.6,7.9-2.6l0.1,0.1c-2.6,2-4.9,2.3-7.9,2.6c-0.2,0-0.4,0-0.5,0.1c-2.4,0.3-3.9,1.3-5.6,2.4c-0.5,0.4-1.1,0.7-1.6,1.1
		c-2.2,1.4-4.8,1.7-7.4,2c-3.1,0.4-6.3,0.8-8.7,3.1c-3.1,2.9-4.7,7.8-6.2,12c-0.4,1.1-0.8,2.2-1.1,3.2c-0.5,1.2-0.9,2.4-1.3,3.6
		c-1.6,4.4-3.2,8.9-5.9,12.5c-2.9,3.7-4,7.3-4.9,11.9c-0.2,0.8-0.3,1.5-0.4,2.3C31.1,100.3,30.3,104.7,27.6,108.1"/>
	<path clip-path="url(#SVGID_2_)" fill="#231F20" d="M28.8,108.1L28.8,108.1c2.6-3.5,3.4-7.9,4.2-12.1c0.1-0.8,0.3-1.5,0.4-2.3
		c0.9-4.5,2.1-8.1,4.9-11.9c2.7-3.6,4.3-8.1,5.9-12.5c0.4-1.2,0.9-2.4,1.3-3.6c0.4-1,0.8-2.1,1.2-3.2c1.5-4.2,3.2-9.1,6.2-12
		c2.4-2.3,5.6-2.8,8.8-3.2c2.5-0.4,5.1-0.7,7.3-2.1c0.6-0.4,1.2-0.7,1.7-1.1c1.7-1.1,3.2-2.1,5.6-2.4c0.2,0,0.4,0,0.6-0.1
		c3-0.3,5.3-0.6,7.8-2.6l0.1,0.1c-2.5,2-4.9,2.3-7.9,2.6c-0.2,0-0.4,0-0.6,0.1c-2.4,0.3-3.8,1.3-5.5,2.4c-0.5,0.4-1.1,0.7-1.7,1.1
		c-2.2,1.3-4.8,1.7-7.3,2.1c-3.1,0.5-6.4,0.9-8.7,3.2c-3,2.9-4.7,7.7-6.2,11.9c-0.4,1.1-0.8,2.2-1.2,3.2c-0.5,1.2-0.9,2.3-1.3,3.6
		c-1.6,4.4-3.2,8.9-5.9,12.5c-2.8,3.8-4,7.4-4.9,11.9c-0.2,0.8-0.3,1.5-0.4,2.3C32.3,100.3,31.5,104.6,28.8,108.1"/>
	<path clip-path="url(#SVGID_2_)" fill="#231F20" d="M30,107.8L30,107.8c2.5-3.6,3.4-7.9,4.3-12c0.1-0.7,0.3-1.4,0.5-2.2
		c0.9-4.3,2.1-8,5-11.9c2.6-3.6,4.3-7.9,5.9-12.2c0.4-1.1,0.9-2.3,1.3-3.4c0.4-1,0.8-2.1,1.2-3.2c1.5-4.1,3.3-8.7,6.2-11.5
		c2.4-2.2,5.6-2.9,8.7-3.6c2.4-0.5,4.9-1,7-2.3c0.6-0.4,1.1-0.7,1.6-1c1.8-1.2,3.3-2.2,5.7-2.5c0.2,0,0.4-0.1,0.7-0.1
		c3-0.4,5.4-0.8,7.9-2.8l0.1,0.1c-2.5,2-4.9,2.3-7.9,2.8c-0.2,0-0.4,0.1-0.7,0.1c-2.4,0.3-3.9,1.3-5.6,2.5c-0.5,0.3-1.1,0.7-1.7,1
		c-2.1,1.2-4.6,1.8-7,2.3c-3.1,0.7-6.3,1.4-8.7,3.6c-2.9,2.8-4.7,7.4-6.2,11.5c-0.4,1.1-0.8,2.2-1.2,3.2c-0.5,1.1-0.9,2.3-1.3,3.4
		c-1.6,4.2-3.3,8.6-6,12.2c-2.8,3.9-4,7.5-4.9,11.9c-0.2,0.7-0.3,1.5-0.5,2.2C33.5,99.9,32.7,104.3,30,107.8"/>
	<path clip-path="url(#SVGID_2_)" fill="#231F20" d="M31.2,107.2L31.2,107.2c2.5-3.6,3.5-7.8,4.4-11.9c0.2-0.7,0.3-1.3,0.5-2
		c1-4.3,2.3-7.9,5.1-11.7c2.5-3.5,4.3-7.6,6-11.6c0.4-1,0.9-2.1,1.3-3.1c0.4-1,0.9-2,1.3-3.1c1.6-3.9,3.4-8.2,6.2-10.9
		c2.3-2.2,5.5-3.2,8.5-4.2c2.3-0.7,4.6-1.5,6.6-2.7c0.5-0.3,0.9-0.6,1.4-0.9c1.9-1.3,3.5-2.3,6-2.8c0.2,0,0.5-0.1,0.7-0.1
		c2.9-0.6,5.5-1,8-3l0.1,0.1c-2.5,2-5.1,2.5-8,3c-0.2,0-0.5,0.1-0.7,0.1c-2.5,0.5-4.1,1.5-6,2.8c-0.4,0.3-0.9,0.6-1.4,0.9
		c-2,1.2-4.3,2-6.6,2.7c-3,1-6.2,2-8.5,4.2c-2.8,2.7-4.6,7.1-6.2,10.9c-0.4,1.1-0.9,2.1-1.3,3.1c-0.5,1-0.9,2.1-1.3,3.1
		c-1.7,4-3.5,8.1-6,11.6c-2.8,3.8-4,7.4-5.1,11.7c-0.2,0.7-0.3,1.3-0.5,2C34.7,99.4,33.8,103.6,31.2,107.2"/>
	<path clip-path="url(#SVGID_2_)" fill="#231F20" d="M32.3,106.3L32.3,106.3c2.5-3.5,3.6-7.7,4.6-11.8c0.2-0.7,0.4-1.3,0.5-2
		c1.3-4.7,2.8-7.9,5.4-11.5c2.4-3.4,4.3-7.3,6.1-11c0.5-1,1-2,1.5-3c0.4-0.8,0.8-1.6,1.2-2.5c1.6-3.4,3.4-7.3,5.9-9.8
		c2.3-2.2,5.3-3.6,8.3-4.9c2.2-1,4.4-2,6.3-3.3c2.7-1.9,4.7-3.2,7.7-3.9l0.3-0.1c3-0.7,5.6-1.4,8.2-3.4l0.1,0.1
		c-2.6,2-5.2,2.7-8.2,3.4l-0.3,0.1c-3,0.7-5,2-7.7,3.9c-1.9,1.3-4.1,2.3-6.3,3.3c-3,1.3-6,2.7-8.3,4.9c-2.5,2.5-4.3,6.4-5.9,9.7
		c-0.4,0.9-0.8,1.7-1.2,2.5c-0.5,1-1,2-1.5,3c-1.8,3.8-3.7,7.6-6.1,11c-2.6,3.6-4.1,6.8-5.4,11.5c-0.2,0.7-0.4,1.4-0.5,2
		C35.9,98.6,34.8,102.8,32.3,106.3"/>
	<path clip-path="url(#SVGID_2_)" fill="#231F20" d="M33.3,105.3L33.3,105.3c2.5-3.5,3.7-7.6,4.9-11.5c0.2-0.6,0.4-1.2,0.6-1.8
		c1.4-4.6,3-7.8,5.6-11.1c2.4-3.1,4.4-6.6,6.2-10c0.5-0.9,1-1.8,1.5-2.6c0.4-0.7,0.8-1.5,1.3-2.3c1.7-3.1,3.5-6.5,6-8.9
		c2.4-2.3,5.3-4.2,8.1-5.9c1.9-1.2,3.9-2.5,5.6-3.8c2.4-1.9,4.7-3.3,7.9-4.3l0.4-0.1c3.1-0.9,5.8-1.7,8.4-3.8l0.1,0.1
		c-2.6,2.1-5.3,2.9-8.4,3.8l-0.4,0.1c-3.2,0.9-5.4,2.4-7.8,4.3c-1.8,1.4-3.7,2.6-5.6,3.8c-2.8,1.8-5.7,3.6-8,5.9
		c-2.4,2.4-4.2,5.7-6,8.9c-0.4,0.8-0.8,1.5-1.3,2.3c-0.5,0.9-1,1.8-1.5,2.6c-1.9,3.4-3.8,6.9-6.3,10c-2.5,3.3-4.2,6.5-5.6,11.1
		c-0.2,0.6-0.4,1.2-0.6,1.8C37.1,97.8,35.9,101.9,33.3,105.3"/>
	<path clip-path="url(#SVGID_2_)" fill="#231F20" d="M34.4,104.1L34.4,104.1c2.5-3.4,4-7.5,5.4-11.3c1.5-4.2,3.1-8.5,6.1-12.1
		c2.5-2.9,4.6-6.3,6.6-9.5c2.5-4,5.1-8.2,8.5-11.6c3.4-3.4,7.2-6.7,10.8-9.9c0.6-0.5,1.2-1.1,1.8-1.6c2.6-2.3,5.8-3.5,8.8-4.7
		c2.9-1.1,5.8-2.3,8.3-4.3l0.1,0.1c-2.5,2.1-5.5,3.2-8.3,4.4c-3,1.2-6.1,2.4-8.8,4.7c-0.6,0.5-1.2,1.1-1.8,1.6
		c-3.6,3.2-7.4,6.5-10.8,9.9c-3.4,3.4-6,7.5-8.5,11.6c-2,3.2-4.1,6.6-6.6,9.5c-3,3.5-4.6,7.9-6.1,12C38.5,96.7,37,100.7,34.4,104.1"
		/>
	<path clip-path="url(#SVGID_2_)" fill="#231F20" d="M35.4,102.8L35.4,102.8c2.5-3.3,4.1-7.1,5.6-10.7c1.7-4.1,3.5-8.4,6.8-11.9
		c2.5-2.6,4.7-5.5,6.9-8.3c2.6-3.3,5.2-6.6,8.2-9.6c2.1-2.1,4-4.4,5.8-6.6c1.7-2.2,3.6-4.4,5.5-6.4c2.7-2.8,6.2-4.2,9.5-5.7
		c2.9-1.2,5.8-2.5,8.3-4.6l0.1,0.1c-2.5,2.1-5.5,3.4-8.4,4.6c-3.3,1.4-6.7,2.9-9.5,5.7c-2,2-3.8,4.2-5.5,6.4
		c-1.8,2.2-3.7,4.6-5.8,6.6c-3,3-5.6,6.3-8.2,9.6c-2.2,2.8-4.5,5.6-6.9,8.3c-3.2,3.4-5,7.7-6.8,11.8C39.6,95.8,38,99.6,35.4,102.8"
		/>
	<path clip-path="url(#SVGID_2_)" fill="#231F20" d="M36.4,101.5L36.4,101.5c2.4-3,4.1-6.6,5.8-9.9c2-4.1,4-8.4,7.6-11.7
		c5.1-4.8,10.2-9.7,15.1-14.7c2.3-2.4,4-5.2,5.6-8c1.3-2.2,2.7-4.5,4.4-6.6c2.7-3.3,6.5-5.1,10.2-6.8c2.9-1.3,5.8-2.7,8.3-4.8
		l0.1,0.1c-2.5,2.1-5.5,3.5-8.3,4.8c-3.7,1.7-7.5,3.5-10.2,6.7c-1.7,2-3,4.3-4.4,6.6c-1.6,2.8-3.3,5.6-5.6,8c-4.9,5-10,10-15.1,14.7
		c-3.5,3.3-5.6,7.5-7.5,11.6C40.6,95,38.9,98.5,36.4,101.5"/>
	<path clip-path="url(#SVGID_2_)" fill="#231F20" d="M37.4,100.1L37.4,100.1c2.3-2.8,4.1-6,5.8-9.1c2.2-4,4.5-8.2,8.2-11.3
		c1.9-1.6,4-3.1,6.1-4.5c3.2-2.3,6.5-4.6,9.2-7.4c2.5-2.5,3.9-5.8,5.2-9c1-2.5,2.1-5,3.7-7.2c2.6-3.7,6.8-5.7,10.7-7.6
		c2.9-1.4,5.9-2.9,8.3-4.9l0.1,0.1c-2.4,2.1-5.4,3.5-8.3,4.9c-4,1.9-8.1,4-10.7,7.6c-1.6,2.2-2.7,4.7-3.7,7.2
		c-1.4,3.2-2.8,6.5-5.3,9.1c-2.7,2.8-6,5.1-9.3,7.4c-2,1.5-4.1,3-6.1,4.5c-3.7,3-5.9,7.2-8.1,11.2C41.5,94.2,39.8,97.4,37.4,100.1"
		/>
	<path clip-path="url(#SVGID_2_)" fill="#231F20" d="M38.3,98.8L38.3,98.8c2.2-2.5,3.9-5.4,5.6-8.2c2.3-3.7,4.6-7.6,8-10.3
		c2.2-1.8,4.9-3.1,7.5-4.4c3.1-1.6,6.4-3.2,8.9-5.7c2.7-2.6,3.8-6.4,4.9-10c0.8-2.8,1.7-5.7,3.3-8.1c2.6-3.8,6.8-6,11-8.1
		c2.9-1.5,5.9-3,8.2-5.1l0.1,0.1c-2.4,2-5.3,3.6-8.2,5.1c-4.1,2.1-8.4,4.3-11,8.1c-1.6,2.4-2.5,5.3-3.3,8.1c-1.1,3.6-2.2,7.4-4.9,10
		c-2.5,2.5-5.8,4.1-8.9,5.7c-2.6,1.3-5.2,2.6-7.4,4.4c-3.4,2.7-5.7,6.5-8,10.2C42.3,93.4,40.6,96.4,38.3,98.8"/>
	<path clip-path="url(#SVGID_2_)" fill="#231F20" d="M39.3,97.5L39.3,97.5c2-2.2,3.8-4.8,5.6-7.4c2.5-3.7,5.1-7.4,8.6-9.9
		c2.2-1.6,5-2.5,7.6-3.3c3.2-1.1,6.5-2.1,8.9-4.5c2.8-2.7,3.7-6.8,4.5-10.7c0.6-3.1,1.3-6.2,2.9-8.7c1.8-2.9,5.2-4.8,8.1-6.5
		l0.4-0.2c0.5-0.3,0.9-0.5,1.4-0.8c3.5-2,6.8-3.8,9.8-6.4l0.1,0.1c-3,2.6-6.3,4.5-9.8,6.4c-0.5,0.3-0.9,0.5-1.4,0.8l-0.4,0.2
		c-2.9,1.7-6.2,3.5-8.1,6.5c-1.6,2.5-2.2,5.6-2.9,8.7c-0.8,4-1.7,8.1-4.5,10.8c-2.4,2.3-5.7,3.4-9,4.5c-2.6,0.9-5.4,1.8-7.6,3.3
		c-3.5,2.5-6.1,6.3-8.6,9.9C43.2,92.7,41.4,95.3,39.3,97.5"/>
	<path clip-path="url(#SVGID_2_)" fill="#231F20" d="M40.2,96.3L40.2,96.3c2.6-2.7,5-5.6,7.4-8.5c0.3-0.3,0.5-0.6,0.8-1
		c0.3-0.4,0.7-0.8,1-1.2c1.7-2.1,3.4-4.2,5.5-5.6c2.2-1.5,5-2,7.7-2.5c3.2-0.6,6.6-1.2,8.9-3.5c2.9-2.8,3.6-7.1,4.2-11.3
		c0.5-3.3,1-6.6,2.5-9.2c1.7-2.9,5-4.8,7.8-6.5c0.2-0.1,0.5-0.3,0.7-0.4c0.5-0.3,1-0.6,1.5-0.9c3.5-2.1,6.8-4,9.8-6.7l0.1,0.1
		c-3,2.7-6.3,4.6-9.9,6.7c-0.5,0.3-1,0.6-1.5,0.9c-0.2,0.1-0.5,0.3-0.7,0.4c-2.8,1.7-6.1,3.6-7.8,6.4c-1.6,2.6-2,5.9-2.5,9.2
		c-0.6,4.2-1.3,8.6-4.2,11.4c-2.4,2.3-5.7,2.9-9,3.5c-2.7,0.5-5.5,1-7.7,2.5c-2.1,1.4-3.8,3.5-5.5,5.6c-0.3,0.4-0.7,0.8-1,1.2
		c-0.3,0.3-0.5,0.6-0.8,1C45.3,90.7,42.9,93.6,40.2,96.3"/>
	<path clip-path="url(#SVGID_2_)" fill="#231F20" d="M41.2,95.2L41.2,95.2c2.6-2.6,5.2-5.3,7.6-8c0.3-0.3,0.6-0.7,1-1
		c0.5-0.5,0.9-1,1.4-1.6c1.7-1.8,3.4-3.8,5.4-5c2.2-1.3,5-1.5,7.6-1.7c3.2-0.2,6.6-0.5,8.9-2.7c3-2.9,3.5-7.4,3.9-11.7
		c0.4-3.6,0.7-7.2,2.5-10.1c1.6-2.5,4.5-4.3,7.1-5.8c0.4-0.2,0.8-0.5,1.2-0.7c0.6-0.4,1.2-0.8,1.9-1.1c3.3-2,6.8-4.1,9.8-6.8
		l0.1,0.1c-3,2.7-6.5,4.8-9.9,6.8c-0.6,0.4-1.2,0.8-1.9,1.1c-0.4,0.2-0.8,0.5-1.2,0.7c-2.6,1.5-5.5,3.3-7,5.8
		c-1.8,2.8-2.1,6.5-2.5,10c-0.4,4.3-0.9,8.8-3.9,11.8c-2.4,2.3-5.7,2.5-8.9,2.8c-2.7,0.2-5.4,0.4-7.6,1.7c-2,1.2-3.7,3.1-5.4,5
		c-0.5,0.5-0.9,1.1-1.4,1.6c-0.3,0.3-0.6,0.7-1,1C46.4,89.9,43.8,92.6,41.2,95.2"/>
	<path clip-path="url(#SVGID_2_)" fill="#231F20" d="M42.1,94.3L42.1,94.3l8.8-8.5c0.7-0.6,1.3-1.3,2-2c1.5-1.6,3.1-3.2,5-4.4
		c2.3-1.4,5.1-1.5,7.8-1.5c3.2,0,6.4-0.1,8.8-2.4c3-3,3.4-7.4,3.7-11.7c0.3-3.7,0.6-7.4,2.5-10.4c1.6-2.4,4.5-4.1,7-5.7
		c0.5-0.3,0.9-0.5,1.3-0.8c0.7-0.4,1.3-0.8,2-1.2c3.3-2.1,6.8-4.2,9.8-6.8l0.1,0.1c-3,2.6-6.5,4.8-9.8,6.8c-0.6,0.4-1.3,0.8-2,1.2
		c-0.4,0.3-0.9,0.5-1.3,0.8c-2.5,1.5-5.3,3.2-6.9,5.6c-1.9,2.9-2.2,6.7-2.5,10.3c-0.3,4.3-0.7,8.7-3.7,11.8
		c-2.4,2.4-5.7,2.4-8.9,2.5c-2.7,0-5.4,0.1-7.7,1.5c-1.8,1.1-3.4,2.8-4.9,4.4c-0.7,0.7-1.3,1.3-2,2L42.1,94.3z"/>
	<path clip-path="url(#SVGID_2_)" fill="#231F20" d="M44.5,92.7L44.5,92.7c2.4-2.3,4.9-4.6,7.4-6.7l0.3-0.3c0.7-0.6,1.3-1.2,2-1.9
		c1.6-1.6,3.3-3.2,5.2-4.2c2.2-1.2,4.8-1.4,7.3-1.5c3.2-0.2,6.4-0.4,8.8-2.7c3.1-2.9,3.5-7.5,3.9-11.9c0.3-3.5,0.6-7.1,2.3-9.9
		c1.6-2.7,4.7-4.6,7.5-6.2c0.2-0.1,0.5-0.3,0.7-0.4c0.7-0.4,1.4-0.8,2.1-1.2c3.5-2.1,6.9-4,9.9-6.7L102,39c-3,2.7-6.3,4.7-9.9,6.7
		c-0.7,0.4-1.4,0.8-2.1,1.2c-0.2,0.1-0.5,0.3-0.7,0.4c-2.7,1.6-5.8,3.4-7.5,6.1c-1.7,2.8-2,6.4-2.3,9.9c-0.4,4.4-0.8,9-3.9,11.9
		c-2.4,2.3-5.7,2.5-8.9,2.7c-2.5,0.2-5.1,0.3-7.3,1.5c-1.8,1-3.5,2.6-5.2,4.2c-0.7,0.7-1.4,1.3-2,1.9L51.9,86
		C49.5,88.2,46.9,90.4,44.5,92.7"/>
	<path clip-path="url(#SVGID_2_)" fill="#231F20" d="M46.2,92.1L46.2,92.1c2.3-2.2,4.7-4.3,7.1-6.3l0.5-0.4c0.7-0.6,1.4-1.2,2.1-1.8
		c1.4-1.3,2.9-2.7,4.5-3.6c2.2-1.3,4.9-1.7,7.5-2.1c3.2-0.4,6.5-0.9,8.8-3.1c2.3-2.2,2.9-5.8,3.3-9c0-0.3,0.1-0.6,0.1-0.9
		c0.1-0.8,0.3-1.7,0.4-2.6c0.4-3.2,0.9-6.5,2.3-9.2c1.7-3.2,5.3-5.1,8.2-6.6c0.8-0.4,1.6-0.8,2.3-1.2c3.5-1.8,6.8-3.6,9.8-6.3
		l0.1,0.1c-3,2.7-6.3,4.4-9.8,6.3c-0.8,0.4-1.5,0.8-2.3,1.2c-2.9,1.5-6.4,3.5-8.1,6.6c-1.5,2.8-1.9,6-2.3,9.2
		c-0.1,0.9-0.2,1.7-0.4,2.6c0,0.3-0.1,0.6-0.1,0.9c-0.5,3.2-1,6.8-3.4,9.1c-2.3,2.3-5.7,2.7-8.9,3.1c-2.6,0.4-5.3,0.7-7.5,2
		c-1.6,1-3.1,2.3-4.5,3.6c-0.7,0.6-1.4,1.3-2.1,1.9l-0.5,0.4C51,87.9,48.6,90,46.2,92.1"/>
	<path clip-path="url(#SVGID_2_)" fill="#231F20" d="M47.5,92.4L47.5,92.4c2.2-2.2,4.7-4.3,7.1-6.2l0.5-0.4c0.8-0.6,1.5-1.3,2.3-2
		c1.4-1.2,2.8-2.5,4.3-3.5c2.1-1.4,4.8-2,7.3-2.6c3.2-0.8,6.5-1.5,8.8-3.8c2.3-2.3,2.9-5.9,3.5-9.1c0.1-0.3,0.1-0.6,0.2-1
		c0.2-0.9,0.3-1.8,0.4-2.6c0.5-3.2,1-6.5,2.5-9.4c2.2-4.1,6.9-6.1,11.4-8.1c3.1-1.3,6.4-2.7,8.7-4.8l0.1,0.1
		c-2.3,2.1-5.6,3.5-8.7,4.9c-4.5,1.9-9.1,3.9-11.3,8c-1.5,2.8-2,6.1-2.5,9.3c-0.1,0.9-0.3,1.8-0.4,2.6c-0.1,0.3-0.1,0.6-0.2,1
		c-0.6,3.2-1.2,6.9-3.5,9.1c-2.3,2.3-5.6,3-8.8,3.8c-2.5,0.6-5.2,1.2-7.3,2.6c-1.5,1-2.9,2.2-4.3,3.5c-0.7,0.7-1.5,1.4-2.3,2
		l-0.5,0.4C52.3,88.2,49.8,90.3,47.5,92.4"/>
	<path clip-path="url(#SVGID_2_)" fill="#231F20" d="M48.4,93.4L48.4,93.4c2.3-2.4,4.9-4.5,7.4-6.6l0.2-0.2c0.9-0.7,1.8-1.6,2.6-2.4
		c1.4-1.3,2.9-2.7,4.5-3.7c2-1.4,4.5-2.3,6.8-3.1c3.1-1.1,6.3-2.3,8.7-4.6c3.2-3.1,3.9-7.9,4.5-12.4c0.5-3.7,1-7.4,2.8-10.4
		c2.3-3.8,6.6-5.3,10.8-6.7c3.1-1.1,6.4-2.2,8.8-4.3l0.1,0.1c-2.4,2.1-5.6,3.2-8.8,4.3c-4.2,1.4-8.5,2.9-10.8,6.7
		c-1.8,2.9-2.3,6.7-2.8,10.4c-0.6,4.6-1.3,9.3-4.5,12.5c-2.4,2.3-5.6,3.5-8.7,4.6c-2.3,0.9-4.8,1.8-6.8,3.1
		c-1.6,1.1-3.1,2.4-4.5,3.7c-0.9,0.8-1.7,1.6-2.6,2.4l-0.2,0.2C53.4,88.9,50.8,91.1,48.4,93.4"/>
	<path clip-path="url(#SVGID_2_)" fill="#231F20" d="M49,94.8L49,94.8c2.4-2.5,5.1-4.8,7.7-7c0.3-0.2,0.5-0.5,0.8-0.7
		c1-0.9,2-1.8,3-2.7c1.2-1.1,2.4-2.3,3.7-3.3c2-1.6,4.5-2.8,6.9-4c3.1-1.6,6.3-3.2,8.6-5.6c3.2-3.3,3.9-8,4.6-12.6
		c0.6-3.9,1.3-8,3.4-11.2c2.4-3.5,6.4-4.4,10.3-5.3c3.1-0.7,6.3-1.5,8.8-3.5l0.1,0.1c-2.4,2-5.7,2.8-8.8,3.5
		c-3.9,0.9-7.9,1.9-10.3,5.3C85.6,51,85,55,84.4,58.9c-0.7,4.6-1.5,9.3-4.7,12.6c-2.4,2.5-5.6,4.1-8.6,5.6c-2.4,1.2-4.8,2.4-6.8,4
		c-1.3,1-2.5,2.2-3.7,3.3c-1,0.9-2,1.8-3,2.7c-0.3,0.2-0.5,0.5-0.8,0.7C54.2,90.1,51.5,92.3,49,94.8"/>
	<path clip-path="url(#SVGID_2_)" fill="#231F20" d="M49.5,96.5L49.5,96.5c3.6-3.9,7.7-7.5,11.7-11c1.3-1.2,2.7-2.4,4-3.5
		c2.1-1.9,4.5-3.5,6.9-5.1c3-2,6-4.1,8.5-6.7c3.2-3.4,4.1-8.2,5-12.8c0.7-3.9,1.5-7.8,3.5-11c2.4-3.7,6.2-4.1,10.2-4.6
		c3.1-0.4,6.3-0.7,8.8-2.7l0.1,0.1c-2.5,2-5.7,2.4-8.8,2.7c-4,0.5-7.8,0.9-10.2,4.6c-2.1,3.2-2.8,7.1-3.5,11
		c-0.9,4.7-1.8,9.5-5,12.9c-2.5,2.6-5.6,4.7-8.5,6.7c-2.3,1.6-4.7,3.2-6.8,5.1c-1.3,1.2-2.7,2.4-4,3.5C57.2,89,53.1,92.6,49.5,96.5"
		/>
	<path clip-path="url(#SVGID_2_)" fill="#231F20" d="M49.8,98.2L49.8,98.2c3.4-3.9,7.4-7.4,11.2-10.8c2.1-1.8,4.2-3.7,6.2-5.6
		c1.7-1.6,3.5-3.2,5.3-4.7c3.1-2.6,6.2-5.4,8.9-8.4c3.2-3.6,4.3-8.5,5.3-13.2c0.8-3.8,1.7-7.6,3.6-10.9c2.4-4,6.2-4,10.2-3.9
		c3,0,6.2,0.1,8.7-1.8l0.1,0.1c-2.6,1.9-5.7,1.8-8.8,1.8c-4-0.1-7.8-0.1-10.1,3.9c-1.9,3.2-2.8,7.1-3.6,10.9
		c-1,4.7-2.1,9.6-5.3,13.3c-2.7,3-5.8,5.7-8.9,8.4c-1.8,1.5-3.6,3.1-5.3,4.7c-2,1.9-4.2,3.8-6.2,5.7C57.3,90.9,53.3,94.4,49.8,98.2"
		/>
	<path clip-path="url(#SVGID_2_)" fill="#231F20" d="M50.3,99.7L50.3,99.7c2.9-3.4,6.3-6.4,9.6-9.3c2.8-2.5,5.8-5.1,8.4-7.9
		c5.4-5.6,10-10.6,14.1-15.3c3.3-3.7,4.4-8.6,5.6-13.4c1-4,1.9-8.2,4.2-11.6c2.5-3.8,6-3.2,9.8-2.6c3,0.5,6,1,8.6-0.7l0.1,0.1
		c-2.6,1.7-5.7,1.2-8.7,0.8c-3.7-0.6-7.3-1.2-9.7,2.5C90,45.7,89,49.8,88,53.8c-1.1,4.8-2.3,9.7-5.6,13.5
		c-4.1,4.6-8.7,9.6-14.1,15.3c-2.7,2.8-5.6,5.4-8.5,7.9C56.6,93.4,53.2,96.4,50.3,99.7"/>
	<path clip-path="url(#SVGID_2_)" fill="#231F20" d="M50.8,100.9L50.8,100.9c2.7-3.2,6-6,9.1-8.7c3.2-2.8,6.5-5.7,9.4-8.9
		c3.1-3.5,6-7.2,8.8-10.8c1.7-2.2,3.5-4.4,5.2-6.6c3.1-3.9,4.4-8.7,5.6-13.4c1.1-4.3,2.3-8.8,5-12.5c2.6-3.6,6-2.3,9.4-1.1
		c2.9,1.1,6,2.2,8.5,0l0.1,0.1c-2.5,2.2-5.6,1.1-8.6,0c-3.5-1.3-6.7-2.5-9.3,1.1c-2.6,3.7-3.8,8.2-4.9,12.5
		c-1.2,4.7-2.5,9.6-5.7,13.5c-1.8,2.2-3.5,4.4-5.2,6.6c-2.8,3.6-5.7,7.4-8.8,10.8c-2.9,3.3-6.2,6.1-9.4,8.9
		C56.8,95,53.6,97.7,50.8,100.9"/>
	<path clip-path="url(#SVGID_2_)" fill="#231F20" d="M51.6,101.4L51.6,101.4c2.6-3.1,5.8-5.7,8.9-8.2c3.4-2.8,7-5.7,9.9-9.2
		c2.6-3.1,4.9-6.5,7.1-9.8c2.1-3.2,4.3-6.5,6.9-9.6c3.3-3.9,4.6-8.9,6-13.7c1.2-4.3,2.4-8.7,4.9-12.4c2.9-4.2,6.2-2.3,9.5-0.6
		c2.8,1.5,5.7,3.1,8.3,0.8l0.1,0.1c-2.7,2.3-5.6,0.7-8.4-0.8c-1.6-0.9-3.3-1.8-4.9-1.9c-1.8-0.2-3.2,0.6-4.5,2.5
		c-2.5,3.7-3.8,8.1-4.9,12.3c-1.3,4.8-2.7,9.8-6,13.7c-2.5,3-4.7,6.3-6.9,9.6c-2.2,3.3-4.5,6.7-7.1,9.8c-2.9,3.5-6.5,6.4-9.9,9.2
		C57.4,95.8,54.3,98.4,51.6,101.4"/>
	<path clip-path="url(#SVGID_2_)" fill="#231F20" d="M52.7,101.2L52.7,101.2c2.6-2.9,5.7-5.3,8.7-7.6c3.7-2.8,7.5-5.7,10.4-9.4
		c2.6-3.3,4.8-6.9,6.9-10.4c2-3.4,4.1-6.9,6.5-10.1c3.1-4,4.6-8.9,6-13.7c1.4-4.5,2.8-9.2,5.6-13.1c2.8-3.9,6.1-1.7,9.2,0.4
		c2.8,1.8,5.6,3.8,8.1,1.6l0.1,0.1c-2.6,2.2-5.5,0.3-8.3-1.6c-1.6-1-3.2-2.1-4.7-2.4c-1.7-0.4-3.1,0.3-4.4,2
		c-2.8,3.9-4.2,8.6-5.6,13.1c-1.4,4.8-2.9,9.7-6,13.7c-2.5,3.2-4.5,6.7-6.5,10c-2.1,3.5-4.3,7.2-6.9,10.5c-3,3.7-6.8,6.6-10.4,9.5
		C58.4,96,55.3,98.4,52.7,101.2"/>
	<path clip-path="url(#SVGID_2_)" fill="#231F20" d="M54.2,100L54.2,100c2.5-2.7,5.5-4.8,8.5-6.8c3.7-2.5,7.5-5.2,10.4-8.8
		c2.6-3.4,4.7-7.2,6.7-10.9c1.9-3.6,4-7.4,6.5-10.7c3.1-4.1,4.7-9,6.2-13.8c1.4-4.6,2.9-9.4,5.8-13.3c0.9-1.2,1.9-1.9,3-2.1
		c2-0.3,4.1,1.4,6.2,3c2.7,2.1,5.5,4.3,8,2.1l0.1,0.1c-2.6,2.3-5.4,0.1-8.1-2.1c-2-1.6-4.1-3.3-6.1-3c-1.1,0.1-2,0.8-2.9,2
		c-2.9,3.9-4.3,8.7-5.8,13.3c-1.5,4.8-3,9.8-6.2,13.9c-2.6,3.3-4.6,7.1-6.5,10.7c-2,3.7-4,7.5-6.7,10.9c-2.8,3.6-6.7,6.2-10.4,8.8
		C59.8,95.3,56.8,97.4,54.2,100"/>
	<path clip-path="url(#SVGID_2_)" fill="#231F20" d="M56.3,97.5L56.3,97.5c2.3-2.3,5.3-4,8.1-5.5c3.8-2.2,7.8-4.4,10.4-8
		c2.3-3.2,4.1-6.8,5.9-10.2c1.9-3.9,3.9-7.8,6.7-11.3c3.3-4.2,5-9.3,6.6-14.3c1.3-4.2,2.7-8.5,5.1-12.2c1-1.6,2.1-2.5,3.3-2.7
		c2-0.3,3.9,1.3,6,3c2.6,2.1,5.3,4.4,8.3,2.7l0.1,0.1c-3,1.7-5.7-0.5-8.4-2.7c-2-1.7-4-3.2-5.9-2.9c-1.2,0.2-2.2,1.1-3.3,2.7
		c-2.4,3.7-3.7,8-5.1,12.2c-1.6,5-3.2,10.1-6.6,14.3c-2.8,3.5-4.8,7.4-6.7,11.3c-1.7,3.5-3.5,7-5.9,10.2c-2.7,3.7-6.6,5.9-10.5,8.1
		C61.6,93.7,58.7,95.3,56.3,97.5"/>
	<path clip-path="url(#SVGID_2_)" fill="#231F20" d="M58.4,94.8L58.4,94.8c2.1-1.8,4.8-2.9,7.4-4c3.5-1.5,7.1-3,9.5-5.8
		c2.9-3.4,4.9-7.5,6.8-11.4c1.9-3.8,3.8-7.8,6.5-11.1c3.3-4.1,4.9-9.2,6.4-14.1c1.4-4.4,2.8-9,5.5-12.9c1-1.5,2.1-2.2,3.2-2.4
		c2-0.2,3.8,1.4,5.8,3.2c2.6,2.3,5.3,4.7,8.2,2.5l0.1,0.1c-3,2.3-5.7-0.1-8.4-2.5c-2-1.7-3.8-3.4-5.7-3.2c-1.1,0.1-2.2,0.9-3.2,2.3
		c-2.7,3.8-4.1,8.4-5.5,12.8c-1.5,4.9-3.1,10-6.5,14.1c-2.7,3.3-4.7,7.3-6.5,11.1c-1.9,4-3.9,8.1-6.8,11.5c-2.4,2.9-6,4.4-9.5,5.8
		C63.3,92,60.6,93.1,58.4,94.8"/>
	<path clip-path="url(#SVGID_2_)" fill="#231F20" d="M59.8,93.7L59.8,93.7c2.6-1.8,5.3-2.9,8.2-4.1c0.4-0.2,0.9-0.4,1.3-0.5
		c0.3-0.1,0.6-0.2,0.8-0.4c2.3-1,4.7-2,6.3-3.9c2.8-3.4,4.9-7.3,7-11.1c1.9-3.6,3.9-7.4,6.6-10.6c3.3-4.1,4.8-9.1,6.3-14
		c1.4-4.5,2.8-9.1,5.5-13c1-1.4,2-2.1,3.1-2.2c2-0.2,4,1.6,6,3.4c1.9,1.7,3.8,3.4,5.6,3.2c0.9-0.1,1.7-0.6,2.5-1.6l0.1,0.1
		c-0.8,1-1.7,1.5-2.6,1.6c-1.9,0.2-3.8-1.6-5.7-3.3c-1.9-1.7-3.9-3.5-5.9-3.3c-1.1,0.1-2.1,0.8-3,2.2c-2.7,3.9-4.2,8.5-5.5,13
		c-1.5,4.9-3,10-6.3,14.1c-2.6,3.2-4.6,7-6.5,10.6c-2,3.8-4.2,7.8-7,11.1c-1.6,1.9-4,2.9-6.4,3.9c-0.3,0.1-0.6,0.2-0.8,0.4
		c-0.4,0.2-0.9,0.4-1.3,0.5C65.2,90.9,62.4,92.1,59.8,93.7"/>
	<path clip-path="url(#SVGID_2_)" fill="#231F20" d="M61.2,93.6L61.2,93.6c2.6-1.6,5.4-2.9,8.1-4.2c0.4-0.2,0.7-0.4,1.1-0.5
		c0.3-0.2,0.7-0.3,1-0.5c2.7-1.2,5.2-2.4,7-4.8c2.2-2.9,4.2-6.1,6.1-9.1c2.2-3.4,4.4-7,6.9-10.2c3.3-4.2,4.9-9.4,6.4-14.4
		c1.3-4.3,2.6-8.7,5-12.5c0.9-1.5,1.9-2.3,3.1-2.5c1.9-0.3,3.8,1.2,5.7,2.7c0.3,0.3,0.7,0.6,1.1,0.9c1,0.9,2,1.8,3.2,2.4
		c2.5,1.2,3.4,0,4.5-2.1l0.1,0c-1.1,2.1-2,3.4-4.6,2.1c-1.1-0.5-2.2-1.5-3.2-2.4c-0.4-0.3-0.7-0.6-1-0.9c-1.8-1.5-3.8-3-5.6-2.7
		c-1.1,0.2-2.1,1-3,2.4c-2.4,3.8-3.7,8.2-5,12.4c-1.5,5-3.1,10.2-6.4,14.5c-2.5,3.2-4.8,6.8-6.9,10.2c-1.9,3-3.9,6.2-6.1,9.1
		c-1.8,2.4-4.3,3.6-7,4.8c-0.3,0.2-0.7,0.3-1,0.5c-0.4,0.2-0.7,0.4-1.1,0.5C66.6,90.7,63.8,92.1,61.2,93.6"/>
	<path clip-path="url(#SVGID_2_)" fill="#231F20" d="M62.6,94.2L62.6,94.2c2.4-1.5,4.9-2.9,7.3-4.3c0.5-0.3,0.9-0.5,1.4-0.8
		c0.6-0.4,1.3-0.7,2-1.1c2.1-1.1,4.3-2.3,5.7-4c2.9-3.5,5.6-7.1,8.3-10.6c1.8-2.4,3.8-5,5.7-7.4c3.3-4.1,4.7-9.3,6.1-14.3
		c1.3-4.7,2.7-9.6,5.6-13.6c0.7-1,1.6-1.6,2.6-1.7c2-0.3,4.1,1.4,6,2.9l0.2,0.2c0.3,0.2,0.6,0.5,0.8,0.7c1,0.9,2.1,1.8,3.3,2.2
		c0.8,0.3,1.5,0.3,2,0c1-0.5,1.4-1.8,1.8-3.2l0.1-0.3l0.1,0l-0.1,0.3c-0.4,1.4-0.9,2.7-1.9,3.2c-0.6,0.3-1.2,0.3-2.1,0
		c-1.2-0.4-2.3-1.3-3.3-2.2c-0.3-0.2-0.6-0.5-0.8-0.7l-0.2-0.2c-1.9-1.5-4-3.2-5.9-2.9c-0.9,0.1-1.8,0.7-2.5,1.7
		c-2.9,4-4.3,8.9-5.6,13.6c-1.4,5-2.9,10.2-6.1,14.3c-1.9,2.4-3.8,5-5.7,7.4c-2.7,3.5-5.4,7.2-8.3,10.6c-1.4,1.7-3.6,2.9-5.7,4
		c-0.7,0.4-1.4,0.7-2,1.1c-0.5,0.3-0.9,0.5-1.4,0.8C67.5,91.3,65.1,92.8,62.6,94.2"/>
	<path clip-path="url(#SVGID_2_)" fill="#231F20" d="M64,95.4L64,95.4c2.5-1.6,4.9-3.4,7.2-5.1c0.7-0.5,1.3-1,2-1.5
		c0.7-0.5,1.5-1.1,2.3-1.6c1.7-1.2,3.4-2.4,4.9-3.9c5-5,9.8-10.2,14.2-15.4c3.6-4.2,5-9.6,6.4-14.9c1.2-4.5,2.4-9.1,4.9-13
		c0.8-1.2,1.7-1.9,2.7-2.1c1.8-0.3,3.7,1,5.7,2.4c0.3,0.2,0.7,0.5,1,0.8c1.3,1.1,2.8,2.4,4.2,2.4c2.4,0,2.8-2.2,3.1-4.1
		c0-0.3,0.1-0.5,0.1-0.8l0.1,0c0,0.2-0.1,0.5-0.1,0.8c-0.3,2-0.7,4.2-3.2,4.2c0,0-0.1,0-0.1,0c-1.4,0-3-1.4-4.3-2.5
		c-0.4-0.3-0.7-0.6-1-0.8c-1.9-1.4-3.8-2.7-5.6-2.4c-1,0.2-1.9,0.8-2.6,2c-2.5,3.8-3.7,8.5-4.9,13c-1.4,5.3-2.8,10.7-6.4,14.9
		c-4.5,5.2-9.3,10.4-14.2,15.4c-1.5,1.5-3.2,2.7-4.9,3.9c-0.7,0.5-1.5,1-2.3,1.6c-0.7,0.5-1.3,1-2,1.5C68.9,92.1,66.5,93.9,64,95.4"
		/>
	<path clip-path="url(#SVGID_2_)" fill="#231F20" d="M65.3,97.1L65.3,97.1c2.5-1.7,4.7-3.9,6.9-6c0.5-0.5,1-1,1.6-1.5
		c1.3-1.3,2.8-2.5,4.2-3.6c1.2-1,2.3-1.9,3.5-3c1.9-1.7,3.9-3.3,5.8-4.9c3.1-2.5,6.3-5.1,9-8c3.7-4.1,5-9.7,6.3-15.1
		c1.1-4.6,2.2-9.3,4.7-13.1c0.8-1.2,1.7-1.9,2.7-2.1c1.9-0.4,4,1.1,6,2.5c0.2,0.1,0.3,0.2,0.5,0.3c0.2,0.1,0.4,0.3,0.6,0.5
		c1.2,0.9,2.9,2.2,4.3,1.9c2.2-0.5,2.4-3.3,2.6-5.4c0-0.3,0-0.6,0.1-0.9l0.1,0c0,0.3,0,0.6-0.1,0.9c-0.1,2-0.4,5-2.6,5.5
		c-1.4,0.3-3.1-1-4.3-1.9c-0.2-0.2-0.4-0.3-0.6-0.5c-0.2-0.1-0.3-0.2-0.5-0.3c-2-1.4-4.1-2.9-6-2.5c-1,0.2-1.9,0.9-2.7,2
		c-2.5,3.8-3.7,8.5-4.7,13.1c-1.3,5.4-2.6,11-6.3,15.1c-2.7,3-5.9,5.5-9,8c-1.9,1.6-4,3.2-5.8,4.8c-1.1,1-2.3,2-3.5,3
		c-1.4,1.2-2.8,2.3-4.2,3.6c-0.5,0.5-1,1-1.6,1.5C70.1,93.3,67.9,95.4,65.3,97.1"/>
	<path clip-path="url(#SVGID_2_)" fill="#231F20" d="M66.7,99.1L66.7,99.1c3.2-2.4,5.8-5.6,8.4-8.6c2.2-2.6,4.5-5.4,7.2-7.6
		c2.1-1.7,4.6-3.1,7-4.4c3.1-1.7,6.2-3.4,8.6-5.9c2.7-2.8,3.8-7.1,4.8-10.9c0.2-0.6,0.3-1.2,0.5-1.8c0.3-1.2,0.6-2.4,1-3.6
		c1-4.1,2.1-8.3,4.2-11.8c0.8-1.4,1.7-2.1,2.8-2.4c1.9-0.5,4,0.9,6.3,2.3l0.3,0.2c0.2,0.1,0.4,0.3,0.6,0.4c1.2,0.8,2.8,1.9,4.2,1.6
		c2.5-0.5,2.5-4.4,2.6-6.8c0-0.4,0-0.7,0-0.9l0.1,0c0,0.3,0,0.6,0,0.9c0,2.4-0.1,6.4-2.6,6.9c-1.4,0.3-3-0.8-4.2-1.6
		c-0.2-0.1-0.4-0.3-0.6-0.4l-0.3-0.2c-2.2-1.4-4.3-2.7-6.2-2.3c-1,0.2-1.9,1-2.7,2.3c-2.1,3.5-3.2,7.7-4.2,11.8
		c-0.3,1.3-0.6,2.5-1,3.6c-0.2,0.6-0.3,1.2-0.5,1.8c-1,3.8-2.2,8.1-4.9,10.9c-2.4,2.6-5.6,4.3-8.7,6c-2.4,1.3-4.9,2.7-7,4.4
		c-2.7,2.2-5,4.9-7.2,7.6C72.6,93.6,69.9,96.7,66.7,99.1"/>
	<path clip-path="url(#SVGID_2_)" fill="#231F20" d="M68,101.3L68,101.3c2.9-2.5,5.1-5.8,7.1-9.1c2.3-3.6,4.6-7.2,8.2-9.8
		c2.2-1.5,4.8-2.4,7.4-3.2c3.2-1,6.4-2,8.8-4.3c2.7-2.6,3.7-7,4.7-10.8c0.2-0.8,0.4-1.5,0.5-2.2c0.3-1.2,0.6-2.5,0.9-3.7
		c1-4.1,2-8.4,4.1-12c2.4-4.1,5.5-2.4,8.6-0.5c0.3,0.2,0.6,0.4,0.9,0.5c0.2,0.1,0.4,0.2,0.6,0.4c1.2,0.7,2.7,1.6,4,1.3
		c2.7-0.7,2.5-5.6,2.4-8.3c0-0.4,0-0.7,0-1l0.1,0c0,0.3,0,0.6,0,1c0.1,2.7,0.3,7.7-2.5,8.4c-1.3,0.3-2.9-0.6-4.1-1.3
		c-0.2-0.1-0.4-0.2-0.6-0.4c-0.3-0.2-0.6-0.4-0.9-0.5c-1.6-0.9-3.1-1.8-4.6-2c-1.6-0.2-2.9,0.6-4,2.5c-2.1,3.6-3.1,7.8-4.1,11.9
		c-0.3,1.2-0.6,2.5-0.9,3.7c-0.2,0.7-0.4,1.4-0.5,2.1c-0.9,3.8-2,8.2-4.7,10.8c-2.4,2.4-5.7,3.4-8.8,4.4c-2.6,0.8-5.2,1.6-7.4,3.2
		c-3.5,2.5-5.9,6.2-8.2,9.7C73.2,95.5,71,98.8,68,101.3"/>
	<path clip-path="url(#SVGID_2_)" fill="#231F20" d="M69.3,103.6L69.3,103.6c2.7-2.7,4.7-6.2,6.5-9.6c0.5-0.8,0.9-1.7,1.4-2.5
		c0.2-0.4,0.4-0.8,0.7-1.2c1.6-2.9,3.5-6.2,6.3-8c2.3-1.5,5.2-1.8,8-2c3.2-0.3,6.6-0.6,9-2.9c2.6-2.5,3.7-7,4.5-10.7
		c0.2-0.7,0.3-1.5,0.5-2.1c0.3-1.3,0.6-2.6,0.9-4c1-4.4,2-8.9,4.2-12.4c2.4-3.7,5.3-2.1,8.5-0.4c0.2,0.1,0.4,0.2,0.7,0.4
		c0.2,0.1,0.4,0.2,0.5,0.3c1.4,0.8,3.4,1.9,4.9,1.1c2.4-1.4,2-6.3,1.8-9.3c0-0.5-0.1-1-0.1-1.3l0.1,0c0,0.4,0,0.8,0.1,1.3
		c0.2,3,0.6,7.9-1.9,9.4c-1.5,0.9-3.5-0.3-5-1.1c-0.2-0.1-0.4-0.2-0.5-0.3c-0.2-0.1-0.4-0.2-0.7-0.4c-3.1-1.7-6-3.3-8.3,0.4
		c-2.2,3.6-3.2,8.1-4.2,12.4c-0.3,1.4-0.6,2.7-0.9,4c-0.2,0.7-0.3,1.4-0.5,2.1c-0.9,3.7-1.9,8.3-4.6,10.8c-2.5,2.3-5.8,2.6-9.1,2.9
		c-2.8,0.3-5.6,0.5-7.9,2c-2.8,1.8-4.6,5.1-6.3,8c-0.2,0.4-0.4,0.8-0.7,1.2c-0.5,0.8-0.9,1.7-1.4,2.5C74.1,97.4,72.2,101,69.3,103.6
		"/>
	<path clip-path="url(#SVGID_2_)" fill="#231F20" d="M70.7,105.7L70.7,105.7c2.8-2.8,4.6-6.8,6.3-10.6c0.5-1.1,0.9-2.1,1.4-3.1
		c0.2-0.5,0.5-1.1,0.8-1.6c1.5-3.3,3.4-7.3,6.5-8.8c2.4-1.1,5.2-0.8,7.9-0.6c3.3,0.3,6.7,0.6,9.3-1.6c2.6-2.3,3.6-7,4.5-10.8
		c0.2-0.8,0.3-1.5,0.5-2.2c0.3-1.3,0.6-2.6,0.9-3.9c0.9-4.4,1.9-9,4.1-12.7c2.3-3.8,5.4-2.2,8.4-0.6c0.5,0.3,1,0.5,1.5,0.8
		c0.1,0,0.2,0.1,0.3,0.1c1.3,0.6,3,1.4,4.4,0.6c2.7-1.7,2-7.5,1.7-10.6c-0.1-0.6-0.1-1-0.1-1.4l0.1,0c0,0.4,0.1,0.9,0.1,1.4
		c0.3,3.2,1,9-1.7,10.7c-1.4,0.9-3.1,0.1-4.5-0.6c-0.1,0-0.2-0.1-0.3-0.1c-0.5-0.2-1-0.5-1.5-0.8c-3.1-1.6-6-3.1-8.3,0.6
		c-2.2,3.7-3.2,8.2-4.1,12.6c-0.3,1.4-0.6,2.7-0.9,3.9c-0.2,0.7-0.3,1.4-0.5,2.2c-0.8,3.8-1.8,8.5-4.5,10.8c-2.6,2.2-6,1.9-9.3,1.6
		c-2.7-0.2-5.5-0.5-7.8,0.6c-3.1,1.4-5,5.5-6.5,8.8c-0.3,0.6-0.5,1.1-0.8,1.6c-0.5,1-0.9,2-1.4,3.1C75.3,99,73.6,103,70.7,105.7"/>
	<path clip-path="url(#SVGID_2_)" fill="#231F20" d="M71.9,107.7L71.9,107.7c2.9-3.1,4.6-7.4,6.2-11.6c0.5-1.2,0.9-2.3,1.4-3.4
		c0.2-0.6,0.5-1.2,0.8-1.9c1.4-3.4,3.2-8.2,6.5-9.4c2.5-1,5.3-0.2,8.1,0.5c3.4,0.9,6.8,1.8,9.5-0.5c2.7-2.2,3.6-7,4.4-10.8
		c0.2-0.8,0.3-1.6,0.5-2.3c0.3-1.3,0.6-2.6,0.8-4c0.9-4.4,1.8-9,4-12.7c2.2-3.7,5.3-2.2,8.3-0.7c0.4,0.2,0.8,0.4,1.2,0.6
		c0.1,0,0.2,0.1,0.3,0.1c1.7,0.8,3.6,1.7,5.2,0.4c2.4-2.1,1.7-8,1.2-11.5c-0.1-0.7-0.2-1.2-0.2-1.7l0.1,0c0,0.5,0.1,1,0.2,1.7
		c0.5,3.5,1.3,9.4-1.2,11.6c-1.6,1.4-3.6,0.4-5.3-0.4c-0.1-0.1-0.2-0.1-0.3-0.1c-0.4-0.2-0.8-0.4-1.2-0.6c-3.1-1.5-6-3-8.2,0.7
		c-2.2,3.7-3.1,8.3-4,12.7c-0.3,1.4-0.5,2.7-0.8,4c-0.2,0.7-0.3,1.5-0.5,2.3c-0.8,3.9-1.7,8.7-4.4,10.9c-2.7,2.2-6.2,1.3-9.6,0.5
		c-2.8-0.7-5.6-1.4-8-0.5c-3.2,1.2-5.1,5.9-6.4,9.4c-0.3,0.7-0.5,1.3-0.8,1.9c-0.5,1.1-0.9,2.2-1.4,3.4
		C76.6,100.3,74.9,104.7,71.9,107.7"/>
	<path clip-path="url(#SVGID_2_)" fill="#231F20" d="M73.2,109.3L73.2,109.3c3-3.3,4.6-7.9,6.1-12.4c0.4-1.3,0.9-2.5,1.3-3.6
		c0.2-0.6,0.5-1.3,0.7-2.1c1.3-3.7,3.1-8.9,6.3-10.2c2.6-1,5.6,0.2,8.5,1.3c3.4,1.4,6.9,2.8,9.7,0.5c2.8-2.3,3.7-7.3,4.4-11.4
		c0.2-0.9,0.3-1.8,0.5-2.5c0.3-1.2,0.5-2.4,0.7-3.7c0.8-4.5,1.7-9.1,4-12.7c2.2-3.5,5.3-1.9,8.2-0.4c0.5,0.3,1,0.5,1.5,0.7l0.1,0
		c1.6,0.7,3.7,1.7,5.2,0.3c2.6-2.4,1.6-8.9,1-12.7c-0.1-0.7-0.2-1.3-0.3-1.8l0.1,0c0.1,0.5,0.2,1.1,0.3,1.8c0.6,3.9,1.6,10.4-1,12.8
		c-1.5,1.4-3.7,0.4-5.3-0.3l-0.1,0c-0.5-0.2-1-0.5-1.5-0.7c-2.9-1.5-5.9-3-8.1,0.4c-2.3,3.6-3.2,8.2-4,12.7
		c-0.2,1.3-0.5,2.5-0.7,3.7c-0.2,0.7-0.3,1.6-0.5,2.5c-0.7,4.1-1.7,9.2-4.5,11.5c-1.1,0.9-2.3,1.2-3.5,1.2c-2,0-4.1-0.9-6.3-1.7
		c-2.9-1.1-5.9-2.3-8.4-1.3c-3.2,1.3-5,6.4-6.3,10.1c-0.3,0.8-0.5,1.5-0.7,2.1c-0.4,1.1-0.9,2.4-1.3,3.6
		C77.9,101.5,76.3,106.1,73.2,109.3"/>
	<path clip-path="url(#SVGID_2_)" fill="#231F20" d="M74.5,110.4L74.5,110.4c3.1-3.3,4.7-8.4,6.1-12.9c0.4-1.4,0.8-2.6,1.3-3.8
		c0.2-0.6,0.4-1.3,0.7-2.1c1.2-3.8,3-9.4,6.3-10.7c2.7-1,5.7,0.5,8.7,2c3.6,1.8,7,3.5,9.8,1.1c2.6-2.2,3.6-7.3,4.2-11
		c0.1-0.8,0.3-1.6,0.4-2.2c0.3-1.3,0.5-2.7,0.8-4.1c0.8-4.7,1.7-9.5,4.1-13.2c2.2-3.4,5.4-1.7,8.2-0.2c0.6,0.3,1.2,0.6,1.8,0.9
		c1.8,0.8,4,1.8,5.5,0c2.4-2.7,1.2-9.4,0.5-13.4c-0.1-0.8-0.3-1.5-0.3-2l0.1,0c0.1,0.5,0.2,1.2,0.3,2c0.7,4,1.9,10.8-0.6,13.5
		c-1.6,1.8-3.8,0.8-5.6,0c-0.6-0.3-1.2-0.6-1.8-0.9c-2.9-1.5-5.9-3.1-8.1,0.2c-2.4,3.7-3.2,8.5-4,13.2c-0.3,1.5-0.5,2.8-0.8,4.1
		c-0.1,0.7-0.3,1.4-0.4,2.2c-0.7,3.7-1.6,8.8-4.3,11c-2.9,2.4-6.4,0.6-9.9-1.1c-2.9-1.5-6-3-8.6-2c-3.3,1.2-5.1,6.9-6.3,10.6
		c-0.2,0.8-0.5,1.5-0.7,2.1c-0.4,1.2-0.8,2.5-1.3,3.8C79.2,102.1,77.6,107.2,74.5,110.4"/>
	<path clip-path="url(#SVGID_2_)" fill="#231F20" d="M75.7,110.9L75.7,110.9c3.2-3.3,4.7-8.6,6.1-13.3c0.4-1.4,0.8-2.7,1.2-3.9
		c0.2-0.6,0.4-1.3,0.7-2.1c1.2-4,2.9-9.5,6.3-10.9c2.8-1.1,5.8,0.6,8.8,2.3c3.5,2,6.9,3.9,9.8,1.4c2.8-2.4,3.7-7.5,4.4-11.6
		c0.2-0.9,0.3-1.7,0.5-2.4c0.2-1.2,0.5-2.4,0.7-3.7c0.8-4.3,1.6-9.3,3.9-12.9c2.2-3.4,5.5-1.5,8.4,0.2c0.6,0.4,1.3,0.7,1.8,1
		c1.7,0.8,3.9,1.9,5.4,0.2c0.9-1,1-2.6,1.1-4c0-0.2,0-0.3,0-0.5c0.2-3.5-0.3-7-0.9-10.4c-0.1-0.6-0.2-1.1-0.3-1.7l0.1,0
		c0.1,0.6,0.2,1.1,0.3,1.7c0.5,3.4,1.1,6.9,0.9,10.4c0,0.2,0,0.3,0,0.5c-0.1,1.4-0.2,3-1.1,4c-1.6,1.8-3.8,0.7-5.5-0.2
		c-0.6-0.3-1.2-0.6-1.8-1c-2.9-1.7-6.1-3.5-8.3-0.2c-2.3,3.6-3.2,8.5-3.9,12.8c-0.2,1.3-0.4,2.5-0.7,3.7c-0.2,0.7-0.3,1.6-0.5,2.4
		c-0.7,4.1-1.6,9.2-4.4,11.7c-1,0.9-2.1,1.2-3.2,1.2c-2.2,0-4.5-1.3-6.7-2.6c-2.9-1.7-6-3.4-8.7-2.3c-3.4,1.4-5.1,6.9-6.3,10.9
		c-0.2,0.8-0.5,1.5-0.7,2.1c-0.4,1.2-0.8,2.5-1.2,3.9C80.6,102.3,79,107.6,75.7,110.9"/>
</g>
</svg>
