<?xml version="1.0" encoding="utf-8"?>
<!-- Generator: Adobe Illustrator 18.1.1, SVG Export Plug-In . SVG Version: 6.00 Build 0)  -->
<!DOCTYPE svg PUBLIC "-//W3C//DTD SVG 1.1//EN" "http://www.w3.org/Graphics/SVG/1.1/DTD/svg11.dtd">
<svg version="1.1" id="Layer_1" xmlns="http://www.w3.org/2000/svg" xmlns:xlink="http://www.w3.org/1999/xlink" x="0px" y="0px"
	 viewBox="0 0 144 144" enable-background="new 0 0 144 144" xml:space="preserve">
<g>
	<g>
		<defs>
			<rect id="SVGID_27_" x="9.5" y="9.5" width="125" height="125"/>
		</defs>
		<clipPath id="SVGID_2_">
			<use xlink:href="#SVGID_27_"  overflow="visible"/>
		</clipPath>
		<path clip-path="url(#SVGID_2_)" fill="#231F20" d="M72,9.6c-8.4,0-16.6,1.6-24.3,4.9c-7.4,3.1-14.1,7.6-19.8,13.4
			c-5.7,5.7-10.2,12.4-13.4,19.8C11.3,55.4,9.6,63.6,9.6,72c0,8.4,1.6,16.6,4.9,24.3c3.1,7.4,7.6,14.1,13.4,19.8
			c5.7,5.7,12.4,10.2,19.8,13.4c7.7,3.3,15.9,4.9,24.3,4.9s16.6-1.6,24.3-4.9c7.4-3.1,14.1-7.6,19.8-13.4
			c5.7-5.7,10.2-12.4,13.4-19.8c3.3-7.7,4.9-15.9,4.9-24.3c0-8.4-1.6-16.6-4.9-24.3c-3.1-7.4-7.6-14.1-13.4-19.8
			c-5.7-5.7-12.4-10.2-19.8-13.4C88.6,11.3,80.4,9.6,72,9.6 M72,134.5c-8.4,0-16.6-1.7-24.3-4.9c-7.4-3.1-14.1-7.7-19.9-13.4
			c-5.7-5.7-10.2-12.4-13.4-19.9C11.1,88.6,9.5,80.4,9.5,72s1.7-16.6,4.9-24.3c3.1-7.4,7.7-14.1,13.4-19.9
			c5.7-5.7,12.4-10.2,19.9-13.4c7.7-3.3,15.9-4.9,24.3-4.9s16.6,1.7,24.3,4.9c7.4,3.1,14.1,7.7,19.9,13.4
			c5.7,5.7,10.2,12.4,13.4,19.9c3.3,7.7,4.9,15.9,4.9,24.3s-1.7,16.6-4.9,24.3c-3.1,7.4-7.7,14.1-13.4,19.9
			c-5.7,5.7-12.4,10.2-19.9,13.4C88.6,132.9,80.4,134.5,72,134.5"/>
		<path clip-path="url(#SVGID_2_)" fill="#231F20" d="M72,10c-8,0-15.7,1.6-23,4.9c-7,3.1-13.4,7.6-18.8,13.3
			c-5.4,5.7-9.7,12.3-12.7,19.7c-3.1,7.7-4.7,15.8-4.7,24.2c0,8.4,1.6,16.5,4.7,24.2c3,7.4,7.3,14,12.7,19.7
			c5.4,5.7,11.8,10.2,18.8,13.3c7.3,3.2,15,4.9,23,4.9s15.7-1.6,23-4.9c7-3.1,13.4-7.6,18.8-13.3c5.4-5.7,9.7-12.3,12.7-19.7
			c3.1-7.7,4.7-15.8,4.7-24.2c0-8.4-1.6-16.5-4.7-24.2c-3-7.4-7.3-14-12.7-19.7C108.4,22.5,102.1,18,95,14.9C87.7,11.7,80,10,72,10
			 M72,134.3c-8,0-15.8-1.6-23.1-4.9c-7.1-3.1-13.4-7.6-18.9-13.3c-5.4-5.7-9.7-12.4-12.7-19.8c-3.1-7.7-4.7-15.8-4.7-24.2
			c0-8.4,1.6-16.5,4.7-24.2c3-7.4,7.3-14.1,12.7-19.8c5.4-5.7,11.8-10.2,18.9-13.3C56.2,11.5,64,9.9,72,9.9s15.8,1.6,23.1,4.9
			c7.1,3.1,13.4,7.6,18.9,13.3c5.4,5.7,9.7,12.4,12.7,19.8c3.1,7.7,4.7,15.8,4.7,24.2c0,8.4-1.6,16.5-4.7,24.2
			c-3,7.4-7.3,14.1-12.7,19.8c-5.4,5.7-11.8,10.2-18.9,13.3C87.8,132.6,80,134.3,72,134.3"/>
		<path clip-path="url(#SVGID_2_)" fill="#231F20" d="M72,10.4c-7.6,0-14.9,1.6-21.8,4.8c-6.7,3.1-12.7,7.6-17.8,13.2
			c-5.1,5.7-9.2,12.3-12,19.6c-2.9,7.6-4.4,15.7-4.4,24s1.5,16.4,4.4,24c2.8,7.4,6.9,14,12,19.6c5.1,5.7,11.1,10.1,17.8,13.2
			c6.9,3.2,14.2,4.9,21.8,4.9s14.9-1.6,21.8-4.9c6.7-3.1,12.7-7.6,17.8-13.2c5.1-5.7,9.2-12.3,12-19.6c2.9-7.6,4.4-15.7,4.4-24
			s-1.5-16.4-4.4-24c-2.8-7.4-6.9-14-12-19.6c-5.1-5.7-11.1-10.1-17.8-13.2C86.9,12.1,79.5,10.4,72,10.4 M72,134
			c-7.6,0-14.9-1.6-21.8-4.9c-6.7-3.1-12.7-7.6-17.8-13.3c-5.2-5.7-9.2-12.3-12-19.7c-2.9-7.6-4.4-15.7-4.4-24.1s1.5-16.4,4.4-24.1
			c2.8-7.4,6.9-14,12-19.7c5.2-5.7,11.2-10.1,17.8-13.3c6.9-3.2,14.3-4.9,21.8-4.9s14.9,1.6,21.8,4.9c6.7,3.1,12.7,7.6,17.8,13.3
			c5.2,5.7,9.2,12.3,12,19.7c2.9,7.6,4.4,15.7,4.4,24.1s-1.5,16.4-4.4,24.1c-2.8,7.4-6.9,14-12,19.7c-5.2,5.7-11.2,10.1-17.8,13.3
			C86.9,132.4,79.5,134,72,134"/>
		<path clip-path="url(#SVGID_2_)" fill="#231F20" d="M71.9,10.8c-7.1,0-14,1.6-20.5,4.8c-6.3,3.1-11.9,7.5-16.8,13.2
			c-10,11.6-15.5,27-15.5,43.4c0,16.4,5.5,31.8,15.5,43.4c4.8,5.6,10.5,10.1,16.8,13.2c6.5,3.2,13.4,4.8,20.5,4.8s14-1.6,20.5-4.8
			c6.3-3.1,11.9-7.5,16.8-13.2c10-11.6,15.5-27,15.5-43.4c0-16.4-5.5-31.8-15.5-43.4c-4.8-5.6-10.5-10.1-16.8-13.2
			C86,12.5,79.1,10.8,71.9,10.8 M71.9,133.8c-7.1,0-14.1-1.6-20.6-4.8c-6.3-3.1-12-7.5-16.8-13.2C24.5,104.1,19,88.7,19,72.2
			c0-16.4,5.5-31.9,15.5-43.5c4.9-5.7,10.5-10.1,16.8-13.2c6.5-3.2,13.5-4.8,20.6-4.8s14.1,1.6,20.6,4.8c6.3,3.1,12,7.5,16.8,13.2
			c10,11.6,15.5,27.1,15.5,43.5c0,16.4-5.5,31.9-15.5,43.5c-4.9,5.7-10.5,10.1-16.8,13.2C86,132.1,79.1,133.8,71.9,133.8"/>
		<path clip-path="url(#SVGID_2_)" fill="#231F20" d="M71.9,11.2c-6.7,0-13.2,1.6-19.3,4.8c-5.9,3.1-11.2,7.5-15.8,13.1
			C27.5,40.7,22.3,56,22.3,72.3c0,16.3,5.2,31.7,14.5,43.2c4.6,5.6,9.9,10,15.8,13.1c6.1,3.2,12.6,4.8,19.3,4.8
			c6.7,0,13.2-1.6,19.3-4.8c5.9-3.1,11.2-7.5,15.8-13.1c9.4-11.5,14.5-26.9,14.5-43.2c0-16.3-5.2-31.7-14.5-43.2
			c-4.6-5.6-9.9-10-15.8-13.1C85.1,12.9,78.6,11.2,71.9,11.2 M71.9,133.5c-6.7,0-13.2-1.6-19.4-4.8c-5.9-3.1-11.2-7.5-15.8-13.1
			C27.4,104,22.2,88.7,22.2,72.3c0-16.3,5.2-31.7,14.6-43.3c4.6-5.6,9.9-10,15.8-13.1c6.1-3.2,12.6-4.8,19.4-4.8
			c6.7,0,13.2,1.6,19.4,4.8c5.9,3.1,11.2,7.5,15.8,13.1c9.4,11.6,14.6,26.9,14.6,43.3c0,16.3-5.2,31.7-14.6,43.3
			c-4.6,5.6-9.9,10-15.8,13.1C85.2,131.9,78.6,133.5,71.9,133.5"/>
		<path clip-path="url(#SVGID_2_)" fill="#231F20" d="M71.9,11.7c-6.3,0-12.3,1.6-18.1,4.8c-5.5,3.1-10.5,7.4-14.8,13
			c-8.8,11.5-13.6,26.7-13.6,43s4.8,31.5,13.6,43c4.3,5.6,9.2,10,14.8,13c5.7,3.2,11.8,4.8,18.1,4.8c6.3,0,12.3-1.6,18.1-4.8
			c5.5-3.1,10.5-7.4,14.8-13c8.8-11.5,13.6-26.7,13.6-43s-4.8-31.5-13.6-43c-4.3-5.6-9.2-10-14.8-13C84.2,13.3,78.2,11.7,71.9,11.7
			 M71.9,133.2c-6.3,0-12.4-1.6-18.1-4.8c-5.5-3.1-10.5-7.5-14.8-13c-8.8-11.5-13.6-26.8-13.6-43s4.8-31.5,13.6-43
			c4.3-5.6,9.2-10,14.8-13c5.7-3.2,11.8-4.8,18.1-4.8c6.3,0,12.4,1.6,18.1,4.8c5.5,3.1,10.5,7.5,14.8,13c8.8,11.5,13.6,26.8,13.6,43
			s-4.8,31.5-13.6,43c-4.3,5.6-9.2,10-14.8,13C84.3,131.6,78.2,133.2,71.9,133.2"/>
		<path clip-path="url(#SVGID_2_)" fill="#231F20" d="M71.9,12.1c-11.5,0-22.4,6.3-30.5,17.7c-8.2,11.4-12.7,26.6-12.7,42.7
			c0,16.1,4.5,31.3,12.7,42.7c8.2,11.4,19,17.7,30.5,17.7s22.4-6.3,30.5-17.7c8.2-11.4,12.7-26.6,12.7-42.7
			c0-16.1-4.5-31.3-12.7-42.7C94.3,18.3,83.4,12.1,71.9,12.1 M71.9,133c-5.9,0-11.5-1.6-16.9-4.8c-5.2-3.1-9.8-7.4-13.8-13
			c-8.2-11.4-12.7-26.6-12.7-42.8c0-16.2,4.5-31.4,12.7-42.8c4-5.6,8.6-9.9,13.8-13c5.3-3.2,11-4.8,16.9-4.8
			c5.9,0,11.5,1.6,16.9,4.8c5.2,3.1,9.8,7.4,13.8,13c8.2,11.4,12.7,26.6,12.7,42.8c0,16.2-4.5,31.4-12.7,42.8
			c-4,5.6-8.6,9.9-13.8,13C83.4,131.4,77.7,133,71.9,133"/>
		<path clip-path="url(#SVGID_2_)" fill="#231F20" d="M71.9,12.5c-10.7,0-20.7,6.2-28.3,17.6C36,41.4,31.9,56.5,31.9,72.5
			S36,103.7,43.6,115c7.6,11.3,17.6,17.6,28.3,17.6s20.7-6.2,28.3-17.6c7.6-11.3,11.7-26.4,11.7-42.5s-4.2-31.1-11.7-42.5
			C92.6,18.7,82.5,12.5,71.9,12.5 M71.9,132.7c-10.7,0-20.8-6.3-28.4-17.6c-7.6-11.4-11.7-26.5-11.7-42.6c0-16.1,4.2-31.2,11.7-42.6
			c7.6-11.4,17.7-17.6,28.4-17.6c10.7,0,20.8,6.3,28.4,17.6c7.6,11.4,11.7,26.5,11.7,42.6c0,16.1-4.2,31.2-11.7,42.6
			C92.7,126.5,82.6,132.7,71.9,132.7"/>
		<path clip-path="url(#SVGID_2_)" fill="#231F20" d="M71.8,12.9c-9.8,0-19.1,6.2-26,17.5C38.9,41.6,35,56.7,35,72.6
			s3.8,31,10.8,42.3c7,11.3,16.2,17.5,26,17.5s19.1-6.2,26-17.5c7-11.3,10.8-26.3,10.8-42.3c0-16-3.8-31-10.8-42.3
			C90.9,19.1,81.7,12.9,71.8,12.9 M71.8,132.5c-9.9,0-19.2-6.2-26.1-17.5c-7-11.3-10.8-26.3-10.8-42.3s3.8-31,10.8-42.3
			C52.7,19,62,12.8,71.8,12.8S91,19,98,30.3c7,11.3,10.8,26.3,10.8,42.3s-3.8,31-10.8,42.3C91,126.3,81.7,132.5,71.8,132.5"/>
		<path clip-path="url(#SVGID_2_)" fill="#231F20" d="M71.8,13.3c-9,0-17.4,6.2-23.8,17.4c-6.4,11.2-9.9,26.1-9.9,42
			c0,15.9,3.5,30.8,9.9,42c6.3,11.2,14.8,17.4,23.8,17.4s17.4-6.2,23.8-17.4c6.4-11.2,9.9-26.1,9.9-42c0-15.9-3.5-30.8-9.9-42
			C89.2,19.5,80.8,13.3,71.8,13.3 M71.8,132.2c-9,0-17.5-6.2-23.9-17.5c-6.4-11.2-9.9-26.2-9.9-42.1c0-15.9,3.5-30.8,9.9-42.1
			c6.4-11.3,14.9-17.5,23.9-17.5s17.5,6.2,23.9,17.5c6.4,11.2,9.9,26.2,9.9,42.1c0,15.9-3.5,30.8-9.9,42.1
			C89.3,126,80.8,132.2,71.8,132.2"/>
		<path clip-path="url(#SVGID_2_)" fill="#231F20" d="M71.8,13.7c-16.8,0-30.4,26.5-30.4,59.1s13.6,59.1,30.4,59.1
			s30.4-26.5,30.4-59.1S88.6,13.7,71.8,13.7 M71.8,132c-8.2,0-15.8-6.2-21.6-17.4c-5.8-11.2-8.9-26-8.9-41.8
			c0-15.8,3.2-30.7,8.9-41.8C56,19.7,63.6,13.6,71.8,13.6s15.8,6.2,21.6,17.4c5.8,11.2,8.9,26,8.9,41.8c0,15.8-3.2,30.7-8.9,41.8
			C87.6,125.8,80,132,71.8,132"/>
		<path clip-path="url(#SVGID_2_)" fill="#231F20" d="M71.8,14.1c-15,0-27.2,26.4-27.2,58.7s12.2,58.7,27.2,58.7S99,105.2,99,72.8
			S86.8,14.1,71.8,14.1 M71.8,131.7c-7.3,0-14.2-6.1-19.3-17.3c-5.2-11.1-8-25.9-8-41.6s2.8-30.5,8-41.6C57.6,20.1,64.5,14,71.8,14
			S86,20.1,91.1,31.2c5.2,11.1,8,25.9,8,41.6s-2.8,30.5-8,41.6C86,125.6,79.1,131.7,71.8,131.7"/>
		<path clip-path="url(#SVGID_2_)" fill="#231F20" d="M71.8,14.5c-13.2,0-24,26.2-24,58.4c0,32.2,10.8,58.4,24,58.4s24-26.2,24-58.4
			C95.8,40.7,85,14.5,71.8,14.5 M71.8,131.5c-6.5,0-12.5-6.1-17.1-17.2c-4.6-11.1-7.1-25.7-7.1-41.4s2.5-30.3,7.1-41.4
			c4.6-11.1,10.6-17.2,17.1-17.2s12.5,6.1,17.1,17.2c4.6,11.1,7.1,25.7,7.1,41.4s-2.5,30.3-7.1,41.4
			C84.3,125.4,78.2,131.5,71.8,131.5"/>
		<path clip-path="url(#SVGID_2_)" fill="#231F20" d="M71.7,14.9C60.3,14.9,50.9,41,50.9,73c0,32,9.3,58.1,20.8,58.1
			S92.6,105,92.6,73C92.6,41,83.2,14.9,71.7,14.9 M71.7,131.2c-5.6,0-10.9-6.1-14.8-17.1c-3.9-11-6.1-25.6-6.1-41.1
			c0-15.5,2.2-30.1,6.1-41.1c4-11,9.2-17.1,14.8-17.1c5.6,0,10.9,6.1,14.8,17.1c3.9,11,6.1,25.6,6.1,41.1c0,15.5-2.2,30.1-6.1,41.1
			C82.6,125.1,77.4,131.2,71.7,131.2"/>
		<path clip-path="url(#SVGID_2_)" fill="#231F20" d="M71.7,15.3c-9.7,0-17.6,25.9-17.6,57.7c0,31.8,7.9,57.7,17.6,57.7
			c9.7,0,17.6-25.9,17.6-57.7C89.4,41.2,81.4,15.3,71.7,15.3 M71.7,131c-4.8,0-9.2-6-12.6-17C55.8,103.1,54,88.5,54,73.1
			s1.8-30,5.2-40.9c3.4-10.9,7.8-17,12.6-17c4.8,0,9.2,6,12.6,17c3.3,10.9,5.2,25.4,5.2,40.9s-1.8,30-5.2,40.9
			C80.9,124.9,76.5,131,71.7,131"/>
		<path clip-path="url(#SVGID_2_)" fill="#231F20" d="M71.7,15.7c-8,0-14.4,25.8-14.4,57.4c0,31.7,6.5,57.4,14.4,57.4
			c8,0,14.4-25.8,14.4-57.4C86.1,41.5,79.7,15.7,71.7,15.7 M71.7,130.7c-3.9,0-7.6-6-10.3-16.9c-2.7-10.9-4.2-25.3-4.2-40.7
			s1.5-29.8,4.2-40.7c2.7-10.9,6.4-16.9,10.3-16.9c3.9,0,7.6,6,10.3,16.9c2.7,10.9,4.2,25.3,4.2,40.7S84.8,103,82,113.8
			C79.3,124.7,75.6,130.7,71.7,130.7"/>
		<path clip-path="url(#SVGID_2_)" fill="#231F20" d="M71.7,16.1c-6.2,0-11.2,25.6-11.2,57.1c0,31.5,5,57.1,11.2,57.1
			c6.2,0,11.2-25.6,11.2-57.1C82.9,41.8,77.9,16.1,71.7,16.1 M71.7,130.4c-3.1,0-5.9-6-8.1-16.8c-2.1-10.8-3.3-25.2-3.3-40.4
			c0-15.3,1.2-29.6,3.3-40.4C65.8,22,68.6,16,71.7,16c3.1,0,5.9,6,8.1,16.8C81.9,43.6,83,58,83,73.2c0,15.3-1.2,29.6-3.3,40.4
			C77.6,124.5,74.7,130.4,71.7,130.4"/>
		<path clip-path="url(#SVGID_2_)" fill="#231F20" d="M71.7,16.6c-2.1,0-4.2,6-5.7,16.6c-1.5,10.7-2.4,25-2.4,40.2
			s0.8,29.4,2.4,40.2c1.5,10.5,3.6,16.6,5.7,16.6c2.1,0,4.2-6,5.7-16.6c1.5-10.7,2.4-25,2.4-40.2s-0.8-29.4-2.4-40.2
			C75.8,22.6,73.8,16.6,71.7,16.6 M71.7,130.2c-3,0-4.9-10.5-5.8-16.7c-1.5-10.7-2.4-25-2.4-40.2s0.8-29.5,2.4-40.2
			c0.9-6.2,2.8-16.7,5.8-16.7c3,0,4.9,10.5,5.8,16.7c1.5,10.7,2.4,25,2.4,40.2s-0.8,29.5-2.4,40.2C76.6,119.7,74.6,130.2,71.7,130.2
			"/>
		<path clip-path="url(#SVGID_2_)" fill="#231F20" d="M71.6,17c-1.3,0-2.5,6-3.4,16.5c-0.9,10.7-1.4,24.8-1.4,39.9
			c0,15.1,0.5,29.3,1.4,39.9c0.9,10.5,2.1,16.5,3.4,16.5s2.5-6,3.4-16.5c0.9-10.7,1.4-24.8,1.4-39.9c0-15.1-0.5-29.3-1.4-39.9
			C74.1,23,72.9,17,71.6,17 M71.6,129.9c-1.8,0-3-10.4-3.5-16.6c-0.9-10.7-1.4-24.9-1.4-39.9c0-15.1,0.5-29.3,1.4-39.9
			c0.5-6.2,1.7-16.6,3.5-16.6c1.8,0,3,10.4,3.5,16.6c0.9,10.7,1.4,24.9,1.4,39.9s-0.5,29.3-1.4,39.9
			C74.6,119.5,73.5,129.9,71.6,129.9"/>
		<path clip-path="url(#SVGID_2_)" fill="#231F20" d="M71.6,17.4C70.8,17.7,70,40.3,70,73.5c0,33.2,0.8,55.8,1.6,56.1
			c0.8-0.3,1.6-22.9,1.6-56.1C73.3,40.3,72.4,17.7,71.6,17.4 M71.6,129.7c-0.1,0-0.4,0-0.7-4.5c-0.2-2.8-0.4-6.9-0.5-12
			c-0.3-10.6-0.5-24.7-0.5-39.7c0-15,0.2-29.1,0.5-39.7c0.2-5.2,0.3-9.2,0.5-12c0.3-4.5,0.6-4.5,0.7-4.5c0.1,0,0.4,0,0.7,4.5
			c0.2,2.8,0.4,6.9,0.5,12c0.3,10.6,0.5,24.7,0.5,39.7c0,15-0.2,29.1-0.5,39.7c-0.2,5.2-0.3,9.2-0.5,12
			C72,129.7,71.8,129.7,71.6,129.7"/>
		<path clip-path="url(#SVGID_2_)" fill="#231F20" d="M72,9.6c-8.4,0-16.6,1.6-24.3,4.9c-7.4,3.1-14.1,7.6-19.8,13.4
			c-5.7,5.7-10.2,12.4-13.4,19.8C11.3,55.4,9.6,63.6,9.6,72c0,8.4,1.6,16.6,4.9,24.3c3.1,7.4,7.6,14.1,13.4,19.8
			c5.7,5.7,12.4,10.2,19.8,13.4c7.7,3.3,15.9,4.9,24.3,4.9s16.6-1.6,24.3-4.9c7.4-3.1,14.1-7.6,19.8-13.4
			c5.7-5.7,10.2-12.4,13.4-19.8c3.3-7.7,4.9-15.9,4.9-24.3c0-8.4-1.6-16.6-4.9-24.3c-3.1-7.4-7.6-14.1-13.4-19.8
			c-5.7-5.7-12.4-10.2-19.8-13.4C88.6,11.3,80.4,9.6,72,9.6 M72,134.5c-8.4,0-16.6-1.7-24.3-4.9c-7.4-3.1-14.1-7.7-19.9-13.4
			c-5.7-5.7-10.2-12.4-13.4-19.9C11.1,88.6,9.5,80.4,9.5,72s1.7-16.6,4.9-24.3c3.1-7.4,7.7-14.1,13.4-19.9
			c5.7-5.7,12.4-10.2,19.9-13.4c7.7-3.3,15.9-4.9,24.3-4.9s16.6,1.7,24.3,4.9c7.4,3.1,14.1,7.7,19.9,13.4
			c5.7,5.7,10.2,12.4,13.4,19.9c3.3,7.7,4.9,15.9,4.9,24.3s-1.7,16.6-4.9,24.3c-3.1,7.4-7.7,14.1-13.4,19.9
			c-5.7,5.7-12.4,10.2-19.9,13.4C88.6,132.9,80.4,134.5,72,134.5"/>
		<path clip-path="url(#SVGID_2_)" fill="#231F20" d="M71.9,12.8c-8.4,0-16.5,1.6-24.2,4.7c-7.4,3-14,7.3-19.7,12.7
			c-5.7,5.4-10.2,11.8-13.3,18.8c-3.2,7.3-4.9,15-4.9,23c0,8,1.6,15.7,4.9,23c3.1,7,7.6,13.4,13.3,18.8c5.7,5.4,12.3,9.7,19.7,12.7
			c7.7,3.1,15.8,4.7,24.2,4.7s16.5-1.6,24.2-4.7c7.4-3,14-7.3,19.7-12.7c5.7-5.4,10.2-11.8,13.3-18.8c3.2-7.3,4.9-15,4.9-23
			c0-8-1.6-15.7-4.9-23c-3.1-7-7.6-13.4-13.3-18.8c-5.7-5.4-12.3-9.7-19.7-12.7C88.4,14.4,80.3,12.8,71.9,12.8 M71.9,131.3
			c-8.4,0-16.5-1.6-24.2-4.7c-7.4-3-14.1-7.3-19.8-12.7c-5.7-5.4-10.2-11.8-13.3-18.9C11.4,87.8,9.7,80,9.7,72
			c0-8,1.6-15.8,4.9-23.1C17.8,41.8,22.2,35.5,28,30c5.7-5.4,12.4-9.7,19.8-12.7c7.7-3.1,15.8-4.7,24.2-4.7s16.5,1.6,24.2,4.7
			c7.4,3,14.1,7.3,19.8,12.7c5.7,5.4,10.2,11.8,13.3,18.9c3.2,7.3,4.9,15.1,4.9,23.1c0,8-1.6,15.8-4.9,23.1
			c-3.1,7.1-7.6,13.4-13.3,18.9c-5.7,5.4-12.4,9.7-19.8,12.7C88.5,129.7,80.3,131.3,71.9,131.3"/>
		<path clip-path="url(#SVGID_2_)" fill="#231F20" d="M71.8,16c-8.3,0-16.4,1.5-24,4.4c-7.4,2.8-14,6.9-19.6,12
			C22.5,37.5,18.1,43.5,15,50.2c-3.2,6.9-4.9,14.2-4.9,21.8c0,7.6,1.6,14.9,4.9,21.8c3.1,6.7,7.6,12.7,13.2,17.8
			c5.7,5.1,12.3,9.2,19.6,12c7.6,2.9,15.7,4.4,24,4.4s16.4-1.5,24-4.4c7.4-2.8,14-6.9,19.6-12c5.7-5.1,10.1-11.1,13.2-17.8
			c3.2-6.9,4.9-14.2,4.9-21.8c0-7.6-1.6-14.9-4.9-21.8c-3.1-6.7-7.6-12.7-13.2-17.8c-5.7-5.1-12.3-9.2-19.6-12
			C88.3,17.4,80.2,16,71.8,16 M71.8,128.1c-8.3,0-16.4-1.5-24.1-4.4c-7.4-2.8-14-6.9-19.7-12c-5.7-5.2-10.1-11.2-13.3-17.8
			C11.6,86.9,10,79.5,10,72c0-7.6,1.6-14.9,4.9-21.8c3.1-6.7,7.6-12.7,13.3-17.8c5.7-5.2,12.3-9.2,19.7-12
			c7.6-2.9,15.7-4.4,24.1-4.4s16.4,1.5,24.1,4.4c7.4,2.8,14,6.9,19.7,12c5.7,5.2,10.1,11.2,13.3,17.8c3.2,6.9,4.9,14.3,4.9,21.8
			c0,7.6-1.6,14.9-4.9,21.8c-3.1,6.7-7.6,12.7-13.3,17.8c-5.7,5.2-12.3,9.2-19.7,12C88.3,126.6,80.2,128.1,71.8,128.1"/>
		<path clip-path="url(#SVGID_2_)" fill="#231F20" d="M71.8,19.1c-16.4,0-31.8,5.5-43.4,15.5c-5.6,4.8-10.1,10.5-13.2,16.8
			c-3.2,6.5-4.8,13.4-4.8,20.5c0,7.1,1.6,14,4.8,20.5c3.1,6.3,7.5,11.9,13.2,16.8c11.6,10,27,15.5,43.4,15.5s31.8-5.5,43.4-15.5
			c5.6-4.8,10.1-10.5,13.2-16.8c3.2-6.5,4.8-13.4,4.8-20.5c0-7.1-1.6-14-4.8-20.5c-3.1-6.3-7.5-11.9-13.2-16.8
			C103.6,24.6,88.2,19.1,71.8,19.1 M71.8,124.9c-16.4,0-31.9-5.5-43.5-15.5c-5.7-4.9-10.1-10.5-13.2-16.8
			c-3.2-6.5-4.8-13.5-4.8-20.6s1.6-14.1,4.8-20.6c3.1-6.3,7.5-12,13.2-16.8C39.9,24.5,55.3,19,71.8,19s31.9,5.5,43.5,15.5
			c5.7,4.9,10.1,10.5,13.2,16.8c3.2,6.5,4.8,13.5,4.8,20.6s-1.6,14.1-4.8,20.6c-3.1,6.3-7.5,12-13.2,16.8
			C103.6,119.4,88.2,124.9,71.8,124.9"/>
		<path clip-path="url(#SVGID_2_)" fill="#231F20" d="M71.7,22.3c-16.3,0-31.7,5.2-43.2,14.5c-5.6,4.6-10,9.9-13.1,15.8
			c-3.2,6.1-4.8,12.6-4.8,19.3c0,6.7,1.6,13.2,4.8,19.3c3.1,5.9,7.5,11.2,13.1,15.8c11.5,9.4,26.9,14.5,43.2,14.5
			c16.3,0,31.7-5.2,43.2-14.5c5.6-4.6,10-9.9,13.1-15.8c3.2-6.1,4.8-12.6,4.8-19.3c0-6.7-1.6-13.2-4.8-19.3
			c-3.1-5.9-7.5-11.2-13.1-15.8C103.3,27.5,88,22.3,71.7,22.3 M71.7,121.7c-16.3,0-31.7-5.2-43.3-14.6c-5.6-4.6-10-9.9-13.1-15.8
			c-3.2-6.1-4.8-12.6-4.8-19.4c0-6.7,1.6-13.2,4.8-19.4c3.1-5.9,7.5-11.2,13.1-15.8C40,27.4,55.3,22.2,71.7,22.2s31.7,5.2,43.3,14.6
			c5.6,4.6,10,9.9,13.1,15.8c3.2,6.1,4.8,12.6,4.8,19.4c0,6.7-1.6,13.2-4.8,19.4c-3.1,5.9-7.5,11.2-13.1,15.8
			C103.4,116.5,88,121.7,71.7,121.7"/>
		<path clip-path="url(#SVGID_2_)" fill="#231F20" d="M71.6,25.5c-16.2,0-31.5,4.8-43,13.6c-5.6,4.3-10,9.2-13,14.8
			c-3.2,5.7-4.8,11.8-4.8,18.1c0,6.3,1.6,12.3,4.8,18.1c3.1,5.5,7.4,10.5,13,14.8c11.5,8.8,26.7,13.6,43,13.6s31.5-4.8,43-13.6
			c5.6-4.3,10-9.2,13-14.8c3.2-5.7,4.8-11.8,4.8-18.1c0-6.3-1.6-12.3-4.8-18.1c-3.1-5.5-7.4-10.5-13-14.8
			C103.1,30.3,87.8,25.5,71.6,25.5 M71.6,118.4c-16.3,0-31.5-4.8-43-13.6c-5.6-4.3-10-9.2-13-14.8c-3.2-5.7-4.8-11.8-4.8-18.1
			c0-6.3,1.6-12.4,4.8-18.1c3.1-5.5,7.5-10.5,13-14.8c11.5-8.8,26.8-13.6,43-13.6s31.5,4.8,43,13.6c5.6,4.3,10,9.2,13,14.8
			c3.2,5.7,4.8,11.8,4.8,18.1c0,6.3-1.6,12.4-4.8,18.1c-3.1,5.5-7.5,10.5-13,14.8C103.1,113.6,87.9,118.4,71.6,118.4"/>
		<path clip-path="url(#SVGID_2_)" fill="#231F20" d="M71.5,28.7c-16.1,0-31.3,4.5-42.7,12.7c-11.4,8.2-17.7,19-17.7,30.5
			s6.3,22.4,17.7,30.5c11.4,8.2,26.6,12.7,42.7,12.7s31.3-4.5,42.7-12.7c11.4-8.2,17.7-19,17.7-30.5s-6.3-22.4-17.7-30.5
			C102.8,33.2,87.7,28.7,71.5,28.7 M71.5,115.2c-16.2,0-31.4-4.5-42.8-12.7c-5.6-4-9.9-8.6-13-13.8c-3.2-5.3-4.8-11-4.8-16.9
			c0-5.9,1.6-11.5,4.8-16.9c3.1-5.2,7.4-9.8,13-13.8c11.4-8.2,26.6-12.7,42.8-12.7s31.4,4.5,42.8,12.7c5.6,4,9.9,8.6,13,13.8
			c3.2,5.3,4.8,11,4.8,16.9c0,5.9-1.6,11.5-4.8,16.9c-3,5.2-7.4,9.8-13,13.8C102.9,110.7,87.7,115.2,71.5,115.2"/>
		<path clip-path="url(#SVGID_2_)" fill="#231F20" d="M71.5,31.9C55.4,31.9,40.3,36,29,43.6c-11.3,7.6-17.6,17.6-17.6,28.3
			s6.2,20.7,17.6,28.3c11.3,7.6,26.4,11.7,42.5,11.7s31.1-4.2,42.5-11.7c11.3-7.6,17.6-17.6,17.6-28.3s-6.2-20.7-17.6-28.3
			C102.6,36,87.5,31.9,71.5,31.9 M71.5,112c-16.1,0-31.2-4.2-42.6-11.7c-11.4-7.6-17.6-17.7-17.6-28.4c0-10.7,6.3-20.8,17.6-28.4
			c11.4-7.6,26.5-11.7,42.6-11.7s31.2,4.2,42.6,11.7c11.4,7.6,17.6,17.7,17.6,28.4c0,10.7-6.3,20.8-17.6,28.4
			C102.6,107.8,87.5,112,71.5,112"/>
		<path clip-path="url(#SVGID_2_)" fill="#231F20" d="M71.4,35c-16,0-31,3.8-42.3,10.8c-11.3,7-17.5,16.2-17.5,26s6.2,19.1,17.5,26
			c11.3,7,26.3,10.8,42.3,10.8s31-3.8,42.3-10.8c11.3-7,17.5-16.2,17.5-26s-6.2-19.1-17.5-26C102.4,38.9,87.3,35,71.4,35
			 M71.4,108.8c-16,0-31-3.8-42.3-10.8c-11.3-7-17.5-16.3-17.5-26.1s6.2-19.2,17.5-26.1c11.3-7,26.3-10.8,42.3-10.8
			s31,3.8,42.3,10.8c11.3,7,17.5,16.3,17.5,26.1S125,91,113.7,98C102.4,104.9,87.4,108.8,71.4,108.8"/>
		<path clip-path="url(#SVGID_2_)" fill="#231F20" d="M71.3,38.2c-15.9,0-30.8,3.5-42,9.9c-11.2,6.3-17.4,14.8-17.4,23.8
			c0,9,6.2,17.4,17.4,23.8c11.2,6.4,26.1,9.9,42,9.9s30.8-3.5,42-9.9c11.2-6.3,17.4-14.8,17.4-23.8c0-9-6.2-17.4-17.4-23.8
			C102.1,41.7,87.2,38.2,71.3,38.2 M71.3,105.6c-15.9,0-30.8-3.5-42.1-9.9C18,89.3,11.8,80.8,11.8,71.8c0-9,6.2-17.5,17.5-23.9
			c11.2-6.4,26.2-9.9,42.1-9.9s30.8,3.5,42.1,9.9c11.3,6.4,17.5,14.9,17.5,23.9c0,9-6.2,17.5-17.5,23.9
			C102.1,102.1,87.2,105.6,71.3,105.6"/>
		<path clip-path="url(#SVGID_2_)" fill="#231F20" d="M71.2,41.4c-32.6,0-59.1,13.6-59.1,30.4s26.5,30.4,59.1,30.4
			s59.1-13.6,59.1-30.4S103.8,41.4,71.2,41.4 M71.2,102.3c-15.8,0-30.7-3.2-41.8-8.9C18.2,87.6,12,80,12,71.8S18.2,56,29.4,50.2
			c11.2-5.8,26-8.9,41.8-8.9s30.7,3.2,41.8,8.9c11.2,5.8,17.4,13.4,17.4,21.6s-6.2,15.8-17.4,21.6C101.9,99.2,87,102.3,71.2,102.3"
			/>
		<path clip-path="url(#SVGID_2_)" fill="#231F20" d="M71.2,44.6c-32.4,0-58.7,12.2-58.7,27.2S38.8,99,71.2,99s58.7-12.2,58.7-27.2
			S103.5,44.6,71.2,44.6 M71.2,99.1c-15.7,0-30.5-2.8-41.6-8c-11.1-5.2-17.3-12-17.3-19.4s6.1-14.2,17.3-19.4
			c11.1-5.2,25.9-8,41.6-8c15.7,0,30.5,2.8,41.6,8c11.1,5.2,17.3,12,17.3,19.4s-6.1,14.2-17.3,19.4C101.6,96.3,86.9,99.1,71.2,99.1"
			/>
		<path clip-path="url(#SVGID_2_)" fill="#231F20" d="M71.1,47.7c-32.2,0-58.4,10.8-58.4,24s26.2,24,58.4,24
			c32.2,0,58.4-10.8,58.4-24S103.3,47.7,71.1,47.7 M71.1,95.9c-15.6,0-30.3-2.5-41.4-7.1c-11.1-4.6-17.2-10.6-17.2-17.1
			s6.1-12.5,17.2-17.1c11.1-4.6,25.7-7.1,41.4-7.1s30.3,2.5,41.4,7.1c11.1,4.6,17.2,10.6,17.2,17.1s-6.1,12.5-17.2,17.1
			C101.4,93.4,86.7,95.9,71.1,95.9"/>
		<path clip-path="url(#SVGID_2_)" fill="#231F20" d="M71,50.9c-32,0-58.1,9.3-58.1,20.8C12.9,83.2,39,92.6,71,92.6
			s58.1-9.3,58.1-20.8C129.1,60.3,103,50.9,71,50.9 M71,92.7c-15.5,0-30.1-2.2-41.1-6.1c-11-4-17.1-9.2-17.1-14.8
			c0-5.6,6.1-10.9,17.1-14.8c11-3.9,25.6-6.1,41.1-6.1s30.1,2.2,41.1,6.1c11,4,17.1,9.2,17.1,14.8c0,5.6-6.1,10.9-17.1,14.8
			C101.1,90.5,86.5,92.7,71,92.7"/>
		<path clip-path="url(#SVGID_2_)" fill="#231F20" d="M70.9,54.1c-31.8,0-57.7,7.9-57.7,17.6c0,9.7,25.9,17.6,57.7,17.6
			c31.8,0,57.7-7.9,57.7-17.6C128.7,62,102.8,54.1,70.9,54.1 M70.9,89.5c-15.4,0-30-1.8-40.9-5.2c-10.9-3.4-17-7.8-17-12.6
			c0-4.8,6-9.2,17-12.6C40.9,55.8,55.5,54,70.9,54s30,1.8,40.9,5.2c10.9,3.4,17,7.8,17,12.6c0,4.8-6,9.2-17,12.6
			C100.9,87.6,86.4,89.5,70.9,89.5"/>
		<path clip-path="url(#SVGID_2_)" fill="#231F20" d="M70.8,57.3c-31.7,0-57.4,6.5-57.4,14.4c0,8,25.8,14.4,57.4,14.4
			s57.4-6.5,57.4-14.4C128.3,63.7,102.5,57.3,70.8,57.3 M70.8,86.3c-15.4,0-29.8-1.5-40.7-4.2c-10.9-2.7-16.9-6.4-16.9-10.3
			c0-3.9,6-7.6,16.9-10.3c10.9-2.7,25.3-4.2,40.7-4.2s29.8,1.5,40.7,4.2c10.9,2.7,16.9,6.4,16.9,10.3c0,3.9-6,7.6-16.9,10.3
			C100.6,84.8,86.2,86.3,70.8,86.3"/>
		<path clip-path="url(#SVGID_2_)" fill="#231F20" d="M70.8,60.5c-31.5,0-57.1,5-57.1,11.2s25.6,11.2,57.1,11.2s57.1-5,57.1-11.2
			S102.2,60.5,70.8,60.5 M70.8,83c-15.3,0-29.6-1.2-40.4-3.3c-10.8-2.1-16.8-5-16.8-8.1c0-3.1,6-5.9,16.8-8.1
			c10.8-2.1,25.2-3.3,40.4-3.3s29.6,1.2,40.4,3.3c10.8,2.1,16.8,5,16.8,8.1c0,3.1-6,5.9-16.8,8.1C100.4,81.9,86,83,70.8,83"/>
		<path clip-path="url(#SVGID_2_)" fill="#231F20" d="M70.7,63.6c-15.2,0-29.4,0.8-40.2,2.4c-10.5,1.5-16.6,3.6-16.6,5.7
			c0,2.1,6,4.2,16.6,5.7c10.7,1.5,25,2.4,40.2,2.4s29.4-0.8,40.2-2.4c10.5-1.5,16.6-3.6,16.6-5.7c0-2.1-6-4.2-16.6-5.7
			C100.1,64.5,85.9,63.6,70.7,63.6 M70.7,79.8c-15.2,0-29.5-0.8-40.2-2.4c-6.2-0.9-16.7-2.8-16.7-5.8s10.5-4.9,16.7-5.8
			c10.7-1.5,25-2.4,40.2-2.4s29.5,0.8,40.2,2.4c6.2,0.9,16.7,2.8,16.7,5.8s-10.5,4.9-16.7,5.8C100.1,79,85.9,79.8,70.7,79.8"/>
		<path clip-path="url(#SVGID_2_)" fill="#231F20" d="M70.6,66.8c-15.1,0-29.3,0.5-39.9,1.4c-10.5,0.9-16.5,2.1-16.5,3.4
			c0,1.3,6,2.5,16.5,3.4c10.7,0.9,24.8,1.4,39.9,1.4s29.3-0.5,39.9-1.4c10.5-0.9,16.5-2.1,16.5-3.4c0-1.3-6-2.5-16.5-3.4
			C99.9,67.3,85.7,66.8,70.6,66.8 M70.6,76.6c-15.1,0-29.3-0.5-39.9-1.4c-6.2-0.5-16.6-1.7-16.6-3.5c0-1.8,10.4-3,16.6-3.5
			c10.7-0.9,24.9-1.4,39.9-1.4c15.1,0,29.3,0.5,39.9,1.4c6.2,0.5,16.6,1.7,16.6,3.5c0,1.8-10.4,3-16.6,3.5
			C99.9,76.1,85.7,76.6,70.6,76.6"/>
		<path clip-path="url(#SVGID_2_)" fill="#231F20" d="M70.5,70c-33.2,0-55.8,0.9-56.1,1.6c0.3,0.8,22.9,1.6,56.1,1.6
			s55.8-0.9,56.1-1.6C126.3,70.8,103.7,70,70.5,70 M70.5,73.4c-15,0-29.1-0.2-39.7-0.5c-5.2-0.2-9.2-0.3-12-0.5
			c-4.5-0.3-4.5-0.6-4.5-0.7c0-0.1,0-0.4,4.5-0.7c2.8-0.2,6.9-0.4,12-0.5c10.6-0.3,24.7-0.5,39.7-0.5s29.1,0.2,39.7,0.5
			c5.2,0.2,9.2,0.3,12,0.5c4.5,0.3,4.5,0.6,4.5,0.7c0,0.1,0,0.4-4.5,0.7c-2.8,0.2-6.9,0.4-12,0.5C99.6,73.2,85.5,73.4,70.5,73.4"/>
	</g>
</g>
</svg>
