<?xml version="1.0" encoding="utf-8"?>
<!-- Generator: Adobe Illustrator 18.1.1, SVG Export Plug-In . SVG Version: 6.00 Build 0)  -->
<!DOCTYPE svg PUBLIC "-//W3C//DTD SVG 1.1//EN" "http://www.w3.org/Graphics/SVG/1.1/DTD/svg11.dtd">
<svg version="1.1" id="Layer_1" xmlns="http://www.w3.org/2000/svg" xmlns:xlink="http://www.w3.org/1999/xlink" x="0px" y="0px"
	 viewBox="0 0 144 144" enable-background="new 0 0 144 144" xml:space="preserve">
<g>
	<path fill="#231F20" d="M45,118.8h54L126,72L99,25.2H45L18,72L45,118.8z M100,120.5H44L16,72l28-48.5h56L128,72L100,120.5z"/>
	<path fill="#231F20" d="M21.2,72l25.4,44l50.8,0l25.4-44L97.4,28H46.6L21.2,72z M46.1,117.6h-0.5L19.4,72l26.3-45.6h52.6L124.6,72
		l-26.3,45.6H46.1z"/>
	<path fill="#231F20" d="M24.5,72l23.8,41.2l47.5,0L119.5,72L95.8,30.8l-47.5,0L24.5,72z M47.8,114.7h-0.4L22.7,72l24.7-42.7h49.3
		L121.3,72l-24.7,42.7L47.8,114.7z"/>
	<path fill="#231F20" d="M27.7,72l22.2,38.4l44.3,0L116.3,72L94.2,33.6l-44.3,0L27.7,72z M49,111.9L26,72l23-39.9l46,0L118,72
		l-23,39.9L49,111.9z"/>
	<path fill="#231F20" d="M30.9,72l20.5,35.6l41.1,0L113.1,72L92.5,36.4l-41.1,0L30.9,72z M50.6,109L29.3,72l21.4-37l42.7,0l21.4,37
		l-0.2,0.3L93.4,109L50.6,109z"/>
	<path fill="#231F20" d="M34.1,72l18.9,32.8l37.9,0L109.9,72L90.9,39.2l-37.9,0L34.1,72z M52.3,106.1L32.6,72l19.7-34.1l39.4,0
		L111.4,72l-0.2,0.3l-19.5,33.8L52.3,106.1z"/>
	<path fill="#231F20" d="M37.4,72l17.3,30l34.6,0l17.3-30L89.3,42l-34.6,0L37.4,72z M54,103.3L35.9,72l18-31.3l36.1,0l18,31.3
		l-18,31.3L54,103.3z"/>
	<path fill="#231F20" d="M40.6,72l15.7,27.2l31.4,0L103.4,72L87.7,44.8l-31.4,0L40.6,72z M55.6,100.4L39.2,72l16.4-28.4l32.8,0
		L104.8,72l-16.4,28.4L55.6,100.4z"/>
	<path fill="#231F20" d="M43.8,72l14.1,24.4l28.2,0L100.2,72L86.1,47.6l-28.2,0L43.8,72z M57.3,97.5L42.5,72l14.7-25.5l29.5,0
		L101.5,72L86.7,97.5L57.3,97.5z"/>
	<path fill="#231F20" d="M47,72l12.5,21.6l25,0L97,72L84.5,50.4l-25,0L47,72z M58.9,94.7L45.8,72l13.1-22.7l26.2,0L98.2,72
		L85.1,94.7L58.9,94.7z"/>
	<path fill="#231F20" d="M50.3,72l10.9,18.8l21.7,0L93.7,72L82.9,53.2l-21.7,0L50.3,72z M60.6,91.8L49.2,72l11.4-19.8l22.8,0
		L94.9,72L83.4,91.8L60.6,91.8z"/>
	<path fill="#231F20" d="M53.5,72l9.3,16l18.5,0l9.3-16l-9.3-16l-18.5,0L53.5,72z M62.2,88.9L52.5,72l9.8-16.9l19.5,0L91.5,72
		l-9.8,16.9L62.2,88.9z"/>
	<path fill="#231F20" d="M56.7,72l7.6,13.2l15.3,0L87.3,72l-7.7-13.2l-15.3,0L56.7,72z M63.9,86.1L55.8,72L63.9,58l16.2,0L88.2,72
		l-8.1,14.1L63.9,86.1z"/>
	<path fill="#231F20" d="M59.9,72l6,10.4l12.1,0l6-10.5l-6-10.4l-12.1,0L59.9,72z M65.5,83.2L59.1,72l6.5-11.2l12.9,0L84.9,72
		l-6.5,11.2L65.5,83.2z"/>
	<path fill="#231F20" d="M63.2,72l4.4,7.7l8.8,0l4.4-7.7l-4.4-7.7l-8.8,0L63.2,72z M67.2,80.3L62.4,72l4.8-8.3l9.6,0l4.8,8.3
		l-4.8,8.3L67.2,80.3z"/>
	<path fill="#231F20" d="M66.4,72l2.8,4.9l5.6,0l2.8-4.9l-2.8-4.9l-5.6,0L66.4,72z M68.9,77.5L65.7,72l3.1-5.5l6.3,0l3.2,5.5
		l-3.1,5.5L68.9,77.5z"/>
	<path fill="#231F20" d="M69.6,72l1.2,2.1l2.4,0l1.2-2.1L73.2,70l-2.4,0L69.6,72z M70.5,74.6L69,72l1.5-2.6l3,0L75,72l-1.5,2.6
		L70.5,74.6z"/>
	<path fill="#231F20" d="M71.8,72.3l0.3,0l0.2-0.3l-0.2-0.3l-0.3,0L71.7,72L71.8,72.3z M72.4,72.8l-0.8,0L71.2,72l0.4-0.7l0.8,0
		l0.4,0.7L72.4,72.8z"/>
</g>
<g>
	<g>
		<defs>
			<path id="SVGID_3_" d="M72,181.2v54.3h55.3c0-27-19.3-49.5-44.9-54.3H72z"/>
		</defs>
		<clipPath id="SVGID_2_">
			<use xlink:href="#SVGID_3_"  overflow="visible"/>
		</clipPath>
		
			<rect x="71.4" y="112.1" transform="matrix(0.7071 0.7071 -0.7071 0.7071 150.6691 7.460809e-02)" clip-path="url(#SVGID_2_)" fill="#231F20" width="7.7" height="139.7"/>
		
			<rect x="82.8" y="123.5" transform="matrix(0.7071 0.7071 -0.7071 0.7071 162.0584 -4.6428)" clip-path="url(#SVGID_2_)" fill="#231F20" width="7.7" height="139.7"/>
	</g>
</g>
</svg>
