<?xml version="1.0" encoding="utf-8"?>
<!-- Generator: Adobe Illustrator 18.1.1, SVG Export Plug-In . SVG Version: 6.00 Build 0)  -->
<!DOCTYPE svg PUBLIC "-//W3C//DTD SVG 1.1//EN" "http://www.w3.org/Graphics/SVG/1.1/DTD/svg11.dtd">
<svg version="1.1" id="Layer_1" xmlns="http://www.w3.org/2000/svg" xmlns:xlink="http://www.w3.org/1999/xlink" x="0px" y="0px"
	 viewBox="0 0 144 144" enable-background="new 0 0 144 144" xml:space="preserve">
<g>
	<path fill="#231F20" d="M72,72V17c3.6,0,7.2,0.4,10.7,1.1L72,72z"/>
	<path fill="#231F20" d="M72,72l21-50.8c3.3,1.4,6.5,3.1,9.5,5.1L72,72z"/>
	<path fill="#231F20" d="M72,72l38.9-38.9c2.5,2.5,4.8,5.3,6.8,8.3L72,72z"/>
	<path fill="#231F20" d="M72,72l50.8-21c1.4,3.3,2.4,6.8,3.1,10.3L72,72z"/>
	<path fill="#231F20" d="M72,72h55c0,3.6-0.4,7.2-1.1,10.7L72,72z"/>
	<path fill="#231F20" d="M72,72l50.8,21c-1.4,3.3-3.1,6.5-5.1,9.5L72,72z"/>
	<path fill="#231F20" d="M72,72l38.9,38.9c-2.5,2.5-5.3,4.8-8.3,6.8L72,72z"/>
	<path fill="#231F20" d="M72,72l21,50.8c-3.3,1.4-6.8,2.4-10.3,3.1L72,72z"/>
	<path fill="#231F20" d="M72,72v55c-3.6,0-7.2-0.4-10.7-1.1L72,72z"/>
	<path fill="#231F20" d="M72,72l-21,50.8c-3.3-1.4-6.5-3.1-9.5-5.1L72,72z"/>
	<path fill="#231F20" d="M72,72l-38.9,38.9c-2.5-2.5-4.8-5.3-6.8-8.3L72,72z"/>
	<path fill="#231F20" d="M72,72L21.2,93c-1.4-3.3-2.4-6.8-3.1-10.3L72,72z"/>
	<path fill="#231F20" d="M72,72H17c0-3.6,0.4-7.2,1.1-10.7L72,72z"/>
	<path fill="#231F20" d="M72,72L21.2,51c1.4-3.3,3.1-6.5,5.1-9.5L72,72z"/>
	<path fill="#231F20" d="M72,72L33.1,33.1c2.5-2.5,5.3-4.8,8.3-6.8L72,72z"/>
	<path fill="#231F20" d="M72,72L51,21.2c3.3-1.4,6.8-2.4,10.3-3.1L72,72z"/>
</g>
</svg>
