<?xml version="1.0" encoding="utf-8"?>
<!-- Generator: Adobe Illustrator 18.1.1, SVG Export Plug-In . SVG Version: 6.00 Build 0)  -->
<!DOCTYPE svg PUBLIC "-//W3C//DTD SVG 1.1//EN" "http://www.w3.org/Graphics/SVG/1.1/DTD/svg11.dtd">
<svg version="1.1" id="Layer_1" xmlns="http://www.w3.org/2000/svg" xmlns:xlink="http://www.w3.org/1999/xlink" x="0px" y="0px"
	 viewBox="0 0 144 144" enable-background="new 0 0 144 144" xml:space="preserve">
<g>
	<path fill="none" d="M22.1,96.4l23.1,23.1c5.4,2.9,11.3,4.9,17.6,5.8L16.3,78.8C17.2,85.1,19.2,91,22.1,96.4z"/>
	<path fill="none" d="M86.9,70.6h-3.4h-4.9v54.8c2.9-0.4,5.7-1,8.4-1.8V70.6z"/>
	<path fill="none" d="M103.1,70.6h-8.4v50c2.9-1.4,5.7-3.1,8.4-4.9V70.6z"/>
	<path fill="none" d="M116.7,70.6h-5.9V109c3.2-3.4,6.1-7.1,8.4-11.2V70.6H116.7z"/>
	<polygon fill="none" points="70.8,110.5 30.9,70.6 22.7,70.6 19.1,70.6 70.8,122.4 	"/>
	<polygon fill="none" points="70.8,99.6 70.8,87.8 53.7,70.6 47.2,70.6 41.8,70.6 	"/>
	<path fill="none" d="M94.7,70.6h8.4h2.7l17.7-17.7c-0.9-2.7-2-5.4-3.4-7.9L94.4,70.6H94.7z"/>
	<path fill="none" d="M38.8,70.6h3h5.4V20.7c-2.9,1.4-5.7,3.1-8.4,4.9V70.6z"/>
	<polygon fill="none" points="70.8,76.8 70.8,70.6 64.6,70.6 	"/>
	<path fill="none" d="M22.7,70.6h8.2h0.2V32.4c-3.2,3.4-6.1,7.2-8.4,11.3V70.6z"/>
	<path fill="none" d="M119.2,70.6h7.1c0-3-0.3-6-0.7-8.9l-8.9,8.9H119.2z"/>
	<path fill="none" d="M78.6,70.6h4.9l32.3-32.3c-1.6-2.3-3.5-4.4-5.4-6.4L71.7,70.6H78.6z"/>
	<path fill="none" d="M54.9,70.6h8.4V16.3h-2.7c-1.9,0.4-3.8,0.8-5.7,1.4V70.6z"/>
	<path fill="none" d="M71,60.3l33.6-33.6c-2.3-1.7-4.7-3.3-7.2-4.7L71,48.5V60.3z"/>
	<path fill="none" d="M71,37.5l18.9-18.9c-2.8-1-5.6-1.8-8.5-2.4h-0.9L71,25.7V37.5z"/>
	<path fill="#231F20" d="M22.7,70.6V43.7c-4.5,8-7,17.2-7,26.9h3.4H22.7z"/>
	<path fill="#231F20" d="M31.1,70.6h7.7v-45c-2.8,2-5.4,4.3-7.7,6.7V70.6z"/>
	<path fill="#231F20" d="M47.2,70.6h6.5h1.2V17.7c-2.7,0.8-5.3,1.8-7.7,3V70.6z"/>
	<polygon fill="#231F20" points="71,25.7 71,25.7 71,37.6 71,37.5 	"/>
	<polygon fill="#231F20" points="71,48.5 71,48.5 71,60.3 71,60.3 	"/>
	<polygon fill="#231F20" points="63.3,70.6 64.6,70.6 70.8,70.6 71,70.6 71,60.3 71,48.5 71,37.6 71,25.7 71,16.3 63.3,16.3 	"/>
	<polygon fill="#231F20" points="70.8,122.4 71,122.6 71,110.7 70.8,110.5 	"/>
	<polygon fill="#231F20" points="70.8,99.6 71,99.8 71,87.9 70.8,87.8 	"/>
	<polygon fill="#231F20" points="70.8,76.8 71,77 71,70.6 70.8,70.6 	"/>
	<path fill="#231F20" d="M78.6,70.6h-6.9H71h0V77v10.9v11.8v10.9v11.8v3.4c2.6,0,5.1-0.2,7.6-0.5V70.6z"/>
	<path fill="#231F20" d="M94.7,70.6h-0.2h-7.5v53c2.7-0.8,5.3-1.8,7.7-3V70.6z"/>
	<path fill="#231F20" d="M110.8,70.6h-5.1h-2.7v45.1c2.8-2,5.4-4.2,7.7-6.7V70.6z"/>
	<path fill="#231F20" d="M119.2,97.8c4.5-8,7.1-17.3,7.1-27.2h-7.1V97.8z"/>
	<polygon fill="#231F20" points="80.4,16.3 71,16.3 71,25.7 	"/>
	<polygon fill="#231F20" points="71,25.7 71,16.3 71,16.3 71,25.7 	"/>
	<polygon fill="#231F20" points="71,25.7 71,16.3 71,16.3 71,25.7 	"/>
	<path fill="#231F20" d="M71,48.5L97.5,22c-2.4-1.3-4.9-2.5-7.5-3.4L71,37.5V48.5z"/>
	<polygon fill="#231F20" points="71,37.5 71,37.6 71,48.5 71,48.5 	"/>
	<polygon fill="#231F20" points="71,37.5 71,37.6 71,48.5 71,48.5 	"/>
	<path fill="#231F20" d="M71,70.6h0.6l38.8-38.8c-1.8-1.8-3.8-3.6-5.8-5.1L71,60.3V70.6z"/>
	<polygon fill="#231F20" points="71,60.3 71,60.3 71,70.6 71,70.6 	"/>
	<polygon fill="#231F20" points="71,60.3 71,60.3 71,70.6 71,70.6 	"/>
	<path fill="#231F20" d="M86.9,70.6h7.5L120,45c-1.2-2.4-2.6-4.6-4.2-6.8L83.5,70.6H86.9z"/>
	<path fill="#231F20" d="M110.8,70.6h5.9l8.9-8.9c-0.5-3-1.2-5.9-2.2-8.8l-17.7,17.7H110.8z"/>
	<polygon fill="#231F20" points="70.8,87.8 70.8,76.8 64.6,70.6 63.3,70.6 54.9,70.6 53.7,70.6 	"/>
	<polygon fill="#231F20" points="70.8,87.8 71,87.9 71,77 70.8,76.8 	"/>
	<polygon fill="#231F20" points="70.8,87.8 71,87.9 71,77 70.8,76.8 	"/>
	<polygon fill="#231F20" points="70.8,110.5 70.8,99.6 41.8,70.6 38.8,70.6 31.1,70.6 30.9,70.6 	"/>
	<polygon fill="#231F20" points="70.8,110.5 71,110.7 71,99.8 70.8,99.6 	"/>
	<polygon fill="#231F20" points="70.8,110.5 71,110.7 71,99.8 70.8,99.6 	"/>
	<path fill="#231F20" d="M19.1,70.6h-3.4c0,2.8,0.2,5.5,0.6,8.2l46.5,46.5c2.6,0.4,5.3,0.6,8,0.6v-3.5L19.1,70.6z"/>
	<path fill="#231F20" d="M70.8,122.4v3.5c0.1,0,0.1,0,0.2,0v-3.4L70.8,122.4z"/>
	<path fill="#231F20" d="M70.8,122.4v3.5c0.1,0,0.1,0,0.2,0v-3.4L70.8,122.4z"/>
	<path fill="#231F20" d="M45.2,119.5L22.1,96.4C27.3,106.3,35.4,114.3,45.2,119.5z"/>
</g>
</svg>
