<?xml version="1.0" encoding="utf-8"?>
<!-- Generator: Adobe Illustrator 18.1.1, SVG Export Plug-In . SVG Version: 6.00 Build 0)  -->
<!DOCTYPE svg PUBLIC "-//W3C//DTD SVG 1.1//EN" "http://www.w3.org/Graphics/SVG/1.1/DTD/svg11.dtd">
<svg version="1.1" id="Layer_1" xmlns="http://www.w3.org/2000/svg" xmlns:xlink="http://www.w3.org/1999/xlink" x="0px" y="0px"
	 viewBox="0 0 144 144" enable-background="new 0 0 144 144" xml:space="preserve">
<g>
	<g>
		<path fill="#231F20" d="M72,21.8c-6.8,0-13.4,1.3-19.5,3.9c-6,2.5-11.3,6.1-16,10.8c-4.6,4.6-8.2,10-10.8,16
			c-2.6,6.2-3.9,12.8-3.9,19.5c0,6.8,1.3,13.4,3.9,19.5c2.5,6,6.1,11.3,10.8,16c4.6,4.6,10,8.2,16,10.8c6.2,2.6,12.8,3.9,19.5,3.9
			c6.8,0,13.4-1.3,19.5-3.9c6-2.5,11.3-6.1,16-10.8c4.6-4.6,8.2-10,10.8-16c2.6-6.2,3.9-12.8,3.9-19.5c0-6.8-1.3-13.4-3.9-19.5
			c-2.5-6-6.1-11.3-10.8-16c-4.6-4.6-10-8.2-16-10.8C85.4,23.1,78.8,21.8,72,21.8 M72,128c-7.6,0-14.9-1.5-21.8-4.4
			c-6.7-2.8-12.6-6.9-17.8-12s-9.2-11.1-12-17.8C17.5,86.9,16,79.6,16,72s1.5-14.9,4.4-21.8c2.8-6.7,6.9-12.6,12-17.8
			s11.1-9.2,17.8-12C57.1,17.5,64.4,16,72,16c7.6,0,14.9,1.5,21.8,4.4c6.7,2.8,12.6,6.9,17.8,12s9.2,11.1,12,17.8
			c2.9,6.9,4.4,14.2,4.4,21.8s-1.5,14.9-4.4,21.8c-2.8,6.7-6.9,12.6-12,17.8s-11.1,9.2-17.8,12C86.9,126.5,79.6,128,72,128"/>
		<path fill="#231F20" d="M72,33.1c-5.2,0-10.3,1-15.1,3.1c-4.6,2-8.8,4.8-12.3,8.3s-6.4,7.7-8.3,12.3c-2,4.8-3.1,9.9-3.1,15.1
			s1,10.3,3.1,15.1c2,4.6,4.8,8.8,8.3,12.4s7.7,6.4,12.3,8.3c4.8,2,9.9,3.1,15.1,3.1c5.2,0,10.3-1,15.1-3.1c4.6-2,8.8-4.8,12.4-8.3
			s6.4-7.7,8.3-12.4c2-4.8,3.1-9.9,3.1-15.1s-1-10.3-3.1-15.1c-2-4.6-4.8-8.8-8.3-12.3s-7.7-6.4-12.4-8.3
			C82.3,34.2,77.2,33.1,72,33.1 M72,116.6c-6,0-11.9-1.2-17.4-3.5c-5.3-2.2-10.1-5.5-14.2-9.6s-7.3-8.9-9.6-14.2
			C28.6,83.9,27.4,78,27.4,72c0-6,1.2-11.9,3.5-17.4c2.2-5.3,5.5-10.1,9.6-14.2s8.9-7.3,14.2-9.6c5.5-2.3,11.3-3.5,17.4-3.5
			c6,0,11.9,1.2,17.4,3.5c5.3,2.2,10.1,5.5,14.2,9.6s7.3,8.9,9.6,14.2c2.3,5.5,3.5,11.3,3.5,17.4c0,6-1.2,11.9-3.5,17.4
			c-2.2,5.3-5.5,10.1-9.6,14.2s-8.9,7.3-14.2,9.6C83.9,115.4,78,116.6,72,116.6"/>
		<path fill="#231F20" d="M72,44.5c-3.7,0-7.3,0.7-10.7,2.2C58,48,55.1,50,52.6,52.6S48,58,46.7,61.3c-1.4,3.4-2.2,7-2.2,10.7
			s0.7,7.3,2.2,10.7c1.4,3.3,3.4,6.2,5.9,8.7s5.5,4.5,8.7,5.9c3.4,1.4,7,2.2,10.7,2.2c3.7,0,7.3-0.7,10.7-2.2
			c3.3-1.4,6.2-3.4,8.7-5.9c2.5-2.5,4.5-5.5,5.9-8.7c1.4-3.4,2.2-7,2.2-10.7s-0.7-7.3-2.2-10.7C96,58,94,55.1,91.4,52.6
			C88.9,50,86,48,82.7,46.7C79.3,45.2,75.7,44.5,72,44.5 M72,105.2c-4.5,0-8.8-0.9-12.9-2.6c-4-1.7-7.5-4.1-10.6-7.1
			c-3.1-3.1-5.4-6.6-7.1-10.6c-1.7-4.1-2.6-8.5-2.6-12.9s0.9-8.8,2.6-12.9c1.7-4,4.1-7.5,7.1-10.6c3.1-3.1,6.6-5.4,10.6-7.1
			c4.1-1.7,8.5-2.6,12.9-2.6c4.5,0,8.8,0.9,12.9,2.6c4,1.7,7.5,4.1,10.6,7.1c3.1,3.1,5.4,6.6,7.1,10.6c1.7,4.1,2.6,8.5,2.6,12.9
			s-0.9,8.8-2.6,12.9c-1.7,4-4.1,7.5-7.1,10.6c-3.1,3.1-6.6,5.4-10.6,7.1C80.8,104.4,76.5,105.2,72,105.2"/>
		<path fill="#231F20" d="M72,55.9c-4.3,0-8.4,1.7-11.4,4.7c-3.1,3.1-4.7,7.1-4.7,11.4c0,4.3,1.7,8.4,4.7,11.4
			c3,3.1,7.1,4.7,11.4,4.7c4.3,0,8.4-1.7,11.4-4.7c3-3,4.7-7.1,4.7-11.4c0-4.3-1.7-8.4-4.7-11.4C80.4,57.5,76.3,55.9,72,55.9
			 M72,93.9c-3,0-5.8-0.6-8.5-1.7c-2.6-1.1-4.9-2.7-7-4.7c-2-2-3.6-4.3-4.7-7c-1.1-2.7-1.7-5.6-1.7-8.5c0-3,0.6-5.8,1.7-8.5
			c1.1-2.6,2.7-4.9,4.7-7c2-2,4.4-3.6,7-4.7c2.7-1.1,5.6-1.7,8.5-1.7c3,0,5.8,0.6,8.5,1.7c2.6,1.1,4.9,2.7,7,4.7c2,2,3.6,4.4,4.7,7
			c1.1,2.7,1.7,5.6,1.7,8.5c0,3-0.6,5.8-1.7,8.5c-1.1,2.6-2.7,4.9-4.7,7c-2,2-4.4,3.6-7,4.7C77.8,93.3,75,93.9,72,93.9"/>
		<path fill="#231F20" d="M72,67.2c-2.6,0-4.8,2.1-4.8,4.8c0,2.6,2.1,4.8,4.8,4.8c2.6,0,4.8-2.1,4.8-4.8
			C76.8,69.4,74.6,67.2,72,67.2 M72,82.5c-5.8,0-10.5-4.7-10.5-10.5c0-5.8,4.7-10.5,10.5-10.5c5.8,0,10.5,4.7,10.5,10.5
			C82.5,77.8,77.8,82.5,72,82.5"/>
	</g>
</g>
</svg>
