<?xml version="1.0" encoding="utf-8"?>
<!-- Generator: Adobe Illustrator 18.1.1, SVG Export Plug-In . SVG Version: 6.00 Build 0)  -->
<!DOCTYPE svg PUBLIC "-//W3C//DTD SVG 1.1//EN" "http://www.w3.org/Graphics/SVG/1.1/DTD/svg11.dtd">
<svg version="1.1" id="Layer_1" xmlns="http://www.w3.org/2000/svg" xmlns:xlink="http://www.w3.org/1999/xlink" x="0px" y="0px"
	 viewBox="0 0 144 144" enable-background="new 0 0 144 144" xml:space="preserve">
<g>
	<polygon fill="#231F20" points="70.7,127 72,72 73.3,127 	"/>
	<polygon fill="#231F20" points="127,73.3 72,72 127,70.7 	"/>
	<polygon fill="#231F20" points="73.3,17 72,72 70.7,17 	"/>
	<polygon fill="#231F20" points="17,70.7 72,72 17,73.3 	"/>
	<polygon fill="#231F20" points="125.7,84 72,72 126.2,81.4 	"/>
	<polygon fill="#231F20" points="84,18.3 72,72 81.4,17.8 	"/>
	<polygon fill="#231F20" points="18.3,60 72,72 17.8,62.6 	"/>
	<polygon fill="#231F20" points="60,125.7 72,72 62.6,126.2 	"/>
	<polygon fill="#231F20" points="126.6,78.7 72,72 126.9,76.1 	"/>
	<polygon fill="#231F20" points="78.7,17.4 72,72 76.1,17.1 	"/>
	<polygon fill="#231F20" points="17.4,65.3 72,72 17.1,67.9 	"/>
	<polygon fill="#231F20" points="65.3,126.6 72,72 67.9,126.9 	"/>
	<polygon fill="#231F20" points="86.7,125 72,72 89.2,124.3 	"/>
	<polygon fill="#231F20" points="125,57.3 72,72 124.3,54.8 	"/>
	<polygon fill="#231F20" points="57.3,19 72,72 54.8,19.7 	"/>
	<polygon fill="#231F20" points="19,86.7 72,72 19.7,89.2 	"/>
	<polygon fill="#231F20" points="126.9,67.9 72,72 126.6,65.3 	"/>
	<polygon fill="#231F20" points="67.9,17.1 72,72 65.3,17.4 	"/>
	<polygon fill="#231F20" points="17.1,76.1 72,72 17.4,78.7 	"/>
	<polygon fill="#231F20" points="76.1,126.9 72,72 78.7,126.6 	"/>
	<polygon fill="#231F20" points="126.2,62.6 72,72 125.7,60 	"/>
	<polygon fill="#231F20" points="62.6,17.8 72,72 60,18.3 	"/>
	<polygon fill="#231F20" points="17.8,81.4 72,72 18.3,84 	"/>
	<polygon fill="#231F20" points="81.4,126.2 72,72 84,125.7 	"/>
	<polygon fill="#231F20" points="117,103.7 72,72 118.5,101.5 	"/>
	<polygon fill="#231F20" points="103.7,27 72,72 101.5,25.5 	"/>
	<polygon fill="#231F20" points="27,40.3 72,72 25.5,42.5 	"/>
	<polygon fill="#231F20" points="40.3,117 72,72 42.5,118.5 	"/>
	<polygon fill="#231F20" points="111.8,34 72,72 110,32.2 	"/>
	<polygon fill="#231F20" points="34,32.2 72,72 32.2,34 	"/>
	<polygon fill="#231F20" points="32.2,110 72,72 34,111.8 	"/>
	<polygon fill="#231F20" points="110,111.8 72,72 111.8,110 	"/>
	<polygon fill="#231F20" points="107.9,30.3 72,72 105.9,28.6 	"/>
	<polygon fill="#231F20" points="30.3,36.1 72,72 28.6,38.1 	"/>
	<polygon fill="#231F20" points="36.1,113.7 72,72 38.1,115.4 	"/>
	<polygon fill="#231F20" points="113.7,107.9 72,72 115.4,105.9 	"/>
	<polygon fill="#231F20" points="124.3,89.2 72,72 125,86.7 	"/>
	<polygon fill="#231F20" points="89.2,19.7 72,72 86.7,19 	"/>
	<polygon fill="#231F20" points="19.7,54.8 72,72 19,57.3 	"/>
	<polygon fill="#231F20" points="54.8,124.3 72,72 57.3,125 	"/>
	<polygon fill="#231F20" points="99.1,24.1 72,72 96.8,22.9 	"/>
	<polygon fill="#231F20" points="24.1,44.9 72,72 22.8,47.2 	"/>
	<polygon fill="#231F20" points="44.9,119.9 72,72 47.2,121.2 	"/>
	<polygon fill="#231F20" points="119.9,99.1 72,72 121.2,96.8 	"/>
	<polygon fill="#231F20" points="94.3,21.7 72,72 91.8,20.7 	"/>
	<polygon fill="#231F20" points="21.7,49.7 72,72 20.7,52.2 	"/>
	<polygon fill="#231F20" points="49.7,122.3 72,72 52.2,123.3 	"/>
	<polygon fill="#231F20" points="122.3,94.3 72,72 123.3,91.8 	"/>
	<polygon fill="#231F20" points="115.4,38.1 72,72 113.7,36.1 	"/>
	<polygon fill="#231F20" points="38.1,28.6 72,72 36.1,30.3 	"/>
	<polygon fill="#231F20" points="28.6,105.9 72,72 30.3,107.9 	"/>
	<polygon fill="#231F20" points="105.9,115.4 72,72 107.9,113.7 	"/>
	<polygon fill="#231F20" points="118.5,42.5 72,72 117,40.3 	"/>
	<polygon fill="#231F20" points="42.5,25.5 72,72 40.3,27 	"/>
	<polygon fill="#231F20" points="25.5,101.5 72,72 27,103.7 	"/>
	<polygon fill="#231F20" points="101.5,118.5 72,72 103.7,117 	"/>
	<polygon fill="#231F20" points="121.1,47.2 72,72 119.9,44.9 	"/>
	<polygon fill="#231F20" points="47.2,22.9 72,72 44.9,24.1 	"/>
	<polygon fill="#231F20" points="22.9,96.8 72,72 24.1,99.1 	"/>
	<polygon fill="#231F20" points="96.8,121.1 72,72 99.1,119.9 	"/>
	<polygon fill="#231F20" points="123.3,52.2 72,72 122.3,49.7 	"/>
	<polygon fill="#231F20" points="52.2,20.7 72,72 49.7,21.7 	"/>
	<polygon fill="#231F20" points="20.7,91.8 72,72 21.7,94.3 	"/>
	<polygon fill="#231F20" points="91.8,123.3 72,72 94.3,122.3 	"/>
	<g>
		<circle fill="none" stroke="#231F20" stroke-width="6" stroke-miterlimit="11" cx="72" cy="72" r="52.2"/>
	</g>
</g>
<g>
	<g>
		<defs>
			<path id="SVGID_5_" d="M16.7-92.5c0,30.5,24.8,55.3,55.3,55.3v-55.3H16.7z"/>
		</defs>
		<clipPath id="SVGID_2_">
			<use xlink:href="#SVGID_5_"  overflow="visible"/>
		</clipPath>
		
			<rect x="-35.2" y="-53.6" transform="matrix(0.7071 0.7071 -0.7071 0.7071 -25.0178 -39.016)" clip-path="url(#SVGID_2_)" fill="#231F20" width="139.7" height="7.7"/>
		
			<rect x="-46.3" y="-42.5" transform="matrix(0.7071 0.7071 -0.7071 0.7071 -20.418 -27.9118)" clip-path="url(#SVGID_2_)" fill="#231F20" width="139.7" height="7.7"/>
	</g>
</g>
</svg>
