<?xml version="1.0" encoding="utf-8"?>
<!-- Generator: Adobe Illustrator 18.1.1, SVG Export Plug-In . SVG Version: 6.00 Build 0)  -->
<!DOCTYPE svg PUBLIC "-//W3C//DTD SVG 1.1//EN" "http://www.w3.org/Graphics/SVG/1.1/DTD/svg11.dtd">
<svg version="1.1" id="Layer_1" xmlns="http://www.w3.org/2000/svg" xmlns:xlink="http://www.w3.org/1999/xlink" x="0px" y="0px"
	 viewBox="0 0 144 144" enable-background="new 0 0 144 144" xml:space="preserve">
<g>
	<polygon fill="#231F20" points="70.7,128 73.3,128 72,72 	"/>
	<polygon fill="#231F20" points="128,73.3 72,72 128,70.7 	"/>
	<polygon fill="#231F20" points="73.3,16 72,72 70.7,16 	"/>
	<polygon fill="#231F20" points="16,73.3 72,72 16,70.7 	"/>
	<polygon fill="#231F20" points="126.6,84.2 72,72 127.1,81.6 	"/>
	<polygon fill="#231F20" points="84.2,17.4 72,72 81.6,16.9 	"/>
	<polygon fill="#231F20" points="16.9,62.4 72,72 17.4,59.8 	"/>
	<polygon fill="#231F20" points="59.8,126.6 62.4,127.1 72,72 	"/>
	<polygon fill="#231F20" points="127.6,78.8 72,72 127.8,76.1 	"/>
	<polygon fill="#231F20" points="78.8,16.4 72,72 76.1,16.2 	"/>
	<polygon fill="#231F20" points="16.2,67.9 72,72 16.4,65.2 	"/>
	<polygon fill="#231F20" points="65.2,127.6 67.9,127.8 72,72 	"/>
	<polygon fill="#231F20" points="87,125.9 72,72 89.5,125.2 	"/>
	<polygon fill="#231F20" points="125.9,57 72,72 125.2,54.5 	"/>
	<polygon fill="#231F20" points="57,18.1 72,72 54.5,18.8 	"/>
	<polygon fill="#231F20" points="18.1,87 72,72 18.8,89.5 	"/>
	<polygon fill="#231F20" points="127.8,67.9 72,72 127.6,65.2 	"/>
	<polygon fill="#231F20" points="67.9,16.2 72,72 65.2,16.4 	"/>
	<polygon fill="#231F20" points="16.2,76.1 16.4,78.8 72,72 	"/>
	<polygon fill="#231F20" points="76.1,127.8 78.8,127.6 72,72 	"/>
	<polygon fill="#231F20" points="127.1,62.4 72,72 126.6,59.8 	"/>
	<polygon fill="#231F20" points="62.4,16.9 72,72 59.8,17.4 	"/>
	<polygon fill="#231F20" points="16.9,81.6 17.4,84.2 72,72 	"/>
	<polygon fill="#231F20" points="81.6,127.1 84.2,126.6 72,72 	"/>
	<polygon fill="#231F20" points="117.8,104.2 72,72 119.3,102 	"/>
	<polygon fill="#231F20" points="104.2,26.2 72,72 102,24.7 	"/>
	<polygon fill="#231F20" points="26.2,39.8 72,72 24.7,42 	"/>
	<polygon fill="#231F20" points="39.8,117.8 72,72 42,119.3 	"/>
	<polygon fill="#231F20" points="112.5,33.4 72,72 110.6,31.5 	"/>
	<polygon fill="#231F20" points="33.4,31.5 72,72 31.5,33.4 	"/>
	<polygon fill="#231F20" points="31.5,110.6 72,72 33.4,112.5 	"/>
	<polygon fill="#231F20" points="110.6,112.5 72,72 112.5,110.6 	"/>
	<polygon fill="#231F20" points="108.5,29.6 72,72 106.5,27.9 	"/>
	<polygon fill="#231F20" points="29.6,35.5 72,72 27.9,37.5 	"/>
	<polygon fill="#231F20" points="35.5,114.4 72,72 37.5,116.1 	"/>
	<polygon fill="#231F20" points="114.4,108.5 72,72 116.1,106.5 	"/>
	<polygon fill="#231F20" points="125.2,89.5 72,72 125.9,87 	"/>
	<polygon fill="#231F20" points="89.5,18.8 72,72 87,18.1 	"/>
	<polygon fill="#231F20" points="18.8,54.5 72,72 18.1,57 	"/>
	<polygon fill="#231F20" points="54.5,125.2 72,72 57,125.9 	"/>
	<polygon fill="#231F20" points="99.6,23.3 72,72 97.2,22 	"/>
	<polygon fill="#231F20" points="23.3,44.4 72,72 22,46.8 	"/>
	<polygon fill="#231F20" points="44.4,120.7 72,72 46.8,122 	"/>
	<polygon fill="#231F20" points="120.7,99.6 72,72 122,97.2 	"/>
	<polygon fill="#231F20" points="94.7,20.8 72,72 92.2,19.8 	"/>
	<polygon fill="#231F20" points="20.8,49.3 72,72 19.8,51.8 	"/>
	<polygon fill="#231F20" points="49.3,123.2 72,72 51.8,124.2 	"/>
	<polygon fill="#231F20" points="123.2,94.7 72,72 124.2,92.2 	"/>
	<polygon fill="#231F20" points="116.1,37.5 72,72 114.4,35.5 	"/>
	<polygon fill="#231F20" points="37.5,27.9 72,72 35.5,29.6 	"/>
	<polygon fill="#231F20" points="27.9,106.5 72,72 29.6,108.5 	"/>
	<polygon fill="#231F20" points="106.5,116.1 72,72 108.5,114.4 	"/>
	<polygon fill="#231F20" points="119.3,42 72,72 117.8,39.8 	"/>
	<polygon fill="#231F20" points="42,24.7 72,72 39.8,26.2 	"/>
	<polygon fill="#231F20" points="24.7,102 72,72 26.2,104.2 	"/>
	<polygon fill="#231F20" points="102,119.3 72,72 104.2,117.8 	"/>
	<polygon fill="#231F20" points="122,46.8 72,72 120.7,44.4 	"/>
	<polygon fill="#231F20" points="46.8,22 72,72 44.4,23.3 	"/>
	<polygon fill="#231F20" points="22,97.2 72,72 23.3,99.6 	"/>
	<polygon fill="#231F20" points="97.2,122 72,72 99.6,120.7 	"/>
	<polygon fill="#231F20" points="124.2,51.8 72,72 123.2,49.3 	"/>
	<polygon fill="#231F20" points="51.8,19.8 72,72 49.3,20.8 	"/>
	<polygon fill="#231F20" points="19.8,92.2 72,72 20.8,94.7 	"/>
	<polygon fill="#231F20" points="92.2,124.2 72,72 94.7,123.2 	"/>
</g>
<g>
</g>
</svg>
