<?xml version="1.0" encoding="utf-8"?>
<!-- Generator: Adobe Illustrator 18.1.1, SVG Export Plug-In . SVG Version: 6.00 Build 0)  -->
<!DOCTYPE svg PUBLIC "-//W3C//DTD SVG 1.1//EN" "http://www.w3.org/Graphics/SVG/1.1/DTD/svg11.dtd">
<svg version="1.1" id="Layer_1" xmlns="http://www.w3.org/2000/svg" xmlns:xlink="http://www.w3.org/1999/xlink" x="0px" y="0px"
	 viewBox="0 0 144 144" enable-background="new 0 0 144 144" xml:space="preserve">
<g>
	<polygon fill="#231F20" points="69,128 70.3,72 71.7,128 	"/>
	<polygon fill="#231F20" points="126.3,73.3 70.3,72 126.3,70.7 	"/>
	<polygon fill="#231F20" points="71.7,16 70.3,72 69,16 	"/>
	<polygon fill="#231F20" points="14.4,70.7 14.4,73.3 70.3,72 	"/>
	<polygon fill="#231F20" points="124.9,84.2 70.3,72 125.4,81.6 	"/>
	<polygon fill="#231F20" points="82.5,17.4 70.3,72 79.9,16.9 	"/>
	<polygon fill="#231F20" points="15.7,59.8 15.2,62.4 70.3,72 	"/>
	<polygon fill="#231F20" points="58.1,126.6 70.3,72 60.7,127.1 	"/>
	<polygon fill="#231F20" points="125.9,78.8 70.3,72 126.1,76.1 	"/>
	<polygon fill="#231F20" points="77.1,16.4 70.3,72 74.5,16.2 	"/>
	<polygon fill="#231F20" points="14.8,65.2 14.5,67.9 70.3,72 	"/>
	<polygon fill="#231F20" points="63.5,127.6 70.3,72 66.2,127.8 	"/>
	<polygon fill="#231F20" points="85.3,125.9 70.3,72 87.8,125.2 	"/>
	<polygon fill="#231F20" points="124.2,57 70.3,72 123.5,54.5 	"/>
	<polygon fill="#231F20" points="55.4,18.1 70.3,72 52.8,18.8 	"/>
	<polygon fill="#231F20" points="16.4,87 70.3,72 17.2,89.5 	"/>
	<polygon fill="#231F20" points="126.1,67.9 70.3,72 125.9,65.2 	"/>
	<polygon fill="#231F20" points="66.2,16.2 70.3,72 63.5,16.4 	"/>
	<polygon fill="#231F20" points="14.5,76.1 14.8,78.8 70.3,72 	"/>
	<polygon fill="#231F20" points="74.5,127.8 70.3,72 77.1,127.6 	"/>
	<polygon fill="#231F20" points="125.4,62.4 70.3,72 124.9,59.8 	"/>
	<polygon fill="#231F20" points="60.7,16.9 70.3,72 58.1,17.4 	"/>
	<polygon fill="#231F20" points="15.2,81.6 15.7,84.2 70.3,72 	"/>
	<polygon fill="#231F20" points="79.9,127.1 70.3,72 82.5,126.6 	"/>
	<polygon fill="#231F20" points="116.1,104.2 70.3,72 117.6,102 	"/>
	<polygon fill="#231F20" points="102.5,26.2 70.3,72 100.3,24.7 	"/>
	<polygon fill="#231F20" points="24.5,39.8 70.3,72 23,42 	"/>
	<polygon fill="#231F20" points="38.1,117.8 70.3,72 40.3,119.3 	"/>
	<polygon fill="#231F20" points="110.8,33.4 70.3,72 108.9,31.5 	"/>
	<polygon fill="#231F20" points="31.7,31.5 70.3,72 29.8,33.4 	"/>
	<polygon fill="#231F20" points="29.8,110.6 70.3,72 31.7,112.5 	"/>
	<polygon fill="#231F20" points="108.9,112.5 70.3,72 110.8,110.6 	"/>
	<polygon fill="#231F20" points="106.8,29.6 70.3,72 104.8,27.9 	"/>
	<polygon fill="#231F20" points="27.9,35.5 70.3,72 26.2,37.5 	"/>
	<polygon fill="#231F20" points="33.8,114.4 70.3,72 35.8,116.1 	"/>
	<polygon fill="#231F20" points="112.7,108.5 70.3,72 114.4,106.5 	"/>
	<polygon fill="#231F20" points="123.5,89.5 70.3,72 124.2,87 	"/>
	<polygon fill="#231F20" points="87.8,18.8 70.3,72 85.3,18.1 	"/>
	<polygon fill="#231F20" points="17.2,54.5 70.3,72 16.4,57 	"/>
	<polygon fill="#231F20" points="52.8,125.2 70.3,72 55.4,125.9 	"/>
	<polygon fill="#231F20" points="97.9,23.3 70.3,72 95.5,22 	"/>
	<polygon fill="#231F20" points="21.6,44.4 70.3,72 20.3,46.8 	"/>
	<polygon fill="#231F20" points="42.7,120.7 70.3,72 45.1,122 	"/>
	<polygon fill="#231F20" points="119,99.6 70.3,72 120.3,97.2 	"/>
	<polygon fill="#231F20" points="93,20.8 70.3,72 90.5,19.8 	"/>
	<polygon fill="#231F20" points="19.1,49.3 70.3,72 18.1,51.8 	"/>
	<polygon fill="#231F20" points="47.7,123.2 70.3,72 50.1,124.2 	"/>
	<polygon fill="#231F20" points="121.5,94.7 70.3,72 122.5,92.2 	"/>
	<polygon fill="#231F20" points="114.4,37.5 70.3,72 112.7,35.5 	"/>
	<polygon fill="#231F20" points="35.8,27.9 70.3,72 33.8,29.6 	"/>
	<polygon fill="#231F20" points="26.2,106.5 70.3,72 27.9,108.5 	"/>
	<polygon fill="#231F20" points="104.8,116.1 70.3,72 106.8,114.4 	"/>
	<polygon fill="#231F20" points="117.6,42 70.3,72 116.1,39.8 	"/>
	<polygon fill="#231F20" points="40.3,24.7 70.3,72 38.1,26.2 	"/>
	<polygon fill="#231F20" points="23,102 70.3,72 24.5,104.2 	"/>
	<polygon fill="#231F20" points="100.3,119.3 70.3,72 102.5,117.8 	"/>
	<polygon fill="#231F20" points="120.3,46.8 70.3,72 119,44.4 	"/>
	<polygon fill="#231F20" points="45.1,22 70.3,72 42.7,23.3 	"/>
	<polygon fill="#231F20" points="20.3,97.2 70.3,72 21.6,99.6 	"/>
	<polygon fill="#231F20" points="95.5,122 70.3,72 97.9,120.7 	"/>
	<polygon fill="#231F20" points="122.5,51.8 70.3,72 121.5,49.3 	"/>
	<polygon fill="#231F20" points="50.1,19.8 70.3,72 47.7,20.8 	"/>
	<polygon fill="#231F20" points="18.1,92.2 70.3,72 19.1,94.7 	"/>
	<polygon fill="#231F20" points="90.5,124.2 70.3,72 93,123.2 	"/>
	<polyline fill="#FFFFFF" points="108.9,61.6 108.9,77.8 129.6,81.4 128.7,58.2 	"/>
	<text transform="matrix(1 0 0 1 111.7346 77.7705)" fill="#231F20" font-family="'GTCinetypeTrial-Mono'" font-size="21.047">8</text>
</g>
</svg>
