<?xml version="1.0" encoding="utf-8"?>
<!-- Generator: Adobe Illustrator 18.1.1, SVG Export Plug-In . SVG Version: 6.00 Build 0)  -->
<!DOCTYPE svg PUBLIC "-//W3C//DTD SVG 1.1//EN" "http://www.w3.org/Graphics/SVG/1.1/DTD/svg11.dtd">
<svg version="1.1" id="Layer_1" xmlns="http://www.w3.org/2000/svg" xmlns:xlink="http://www.w3.org/1999/xlink" x="0px" y="0px"
	 viewBox="0 0 144 144" enable-background="new 0 0 144 144" xml:space="preserve">
<g>
	<g>
		<defs>
			<rect id="SVGID_7_" x="8.1" y="13.7" width="127.8" height="116.5"/>
		</defs>
		<clipPath id="SVGID_2_">
			<use xlink:href="#SVGID_7_"  overflow="visible"/>
		</clipPath>
		<path clip-path="url(#SVGID_2_)" fill="#231F20" d="M22,114.2c-0.7-0.7-1-1.1-1.6-1.6c14.3-11.2,27-24.1,40.1-36.7
			c8.3-8,16.4-16.2,22.6-26.1c4-6.4,7.5-13.1,10.6-20c2.2-5,4.9-10.5,5.6-16c1,1,1.9,1.9,2.9,2.9c-1.8,5.6-4.4,10.9-7.1,16.1
			c-3.3,6.5-6.9,12.8-10.8,18.9c-6.3,9.6-14.3,17.6-22.4,25.6C48.7,89.8,36,102.7,22,114.2"/>
		<path clip-path="url(#SVGID_2_)" fill="#231F20" d="M25.8,118c-0.7-0.8-1.1-1.2-1.9-1.9c13.7-11.9,26.4-24.8,39.3-37.5
			c8.1-8,16.1-15.9,22.6-25.3c7.2-10.6,14-21.8,19.6-33.4c1.3,1.3,2.5,2.6,3.8,3.8c-7,10.6-14.2,21.2-21.8,31.3
			C80.5,64.1,72.5,72,64.5,80C51.6,92.7,39,105.6,25.8,118"/>
		<path clip-path="url(#SVGID_2_)" fill="#231F20" d="M29.1,121.4c-0.7-0.7-0.9-0.9-1.6-1.6c12.9-12.7,25.5-25.6,38.3-38.4
			c7.8-7.9,15.7-15.7,23.1-24c8.4-9.5,16.7-19.1,25-28.8c1.9,2,3.9,3.9,5.8,5.9C110.1,42.8,100.4,51,91,59.5
			c-8.3,7.4-16,15.3-23.7,23.2C54.5,95.6,41.7,108.4,29.1,121.4"/>
		<path clip-path="url(#SVGID_2_)" fill="#231F20" d="M32.8,125.1c-0.8-0.8-1.2-1.2-1.9-1.9C43.1,109.8,56,97.1,68.6,84.1
			c7.8-8,15.4-16,24.3-22.6c10.3-7.8,21.1-15,32.1-21.7c1.4,1.4,2.8,2.9,4.3,4.3c-12.1,4.6-23.6,11.7-34.3,18.9
			C85.5,69.3,77.8,77.4,70,85.5C57.4,98.5,44.6,111.3,32.8,125.1"/>
		<path clip-path="url(#SVGID_2_)" fill="#231F20" d="M36.3,128.7c-0.6-0.6-0.9-0.9-1.6-1.6c11.3-14.2,24.1-27,36.7-40.1
			c7.9-8.2,15.8-16.4,25.5-22.4c6.2-3.9,12.6-7.4,19.2-10.5c5.3-2.5,11-5.3,16.8-6.3l3,3c-5.5-0.4-11.8,2.6-16.8,4.6
			c-7,2.9-13.8,6.2-20.2,10.2c-10,6-18.2,14.2-26.2,22.7C60.2,101.4,47.3,114.1,36.3,128.7"/>
		<path clip-path="url(#SVGID_2_)" fill="#231F20" d="M107.7,128.6c-0.7,0.7-1,1.1-1.6,1.6C95,115.8,82.2,103.1,69.7,89.9
			c-8-8.4-16.1-16.5-25.9-22.7c-6.3-4-13-7.6-19.8-10.7c-5-2.3-10.4-5-15.9-5.7c1-1,1.9-1.9,2.9-2.9c5.5,1.8,10.8,4.5,15.9,7.1
			c6.4,3.3,12.7,6.9,18.7,10.9c9.5,6.3,17.5,14.4,25.4,22.6C83.6,101.6,96.3,114.4,107.7,128.6"/>
		<path clip-path="url(#SVGID_2_)" fill="#231F20" d="M111.5,124.8c-0.7,0.8-1.1,1.2-1.9,1.9C97.8,113,85,100.1,72.4,87.1
			c-7.9-8.2-15.8-16.2-25.1-22.8C36.8,57,25.7,50.2,14.2,44.6c1.3-1.3,2.5-2.6,3.8-3.8c10.6,7,21,14.3,31.1,22
			c9,6.9,16.8,14.9,24.7,23C86.4,98.7,99.3,111.5,111.5,124.8"/>
		<path clip-path="url(#SVGID_2_)" fill="#231F20" d="M114.8,121.4c-0.7,0.7-0.9,0.9-1.6,1.6c-12.6-13-25.4-25.8-38.1-38.6
			c-7.8-7.9-15.5-15.8-23.8-23.2c-9.4-8.5-19-16.9-28.5-25.2c1.9-2,3.9-3.9,5.8-5.9c8.2,9.7,16.4,19.5,24.8,29
			c7.3,8.3,15.2,16.1,23,24C89.3,95.8,102,108.7,114.8,121.4"/>
		<path clip-path="url(#SVGID_2_)" fill="#231F20" d="M118.6,117.7c-0.8,0.8-1.2,1.2-1.9,1.9c-13.3-12.3-25.9-25.3-38.7-38
			C70,73.7,62.1,66,55.5,57.1c-7.7-10.4-14.9-21.2-21.5-32.3c1.4-1.4,2.9-2.9,4.3-4.3C42.8,32.6,49.8,44.2,57,55
			c6.2,9.5,14.2,17.3,22.3,25.2C92.2,92.9,104.9,105.8,118.6,117.7"/>
		<path clip-path="url(#SVGID_2_)" fill="#231F20" d="M122.1,114.1c-0.6,0.6-0.9,0.9-1.6,1.6c-14.1-11.4-26.8-24.3-39.8-37
			c-8.2-7.9-16.2-15.9-22.3-25.7c-3.9-6.2-7.3-12.7-10.4-19.4c-2.5-5.3-5.3-11.1-6.2-17c1-1,2-2,3-3c-0.4,5.6,2.6,11.9,4.6,16.9
			c2.8,7,6.2,13.9,10.1,20.4c6,10.1,14.1,18.3,22.5,26.4C95.1,90,107.7,103,122.1,114.1"/>
	</g>
</g>
</svg>
