<?xml version="1.0" encoding="utf-8"?>
<!-- Generator: Adobe Illustrator 18.1.1, SVG Export Plug-In . SVG Version: 6.00 Build 0)  -->
<!DOCTYPE svg PUBLIC "-//W3C//DTD SVG 1.1//EN" "http://www.w3.org/Graphics/SVG/1.1/DTD/svg11.dtd">
<svg version="1.1" id="Layer_1" xmlns="http://www.w3.org/2000/svg" xmlns:xlink="http://www.w3.org/1999/xlink" x="0px" y="0px"
	 viewBox="0 0 144 144" enable-background="new 0 0 144 144" xml:space="preserve">
<g>
	<defs>
		<rect id="SVGID_9_" x="11.7" y="10.9" width="122.3" height="122.3"/>
	</defs>
	<clipPath id="SVGID_2_">
		<use xlink:href="#SVGID_9_"  overflow="visible"/>
	</clipPath>
	<path clip-path="url(#SVGID_2_)" fill="#231F20" d="M29.6,114.6L29.6,114.6c-2.7-2.7-2.7-7.1,0-9.8l76.6-76.6
		c2.7-2.7,7.1-2.7,9.8,0c2.7,2.7,2.7,7.1,0,9.8l-76.6,76.6C36.7,117.3,32.3,117.3,29.6,114.6"/>
	<path clip-path="url(#SVGID_2_)" fill="#231F20" d="M29.6,28.2L29.6,28.2c2.7-2.7,7.1-2.7,9.8,0l76.6,76.6c2.7,2.7,2.7,7.1,0,9.8
		c-2.7,2.7-7.1,2.7-9.8,0L29.6,38C26.9,35.3,26.9,30.9,29.6,28.2"/>
	<path clip-path="url(#SVGID_2_)" fill="#231F20" d="M72.8,10.9L72.8,10.9c3.8,0,6.9,3.1,6.9,6.9v108.4c0,3.8-3.1,6.9-6.9,6.9
		s-6.9-3.1-6.9-6.9V17.8C65.9,14,69,10.9,72.8,10.9"/>
	<path clip-path="url(#SVGID_2_)" fill="#231F20" d="M11.7,71.4L11.7,71.4c0-3.8,3.1-6.9,6.9-6.9H127c3.8,0,6.9,3.1,6.9,6.9
		c0,3.8-3.1,6.9-6.9,6.9H18.7C14.8,78.3,11.7,75.2,11.7,71.4"/>
</g>
</svg>
