<?xml version="1.0" encoding="utf-8"?>
<!-- Generator: Adobe Illustrator 18.1.1, SVG Export Plug-In . SVG Version: 6.00 Build 0)  -->
<!DOCTYPE svg PUBLIC "-//W3C//DTD SVG 1.1//EN" "http://www.w3.org/Graphics/SVG/1.1/DTD/svg11.dtd">
<svg version="1.1" id="Layer_1" xmlns="http://www.w3.org/2000/svg" xmlns:xlink="http://www.w3.org/1999/xlink" x="0px" y="0px"
	 viewBox="0 0 144 144" enable-background="new 0 0 144 144" xml:space="preserve">
<g>
	<polygon fill="#231F20" points="134.2,72.4 134.2,71.4 9.8,71.6 9.8,72.6 	"/>
	<polygon fill="#231F20" points="72.3,99.1 72.7,44.9 71.7,44.9 71.3,99.1 	"/>
	<g>
		<defs>
			<rect id="SVGID_11_" x="9.8" y="44.9" width="124.4" height="54.1"/>
		</defs>
		<clipPath id="SVGID_2_">
			<use xlink:href="#SVGID_11_"  overflow="visible"/>
		</clipPath>
		<path clip-path="url(#SVGID_2_)" fill="#231F20" d="M63.2,61.3c1.2,0,2.1,1,2.1,2.2c0,1.2-1,2.2-2.2,2.2c-1.2,0-2.1-1-2.1-2.2
			C61,62.3,62,61.3,63.2,61.3"/>
		<path clip-path="url(#SVGID_2_)" fill="#231F20" d="M63.1,79c1.2,0,2.1,1,2.1,2.2c0,1.2-1,2.2-2.2,2.2c-1.2,0-2.1-1-2.1-2.2
			C60.9,79.9,61.9,79,63.1,79"/>
		<path clip-path="url(#SVGID_2_)" fill="#231F20" d="M81.8,78.9c1.2,0,2.1,1,2.1,2.2c0,1.2-1,2.2-2.2,2.2c-1.2,0-2.1-1-2.1-2.2
			C79.7,79.9,80.6,78.9,81.8,78.9"/>
		<path clip-path="url(#SVGID_2_)" fill="#231F20" d="M81.9,61.3c1.2,0,2.1,1,2.1,2.2c0,1.2-1,2.2-2.2,2.2c-1.2,0-2.1-1-2.1-2.2
			C79.8,62.3,80.7,61.3,81.9,61.3"/>
	</g>
	<polygon fill="#231F20" points="61.2,60.2 60.5,60.9 49.3,49.6 50,48.9 	"/>
</g>
</svg>
