<?xml version="1.0" encoding="utf-8"?>
<!-- Generator: Adobe Illustrator 18.1.1, SVG Export Plug-In . SVG Version: 6.00 Build 0)  -->
<!DOCTYPE svg PUBLIC "-//W3C//DTD SVG 1.1//EN" "http://www.w3.org/Graphics/SVG/1.1/DTD/svg11.dtd">
<svg version="1.1" id="Layer_1" xmlns="http://www.w3.org/2000/svg" xmlns:xlink="http://www.w3.org/1999/xlink" x="0px" y="0px"
	 viewBox="0 0 144 144" enable-background="new 0 0 144 144" xml:space="preserve">
<g>
	<rect x="8.1" y="71.7" fill="#231F20" width="127.8" height="0.6"/>
	<rect x="71.7" y="57.4" fill="#231F20" width="0.6" height="29.3"/>
	<g>
		<defs>
			<rect id="SVGID_13_" x="8.1" y="57.4" width="127.8" height="29.3"/>
		</defs>
		<clipPath id="SVGID_2_">
			<use xlink:href="#SVGID_13_"  overflow="visible"/>
		</clipPath>
		<path clip-path="url(#SVGID_2_)" fill="#231F20" d="M72,80.1c4.5,0,8.1-3.6,8.1-8.1s-3.6-8.1-8.1-8.1c-4.5,0-8.1,3.6-8.1,8.1
			S67.5,80.1,72,80.1 M72,63.3c4.8,0,8.7,3.9,8.7,8.7c0,4.8-3.9,8.7-8.7,8.7s-8.7-3.9-8.7-8.7C63.3,67.2,67.2,63.3,72,63.3"/>
	</g>
</g>
</svg>
