<?xml version="1.0" encoding="utf-8"?>
<!-- Generator: Adobe Illustrator 18.1.1, SVG Export Plug-In . SVG Version: 6.00 Build 0)  -->
<!DOCTYPE svg PUBLIC "-//W3C//DTD SVG 1.1//EN" "http://www.w3.org/Graphics/SVG/1.1/DTD/svg11.dtd">
<svg version="1.1" id="Layer_1" xmlns="http://www.w3.org/2000/svg" xmlns:xlink="http://www.w3.org/1999/xlink" x="0px" y="0px"
	 viewBox="0 0 144 144" enable-background="new 0 0 144 144" xml:space="preserve">
<g>
	<defs>
		<rect id="SVGID_15_" x="5.3" y="6.1" width="133.7" height="133.7"/>
	</defs>
	<clipPath id="SVGID_2_">
		<use xlink:href="#SVGID_15_"  overflow="visible"/>
	</clipPath>
	
		<path clip-path="url(#SVGID_2_)" fill="none" stroke="#231F20" stroke-width="8.0281" stroke-linecap="round" stroke-miterlimit="10" d="
		M100.3,134.4l-30.5-14c-2.8-1.3-5.9-1.7-8.9-1.3l-33.2,4.6c-12.6,1.8-22.1-11.1-16.8-22.6l14-30.5c1.3-2.8,1.7-5.9,1.3-8.9
		l-4.6-33.2C19.8,15.9,32.6,6.4,44.1,11.7l30.5,14c2.8,1.3,5.9,1.7,8.9,1.3l33.2-4.6c12.6-1.8,22.1,11.1,16.8,22.6l-14,30.5
		c-1.3,2.8-1.7,5.9-1.3,8.9l4.6,33.2C124.6,130.1,111.8,139.7,100.3,134.4z"/>
</g>
</svg>
