<?xml version="1.0" encoding="utf-8"?>
<!-- Generator: Adobe Illustrator 18.1.1, SVG Export Plug-In . SVG Version: 6.00 Build 0)  -->
<!DOCTYPE svg PUBLIC "-//W3C//DTD SVG 1.1//EN" "http://www.w3.org/Graphics/SVG/1.1/DTD/svg11.dtd">
<svg version="1.1" id="Layer_1" xmlns="http://www.w3.org/2000/svg" xmlns:xlink="http://www.w3.org/1999/xlink" x="0px" y="0px"
	 viewBox="0 0 144 144" enable-background="new 0 0 144 144" xml:space="preserve">
<g>
	<defs>
		<rect id="SVGID_17_" x="28.6" y="8.6" width="86.9" height="126.9"/>
	</defs>
	<clipPath id="SVGID_2_">
		<use xlink:href="#SVGID_17_"  overflow="visible"/>
	</clipPath>
	<path clip-path="url(#SVGID_2_)" fill="#FFF100" d="M110.1,71.2c-0.2-0.5-0.5-0.9-0.7-1.4c-0.2-0.5-0.5-0.9-0.7-1.4
		c-0.2-0.5-0.5-0.9-0.7-1.4c-0.2-0.5-0.5-0.9-0.7-1.4c-0.2-0.5-0.5-0.9-0.7-1.4c-0.2-0.5-0.5-0.9-0.7-1.4c-0.2-0.5-0.5-0.9-0.7-1.4
		c-0.2-0.5-0.5-0.9-0.7-1.4c-0.2-0.5-0.5-0.9-0.7-1.4c-0.2-0.5-0.5-0.9-0.7-1.4c-0.2-0.5-0.5-0.9-0.7-1.4c-0.2-0.5-0.5-0.9-0.7-1.4
		c-0.2-0.5-0.5-0.9-0.7-1.4c-0.2-0.5-0.5-0.9-0.7-1.4C99.6,51,99.3,50.5,99,50c-0.2-0.5-0.5-0.9-0.7-1.4c-0.2-0.5-0.5-0.9-0.7-1.4
		c-0.2-0.5-0.5-0.9-0.7-1.4c-0.2-0.5-0.5-0.9-0.7-1.4c-0.2-0.5-0.5-0.9-0.7-1.4c-0.2-0.5-0.5-0.9-0.7-1.4c-0.2-0.5-0.5-0.9-0.7-1.4
		c-0.2-0.5-0.5-0.9-0.7-1.4c-0.2-0.5-0.5-0.9-0.7-1.4c-0.2-0.5-0.5-0.9-0.7-1.4c-0.2-0.5-0.5-0.9-0.7-1.4c-0.2-0.5-0.5-0.9-0.7-1.4
		c-0.2-0.5-0.5-0.9-0.7-1.4c-0.2-0.5-0.5-0.9-0.7-1.4c-0.2-0.5-0.5-0.9-0.7-1.4c-0.2-0.5-0.5-0.9-0.7-1.4c-0.2-0.5-0.5-0.9-0.7-1.4
		c-0.2-0.5-0.5-1-0.7-1.4c-0.2-0.5-0.5-1-0.7-1.4c-0.2-0.5-0.5-0.9-0.7-1.4c-0.2-0.5-0.5-0.9-0.7-1.4c-0.2-0.5-0.5-0.9-0.7-1.4
		c-0.2-0.5-0.5-0.9-0.7-1.4c-0.2-0.5-0.5-0.9-0.7-1.4c-0.2-0.5-0.5-1-0.7-1.4c-0.5-1.2-1.2-2.3-2.2-3.2c-4.1-4.1-10.7-4.1-14.8,0
		c-1,1-1.8,2.2-2.3,3.5c-0.3,0.5-0.5,0.9-0.7,1.4c-0.3,0.5-0.5,0.9-0.7,1.4c-0.3,0.5-0.5,0.9-0.7,1.4c-0.3,0.5-0.5,0.9-0.7,1.4
		c-0.3,0.5-0.5,0.9-0.7,1.4c-0.3,0.5-0.5,0.9-0.7,1.4c-0.2,0.5-0.5,0.9-0.7,1.4c-0.3,0.5-0.5,1-0.7,1.5C55.4,27,55.2,27.5,55,28
		c-0.3,0.5-0.5,0.9-0.7,1.4c-0.3,0.5-0.5,0.9-0.7,1.4c-0.3,0.5-0.5,0.9-0.7,1.4c-0.3,0.5-0.5,0.9-0.7,1.4c-0.3,0.5-0.5,0.9-0.7,1.4
		c-0.3,0.5-0.5,0.9-0.7,1.4c-0.2,0.5-0.5,0.9-0.7,1.4c-0.2,0.5-0.5,0.9-0.7,1.4c-0.2,0.5-0.5,0.9-0.7,1.4c-0.2,0.5-0.5,0.9-0.7,1.4
		c-0.2,0.5-0.5,0.9-0.7,1.4c-0.2,0.5-0.5,0.9-0.7,1.4c-0.2,0.5-0.5,0.9-0.7,1.4c-0.2,0.5-0.5,0.9-0.7,1.4c-0.2,0.5-0.5,1-0.7,1.4
		c-0.2,0.5-0.5,1-0.7,1.4c-0.2,0.5-0.5,1-0.7,1.4c-0.2,0.5-0.5,1-0.7,1.4c-0.2,0.5-0.5,1-0.7,1.4c-0.2,0.5-0.5,1-0.7,1.4
		c-0.2,0.5-0.5,1-0.7,1.4c-0.2,0.5-0.5,1-0.7,1.4c-0.2,0.5-0.5,1-0.7,1.4c-0.2,0.5-0.5,1-0.7,1.4c-0.2,0.5-0.5,1-0.7,1.4
		c-0.2,0.5-0.5,1-0.7,1.4c-0.2,0.5-0.5,1-0.7,1.4c-0.2,0.5-0.5,1-0.7,1.4c-0.2,0.5-0.5,1-0.7,1.4c-0.2,0.5-0.5,1-0.7,1.4
		c-0.2,0.5-0.5,0.9-0.7,1.4c-8.3,16.3-5.7,36.8,8,50.5c17,17,44.5,17,61.4,0C116.7,108.8,119.2,87.6,110.1,71.2"/>
</g>
</svg>
