<?xml version="1.0" encoding="utf-8"?>
<!-- Generator: Adobe Illustrator 18.1.1, SVG Export Plug-In . SVG Version: 6.00 Build 0)  -->
<!DOCTYPE svg PUBLIC "-//W3C//DTD SVG 1.1//EN" "http://www.w3.org/Graphics/SVG/1.1/DTD/svg11.dtd">
<svg version="1.1" id="Layer_1" xmlns="http://www.w3.org/2000/svg" xmlns:xlink="http://www.w3.org/1999/xlink" x="0px" y="0px"
	 viewBox="0 0 144 144" enable-background="new 0 0 144 144" xml:space="preserve">
<g>
	<polygon fill="#231F20" points="52.3,15.6 52.1,15.6 73,127.6 72,121.1 	"/>
	<polygon fill="#231F20" points="73,127.6 73,127.6 73,127.7 73,127.7 73,127.6 	"/>
	<polygon fill="#231F20" points="72.2,121.3 55.3,15.6 55.2,15.7 72,121.1 72.6,124.4 	"/>
	<polygon fill="#231F20" points="73,127.6 72.6,124.4 72,121.1 73,127.6 73,127.6 	"/>
	<polygon fill="#231F20" points="73,127.6 72.6,124.4 72,121.1 73,127.6 73,127.6 	"/>
	
		<rect x="73" y="127.7" transform="matrix(-0.1312 -0.9914 0.9914 -0.1312 -43.9919 216.8637)" fill="#231F20" width="0.1" height="0"/>
	<polygon fill="#231F20" points="72.4,121.4 58.4,15.7 58.2,15.7 72.2,121.3 72.7,124.5 	"/>
	<rect x="73" y="127.6" fill="#231F20" width="0" height="0.1"/>
	<rect x="73" y="127.6" fill="#231F20" width="0" height="0.1"/>
	<polygon fill="#231F20" points="72.8,125.5 72.7,124.5 72.2,121.3 72.6,124.4 	"/>
	<polygon fill="#231F20" points="72.8,125.5 72.7,124.5 72.2,121.3 72.6,124.4 	"/>
	<polygon fill="#231F20" points="72.6,124.4 73,127.6 73,127.6 72.8,125.5 	"/>
	<polygon fill="#231F20" points="72.6,124.4 73,127.6 73,127.6 72.8,125.5 	"/>
	<polygon fill="#231F20" points="72.6,124.4 73,127.6 73,127.6 72.8,125.5 	"/>
	
		<rect x="73" y="127.8" transform="matrix(-0.105 -0.9945 0.9945 -0.105 -46.3549 213.8126)" fill="#231F20" width="0.1" height="0"/>
	<polygon fill="#231F20" points="72.6,121.5 61.4,15.7 61.2,15.7 72.4,121.4 72.8,124.7 	"/>
	<rect x="73" y="127.7" fill="#231F20" width="0" height="0.1"/>
	<rect x="73" y="127.7" fill="#231F20" width="0" height="0.1"/>
	<polygon fill="#231F20" points="72.9,125.7 72.8,124.7 72.4,121.4 72.7,124.5 	"/>
	<polygon fill="#231F20" points="72.9,125.7 72.8,124.7 72.4,121.4 72.7,124.5 	"/>
	
		<rect x="73" y="127.6" transform="matrix(-0.1048 -0.9945 0.9945 -0.1048 -46.264 213.6524)" fill="#231F20" width="0.1" height="0"/>
	
		<rect x="73" y="127.6" transform="matrix(-0.1048 -0.9945 0.9945 -0.1048 -46.264 213.6524)" fill="#231F20" width="0.1" height="0"/>
	
		<rect x="73" y="127.6" transform="matrix(-0.1048 -0.9945 0.9945 -0.1048 -46.264 213.6524)" fill="#231F20" width="0.1" height="0"/>
	<polygon fill="#231F20" points="72.9,125.7 72.7,124.5 72.8,125.5 72.9,126.1 	"/>
	<polygon fill="#231F20" points="72.9,125.7 72.7,124.5 72.8,125.5 72.9,126.1 	"/>
	<polygon fill="#231F20" points="72.9,125.7 72.7,124.5 72.8,125.5 72.9,126.1 	"/>
	<polygon fill="#231F20" points="72.9,126.1 72.8,125.5 73,127.6 73,127.6 	"/>
	<polygon fill="#231F20" points="72.9,126.1 72.8,125.5 73,127.6 73,127.6 	"/>
	<polygon fill="#231F20" points="72.9,126.1 72.8,125.5 73,127.6 73,127.6 	"/>
	<polygon fill="#231F20" points="72.9,126.1 72.8,125.5 73,127.6 73,127.6 	"/>
	<rect x="73" y="127.8" fill="#231F20" width="0" height="0.1"/>
	<polygon fill="#231F20" points="72.7,121.7 64.5,15.7 64.3,15.7 72.6,121.5 72.9,124.8 	"/>
	<rect x="73" y="127.7" fill="#231F20" width="0" height="0.1"/>
	<rect x="73" y="127.7" fill="#231F20" width="0" height="0.1"/>
	<polygon fill="#231F20" points="73,125.8 72.9,124.8 72.6,121.5 72.8,124.7 	"/>
	<polygon fill="#231F20" points="73,125.8 72.9,124.8 72.6,121.5 72.8,124.7 	"/>
	<rect x="73" y="127.7" fill="#231F20" width="0" height="0.1"/>
	<rect x="73" y="127.7" fill="#231F20" width="0" height="0.1"/>
	<rect x="73" y="127.7" fill="#231F20" width="0" height="0.1"/>
	<polygon fill="#231F20" points="73,125.8 72.8,124.7 72.9,125.7 73,126.3 	"/>
	<polygon fill="#231F20" points="73,125.8 72.8,124.7 72.9,125.7 73,126.3 	"/>
	<polygon fill="#231F20" points="73,125.8 72.8,124.7 72.9,125.7 73,126.3 	"/>
	<rect x="73" y="127.6" fill="#231F20" width="0" height="0.1"/>
	<rect x="73" y="127.6" fill="#231F20" width="0" height="0.1"/>
	<rect x="73" y="127.6" fill="#231F20" width="0" height="0.1"/>
	<rect x="73" y="127.6" fill="#231F20" width="0" height="0.1"/>
	<polygon fill="#231F20" points="73,126.5 73,126.3 72.9,125.7 72.9,126.1 	"/>
	<polygon fill="#231F20" points="73,126.5 73,126.3 72.9,125.7 72.9,126.1 	"/>
	<polygon fill="#231F20" points="73,126.5 73,126.3 72.9,125.7 72.9,126.1 	"/>
	<polygon fill="#231F20" points="73,126.5 73,126.3 72.9,125.7 72.9,126.1 	"/>
	<polygon fill="#231F20" points="72.9,126.1 73,127.6 73,127.6 73,126.5 	"/>
	<polygon fill="#231F20" points="72.9,126.1 73,127.6 73,127.6 73,126.5 	"/>
	<polygon fill="#231F20" points="72.9,126.1 73,127.6 73,127.6 73,126.5 	"/>
	<polygon fill="#231F20" points="72.9,126.1 73,127.6 73,127.6 73,126.5 	"/>
	<polygon fill="#231F20" points="72.9,126.1 73,127.6 73,127.6 73,126.5 	"/>
	<rect x="73.1" y="127.9" fill="#231F20" width="0" height="0.1"/>
	<polygon fill="#231F20" points="72.9,121.8 67.5,15.7 67.3,15.7 72.7,121.7 73,124.9 	"/>
	<polygon fill="#231F20" points="73,125.9 73,124.9 72.7,121.7 72.9,124.8 	"/>
	<polygon fill="#231F20" points="73,125.9 73,124.9 72.7,121.7 72.9,124.8 	"/>
	<rect x="73.1" y="127.8" fill="#231F20" width="0" height="0.1"/>
	<rect x="73.1" y="127.8" fill="#231F20" width="0" height="0.1"/>
	<rect x="73.1" y="127.7" fill="#231F20" width="0" height="0.1"/>
	<rect x="73.1" y="127.7" fill="#231F20" width="0" height="0.1"/>
	<rect x="73.1" y="127.7" fill="#231F20" width="0" height="0.1"/>
	<polygon fill="#231F20" points="73,125.9 72.9,124.8 73,125.8 73,126.4 	"/>
	<polygon fill="#231F20" points="73,125.9 72.9,124.8 73,125.8 73,126.4 	"/>
	<polygon fill="#231F20" points="73,125.9 72.9,124.8 73,125.8 73,126.4 	"/>
	<rect x="73" y="127.7" fill="#231F20" width="0" height="0.1"/>
	<rect x="73" y="127.7" fill="#231F20" width="0" height="0.1"/>
	<rect x="73" y="127.7" fill="#231F20" width="0" height="0.1"/>
	<rect x="73" y="127.7" fill="#231F20" width="0" height="0.1"/>
	<polygon fill="#231F20" points="73,126.6 73,126.4 73,125.8 73,126.3 	"/>
	<polygon fill="#231F20" points="73,126.6 73,126.4 73,125.8 73,126.3 	"/>
	<polygon fill="#231F20" points="73,126.6 73,126.4 73,125.8 73,126.3 	"/>
	<polygon fill="#231F20" points="73,126.6 73,126.4 73,125.8 73,126.3 	"/>
	<rect x="73" y="127.6" fill="#231F20" width="0" height="0.1"/>
	<rect x="73" y="127.6" fill="#231F20" width="0" height="0.1"/>
	<rect x="73" y="127.6" fill="#231F20" width="0" height="0.1"/>
	<rect x="73" y="127.6" fill="#231F20" width="0" height="0.1"/>
	<rect x="73" y="127.6" fill="#231F20" width="0" height="0.1"/>
	<polygon fill="#231F20" points="73,126.6 73,126.3 73,126.5 73,126.8 	"/>
	<polygon fill="#231F20" points="73,126.6 73,126.3 73,126.5 73,126.8 	"/>
	<polygon fill="#231F20" points="73,126.6 73,126.3 73,126.5 73,126.8 	"/>
	<polygon fill="#231F20" points="73,126.6 73,126.3 73,126.5 73,126.8 	"/>
	<polygon fill="#231F20" points="73,126.6 73,126.3 73,126.5 73,126.8 	"/>
	<polygon fill="#231F20" points="73,126.8 73,126.5 73,127.6 73.1,127.6 	"/>
	<polygon fill="#231F20" points="73,126.8 73,126.5 73,127.6 73.1,127.6 	"/>
	<polygon fill="#231F20" points="73,126.8 73,126.5 73,127.6 73.1,127.6 	"/>
	<polygon fill="#231F20" points="73,126.8 73,126.5 73,127.6 73.1,127.6 	"/>
	<polygon fill="#231F20" points="73,126.8 73,126.5 73,127.6 73.1,127.6 	"/>
	<polygon fill="#231F20" points="73,126.8 73,126.5 73,127.6 73.1,127.6 	"/>
	<rect x="73.1" y="127.9" fill="#231F20" width="0" height="0.1"/>
	<polygon fill="#231F20" points="73.1,121.9 70.6,15.8 70.4,15.8 72.9,121.8 73.1,125 	"/>
	<polygon fill="#231F20" points="73.1,126 73.1,125 72.9,121.8 73,124.9 	"/>
	<polygon fill="#231F20" points="73.1,126 73.1,125 72.9,121.8 73,124.9 	"/>
	<rect x="73.1" y="127.9" fill="#231F20" width="0" height="0.1"/>
	<rect x="73.1" y="127.9" fill="#231F20" width="0" height="0.1"/>
	<polygon fill="#231F20" points="73.1,126 73,124.9 73,125.9 73.1,126.5 	"/>
	<polygon fill="#231F20" points="73.1,126 73,124.9 73,125.9 73.1,126.5 	"/>
	<polygon fill="#231F20" points="73.1,126 73,124.9 73,125.9 73.1,126.5 	"/>
	<rect x="73.1" y="127.8" fill="#231F20" width="0" height="0.1"/>
	<rect x="73.1" y="127.8" fill="#231F20" width="0" height="0.1"/>
	<rect x="73.1" y="127.8" fill="#231F20" width="0" height="0.1"/>
	<rect x="73.1" y="127.7" fill="#231F20" width="0" height="0.1"/>
	<rect x="73.1" y="127.7" fill="#231F20" width="0" height="0.1"/>
	<rect x="73.1" y="127.7" fill="#231F20" width="0" height="0.1"/>
	<rect x="73.1" y="127.7" fill="#231F20" width="0" height="0.1"/>
	<polygon fill="#231F20" points="73.1,126.8 73.1,126.5 73,125.9 73,126.4 	"/>
	<polygon fill="#231F20" points="73.1,126.8 73.1,126.5 73,125.9 73,126.4 	"/>
	<polygon fill="#231F20" points="73.1,126.8 73.1,126.5 73,125.9 73,126.4 	"/>
	<polygon fill="#231F20" points="73.1,126.8 73.1,126.5 73,125.9 73,126.4 	"/>
	<rect x="73.1" y="127.7" fill="#231F20" width="0" height="0.1"/>
	<rect x="73.1" y="127.7" fill="#231F20" width="0" height="0.1"/>
	<rect x="73.1" y="127.7" fill="#231F20" width="0" height="0.1"/>
	<rect x="73.1" y="127.7" fill="#231F20" width="0" height="0.1"/>
	<rect x="73.1" y="127.7" fill="#231F20" width="0" height="0.1"/>
	<polygon fill="#231F20" points="73.1,126.8 73,126.4 73,126.6 73.1,126.9 	"/>
	<polygon fill="#231F20" points="73.1,126.8 73,126.4 73,126.6 73.1,126.9 	"/>
	<polygon fill="#231F20" points="73.1,126.8 73,126.4 73,126.6 73.1,126.9 	"/>
	<polygon fill="#231F20" points="73.1,126.8 73,126.4 73,126.6 73.1,126.9 	"/>
	<polygon fill="#231F20" points="73.1,126.8 73,126.4 73,126.6 73.1,126.9 	"/>
	<polygon fill="#231F20" points="73.1,127 73.1,126.9 73,126.6 73,126.8 	"/>
	<polygon fill="#231F20" points="73.1,127 73.1,126.9 73,126.6 73,126.8 	"/>
	<polygon fill="#231F20" points="73.1,127 73.1,126.9 73,126.6 73,126.8 	"/>
	<polygon fill="#231F20" points="73.1,127 73.1,126.9 73,126.6 73,126.8 	"/>
	<polygon fill="#231F20" points="73.1,127 73.1,126.9 73,126.6 73,126.8 	"/>
	<polygon fill="#231F20" points="73.1,127 73.1,126.9 73,126.6 73,126.8 	"/>
	<polygon fill="#231F20" points="73.1,127.6 73.1,127.6 73.1,127.7 73.1,127.7 	"/>
	<polygon fill="#231F20" points="73.1,127.6 73.1,127.6 73.1,127.7 73.1,127.7 	"/>
	<polygon fill="#231F20" points="73.1,127.6 73.1,127.6 73.1,127.7 73.1,127.7 	"/>
	<polygon fill="#231F20" points="73.1,127.6 73.1,127.6 73.1,127.7 73.1,127.7 	"/>
	<polygon fill="#231F20" points="73.1,127.6 73.1,127.6 73.1,127.7 73.1,127.7 	"/>
	<polygon fill="#231F20" points="73.1,127.6 73.1,127.6 73.1,127.7 73.1,127.7 	"/>
	<polygon fill="#231F20" points="73,126.8 73.1,127.6 73.1,127.6 73.1,127 	"/>
	<polygon fill="#231F20" points="73,126.8 73.1,127.6 73.1,127.6 73.1,127 	"/>
	<polygon fill="#231F20" points="73,126.8 73.1,127.6 73.1,127.6 73.1,127 	"/>
	<polygon fill="#231F20" points="73,126.8 73.1,127.6 73.1,127.6 73.1,127 	"/>
	<polygon fill="#231F20" points="73,126.8 73.1,127.6 73.1,127.6 73.1,127 	"/>
	<polygon fill="#231F20" points="73,126.8 73.1,127.6 73.1,127.6 73.1,127 	"/>
	<polygon fill="#231F20" points="73,126.8 73.1,127.6 73.1,127.6 73.1,127 	"/>
	<rect x="73.1" y="128" fill="#231F20" width="0" height="0.1"/>
	<polygon fill="#231F20" points="73.3,122 73.6,15.8 73.4,15.8 73.1,121.9 73.2,125.2 	"/>
	<polygon fill="#231F20" points="73.1,126.2 73.2,125.2 73.1,121.9 73.1,125 	"/>
	<polygon fill="#231F20" points="73.1,126.2 73.2,125.2 73.1,121.9 73.1,125 	"/>
	<rect x="73.1" y="127.9" fill="#231F20" width="0" height="0.1"/>
	<rect x="73.1" y="127.9" fill="#231F20" width="0" height="0.1"/>
	<rect x="73.1" y="127.9" fill="#231F20" width="0" height="0.1"/>
	<rect x="73.1" y="127.9" fill="#231F20" width="0" height="0.1"/>
	<rect x="73.1" y="127.9" fill="#231F20" width="0" height="0.1"/>
	<polygon fill="#231F20" points="73.1,126.2 73.1,125 73.1,126 73.1,126.6 	"/>
	<polygon fill="#231F20" points="73.1,126.2 73.1,125 73.1,126 73.1,126.6 	"/>
	<polygon fill="#231F20" points="73.1,126.2 73.1,125 73.1,126 73.1,126.6 	"/>
	<rect x="73.1" y="127.8" fill="#231F20" width="0" height="0.1"/>
	<rect x="73.1" y="127.8" fill="#231F20" width="0" height="0.1"/>
	<rect x="73.1" y="127.8" fill="#231F20" width="0" height="0.1"/>
	<rect x="73.1" y="127.8" fill="#231F20" width="0" height="0.1"/>
	<polygon fill="#231F20" points="73.1,126.9 73.1,126.6 73.1,126 73.1,126.5 	"/>
	<polygon fill="#231F20" points="73.1,126.9 73.1,126.6 73.1,126 73.1,126.5 	"/>
	<polygon fill="#231F20" points="73.1,126.9 73.1,126.6 73.1,126 73.1,126.5 	"/>
	<polygon fill="#231F20" points="73.1,126.9 73.1,126.6 73.1,126 73.1,126.5 	"/>
	<polygon fill="#231F20" points="73.1,126.9 73.1,126.5 73.1,126.8 73.1,127 	"/>
	<polygon fill="#231F20" points="73.1,126.9 73.1,126.5 73.1,126.8 73.1,127 	"/>
	<polygon fill="#231F20" points="73.1,126.9 73.1,126.5 73.1,126.8 73.1,127 	"/>
	<polygon fill="#231F20" points="73.1,126.9 73.1,126.5 73.1,126.8 73.1,127 	"/>
	<polygon fill="#231F20" points="73.1,126.9 73.1,126.5 73.1,126.8 73.1,127 	"/>
	<rect x="73.1" y="127.7" fill="#231F20" width="0" height="0.1"/>
	<rect x="73.1" y="127.7" fill="#231F20" width="0" height="0.1"/>
	<rect x="73.1" y="127.7" fill="#231F20" width="0" height="0.1"/>
	<rect x="73.1" y="127.7" fill="#231F20" width="0" height="0.1"/>
	<rect x="73.1" y="127.7" fill="#231F20" width="0" height="0.1"/>
	<polygon fill="#231F20" points="73.1,127.1 73.1,127 73.1,126.8 73.1,126.9 	"/>
	<polygon fill="#231F20" points="73.1,127.1 73.1,127 73.1,126.8 73.1,126.9 	"/>
	<polygon fill="#231F20" points="73.1,127.1 73.1,127 73.1,126.8 73.1,126.9 	"/>
	<polygon fill="#231F20" points="73.1,127.1 73.1,127 73.1,126.8 73.1,126.9 	"/>
	<polygon fill="#231F20" points="73.1,127.1 73.1,127 73.1,126.8 73.1,126.9 	"/>
	<polygon fill="#231F20" points="73.1,127.1 73.1,127 73.1,126.8 73.1,126.9 	"/>
	<polygon fill="#231F20" points="73.1,127.7 73.1,127.7 73.1,127.7 73.1,127.7 	"/>
	<polygon fill="#231F20" points="73.1,127.7 73.1,127.7 73.1,127.7 73.1,127.7 	"/>
	<polygon fill="#231F20" points="73.1,127.7 73.1,127.7 73.1,127.7 73.1,127.7 	"/>
	<polygon fill="#231F20" points="73.1,127.7 73.1,127.7 73.1,127.7 73.1,127.7 	"/>
	<polygon fill="#231F20" points="73.1,127.7 73.1,127.7 73.1,127.7 73.1,127.7 	"/>
	<polygon fill="#231F20" points="73.1,127.7 73.1,127.7 73.1,127.7 73.1,127.7 	"/>
	<polygon fill="#231F20" points="73.1,127.6 73.1,127.7 73.1,127.7 73.1,127.6 	"/>
	<polygon fill="#231F20" points="73.1,127.6 73.1,127.7 73.1,127.7 73.1,127.6 	"/>
	<polygon fill="#231F20" points="73.1,127.6 73.1,127.7 73.1,127.7 73.1,127.6 	"/>
	<polygon fill="#231F20" points="73.1,127.6 73.1,127.7 73.1,127.7 73.1,127.6 	"/>
	<polygon fill="#231F20" points="73.1,127.6 73.1,127.7 73.1,127.7 73.1,127.6 	"/>
	<polygon fill="#231F20" points="73.1,127.6 73.1,127.7 73.1,127.7 73.1,127.6 	"/>
	<polygon fill="#231F20" points="73.1,127.6 73.1,127.7 73.1,127.7 73.1,127.6 	"/>
	<polygon fill="#231F20" points="73.1,127.1 73.1,126.9 73.1,127 73.1,127.2 	"/>
	<polygon fill="#231F20" points="73.1,127.1 73.1,126.9 73.1,127 73.1,127.2 	"/>
	<polygon fill="#231F20" points="73.1,127.1 73.1,126.9 73.1,127 73.1,127.2 	"/>
	<polygon fill="#231F20" points="73.1,127.1 73.1,126.9 73.1,127 73.1,127.2 	"/>
	<polygon fill="#231F20" points="73.1,127.1 73.1,126.9 73.1,127 73.1,127.2 	"/>
	<polygon fill="#231F20" points="73.1,127.1 73.1,126.9 73.1,127 73.1,127.2 	"/>
	<polygon fill="#231F20" points="73.1,127.1 73.1,126.9 73.1,127 73.1,127.2 	"/>
	<polygon fill="#231F20" points="73.1,127.2 73.1,127 73.1,127.6 73.1,127.6 	"/>
	<polygon fill="#231F20" points="73.1,127.2 73.1,127 73.1,127.6 73.1,127.6 	"/>
	<polygon fill="#231F20" points="73.1,127.2 73.1,127 73.1,127.6 73.1,127.6 	"/>
	<polygon fill="#231F20" points="73.1,127.2 73.1,127 73.1,127.6 73.1,127.6 	"/>
	<polygon fill="#231F20" points="73.1,127.2 73.1,127 73.1,127.6 73.1,127.6 	"/>
	<polygon fill="#231F20" points="73.1,127.2 73.1,127 73.1,127.6 73.1,127.6 	"/>
	<polygon fill="#231F20" points="73.1,127.2 73.1,127 73.1,127.6 73.1,127.6 	"/>
	<polygon fill="#231F20" points="73.1,127.2 73.1,127 73.1,127.6 73.1,127.6 	"/>
	<rect x="73.1" y="128" fill="#231F20" width="0" height="0.1"/>
	<polygon fill="#231F20" points="73.4,122.1 76.7,15.8 76.5,15.8 73.3,122 73.3,125.3 	"/>
	<polygon fill="#231F20" points="73.2,126.3 73.3,125.3 73.3,122 73.2,125.2 	"/>
	<polygon fill="#231F20" points="73.2,126.3 73.3,125.3 73.3,122 73.2,125.2 	"/>
	<rect x="73.1" y="128" fill="#231F20" width="0" height="0.1"/>
	<rect x="73.1" y="128" fill="#231F20" width="0" height="0.1"/>
	<polygon fill="#231F20" points="73.2,126.3 73.2,125.2 73.1,126.2 73.2,126.7 	"/>
	<polygon fill="#231F20" points="73.2,126.3 73.2,125.2 73.1,126.2 73.2,126.7 	"/>
	<polygon fill="#231F20" points="73.2,126.3 73.2,125.2 73.1,126.2 73.2,126.7 	"/>
	<rect x="73.1" y="127.9" fill="#231F20" width="0" height="0.1"/>
	<rect x="73.1" y="127.9" fill="#231F20" width="0" height="0.1"/>
	<rect x="73.1" y="127.9" fill="#231F20" width="0" height="0.1"/>
	<rect x="73.1" y="127.8" fill="#231F20" width="0" height="0.1"/>
	<rect x="73.1" y="127.8" fill="#231F20" width="0" height="0.1"/>
	<rect x="73.1" y="127.8" fill="#231F20" width="0" height="0.1"/>
	<rect x="73.1" y="127.8" fill="#231F20" width="0" height="0.1"/>
	<polygon fill="#231F20" points="73.2,127 73.2,126.7 73.1,126.2 73.1,126.6 	"/>
	<polygon fill="#231F20" points="73.2,127 73.2,126.7 73.1,126.2 73.1,126.6 	"/>
	<polygon fill="#231F20" points="73.2,127 73.2,126.7 73.1,126.2 73.1,126.6 	"/>
	<polygon fill="#231F20" points="73.2,127 73.2,126.7 73.1,126.2 73.1,126.6 	"/>
	<polygon fill="#231F20" points="73.2,127 73.1,126.6 73.1,126.9 73.1,127.2 	"/>
	<polygon fill="#231F20" points="73.2,127 73.1,126.6 73.1,126.9 73.1,127.2 	"/>
	<polygon fill="#231F20" points="73.2,127 73.1,126.6 73.1,126.9 73.1,127.2 	"/>
	<polygon fill="#231F20" points="73.2,127 73.1,126.6 73.1,126.9 73.1,127.2 	"/>
	<polygon fill="#231F20" points="73.2,127 73.1,126.6 73.1,126.9 73.1,127.2 	"/>
	<polygon fill="#231F20" points="73.1,127.8 73.1,127.9 73.1,127.8 73.1,127.8 	"/>
	<polygon fill="#231F20" points="73.1,127.8 73.1,127.9 73.1,127.8 73.1,127.8 	"/>
	<polygon fill="#231F20" points="73.1,127.8 73.1,127.9 73.1,127.8 73.1,127.8 	"/>
	<polygon fill="#231F20" points="73.1,127.8 73.1,127.9 73.1,127.8 73.1,127.8 	"/>
	<polygon fill="#231F20" points="73.1,127.8 73.1,127.9 73.1,127.8 73.1,127.8 	"/>
	<polygon fill="#231F20" points="73.1,127.7 73.1,127.7 73.1,127.8 73.1,127.8 	"/>
	<polygon fill="#231F20" points="73.1,127.7 73.1,127.7 73.1,127.8 73.1,127.8 	"/>
	<polygon fill="#231F20" points="73.1,127.7 73.1,127.7 73.1,127.8 73.1,127.8 	"/>
	<polygon fill="#231F20" points="73.1,127.7 73.1,127.7 73.1,127.8 73.1,127.8 	"/>
	<polygon fill="#231F20" points="73.1,127.7 73.1,127.7 73.1,127.8 73.1,127.8 	"/>
	<polygon fill="#231F20" points="73.1,127.7 73.1,127.7 73.1,127.8 73.1,127.8 	"/>
	<polygon fill="#231F20" points="73.1,127.2 73.1,127.2 73.1,126.9 73.1,127 	"/>
	<polygon fill="#231F20" points="73.1,127.2 73.1,127.2 73.1,126.9 73.1,127 	"/>
	<polygon fill="#231F20" points="73.1,127.2 73.1,127.2 73.1,126.9 73.1,127 	"/>
	<polygon fill="#231F20" points="73.1,127.2 73.1,127.2 73.1,126.9 73.1,127 	"/>
	<polygon fill="#231F20" points="73.1,127.2 73.1,127.2 73.1,126.9 73.1,127 	"/>
	<polygon fill="#231F20" points="73.1,127.2 73.1,127.2 73.1,126.9 73.1,127 	"/>
	<polygon fill="#231F20" points="73.1,127.7 73.1,127.7 73.1,127.7 73.1,127.7 	"/>
	<polygon fill="#231F20" points="73.1,127.7 73.1,127.7 73.1,127.7 73.1,127.7 	"/>
	<polygon fill="#231F20" points="73.1,127.7 73.1,127.7 73.1,127.7 73.1,127.7 	"/>
	<polygon fill="#231F20" points="73.1,127.7 73.1,127.7 73.1,127.7 73.1,127.7 	"/>
	<polygon fill="#231F20" points="73.1,127.7 73.1,127.7 73.1,127.7 73.1,127.7 	"/>
	<polygon fill="#231F20" points="73.1,127.7 73.1,127.7 73.1,127.7 73.1,127.7 	"/>
	<polygon fill="#231F20" points="73.1,127.7 73.1,127.7 73.1,127.7 73.1,127.7 	"/>
	<polygon fill="#231F20" points="73.1,127.2 73.1,127 73.1,127.1 73.1,127.3 	"/>
	<polygon fill="#231F20" points="73.1,127.2 73.1,127 73.1,127.1 73.1,127.3 	"/>
	<polygon fill="#231F20" points="73.1,127.2 73.1,127 73.1,127.1 73.1,127.3 	"/>
	<polygon fill="#231F20" points="73.1,127.2 73.1,127 73.1,127.1 73.1,127.3 	"/>
	<polygon fill="#231F20" points="73.1,127.2 73.1,127 73.1,127.1 73.1,127.3 	"/>
	<polygon fill="#231F20" points="73.1,127.2 73.1,127 73.1,127.1 73.1,127.3 	"/>
	<polygon fill="#231F20" points="73.1,127.2 73.1,127 73.1,127.1 73.1,127.3 	"/>
	<polygon fill="#231F20" points="73.1,127.6 73.1,127.6 73.1,127.7 73.1,127.7 	"/>
	<polygon fill="#231F20" points="73.1,127.6 73.1,127.6 73.1,127.7 73.1,127.7 	"/>
	<polygon fill="#231F20" points="73.1,127.6 73.1,127.6 73.1,127.7 73.1,127.7 	"/>
	<polygon fill="#231F20" points="73.1,127.6 73.1,127.6 73.1,127.7 73.1,127.7 	"/>
	<polygon fill="#231F20" points="73.1,127.6 73.1,127.6 73.1,127.7 73.1,127.7 	"/>
	<polygon fill="#231F20" points="73.1,127.6 73.1,127.6 73.1,127.7 73.1,127.7 	"/>
	<polygon fill="#231F20" points="73.1,127.6 73.1,127.6 73.1,127.7 73.1,127.7 	"/>
	<polygon fill="#231F20" points="73.1,127.6 73.1,127.6 73.1,127.7 73.1,127.7 	"/>
	<polygon fill="#231F20" points="73.1,127.3 73.1,127.3 73.1,127.1 73.1,127.2 	"/>
	<polygon fill="#231F20" points="73.1,127.3 73.1,127.3 73.1,127.1 73.1,127.2 	"/>
	<polygon fill="#231F20" points="73.1,127.3 73.1,127.3 73.1,127.1 73.1,127.2 	"/>
	<polygon fill="#231F20" points="73.1,127.3 73.1,127.3 73.1,127.1 73.1,127.2 	"/>
	<polygon fill="#231F20" points="73.1,127.3 73.1,127.3 73.1,127.1 73.1,127.2 	"/>
	<polygon fill="#231F20" points="73.1,127.3 73.1,127.3 73.1,127.1 73.1,127.2 	"/>
	<polygon fill="#231F20" points="73.1,127.3 73.1,127.3 73.1,127.1 73.1,127.2 	"/>
	<polygon fill="#231F20" points="73.1,127.3 73.1,127.3 73.1,127.1 73.1,127.2 	"/>
	<polygon fill="#231F20" points="73.1,127.2 73.1,127.6 73.1,127.6 73.1,127.3 	"/>
	<polygon fill="#231F20" points="73.1,127.2 73.1,127.6 73.1,127.6 73.1,127.3 	"/>
	<polygon fill="#231F20" points="73.1,127.2 73.1,127.6 73.1,127.6 73.1,127.3 	"/>
	<polygon fill="#231F20" points="73.1,127.2 73.1,127.6 73.1,127.6 73.1,127.3 	"/>
	<polygon fill="#231F20" points="73.1,127.2 73.1,127.6 73.1,127.6 73.1,127.3 	"/>
	<polygon fill="#231F20" points="73.1,127.2 73.1,127.6 73.1,127.6 73.1,127.3 	"/>
	<polygon fill="#231F20" points="73.1,127.2 73.1,127.6 73.1,127.6 73.1,127.3 	"/>
	<polygon fill="#231F20" points="73.1,127.2 73.1,127.6 73.1,127.6 73.1,127.3 	"/>
	<polygon fill="#231F20" points="73.1,127.2 73.1,127.6 73.1,127.6 73.1,127.3 	"/>
	<polygon fill="#231F20" points="73.6,122.3 79.7,15.9 79.5,15.8 73.4,122.1 73.3,125.4 	"/>
	<rect x="73.1" y="128.1" fill="#231F20" width="0" height="0.1"/>
	<rect x="73.1" y="128" fill="#231F20" width="0" height="0.1"/>
	<rect x="73.1" y="128" fill="#231F20" width="0" height="0.1"/>
	<polygon fill="#231F20" points="73.3,126.4 73.3,125.4 73.4,122.1 73.3,125.3 	"/>
	<polygon fill="#231F20" points="73.3,126.4 73.3,125.4 73.4,122.1 73.3,125.3 	"/>
	<rect x="73.1" y="128" fill="#231F20" width="0" height="0.1"/>
	<rect x="73.1" y="128" fill="#231F20" width="0" height="0.1"/>
	<rect x="73.1" y="128" fill="#231F20" width="0" height="0.1"/>
	<polygon fill="#231F20" points="73.3,126.4 73.3,125.3 73.2,126.3 73.2,126.9 	"/>
	<polygon fill="#231F20" points="73.3,126.4 73.3,125.3 73.2,126.3 73.2,126.9 	"/>
	<polygon fill="#231F20" points="73.3,126.4 73.3,125.3 73.2,126.3 73.2,126.9 	"/>
	<polygon fill="#231F20" points="73.2,127.1 73.2,126.9 73.2,126.3 73.2,126.7 	"/>
	<polygon fill="#231F20" points="73.2,127.1 73.2,126.9 73.2,126.3 73.2,126.7 	"/>
	<polygon fill="#231F20" points="73.2,127.1 73.2,126.9 73.2,126.3 73.2,126.7 	"/>
	<polygon fill="#231F20" points="73.2,127.1 73.2,126.9 73.2,126.3 73.2,126.7 	"/>
	<rect x="73.1" y="127.9" fill="#231F20" width="0" height="0.1"/>
	<rect x="73.1" y="127.9" fill="#231F20" width="0" height="0.1"/>
	<rect x="73.1" y="127.9" fill="#231F20" width="0" height="0.1"/>
	<rect x="73.1" y="127.9" fill="#231F20" width="0" height="0.1"/>
	<polygon fill="#231F20" points="73.2,127.1 73.2,126.7 73.2,127 73.2,127.3 	"/>
	<polygon fill="#231F20" points="73.2,127.1 73.2,126.7 73.2,127 73.2,127.3 	"/>
	<polygon fill="#231F20" points="73.2,127.1 73.2,126.7 73.2,127 73.2,127.3 	"/>
	<polygon fill="#231F20" points="73.2,127.1 73.2,126.7 73.2,127 73.2,127.3 	"/>
	<polygon fill="#231F20" points="73.2,127.1 73.2,126.7 73.2,127 73.2,127.3 	"/>
	<polygon fill="#231F20" points="73.1,127.8 73.1,127.9 73.1,127.9 73.1,127.8 	"/>
	<polygon fill="#231F20" points="73.1,127.8 73.1,127.9 73.1,127.9 73.1,127.8 	"/>
	<polygon fill="#231F20" points="73.1,127.8 73.1,127.9 73.1,127.9 73.1,127.8 	"/>
	<polygon fill="#231F20" points="73.1,127.8 73.1,127.9 73.1,127.9 73.1,127.8 	"/>
	<polygon fill="#231F20" points="73.1,127.8 73.1,127.9 73.1,127.9 73.1,127.8 	"/>
	<polygon fill="#231F20" points="73.1,127.8 73.1,127.8 73.1,127.8 73.1,127.8 	"/>
	<polygon fill="#231F20" points="73.1,127.8 73.1,127.8 73.1,127.8 73.1,127.8 	"/>
	<polygon fill="#231F20" points="73.1,127.8 73.1,127.8 73.1,127.8 73.1,127.8 	"/>
	<polygon fill="#231F20" points="73.1,127.8 73.1,127.8 73.1,127.8 73.1,127.8 	"/>
	<polygon fill="#231F20" points="73.1,127.8 73.1,127.8 73.1,127.8 73.1,127.8 	"/>
	<polygon fill="#231F20" points="73.1,127.8 73.1,127.8 73.1,127.8 73.1,127.8 	"/>
	<polygon fill="#231F20" points="73.2,127.4 73.2,127.3 73.2,127 73.1,127.2 	"/>
	<polygon fill="#231F20" points="73.2,127.4 73.2,127.3 73.2,127 73.1,127.2 	"/>
	<polygon fill="#231F20" points="73.2,127.4 73.2,127.3 73.2,127 73.1,127.2 	"/>
	<polygon fill="#231F20" points="73.2,127.4 73.2,127.3 73.2,127 73.1,127.2 	"/>
	<polygon fill="#231F20" points="73.2,127.4 73.2,127.3 73.2,127 73.1,127.2 	"/>
	<polygon fill="#231F20" points="73.2,127.4 73.2,127.3 73.2,127 73.1,127.2 	"/>
	<polygon fill="#231F20" points="73.2,127.4 73.1,127.2 73.1,127.2 73.2,127.4 	"/>
	<polygon fill="#231F20" points="73.2,127.4 73.1,127.2 73.1,127.2 73.2,127.4 	"/>
	<polygon fill="#231F20" points="73.2,127.4 73.1,127.2 73.1,127.2 73.2,127.4 	"/>
	<polygon fill="#231F20" points="73.2,127.4 73.1,127.2 73.1,127.2 73.2,127.4 	"/>
	<polygon fill="#231F20" points="73.2,127.4 73.1,127.2 73.1,127.2 73.2,127.4 	"/>
	<polygon fill="#231F20" points="73.2,127.4 73.1,127.2 73.1,127.2 73.2,127.4 	"/>
	<polygon fill="#231F20" points="73.2,127.4 73.1,127.2 73.1,127.2 73.2,127.4 	"/>
	<polygon fill="#231F20" points="73.1,127.7 73.1,127.8 73.1,127.8 73.1,127.7 	"/>
	<polygon fill="#231F20" points="73.1,127.7 73.1,127.8 73.1,127.8 73.1,127.7 	"/>
	<polygon fill="#231F20" points="73.1,127.7 73.1,127.8 73.1,127.8 73.1,127.7 	"/>
	<polygon fill="#231F20" points="73.1,127.7 73.1,127.8 73.1,127.8 73.1,127.7 	"/>
	<polygon fill="#231F20" points="73.1,127.7 73.1,127.8 73.1,127.8 73.1,127.7 	"/>
	<polygon fill="#231F20" points="73.1,127.7 73.1,127.8 73.1,127.8 73.1,127.7 	"/>
	<polygon fill="#231F20" points="73.1,127.7 73.1,127.8 73.1,127.8 73.1,127.7 	"/>
	<polygon fill="#231F20" points="73.1,127.7 73.1,127.7 73.1,127.7 73.1,127.7 	"/>
	<polygon fill="#231F20" points="73.1,127.7 73.1,127.7 73.1,127.7 73.1,127.7 	"/>
	<polygon fill="#231F20" points="73.1,127.7 73.1,127.7 73.1,127.7 73.1,127.7 	"/>
	<polygon fill="#231F20" points="73.1,127.7 73.1,127.7 73.1,127.7 73.1,127.7 	"/>
	<polygon fill="#231F20" points="73.1,127.7 73.1,127.7 73.1,127.7 73.1,127.7 	"/>
	<polygon fill="#231F20" points="73.1,127.7 73.1,127.7 73.1,127.7 73.1,127.7 	"/>
	<polygon fill="#231F20" points="73.1,127.7 73.1,127.7 73.1,127.7 73.1,127.7 	"/>
	<polygon fill="#231F20" points="73.1,127.7 73.1,127.7 73.1,127.7 73.1,127.7 	"/>
	<polygon fill="#231F20" points="73.2,127.5 73.2,127.4 73.1,127.2 73.1,127.3 	"/>
	<polygon fill="#231F20" points="73.2,127.5 73.2,127.4 73.1,127.2 73.1,127.3 	"/>
	<polygon fill="#231F20" points="73.2,127.5 73.2,127.4 73.1,127.2 73.1,127.3 	"/>
	<polygon fill="#231F20" points="73.2,127.5 73.2,127.4 73.1,127.2 73.1,127.3 	"/>
	<polygon fill="#231F20" points="73.2,127.5 73.2,127.4 73.1,127.2 73.1,127.3 	"/>
	<polygon fill="#231F20" points="73.2,127.5 73.2,127.4 73.1,127.2 73.1,127.3 	"/>
	<polygon fill="#231F20" points="73.2,127.5 73.2,127.4 73.1,127.2 73.1,127.3 	"/>
	<polygon fill="#231F20" points="73.2,127.5 73.2,127.4 73.1,127.2 73.1,127.3 	"/>
	<polygon fill="#231F20" points="73.2,127.5 73.1,127.3 73.1,127.3 73.2,127.5 	"/>
	<polygon fill="#231F20" points="73.2,127.5 73.1,127.3 73.1,127.3 73.2,127.5 	"/>
	<polygon fill="#231F20" points="73.2,127.5 73.1,127.3 73.1,127.3 73.2,127.5 	"/>
	<polygon fill="#231F20" points="73.2,127.5 73.1,127.3 73.1,127.3 73.2,127.5 	"/>
	<polygon fill="#231F20" points="73.2,127.5 73.1,127.3 73.1,127.3 73.2,127.5 	"/>
	<polygon fill="#231F20" points="73.2,127.5 73.1,127.3 73.1,127.3 73.2,127.5 	"/>
	<polygon fill="#231F20" points="73.2,127.5 73.1,127.3 73.1,127.3 73.2,127.5 	"/>
	<polygon fill="#231F20" points="73.2,127.5 73.1,127.3 73.1,127.3 73.2,127.5 	"/>
	<polygon fill="#231F20" points="73.2,127.5 73.1,127.3 73.1,127.3 73.2,127.5 	"/>
	<polygon fill="#231F20" points="73.1,127.6 73.1,127.7 73.1,127.7 73.2,127.6 	"/>
	<polygon fill="#231F20" points="73.1,127.6 73.1,127.7 73.1,127.7 73.2,127.6 	"/>
	<polygon fill="#231F20" points="73.1,127.6 73.1,127.7 73.1,127.7 73.2,127.6 	"/>
	<polygon fill="#231F20" points="73.1,127.6 73.1,127.7 73.1,127.7 73.2,127.6 	"/>
	<polygon fill="#231F20" points="73.1,127.6 73.1,127.7 73.1,127.7 73.2,127.6 	"/>
	<polygon fill="#231F20" points="73.1,127.6 73.1,127.7 73.1,127.7 73.2,127.6 	"/>
	<polygon fill="#231F20" points="73.1,127.6 73.1,127.7 73.1,127.7 73.2,127.6 	"/>
	<polygon fill="#231F20" points="73.1,127.6 73.1,127.7 73.1,127.7 73.2,127.6 	"/>
	<polygon fill="#231F20" points="73.1,127.6 73.1,127.7 73.1,127.7 73.2,127.6 	"/>
	<polygon fill="#231F20" points="73.2,127.5 73.1,127.3 73.1,127.6 73.2,127.6 	"/>
	<polygon fill="#231F20" points="73.2,127.5 73.1,127.3 73.1,127.6 73.2,127.6 	"/>
	<polygon fill="#231F20" points="73.2,127.5 73.1,127.3 73.1,127.6 73.2,127.6 	"/>
	<polygon fill="#231F20" points="73.2,127.5 73.1,127.3 73.1,127.6 73.2,127.6 	"/>
	<polygon fill="#231F20" points="73.2,127.5 73.1,127.3 73.1,127.6 73.2,127.6 	"/>
	<polygon fill="#231F20" points="73.2,127.5 73.1,127.3 73.1,127.6 73.2,127.6 	"/>
	<polygon fill="#231F20" points="73.2,127.5 73.1,127.3 73.1,127.6 73.2,127.6 	"/>
	<polygon fill="#231F20" points="73.2,127.5 73.1,127.3 73.1,127.6 73.2,127.6 	"/>
	<polygon fill="#231F20" points="73.2,127.5 73.1,127.3 73.1,127.6 73.2,127.6 	"/>
	<polygon fill="#231F20" points="73.2,127.5 73.1,127.3 73.1,127.6 73.2,127.6 	"/>
	<rect x="73.1" y="128.1" fill="#231F20" width="0" height="0.1"/>
	<polygon fill="#231F20" points="73.8,122.4 82.8,15.9 82.6,15.9 73.6,122.3 73.4,125.5 	"/>
	<polygon fill="#231F20" points="73.3,126.5 73.4,125.5 73.6,122.3 73.3,125.4 	"/>
	<polygon fill="#231F20" points="73.3,126.5 73.4,125.5 73.6,122.3 73.3,125.4 	"/>
	<rect x="73.1" y="128.1" fill="#231F20" width="0" height="0.1"/>
	<rect x="73.1" y="128.1" fill="#231F20" width="0" height="0.1"/>
	
		<rect x="73.1" y="128" transform="matrix(8.458196e-02 -0.9964 0.9964 8.458196e-02 -60.6622 190.086)" fill="#231F20" width="0.1" height="0"/>
	
		<rect x="73.1" y="128" transform="matrix(8.458196e-02 -0.9964 0.9964 8.458196e-02 -60.6622 190.086)" fill="#231F20" width="0.1" height="0"/>
	
		<rect x="73.1" y="128" transform="matrix(8.458196e-02 -0.9964 0.9964 8.458196e-02 -60.6622 190.086)" fill="#231F20" width="0.1" height="0"/>
	<polygon fill="#231F20" points="73.3,126.5 73.3,125.4 73.3,126.4 73.3,127 	"/>
	<polygon fill="#231F20" points="73.3,126.5 73.3,125.4 73.3,126.4 73.3,127 	"/>
	<polygon fill="#231F20" points="73.3,126.5 73.3,125.4 73.3,126.4 73.3,127 	"/>
	<polygon fill="#231F20" points="73.2,127.2 73.3,127 73.3,126.4 73.2,126.9 	"/>
	<polygon fill="#231F20" points="73.2,127.2 73.3,127 73.3,126.4 73.2,126.9 	"/>
	<polygon fill="#231F20" points="73.2,127.2 73.3,127 73.3,126.4 73.2,126.9 	"/>
	<polygon fill="#231F20" points="73.2,127.2 73.3,127 73.3,126.4 73.2,126.9 	"/>
	<rect x="73.1" y="128" fill="#231F20" width="0" height="0.1"/>
	<rect x="73.1" y="128" fill="#231F20" width="0" height="0.1"/>
	<rect x="73.1" y="128" fill="#231F20" width="0" height="0.1"/>
	<rect x="73.1" y="128" fill="#231F20" width="0" height="0.1"/>
	<polygon fill="#231F20" points="73.2,127.2 73.2,126.9 73.2,127.1 73.2,127.4 	"/>
	<polygon fill="#231F20" points="73.2,127.2 73.2,126.9 73.2,127.1 73.2,127.4 	"/>
	<polygon fill="#231F20" points="73.2,127.2 73.2,126.9 73.2,127.1 73.2,127.4 	"/>
	<polygon fill="#231F20" points="73.2,127.2 73.2,126.9 73.2,127.1 73.2,127.4 	"/>
	<polygon fill="#231F20" points="73.2,127.2 73.2,126.9 73.2,127.1 73.2,127.4 	"/>
	<polygon fill="#231F20" points="73.1,127.9 73.1,128 73.1,128 73.1,127.9 	"/>
	<polygon fill="#231F20" points="73.1,127.9 73.1,128 73.1,128 73.1,127.9 	"/>
	<polygon fill="#231F20" points="73.1,127.9 73.1,128 73.1,128 73.1,127.9 	"/>
	<polygon fill="#231F20" points="73.1,127.9 73.1,128 73.1,128 73.1,127.9 	"/>
	<polygon fill="#231F20" points="73.1,127.9 73.1,128 73.1,128 73.1,127.9 	"/>
	<polygon fill="#231F20" points="73.2,127.5 73.2,127.4 73.2,127.1 73.2,127.3 	"/>
	<polygon fill="#231F20" points="73.2,127.5 73.2,127.4 73.2,127.1 73.2,127.3 	"/>
	<polygon fill="#231F20" points="73.2,127.5 73.2,127.4 73.2,127.1 73.2,127.3 	"/>
	<polygon fill="#231F20" points="73.2,127.5 73.2,127.4 73.2,127.1 73.2,127.3 	"/>
	<polygon fill="#231F20" points="73.2,127.5 73.2,127.4 73.2,127.1 73.2,127.3 	"/>
	<polygon fill="#231F20" points="73.2,127.5 73.2,127.4 73.2,127.1 73.2,127.3 	"/>
	<polygon fill="#231F20" points="73.2,127.8 73.1,127.8 73.1,127.9 73.1,127.9 	"/>
	<polygon fill="#231F20" points="73.2,127.8 73.1,127.8 73.1,127.9 73.1,127.9 	"/>
	<polygon fill="#231F20" points="73.2,127.8 73.1,127.8 73.1,127.9 73.1,127.9 	"/>
	<polygon fill="#231F20" points="73.2,127.8 73.1,127.8 73.1,127.9 73.1,127.9 	"/>
	<polygon fill="#231F20" points="73.2,127.8 73.1,127.8 73.1,127.9 73.1,127.9 	"/>
	<polygon fill="#231F20" points="73.2,127.8 73.1,127.8 73.1,127.9 73.1,127.9 	"/>
	<polygon fill="#231F20" points="73.1,127.8 73.1,127.8 73.2,127.8 73.2,127.8 	"/>
	<polygon fill="#231F20" points="73.1,127.8 73.1,127.8 73.2,127.8 73.2,127.8 	"/>
	<polygon fill="#231F20" points="73.1,127.8 73.1,127.8 73.2,127.8 73.2,127.8 	"/>
	<polygon fill="#231F20" points="73.1,127.8 73.1,127.8 73.2,127.8 73.2,127.8 	"/>
	<polygon fill="#231F20" points="73.1,127.8 73.1,127.8 73.2,127.8 73.2,127.8 	"/>
	<polygon fill="#231F20" points="73.1,127.8 73.1,127.8 73.2,127.8 73.2,127.8 	"/>
	<polygon fill="#231F20" points="73.1,127.8 73.1,127.8 73.2,127.8 73.2,127.8 	"/>
	<polygon fill="#231F20" points="73.2,127.5 73.2,127.3 73.2,127.4 73.2,127.5 	"/>
	<polygon fill="#231F20" points="73.2,127.5 73.2,127.3 73.2,127.4 73.2,127.5 	"/>
	<polygon fill="#231F20" points="73.2,127.5 73.2,127.3 73.2,127.4 73.2,127.5 	"/>
	<polygon fill="#231F20" points="73.2,127.5 73.2,127.3 73.2,127.4 73.2,127.5 	"/>
	<polygon fill="#231F20" points="73.2,127.5 73.2,127.3 73.2,127.4 73.2,127.5 	"/>
	<polygon fill="#231F20" points="73.2,127.5 73.2,127.3 73.2,127.4 73.2,127.5 	"/>
	<polygon fill="#231F20" points="73.2,127.5 73.2,127.3 73.2,127.4 73.2,127.5 	"/>
	<polygon fill="#231F20" points="73.2,127.7 73.1,127.7 73.1,127.8 73.2,127.8 	"/>
	<polygon fill="#231F20" points="73.2,127.7 73.1,127.7 73.1,127.8 73.2,127.8 	"/>
	<polygon fill="#231F20" points="73.2,127.7 73.1,127.7 73.1,127.8 73.2,127.8 	"/>
	<polygon fill="#231F20" points="73.2,127.7 73.1,127.7 73.1,127.8 73.2,127.8 	"/>
	<polygon fill="#231F20" points="73.2,127.7 73.1,127.7 73.1,127.8 73.2,127.8 	"/>
	<polygon fill="#231F20" points="73.2,127.7 73.1,127.7 73.1,127.8 73.2,127.8 	"/>
	<polygon fill="#231F20" points="73.2,127.7 73.1,127.7 73.1,127.8 73.2,127.8 	"/>
	<polygon fill="#231F20" points="73.2,127.7 73.1,127.7 73.1,127.8 73.2,127.8 	"/>
	<polygon fill="#231F20" points="73.2,127.6 73.2,127.5 73.2,127.4 73.2,127.4 	"/>
	<polygon fill="#231F20" points="73.2,127.6 73.2,127.5 73.2,127.4 73.2,127.4 	"/>
	<polygon fill="#231F20" points="73.2,127.6 73.2,127.5 73.2,127.4 73.2,127.4 	"/>
	<polygon fill="#231F20" points="73.2,127.6 73.2,127.5 73.2,127.4 73.2,127.4 	"/>
	<polygon fill="#231F20" points="73.2,127.6 73.2,127.5 73.2,127.4 73.2,127.4 	"/>
	<polygon fill="#231F20" points="73.2,127.6 73.2,127.5 73.2,127.4 73.2,127.4 	"/>
	<polygon fill="#231F20" points="73.2,127.6 73.2,127.5 73.2,127.4 73.2,127.4 	"/>
	<polygon fill="#231F20" points="73.2,127.6 73.2,127.5 73.2,127.4 73.2,127.4 	"/>
	<polygon fill="#231F20" points="73.2,127.6 73.2,127.6 73.2,127.4 73.2,127.5 73.2,127.5 	"/>
	<polygon fill="#231F20" points="73.2,127.6 73.2,127.6 73.2,127.4 73.2,127.5 73.2,127.5 	"/>
	<polygon fill="#231F20" points="73.2,127.6 73.2,127.6 73.2,127.4 73.2,127.5 73.2,127.5 	"/>
	<polygon fill="#231F20" points="73.2,127.6 73.2,127.6 73.2,127.4 73.2,127.5 73.2,127.5 	"/>
	<polygon fill="#231F20" points="73.2,127.6 73.2,127.6 73.2,127.4 73.2,127.5 73.2,127.5 	"/>
	<polygon fill="#231F20" points="73.2,127.6 73.2,127.6 73.2,127.4 73.2,127.5 73.2,127.5 	"/>
	<polygon fill="#231F20" points="73.2,127.6 73.2,127.6 73.2,127.4 73.2,127.5 73.2,127.5 	"/>
	<polygon fill="#231F20" points="73.2,127.6 73.2,127.6 73.2,127.4 73.2,127.5 73.2,127.5 	"/>
	<polygon fill="#231F20" points="73.2,127.6 73.2,127.6 73.2,127.4 73.2,127.5 73.2,127.5 	"/>
	<polygon fill="#231F20" points="73.1,127.7 73.1,127.7 73.2,127.7 73.2,127.7 	"/>
	<polygon fill="#231F20" points="73.1,127.7 73.1,127.7 73.2,127.7 73.2,127.7 	"/>
	<polygon fill="#231F20" points="73.1,127.7 73.1,127.7 73.2,127.7 73.2,127.7 	"/>
	<polygon fill="#231F20" points="73.1,127.7 73.1,127.7 73.2,127.7 73.2,127.7 	"/>
	<polygon fill="#231F20" points="73.1,127.7 73.1,127.7 73.2,127.7 73.2,127.7 	"/>
	<polygon fill="#231F20" points="73.1,127.7 73.1,127.7 73.2,127.7 73.2,127.7 	"/>
	<polygon fill="#231F20" points="73.1,127.7 73.1,127.7 73.2,127.7 73.2,127.7 	"/>
	<polygon fill="#231F20" points="73.1,127.7 73.1,127.7 73.2,127.7 73.2,127.7 	"/>
	<polygon fill="#231F20" points="73.1,127.7 73.1,127.7 73.2,127.7 73.2,127.7 	"/>
	<polygon fill="#231F20" points="73.2,127.6 73.2,127.6 73.2,127.5 	"/>
	<polygon fill="#231F20" points="73.2,127.6 73.2,127.6 73.2,127.5 	"/>
	<polygon fill="#231F20" points="73.2,127.6 73.2,127.6 73.2,127.5 	"/>
	<polygon fill="#231F20" points="73.2,127.6 73.2,127.6 73.2,127.5 	"/>
	<polygon fill="#231F20" points="73.2,127.6 73.2,127.6 73.2,127.5 	"/>
	<polygon fill="#231F20" points="73.2,127.6 73.2,127.6 73.2,127.5 	"/>
	<polygon fill="#231F20" points="73.2,127.6 73.2,127.6 73.2,127.5 	"/>
	<polygon fill="#231F20" points="73.2,127.6 73.2,127.6 73.2,127.5 	"/>
	<polygon fill="#231F20" points="73.2,127.6 73.2,127.6 73.2,127.5 	"/>
	<polygon fill="#231F20" points="73.2,127.6 73.2,127.6 73.2,127.5 	"/>
	<polygon fill="#231F20" points="73.2,127.6 73.2,127.6 73.1,127.7 73.2,127.7 	"/>
	<polygon fill="#231F20" points="73.2,127.6 73.2,127.6 73.1,127.7 73.2,127.7 	"/>
	<polygon fill="#231F20" points="73.2,127.6 73.2,127.6 73.1,127.7 73.2,127.7 	"/>
	<polygon fill="#231F20" points="73.2,127.6 73.2,127.6 73.1,127.7 73.2,127.7 	"/>
	<polygon fill="#231F20" points="73.2,127.6 73.2,127.6 73.1,127.7 73.2,127.7 	"/>
	<polygon fill="#231F20" points="73.2,127.6 73.2,127.6 73.1,127.7 73.2,127.7 	"/>
	<polygon fill="#231F20" points="73.2,127.6 73.2,127.6 73.1,127.7 73.2,127.7 	"/>
	<polygon fill="#231F20" points="73.2,127.6 73.2,127.6 73.1,127.7 73.2,127.7 	"/>
	<polygon fill="#231F20" points="73.2,127.6 73.2,127.6 73.1,127.7 73.2,127.7 	"/>
	<polygon fill="#231F20" points="73.2,127.6 73.2,127.6 73.1,127.7 73.2,127.7 	"/>
	<polygon fill="#231F20" points="73.2,127.5 73.2,127.5 73.2,127.5 	"/>
	<polygon fill="#231F20" points="73.2,127.5 73.2,127.5 73.2,127.5 	"/>
	<polygon fill="#231F20" points="73.2,127.5 73.2,127.5 73.2,127.5 	"/>
	<polygon fill="#231F20" points="73.2,127.5 73.2,127.5 73.2,127.5 	"/>
	<polygon fill="#231F20" points="73.2,127.5 73.2,127.5 73.2,127.5 	"/>
	<polygon fill="#231F20" points="73.2,127.5 73.2,127.5 73.2,127.5 	"/>
	<polygon fill="#231F20" points="73.2,127.5 73.2,127.5 73.2,127.5 	"/>
	<polygon fill="#231F20" points="73.2,127.5 73.2,127.5 73.2,127.5 	"/>
	<polygon fill="#231F20" points="73.2,127.5 73.2,127.5 73.2,127.5 	"/>
	<polygon fill="#231F20" points="73.2,127.5 73.2,127.5 73.2,127.5 	"/>
	<polygon fill="#231F20" points="73.2,127.5 73.2,127.5 73.2,127.6 73.2,127.6 73.2,127.6 	"/>
	<polygon fill="#231F20" points="73.2,127.5 73.2,127.5 73.2,127.6 73.2,127.6 73.2,127.6 	"/>
	<polygon fill="#231F20" points="73.2,127.5 73.2,127.5 73.2,127.6 73.2,127.6 73.2,127.6 	"/>
	<polygon fill="#231F20" points="73.2,127.5 73.2,127.5 73.2,127.6 73.2,127.6 73.2,127.6 	"/>
	<polygon fill="#231F20" points="73.2,127.5 73.2,127.5 73.2,127.6 73.2,127.6 73.2,127.6 	"/>
	<polygon fill="#231F20" points="73.2,127.5 73.2,127.5 73.2,127.6 73.2,127.6 73.2,127.6 	"/>
	<polygon fill="#231F20" points="73.2,127.5 73.2,127.5 73.2,127.6 73.2,127.6 73.2,127.6 	"/>
	<polygon fill="#231F20" points="73.2,127.5 73.2,127.5 73.2,127.6 73.2,127.6 73.2,127.6 	"/>
	<polygon fill="#231F20" points="73.2,127.5 73.2,127.5 73.2,127.6 73.2,127.6 73.2,127.6 	"/>
	<polygon fill="#231F20" points="73.2,127.5 73.2,127.5 73.2,127.6 73.2,127.6 73.2,127.6 	"/>
	<polygon fill="#231F20" points="73.2,127.5 73.2,127.5 73.2,127.6 73.2,127.6 73.2,127.6 	"/>
	
		<rect x="73.1" y="128.2" transform="matrix(0.111 -0.9938 0.9938 0.111 -62.4376 186.6653)" fill="#231F20" width="0.1" height="0"/>
	<polygon fill="#231F20" points="73.9,122.5 85.8,15.9 85.6,15.9 73.8,122.4 73.5,125.6 	"/>
	<polygon fill="#231F20" points="73.4,126.6 73.5,125.6 73.8,122.4 73.4,125.5 	"/>
	<polygon fill="#231F20" points="73.4,126.6 73.5,125.6 73.8,122.4 73.4,125.5 	"/>
	<rect x="73.1" y="128.1" fill="#231F20" width="0" height="0.1"/>
	<rect x="73.1" y="128.1" fill="#231F20" width="0" height="0.1"/>
	<polygon fill="#231F20" points="73.4,126.6 73.4,125.5 73.3,126.5 73.3,127.1 	"/>
	<polygon fill="#231F20" points="73.4,126.6 73.4,125.5 73.3,126.5 73.3,127.1 	"/>
	<polygon fill="#231F20" points="73.4,126.6 73.4,125.5 73.3,126.5 73.3,127.1 	"/>
	
		<rect x="73.1" y="128.1" transform="matrix(0.1103 -0.9939 0.9939 0.1103 -62.2687 186.6723)" fill="#231F20" width="0.1" height="0"/>
	
		<rect x="73.1" y="128.1" transform="matrix(0.1103 -0.9939 0.9939 0.1103 -62.2687 186.6723)" fill="#231F20" width="0.1" height="0"/>
	
		<rect x="73.1" y="128.1" transform="matrix(0.1103 -0.9939 0.9939 0.1103 -62.2687 186.6723)" fill="#231F20" width="0.1" height="0"/>
	<polygon fill="#231F20" points="73.2,127.4 73.3,127.1 73.3,126.5 73.3,127 	"/>
	<polygon fill="#231F20" points="73.2,127.4 73.3,127.1 73.3,126.5 73.3,127 	"/>
	<polygon fill="#231F20" points="73.2,127.4 73.3,127.1 73.3,126.5 73.3,127 	"/>
	<polygon fill="#231F20" points="73.2,127.4 73.3,127.1 73.3,126.5 73.3,127 	"/>
	<rect x="73.1" y="128" fill="#231F20" width="0" height="0.1"/>
	<rect x="73.1" y="128" fill="#231F20" width="0" height="0.1"/>
	<rect x="73.1" y="128" fill="#231F20" width="0" height="0.1"/>
	<rect x="73.1" y="128" fill="#231F20" width="0" height="0.1"/>
	<polygon fill="#231F20" points="73.2,127.4 73.3,127 73.2,127.2 73.2,127.5 	"/>
	<polygon fill="#231F20" points="73.2,127.4 73.3,127 73.2,127.2 73.2,127.5 	"/>
	<polygon fill="#231F20" points="73.2,127.4 73.3,127 73.2,127.2 73.2,127.5 	"/>
	<polygon fill="#231F20" points="73.2,127.4 73.3,127 73.2,127.2 73.2,127.5 	"/>
	<polygon fill="#231F20" points="73.2,127.4 73.3,127 73.2,127.2 73.2,127.5 	"/>
	<polygon fill="#231F20" points="73.1,128 73.1,128 73.2,128 73.2,128 	"/>
	<polygon fill="#231F20" points="73.1,128 73.1,128 73.2,128 73.2,128 	"/>
	<polygon fill="#231F20" points="73.1,128 73.1,128 73.2,128 73.2,128 	"/>
	<polygon fill="#231F20" points="73.1,128 73.1,128 73.2,128 73.2,128 	"/>
	<polygon fill="#231F20" points="73.1,128 73.1,128 73.2,128 73.2,128 	"/>
	<polygon fill="#231F20" points="73.2,127.6 73.2,127.5 73.2,127.2 73.2,127.4 	"/>
	<polygon fill="#231F20" points="73.2,127.6 73.2,127.5 73.2,127.2 73.2,127.4 	"/>
	<polygon fill="#231F20" points="73.2,127.6 73.2,127.5 73.2,127.2 73.2,127.4 	"/>
	<polygon fill="#231F20" points="73.2,127.6 73.2,127.5 73.2,127.2 73.2,127.4 	"/>
	<polygon fill="#231F20" points="73.2,127.6 73.2,127.5 73.2,127.2 73.2,127.4 	"/>
	<polygon fill="#231F20" points="73.2,127.6 73.2,127.5 73.2,127.2 73.2,127.4 	"/>
	<polygon fill="#231F20" points="73.2,127.9 73.1,127.9 73.1,128 73.2,128 	"/>
	<polygon fill="#231F20" points="73.2,127.9 73.1,127.9 73.1,128 73.2,128 	"/>
	<polygon fill="#231F20" points="73.2,127.9 73.1,127.9 73.1,128 73.2,128 	"/>
	<polygon fill="#231F20" points="73.2,127.9 73.1,127.9 73.1,128 73.2,128 	"/>
	<polygon fill="#231F20" points="73.2,127.9 73.1,127.9 73.1,128 73.2,128 	"/>
	<polygon fill="#231F20" points="73.2,127.9 73.1,127.9 73.1,128 73.2,128 	"/>
	<polygon fill="#231F20" points="73.2,127.6 73.2,127.4 73.2,127.5 73.2,127.7 	"/>
	<polygon fill="#231F20" points="73.2,127.6 73.2,127.4 73.2,127.5 73.2,127.7 	"/>
	<polygon fill="#231F20" points="73.2,127.6 73.2,127.4 73.2,127.5 73.2,127.7 	"/>
	<polygon fill="#231F20" points="73.2,127.6 73.2,127.4 73.2,127.5 73.2,127.7 	"/>
	<polygon fill="#231F20" points="73.2,127.6 73.2,127.4 73.2,127.5 73.2,127.7 	"/>
	<polygon fill="#231F20" points="73.2,127.6 73.2,127.4 73.2,127.5 73.2,127.7 	"/>
	<polygon fill="#231F20" points="73.2,127.6 73.2,127.4 73.2,127.5 73.2,127.7 	"/>
	<polygon fill="#231F20" points="73.2,127.8 73.1,127.9 73.2,127.9 73.2,127.8 	"/>
	<polygon fill="#231F20" points="73.2,127.8 73.1,127.9 73.2,127.9 73.2,127.8 	"/>
	<polygon fill="#231F20" points="73.2,127.8 73.1,127.9 73.2,127.9 73.2,127.8 	"/>
	<polygon fill="#231F20" points="73.2,127.8 73.1,127.9 73.2,127.9 73.2,127.8 	"/>
	<polygon fill="#231F20" points="73.2,127.8 73.1,127.9 73.2,127.9 73.2,127.8 	"/>
	<polygon fill="#231F20" points="73.2,127.8 73.1,127.9 73.2,127.9 73.2,127.8 	"/>
	<polygon fill="#231F20" points="73.2,127.8 73.1,127.9 73.2,127.9 73.2,127.8 	"/>
	<polygon fill="#231F20" points="73.2,127.7 73.2,127.7 73.2,127.5 73.2,127.5 	"/>
	<polygon fill="#231F20" points="73.2,127.7 73.2,127.7 73.2,127.5 73.2,127.5 	"/>
	<polygon fill="#231F20" points="73.2,127.7 73.2,127.7 73.2,127.5 73.2,127.5 	"/>
	<polygon fill="#231F20" points="73.2,127.7 73.2,127.7 73.2,127.5 73.2,127.5 	"/>
	<polygon fill="#231F20" points="73.2,127.7 73.2,127.7 73.2,127.5 73.2,127.5 	"/>
	<polygon fill="#231F20" points="73.2,127.7 73.2,127.7 73.2,127.5 73.2,127.5 	"/>
	<polygon fill="#231F20" points="73.2,127.7 73.2,127.7 73.2,127.5 73.2,127.5 	"/>
	<polygon fill="#231F20" points="73.2,127.7 73.2,127.7 73.2,127.5 73.2,127.5 	"/>
	<polygon fill="#231F20" points="73.2,127.8 73.2,127.8 73.2,127.8 73.2,127.8 	"/>
	<polygon fill="#231F20" points="73.2,127.8 73.2,127.8 73.2,127.8 73.2,127.8 	"/>
	<polygon fill="#231F20" points="73.2,127.8 73.2,127.8 73.2,127.8 73.2,127.8 	"/>
	<polygon fill="#231F20" points="73.2,127.8 73.2,127.8 73.2,127.8 73.2,127.8 	"/>
	<polygon fill="#231F20" points="73.2,127.8 73.2,127.8 73.2,127.8 73.2,127.8 	"/>
	<polygon fill="#231F20" points="73.2,127.8 73.2,127.8 73.2,127.8 73.2,127.8 	"/>
	<polygon fill="#231F20" points="73.2,127.8 73.2,127.8 73.2,127.8 73.2,127.8 	"/>
	<polygon fill="#231F20" points="73.2,127.8 73.2,127.8 73.2,127.8 73.2,127.8 	"/>
	<polygon fill="#231F20" points="73.2,127.7 73.2,127.5 73.2,127.6 73.2,127.7 	"/>
	<polygon fill="#231F20" points="73.2,127.7 73.2,127.5 73.2,127.6 73.2,127.7 	"/>
	<polygon fill="#231F20" points="73.2,127.7 73.2,127.5 73.2,127.6 73.2,127.7 	"/>
	<polygon fill="#231F20" points="73.2,127.7 73.2,127.5 73.2,127.6 73.2,127.7 	"/>
	<polygon fill="#231F20" points="73.2,127.7 73.2,127.5 73.2,127.6 73.2,127.7 	"/>
	<polygon fill="#231F20" points="73.2,127.7 73.2,127.5 73.2,127.6 73.2,127.7 	"/>
	<polygon fill="#231F20" points="73.2,127.7 73.2,127.5 73.2,127.6 73.2,127.7 	"/>
	<polygon fill="#231F20" points="73.2,127.7 73.2,127.5 73.2,127.6 73.2,127.7 	"/>
	<polygon fill="#231F20" points="73.2,127.7 73.2,127.5 73.2,127.6 73.2,127.7 	"/>
	<polygon fill="#231F20" points="73.2,127.7 73.2,127.8 73.2,127.8 73.2,127.7 	"/>
	<polygon fill="#231F20" points="73.2,127.7 73.2,127.8 73.2,127.8 73.2,127.7 	"/>
	<polygon fill="#231F20" points="73.2,127.7 73.2,127.8 73.2,127.8 73.2,127.7 	"/>
	<polygon fill="#231F20" points="73.2,127.7 73.2,127.8 73.2,127.8 73.2,127.7 	"/>
	<polygon fill="#231F20" points="73.2,127.7 73.2,127.8 73.2,127.8 73.2,127.7 	"/>
	<polygon fill="#231F20" points="73.2,127.7 73.2,127.8 73.2,127.8 73.2,127.7 	"/>
	<polygon fill="#231F20" points="73.2,127.7 73.2,127.8 73.2,127.8 73.2,127.7 	"/>
	<polygon fill="#231F20" points="73.2,127.7 73.2,127.8 73.2,127.8 73.2,127.7 	"/>
	<polygon fill="#231F20" points="73.2,127.7 73.2,127.8 73.2,127.8 73.2,127.7 	"/>
	<polygon fill="#231F20" points="73.2,127.7 73.2,127.6 73.2,127.6 73.2,127.6 73.2,127.6 73.2,127.7 73.2,127.7 73.2,127.7 
		73.2,127.7 	"/>
	<polygon fill="#231F20" points="73.2,127.7 73.2,127.6 73.2,127.6 73.2,127.6 73.2,127.6 73.2,127.7 73.2,127.7 73.2,127.7 
		73.2,127.7 	"/>
	<polygon fill="#231F20" points="73.2,127.7 73.2,127.6 73.2,127.6 73.2,127.6 73.2,127.6 73.2,127.7 73.2,127.7 73.2,127.7 
		73.2,127.7 	"/>
	<polygon fill="#231F20" points="73.2,127.7 73.2,127.6 73.2,127.6 73.2,127.6 73.2,127.6 73.2,127.7 73.2,127.7 73.2,127.7 
		73.2,127.7 	"/>
	<polygon fill="#231F20" points="73.2,127.7 73.2,127.6 73.2,127.6 73.2,127.6 73.2,127.6 73.2,127.7 73.2,127.7 73.2,127.7 
		73.2,127.7 	"/>
	<polygon fill="#231F20" points="73.2,127.7 73.2,127.6 73.2,127.6 73.2,127.6 73.2,127.6 73.2,127.7 73.2,127.7 73.2,127.7 
		73.2,127.7 	"/>
	<polygon fill="#231F20" points="73.2,127.7 73.2,127.6 73.2,127.6 73.2,127.6 73.2,127.6 73.2,127.7 73.2,127.7 73.2,127.7 
		73.2,127.7 	"/>
	<polygon fill="#231F20" points="73.2,127.7 73.2,127.6 73.2,127.6 73.2,127.6 73.2,127.6 73.2,127.7 73.2,127.7 73.2,127.7 
		73.2,127.7 	"/>
	<polygon fill="#231F20" points="73.2,127.7 73.2,127.6 73.2,127.6 73.2,127.6 73.2,127.6 73.2,127.7 73.2,127.7 73.2,127.7 
		73.2,127.7 	"/>
	<polygon fill="#231F20" points="73.2,127.7 73.2,127.6 73.2,127.6 73.2,127.6 73.2,127.6 73.2,127.7 73.2,127.7 73.2,127.7 
		73.2,127.7 	"/>
	<polygon fill="#231F20" points="73.2,127.6 73.2,127.6 73.2,127.6 73.2,127.6 	"/>
	<polygon fill="#231F20" points="73.2,127.6 73.2,127.6 73.2,127.6 73.2,127.6 	"/>
	<polygon fill="#231F20" points="73.2,127.6 73.2,127.6 73.2,127.6 73.2,127.6 	"/>
	<polygon fill="#231F20" points="73.2,127.6 73.2,127.6 73.2,127.6 73.2,127.6 	"/>
	<polygon fill="#231F20" points="73.2,127.6 73.2,127.6 73.2,127.6 73.2,127.6 	"/>
	<polygon fill="#231F20" points="73.2,127.6 73.2,127.6 73.2,127.6 73.2,127.6 	"/>
	<polygon fill="#231F20" points="73.2,127.6 73.2,127.6 73.2,127.6 73.2,127.6 	"/>
	<polygon fill="#231F20" points="73.2,127.6 73.2,127.6 73.2,127.6 73.2,127.6 	"/>
	<polygon fill="#231F20" points="73.2,127.6 73.2,127.6 73.2,127.6 73.2,127.6 	"/>
	<polygon fill="#231F20" points="73.2,127.6 73.2,127.6 73.2,127.6 73.2,127.6 	"/>
	<polygon fill="#231F20" points="73.2,127.6 73.2,127.6 73.2,127.6 73.2,127.6 	"/>
	<polygon fill="#231F20" points="73.2,127.7 73.2,127.7 73.2,127.6 73.2,127.6 	"/>
	<polygon fill="#231F20" points="73.2,127.7 73.2,127.7 73.2,127.6 73.2,127.6 	"/>
	<polygon fill="#231F20" points="73.2,127.7 73.2,127.7 73.2,127.6 73.2,127.6 	"/>
	<polygon fill="#231F20" points="73.2,127.7 73.2,127.7 73.2,127.6 73.2,127.6 	"/>
	<polygon fill="#231F20" points="73.2,127.7 73.2,127.7 73.2,127.6 73.2,127.6 	"/>
	<polygon fill="#231F20" points="73.2,127.7 73.2,127.7 73.2,127.6 73.2,127.6 	"/>
	<polygon fill="#231F20" points="73.2,127.7 73.2,127.7 73.2,127.6 73.2,127.6 	"/>
	<polygon fill="#231F20" points="73.2,127.7 73.2,127.7 73.2,127.6 73.2,127.6 	"/>
	<polygon fill="#231F20" points="73.2,127.7 73.2,127.7 73.2,127.6 73.2,127.6 	"/>
	<polygon fill="#231F20" points="73.2,127.7 73.2,127.7 73.2,127.6 73.2,127.6 	"/>
	<polygon fill="#231F20" points="73.2,127.7 73.2,127.7 73.2,127.6 73.2,127.6 	"/>
	<polygon fill="#231F20" points="73.2,127.6 73.2,127.6 73.2,127.6 	"/>
	<polygon fill="#231F20" points="73.2,127.6 73.2,127.6 73.2,127.6 	"/>
	<polygon fill="#231F20" points="73.2,127.6 73.2,127.6 73.2,127.6 	"/>
	<polygon fill="#231F20" points="73.2,127.6 73.2,127.6 73.2,127.6 	"/>
	<polygon fill="#231F20" points="73.2,127.6 73.2,127.6 73.2,127.6 	"/>
	<polygon fill="#231F20" points="73.2,127.6 73.2,127.6 73.2,127.6 	"/>
	<polygon fill="#231F20" points="73.2,127.6 73.2,127.6 73.2,127.6 	"/>
	<polygon fill="#231F20" points="73.2,127.6 73.2,127.6 73.2,127.6 	"/>
	<polygon fill="#231F20" points="73.2,127.6 73.2,127.6 73.2,127.6 	"/>
	<polygon fill="#231F20" points="73.2,127.6 73.2,127.6 73.2,127.6 	"/>
	<polygon fill="#231F20" points="73.2,127.6 73.2,127.6 73.2,127.6 	"/>
	<polygon fill="#231F20" points="73.2,127.6 73.2,127.6 73.2,127.6 	"/>
	
		<rect x="73.1" y="128.3" transform="matrix(0.1367 -0.9906 0.9906 0.1367 -63.9565 183.1918)" fill="#231F20" width="0.1" height="0"/>
	<polygon fill="#231F20" points="74.1,122.6 88.8,15.9 88.7,15.9 73.9,122.5 73.6,125.7 	"/>
	<polygon fill="#231F20" points="73.4,126.7 73.6,125.7 73.9,122.5 73.5,125.6 	"/>
	<polygon fill="#231F20" points="73.4,126.7 73.6,125.7 73.9,122.5 73.5,125.6 	"/>
	<rect x="73.1" y="128.2" fill="#231F20" width="0" height="0.1"/>
	<rect x="73.1" y="128.2" fill="#231F20" width="0" height="0.1"/>
	<polygon fill="#231F20" points="73.4,126.7 73.5,125.6 73.4,126.6 73.3,127.2 	"/>
	<polygon fill="#231F20" points="73.4,126.7 73.5,125.6 73.4,126.6 73.3,127.2 	"/>
	<polygon fill="#231F20" points="73.4,126.7 73.5,125.6 73.4,126.6 73.3,127.2 	"/>
	
		<rect x="73.1" y="128.2" transform="matrix(0.1375 -0.9905 0.9905 0.1375 -63.8687 183.0083)" fill="#231F20" width="0.1" height="0"/>
	
		<rect x="73.1" y="128.2" transform="matrix(0.1375 -0.9905 0.9905 0.1375 -63.8687 183.0083)" fill="#231F20" width="0.1" height="0"/>
	
		<rect x="73.1" y="128.2" transform="matrix(0.1375 -0.9905 0.9905 0.1375 -63.8687 183.0083)" fill="#231F20" width="0.1" height="0"/>
	<rect x="73.1" y="128.1" fill="#231F20" width="0" height="0.1"/>
	<rect x="73.1" y="128.1" fill="#231F20" width="0" height="0.1"/>
	<rect x="73.1" y="128.1" fill="#231F20" width="0" height="0.1"/>
	<rect x="73.1" y="128.1" fill="#231F20" width="0" height="0.1"/>
	<polygon fill="#231F20" points="73.3,127.5 73.3,127.2 73.4,126.6 73.3,127.1 	"/>
	<polygon fill="#231F20" points="73.3,127.5 73.3,127.2 73.4,126.6 73.3,127.1 	"/>
	<polygon fill="#231F20" points="73.3,127.5 73.3,127.2 73.4,126.6 73.3,127.1 	"/>
	<polygon fill="#231F20" points="73.3,127.5 73.3,127.2 73.4,126.6 73.3,127.1 	"/>
	<polygon fill="#231F20" points="73.3,127.5 73.3,127.1 73.2,127.4 73.2,127.6 	"/>
	<polygon fill="#231F20" points="73.3,127.5 73.3,127.1 73.2,127.4 73.2,127.6 	"/>
	<polygon fill="#231F20" points="73.3,127.5 73.3,127.1 73.2,127.4 73.2,127.6 	"/>
	<polygon fill="#231F20" points="73.3,127.5 73.3,127.1 73.2,127.4 73.2,127.6 	"/>
	<polygon fill="#231F20" points="73.3,127.5 73.3,127.1 73.2,127.4 73.2,127.6 	"/>
	<polygon fill="#231F20" points="73.2,128 73.1,128.1 73.2,128.1 73.2,128 	"/>
	<polygon fill="#231F20" points="73.2,128 73.1,128.1 73.2,128.1 73.2,128 	"/>
	<polygon fill="#231F20" points="73.2,128 73.1,128.1 73.2,128.1 73.2,128 	"/>
	<polygon fill="#231F20" points="73.2,128 73.1,128.1 73.2,128.1 73.2,128 	"/>
	<polygon fill="#231F20" points="73.2,128 73.1,128.1 73.2,128.1 73.2,128 	"/>
	<polygon fill="#231F20" points="73.2,128 73.2,128 73.2,128 73.2,128 	"/>
	<polygon fill="#231F20" points="73.2,128 73.2,128 73.2,128 73.2,128 	"/>
	<polygon fill="#231F20" points="73.2,128 73.2,128 73.2,128 73.2,128 	"/>
	<polygon fill="#231F20" points="73.2,128 73.2,128 73.2,128 73.2,128 	"/>
	<polygon fill="#231F20" points="73.2,128 73.2,128 73.2,128 73.2,128 	"/>
	<polygon fill="#231F20" points="73.2,128 73.2,128 73.2,128 73.2,128 	"/>
	<polygon fill="#231F20" points="73.2,127.7 73.2,127.6 73.2,127.4 73.2,127.5 	"/>
	<polygon fill="#231F20" points="73.2,127.7 73.2,127.6 73.2,127.4 73.2,127.5 	"/>
	<polygon fill="#231F20" points="73.2,127.7 73.2,127.6 73.2,127.4 73.2,127.5 	"/>
	<polygon fill="#231F20" points="73.2,127.7 73.2,127.6 73.2,127.4 73.2,127.5 	"/>
	<polygon fill="#231F20" points="73.2,127.7 73.2,127.6 73.2,127.4 73.2,127.5 	"/>
	<polygon fill="#231F20" points="73.2,127.7 73.2,127.6 73.2,127.4 73.2,127.5 	"/>
	<polygon fill="#231F20" points="73.2,127.9 73.2,128 73.2,128 73.2,127.9 	"/>
	<polygon fill="#231F20" points="73.2,127.9 73.2,128 73.2,128 73.2,127.9 	"/>
	<polygon fill="#231F20" points="73.2,127.9 73.2,128 73.2,128 73.2,127.9 	"/>
	<polygon fill="#231F20" points="73.2,127.9 73.2,128 73.2,128 73.2,127.9 	"/>
	<polygon fill="#231F20" points="73.2,127.9 73.2,128 73.2,128 73.2,127.9 	"/>
	<polygon fill="#231F20" points="73.2,127.9 73.2,128 73.2,128 73.2,127.9 	"/>
	<polygon fill="#231F20" points="73.2,127.9 73.2,128 73.2,128 73.2,127.9 	"/>
	<polygon fill="#231F20" points="73.2,127.7 73.2,127.5 73.2,127.6 73.2,127.8 	"/>
	<polygon fill="#231F20" points="73.2,127.7 73.2,127.5 73.2,127.6 73.2,127.8 	"/>
	<polygon fill="#231F20" points="73.2,127.7 73.2,127.5 73.2,127.6 73.2,127.8 	"/>
	<polygon fill="#231F20" points="73.2,127.7 73.2,127.5 73.2,127.6 73.2,127.8 	"/>
	<polygon fill="#231F20" points="73.2,127.7 73.2,127.5 73.2,127.6 73.2,127.8 	"/>
	<polygon fill="#231F20" points="73.2,127.7 73.2,127.5 73.2,127.6 73.2,127.8 	"/>
	<polygon fill="#231F20" points="73.2,127.7 73.2,127.5 73.2,127.6 73.2,127.8 	"/>
	<polygon fill="#231F20" points="73.2,127.8 73.2,127.8 73.2,127.9 73.2,127.9 	"/>
	<polygon fill="#231F20" points="73.2,127.8 73.2,127.8 73.2,127.9 73.2,127.9 	"/>
	<polygon fill="#231F20" points="73.2,127.8 73.2,127.8 73.2,127.9 73.2,127.9 	"/>
	<polygon fill="#231F20" points="73.2,127.8 73.2,127.8 73.2,127.9 73.2,127.9 	"/>
	<polygon fill="#231F20" points="73.2,127.8 73.2,127.8 73.2,127.9 73.2,127.9 	"/>
	<polygon fill="#231F20" points="73.2,127.8 73.2,127.8 73.2,127.9 73.2,127.9 	"/>
	<polygon fill="#231F20" points="73.2,127.8 73.2,127.8 73.2,127.9 73.2,127.9 	"/>
	<polygon fill="#231F20" points="73.2,127.8 73.2,127.8 73.2,127.9 73.2,127.9 	"/>
	<polygon fill="#231F20" points="73.2,127.8 73.2,127.8 73.2,127.6 73.2,127.7 	"/>
	<polygon fill="#231F20" points="73.2,127.8 73.2,127.8 73.2,127.6 73.2,127.7 	"/>
	<polygon fill="#231F20" points="73.2,127.8 73.2,127.8 73.2,127.6 73.2,127.7 	"/>
	<polygon fill="#231F20" points="73.2,127.8 73.2,127.8 73.2,127.6 73.2,127.7 	"/>
	<polygon fill="#231F20" points="73.2,127.8 73.2,127.8 73.2,127.6 73.2,127.7 	"/>
	<polygon fill="#231F20" points="73.2,127.8 73.2,127.8 73.2,127.6 73.2,127.7 	"/>
	<polygon fill="#231F20" points="73.2,127.8 73.2,127.8 73.2,127.6 73.2,127.7 	"/>
	<polygon fill="#231F20" points="73.2,127.8 73.2,127.8 73.2,127.6 73.2,127.7 	"/>
	<polygon fill="#231F20" points="73.2,127.7 73.2,127.7 73.2,127.8 73.2,127.8 73.2,127.8 73.2,127.8 73.2,127.8 	"/>
	<polygon fill="#231F20" points="73.2,127.7 73.2,127.7 73.2,127.8 73.2,127.8 73.2,127.8 73.2,127.8 73.2,127.8 	"/>
	<polygon fill="#231F20" points="73.2,127.7 73.2,127.7 73.2,127.8 73.2,127.8 73.2,127.8 73.2,127.8 73.2,127.8 	"/>
	<polygon fill="#231F20" points="73.2,127.7 73.2,127.7 73.2,127.8 73.2,127.8 73.2,127.8 73.2,127.8 73.2,127.8 	"/>
	<polygon fill="#231F20" points="73.2,127.7 73.2,127.7 73.2,127.8 73.2,127.8 73.2,127.8 73.2,127.8 73.2,127.8 	"/>
	<polygon fill="#231F20" points="73.2,127.7 73.2,127.7 73.2,127.8 73.2,127.8 73.2,127.8 73.2,127.8 73.2,127.8 	"/>
	<polygon fill="#231F20" points="73.2,127.7 73.2,127.7 73.2,127.8 73.2,127.8 73.2,127.8 73.2,127.8 73.2,127.8 	"/>
	<polygon fill="#231F20" points="73.2,127.7 73.2,127.7 73.2,127.8 73.2,127.8 73.2,127.8 73.2,127.8 73.2,127.8 	"/>
	<polygon fill="#231F20" points="73.2,127.7 73.2,127.7 73.2,127.8 73.2,127.8 73.2,127.8 73.2,127.8 73.2,127.8 	"/>
	<polygon fill="#231F20" points="73.2,127.7 73.2,127.7 73.2,127.7 73.2,127.7 73.2,127.8 73.2,127.8 	"/>
	<polygon fill="#231F20" points="73.2,127.7 73.2,127.7 73.2,127.7 73.2,127.7 73.2,127.8 73.2,127.8 	"/>
	<polygon fill="#231F20" points="73.2,127.7 73.2,127.7 73.2,127.7 73.2,127.7 73.2,127.8 73.2,127.8 	"/>
	<polygon fill="#231F20" points="73.2,127.7 73.2,127.7 73.2,127.7 73.2,127.7 73.2,127.8 73.2,127.8 	"/>
	<polygon fill="#231F20" points="73.2,127.7 73.2,127.7 73.2,127.7 73.2,127.7 73.2,127.8 73.2,127.8 	"/>
	<polygon fill="#231F20" points="73.2,127.7 73.2,127.7 73.2,127.7 73.2,127.7 73.2,127.8 73.2,127.8 	"/>
	<polygon fill="#231F20" points="73.2,127.7 73.2,127.7 73.2,127.7 73.2,127.7 73.2,127.8 73.2,127.8 	"/>
	<polygon fill="#231F20" points="73.2,127.7 73.2,127.7 73.2,127.7 73.2,127.7 73.2,127.8 73.2,127.8 	"/>
	<polygon fill="#231F20" points="73.2,127.7 73.2,127.7 73.2,127.7 73.2,127.7 73.2,127.8 73.2,127.8 	"/>
	<polygon fill="#231F20" points="73.2,127.7 73.2,127.7 73.2,127.7 73.2,127.7 73.2,127.8 73.2,127.8 	"/>
	<polygon fill="#231F20" points="73.2,127.7 73.2,127.7 73.2,127.7 	"/>
	<polygon fill="#231F20" points="73.2,127.7 73.2,127.7 73.2,127.7 	"/>
	<polygon fill="#231F20" points="73.2,127.7 73.2,127.7 73.2,127.7 	"/>
	<polygon fill="#231F20" points="73.2,127.7 73.2,127.7 73.2,127.7 	"/>
	<polygon fill="#231F20" points="73.2,127.7 73.2,127.7 73.2,127.7 	"/>
	<polygon fill="#231F20" points="73.2,127.7 73.2,127.7 73.2,127.7 	"/>
	<polygon fill="#231F20" points="73.2,127.7 73.2,127.7 73.2,127.7 	"/>
	<polygon fill="#231F20" points="73.2,127.7 73.2,127.7 73.2,127.7 	"/>
	<polygon fill="#231F20" points="73.2,127.7 73.2,127.7 73.2,127.7 	"/>
	<polygon fill="#231F20" points="73.2,127.7 73.2,127.7 73.2,127.7 	"/>
	<polygon fill="#231F20" points="73.2,127.7 73.2,127.7 73.2,127.7 	"/>
	<polygon fill="#231F20" points="91.7,15.9 74.1,122.6 73.3,128.3 73.1,128.3 73.1,128.4 73.3,128.4 91.9,16 	"/>
	<polygon fill="#231F20" points="74.1,122.6 73.6,125.7 73.3,128.3 73.1,128.3 73.1,128.3 73.3,128.3 	"/>
	<polygon fill="#231F20" points="74.1,122.6 73.6,125.7 73.3,128.3 73.1,128.3 73.1,128.3 73.3,128.3 	"/>
	<polygon fill="#231F20" points="73.3,128.2 73.2,128.2 73.1,128.3 73.3,128.3 73.6,125.7 73.4,126.7 	"/>
	<polygon fill="#231F20" points="73.3,128.2 73.2,128.2 73.1,128.3 73.3,128.3 73.6,125.7 73.4,126.7 	"/>
	<polygon fill="#231F20" points="73.3,128.2 73.2,128.2 73.1,128.3 73.3,128.3 73.6,125.7 73.4,126.7 	"/>
	<polygon fill="#231F20" points="73.4,126.7 73.3,127.2 73.3,128.2 73.2,128.1 73.2,128.2 73.3,128.2 	"/>
	<polygon fill="#231F20" points="73.4,126.7 73.3,127.2 73.3,128.2 73.2,128.1 73.2,128.2 73.3,128.2 	"/>
	<polygon fill="#231F20" points="73.4,126.7 73.3,127.2 73.3,128.2 73.2,128.1 73.2,128.2 73.3,128.2 	"/>
	<polygon fill="#231F20" points="73.4,126.7 73.3,127.2 73.3,128.2 73.2,128.1 73.2,128.2 73.3,128.2 	"/>
	<polygon fill="#231F20" points="73.3,128.1 73.2,128.1 73.2,128.1 73.3,128.2 73.3,127.2 73.3,127.5 	"/>
	<polygon fill="#231F20" points="73.3,128.1 73.2,128.1 73.2,128.1 73.3,128.2 73.3,127.2 73.3,127.5 	"/>
	<polygon fill="#231F20" points="73.3,128.1 73.2,128.1 73.2,128.1 73.3,128.2 73.3,127.2 73.3,127.5 	"/>
	<polygon fill="#231F20" points="73.3,128.1 73.2,128.1 73.2,128.1 73.3,128.2 73.3,127.2 73.3,127.5 	"/>
	<polygon fill="#231F20" points="73.3,128.1 73.2,128.1 73.2,128.1 73.3,128.2 73.3,127.2 73.3,127.5 	"/>
	<polygon fill="#231F20" points="73.3,127.5 73.2,127.6 73.2,128 73.2,128 73.2,128.1 73.3,128.1 	"/>
	<polygon fill="#231F20" points="73.3,127.5 73.2,127.6 73.2,128 73.2,128 73.2,128.1 73.3,128.1 	"/>
	<polygon fill="#231F20" points="73.3,127.5 73.2,127.6 73.2,128 73.2,128 73.2,128.1 73.3,128.1 	"/>
	<polygon fill="#231F20" points="73.3,127.5 73.2,127.6 73.2,128 73.2,128 73.2,128.1 73.3,128.1 	"/>
	<polygon fill="#231F20" points="73.3,127.5 73.2,127.6 73.2,128 73.2,128 73.2,128.1 73.3,128.1 	"/>
	<polygon fill="#231F20" points="73.3,127.5 73.2,127.6 73.2,128 73.2,128 73.2,128.1 73.3,128.1 	"/>
	<polygon fill="#231F20" points="73.2,128 73.2,128 73.2,128 73.2,128 73.2,127.6 73.2,127.7 	"/>
	<polygon fill="#231F20" points="73.2,128 73.2,128 73.2,128 73.2,128 73.2,127.6 73.2,127.7 	"/>
	<polygon fill="#231F20" points="73.2,128 73.2,128 73.2,128 73.2,128 73.2,127.6 73.2,127.7 	"/>
	<polygon fill="#231F20" points="73.2,128 73.2,128 73.2,128 73.2,128 73.2,127.6 73.2,127.7 	"/>
	<polygon fill="#231F20" points="73.2,128 73.2,128 73.2,128 73.2,128 73.2,127.6 73.2,127.7 	"/>
	<polygon fill="#231F20" points="73.2,128 73.2,128 73.2,128 73.2,128 73.2,127.6 73.2,127.7 	"/>
	<polygon fill="#231F20" points="73.2,128 73.2,128 73.2,128 73.2,128 73.2,127.6 73.2,127.7 	"/>
	<polygon fill="#231F20" points="73.2,127.7 73.2,127.8 73.2,127.9 73.2,127.9 73.2,128 73.2,128 	"/>
	<polygon fill="#231F20" points="73.2,127.7 73.2,127.8 73.2,127.9 73.2,127.9 73.2,128 73.2,128 	"/>
	<polygon fill="#231F20" points="73.2,127.7 73.2,127.8 73.2,127.9 73.2,127.9 73.2,128 73.2,128 	"/>
	<polygon fill="#231F20" points="73.2,127.7 73.2,127.8 73.2,127.9 73.2,127.9 73.2,128 73.2,128 	"/>
	<polygon fill="#231F20" points="73.2,127.7 73.2,127.8 73.2,127.9 73.2,127.9 73.2,128 73.2,128 	"/>
	<polygon fill="#231F20" points="73.2,127.7 73.2,127.8 73.2,127.9 73.2,127.9 73.2,128 73.2,128 	"/>
	<polygon fill="#231F20" points="73.2,127.7 73.2,127.8 73.2,127.9 73.2,127.9 73.2,128 73.2,128 	"/>
	<polygon fill="#231F20" points="73.2,127.7 73.2,127.8 73.2,127.9 73.2,127.9 73.2,128 73.2,128 	"/>
	<polygon fill="#231F20" points="73.2,127.8 73.2,127.8 73.2,127.9 73.2,127.9 73.2,127.8 73.2,127.8 	"/>
	<polygon fill="#231F20" points="73.2,127.8 73.2,127.8 73.2,127.9 73.2,127.9 73.2,127.8 73.2,127.8 	"/>
	<polygon fill="#231F20" points="73.2,127.8 73.2,127.8 73.2,127.9 73.2,127.9 73.2,127.8 73.2,127.8 	"/>
	<polygon fill="#231F20" points="73.2,127.8 73.2,127.8 73.2,127.9 73.2,127.9 73.2,127.8 73.2,127.8 	"/>
	<polygon fill="#231F20" points="73.2,127.8 73.2,127.8 73.2,127.9 73.2,127.9 73.2,127.8 73.2,127.8 	"/>
	<polygon fill="#231F20" points="73.2,127.8 73.2,127.8 73.2,127.9 73.2,127.9 73.2,127.8 73.2,127.8 	"/>
	<polygon fill="#231F20" points="73.2,127.8 73.2,127.8 73.2,127.9 73.2,127.9 73.2,127.8 73.2,127.8 	"/>
	<polygon fill="#231F20" points="73.2,127.8 73.2,127.8 73.2,127.9 73.2,127.9 73.2,127.8 73.2,127.8 	"/>
	<polygon fill="#231F20" points="73.2,127.8 73.2,127.8 73.2,127.9 73.2,127.9 73.2,127.8 73.2,127.8 	"/>
	<polygon fill="#231F20" points="73.2,127.8 73.2,127.8 73.2,127.8 	"/>
	<polygon fill="#231F20" points="73.2,127.8 73.2,127.8 73.2,127.8 	"/>
	<polygon fill="#231F20" points="73.2,127.8 73.2,127.8 73.2,127.8 	"/>
	<polygon fill="#231F20" points="73.2,127.8 73.2,127.8 73.2,127.8 	"/>
	<polygon fill="#231F20" points="73.2,127.8 73.2,127.8 73.2,127.8 	"/>
	<polygon fill="#231F20" points="73.2,127.8 73.2,127.8 73.2,127.8 	"/>
	<polygon fill="#231F20" points="73.2,127.8 73.2,127.8 73.2,127.8 	"/>
	<polygon fill="#231F20" points="73.2,127.8 73.2,127.8 73.2,127.8 	"/>
	<polygon fill="#231F20" points="73.2,127.8 73.2,127.8 73.2,127.8 	"/>
	<polygon fill="#231F20" points="73.2,127.8 73.2,127.8 73.2,127.8 	"/>
</g>
</svg>
